<svg xmlns="http://www.w3.org/2000/svg" width="87.713" height="36.369" viewBox="0 0 87.713 36.369">
    <g id="prefix__A1f" transform="translate(-569.643 -579.674)">
        <g id="prefix__KVtF4K">
            <g id="prefix__Group_114" data-name="Group 114">
                <path id="prefix__Path_81" fill="#999" d="M587.679 608.779c.013-1.017.035-2.035.038-3.052.006-2.132-.017-4.264.015-6.4.009-.56-.171-.7-.7-.678-.917.042-1.838.011-2.821.011 0-1.187-.013-2.314.021-3.439 0-.112.289-.3.448-.308.979-.029 1.959-.015 3.043-.015 0-.291-.012-.545 0-.8a26.357 26.357 0 0 1 .245-3.761 4.1 4.1 0 0 1 4.047-3.382c1.032-.057 2.07.005 3.1.018.388 0 .568.178.553.6-.027.772-.023 1.547 0 2.319.011.393-.128.528-.523.528a18.39 18.39 0 0 0-2.253.093 1.29 1.29 0 0 0-1.269 1.4c-.044.865-.005 1.735-.02 2.6-.006.353.191.391.469.389.981-.006 1.962 0 2.943-.005.294 0 .477.058.424.413-.164 1.094-.316 2.19-.482 3.353-.946 0-1.884.012-2.821-.007-.374-.007-.539.089-.538.5.014 3.131.009 6.263.011 9.394a1.718 1.718 0 0 0 .03.224z" data-name="Path 81"/>
            </g>
        </g>
        <text id="prefix__分享" fill="#999" font-family="MicrosoftJhengHeiBold, Microsoft JhengHei" font-size="14.262px" transform="translate(604.761 603.057)">
            <tspan x="0" y="0">分享</tspan>
        </text>
        <rect id="prefix__Rectangle_37" width="87" height="35.656" fill="none" stroke="#999" stroke-miterlimit="10" stroke-width="0.713px" data-name="Rectangle 37" rx="11.915" transform="translate(570 580.03)"/>
    </g>
</svg>
