<svg xmlns="http://www.w3.org/2000/svg" width="36.21" height="30.621" viewBox="0 0 36.21 30.621">
    <g id="dot" transform="translate(-84.423 -158)">
        <path id="Path_37" fill="#f96" d="M95.117 175.471a22.379 22.379 0 0 1-7.335 8.15l-3.027-3.376a18.123 18.123 0 0 0 7.8-13.273H83.94V153h13.855v12.808a20.2 20.2 0 0 1-2.678 9.663zm22.355 0a24.666 24.666 0 0 1-7.335 8.15l-3.144-3.376a18.124 18.124 0 0 0 7.8-13.273h-8.5V153h13.857v12.808a20.211 20.211 0 0 1-2.678 9.663z" data-name="Path 37" transform="translate(.483 5)"/>
    </g>
</svg>
