<svg xmlns="http://www.w3.org/2000/svg" width="207" height="288.106" viewBox="0 0 207 288.106">
    <defs>
        <style>
            .prefix__cls-2{fill:none;stroke:#fff;stroke-linecap:round;stroke-linejoin:round;stroke-width:2px}
        </style>
    </defs>
    <g id="prefix__link2" transform="translate(-540.282 -7392)">
        <circle id="prefix__Ellipse_13" cx="103.5" cy="103.5" r="103.5" fill="#fc6" data-name="Ellipse 13" transform="translate(540.282 7392)"/>
        <g id="prefix__Group_98" data-name="Group 98">
            <g id="prefix__Group_96" data-name="Group 96">
                <path id="prefix__Path_57" d="M628.191 7452.734l-32.538 18.981 48.807 27.115 48.13-27.793-33.19-18.737" class="prefix__cls-2" data-name="Path 57"/>
                <ellipse id="prefix__Ellipse_14" cx="17.643" cy="10.416" class="prefix__cls-2" data-name="Ellipse 14" rx="17.643" ry="10.416" transform="rotate(-72.3 5423.591 3302.372)"/>
                <path id="prefix__Line_19" d="M0 14.913L29.827 0" class="prefix__cls-2" data-name="Line 19" transform="translate(629.547 7463.58)"/>
                <path id="prefix__Path_58" d="M644.46 7498.83v18.98l-49.485-26.437v-20.336" class="prefix__cls-2" data-name="Path 58"/>
                <path id="prefix__Path_59" d="M644.46 7517.811l48.13-26.437v-20.336" class="prefix__cls-2" data-name="Path 59"/>
                <path id="prefix__Path_60" d="M601.274 7494.739v35.274l43.186 24.4v-32.538" class="prefix__cls-2" data-name="Path 60"/>
                <path id="prefix__Path_61" d="M644.46 7554.416l43.384-24.4v-36.033" class="prefix__cls-2" data-name="Path 61"/>
            </g>
            <g id="prefix__Group_97" data-name="Group 97">
                <path id="prefix__Path_62" fill="#fff" d="M645.238 7445.4l.009 1.887a2.631 2.631 0 0 1 1.684-.136 2.674 2.674 0 0 1 1.255 1.084l-1.693 1.947a1.389 1.389 0 0 0-2.012-.483 3.4 3.4 0 0 0-1.269 1.173 2.724 2.724 0 0 0-.5 1.517.974.974 0 0 0 .414.92 3.531 3.531 0 0 0 1.625.193 10.577 10.577 0 0 1 1.747.076 2.417 2.417 0 0 1 1.04.354 2.582 2.582 0 0 1 1 2.32 7.226 7.226 0 0 1-.875 3.355 9.1 9.1 0 0 1-2.342 2.918l.008 1.993-1.523.8-.01-1.935a3.193 3.193 0 0 1-2.61.077 3.52 3.52 0 0 1-1.339-2.362l1.915-1.456a2.714 2.714 0 0 0 .968 1.584 1.789 1.789 0 0 0 1.579-.236 4.2 4.2 0 0 0 1.6-1.53 3.825 3.825 0 0 0 .626-2.078 1.309 1.309 0 0 0-.538-1.249 2.6 2.6 0 0 0-.8-.209 8.534 8.534 0 0 0-1.349-.056 3.743 3.743 0 0 1-2.229-.368 2.368 2.368 0 0 1-.857-2.065 5.114 5.114 0 0 1 .194-1.4 6.6 6.6 0 0 1 .575-1.39 7.959 7.959 0 0 1 .931-1.336 9.8 9.8 0 0 1 1.261-1.226l-.009-1.887z" data-name="Path 62"/>
            </g>
        </g>
        <text id="prefix__立即捐款響應" fill="#fc6" font-family="MicrosoftJhengHeiBold, Microsoft JhengHei" font-size="26.764px" letter-spacing="0.08em" transform="translate(642.825 7673.106)">
            <tspan x="-85.645" y="0">立即捐款響應</tspan>
        </text>
    </g>
</svg>
