<svg xmlns="http://www.w3.org/2000/svg" width="113.122" height="127.5" viewBox="0 0 113.122 127.5">
    <defs>
        <style>
            .prefix__cls-1{fill:#f96;stroke:#f96;stroke-miterlimit:10;stroke-width:.5px}
        </style>
    </defs>
    <g id="prefix__Symbol_36_1" data-name="Symbol 36 – 1" transform="translate(-88.572 -48.75)">
        <path id="prefix__Path_4" d="M88.822 49h7.852v2.936h-4.862v2.872h4.862V57.7h-4.862v7.12h-2.99z" class="prefix__cls-1" data-name="Path 4"/>
        <path id="prefix__Path_5" d="M115.2 49h3.192a10.548 10.548 0 0 1 3.733.468 3.832 3.832 0 0 1 1.789 1.554 4.768 4.768 0 0 1 .677 2.571 4.38 4.38 0 0 1-.748 2.608 4.538 4.538 0 0 1-2.253 1.587l3.748 7.034h-3.292l-3.558-6.7h-.276v6.7H115.2zm3.012 6.185h.944a3.681 3.681 0 0 0 1.978-.378 1.418 1.418 0 0 0 .542-1.252 1.539 1.539 0 0 0-.268-.9 1.5 1.5 0 0 0-.719-.55 5.421 5.421 0 0 0-1.651-.168h-.826z" class="prefix__cls-1" data-name="Path 5"/>
        <path id="prefix__Path_6" d="M143.2 49h2.99v15.822h-2.99z" class="prefix__cls-1" data-name="Path 6"/>
        <path id="prefix__Path_7" d="M165.224 49h8.637v2.947h-5.647v2.861h5.647V57.7h-5.647v4.162h5.647v2.958h-8.637z" class="prefix__cls-1" data-name="Path 7"/>
        <path id="prefix__Path_8" d="M192.394 57.626h5.464v2.732h-5.464z" class="prefix__cls-1" data-name="Path 8"/>
        <path id="prefix__Path_9" d="M113.93 85.76h2.889l6.77 10.412V85.76h3.011v15.822h-2.9L116.942 91.2v10.379h-3.012z" class="prefix__cls-1" data-name="Path 9"/>
        <path id="prefix__Path_10" d="M138.419 85.76h3.568a11.758 11.758 0 0 1 5.126.855 6.681 6.681 0 0 1 2.762 2.78 9.742 9.742 0 0 1 .478 7.858 6.969 6.969 0 0 1-1.676 2.543 5.912 5.912 0 0 1-2.316 1.4 16.5 16.5 0 0 1-4.32.387h-3.622zm2.99 2.9v9.982h1.4a7 7 0 0 0 2.995-.474 3.588 3.588 0 0 0 1.522-1.594 5.847 5.847 0 0 0 .592-2.756 5.243 5.243 0 0 0-1.409-3.909 5.644 5.644 0 0 0-4.077-1.249z" class="prefix__cls-1" data-name="Path 10"/>
        <path id="prefix__Path_11" d="M165.842 85.76h3.012v12.95h4.388v2.872h-7.4z" class="prefix__cls-1" data-name="Path 11"/>
        <path id="prefix__Path_12" d="M188.968 85.76h3.232l2.951 5.692 2.938-5.692h3.193l-4.631 8.97v6.852h-3.031V94.73z" class="prefix__cls-1" data-name="Path 12"/>
        <path id="prefix__Path_13" d="M115.665 141.16l7.1-19.092h2.1l-7.113 19.092z" class="prefix__cls-1" data-name="Path 13"/>
        <path id="prefix__Path_14" d="M143.171 122.52h3.054l6.085 15.822h-3.13l-1.237-3.259h-6.457l-1.287 3.259h-3.13zm1.546 4.195l-2.123 5.431h4.233z" class="prefix__cls-1" data-name="Path 14"/>
        <path id="prefix__Path_15" d="M177.206 125.3l-2.107 2.008a6.519 6.519 0 0 0-4.835-2.271 5.3 5.3 0 0 0-5.374 5.372 5.661 5.661 0 0 0 .688 2.811 4.938 4.938 0 0 0 1.945 1.927 5.653 5.653 0 0 0 2.794.7 5.771 5.771 0 0 0 2.4-.489 8.611 8.611 0 0 0 2.385-1.782l2.042 2.13a11.189 11.189 0 0 1-3.313 2.373 9.04 9.04 0 0 1-3.56.662 8.193 8.193 0 0 1-6.039-2.34 8.1 8.1 0 0 1-2.35-6 8.2 8.2 0 0 1 1.07-4.206 7.958 7.958 0 0 1 3.065-2.958 8.653 8.653 0 0 1 4.3-1.118 9.125 9.125 0 0 1 6.895 3.178z" class="prefix__cls-1" data-name="Path 15"/>
        <path id="prefix__Path_16" d="M190.754 122.52h8.746v2.968h-2.882v12.854h-3.055v-12.854h-2.807z" class="prefix__cls-1" data-name="Path 16"/>
        <path id="prefix__Path_17" d="M118.77 159.28h2.99v15.82h-2.99z" class="prefix__cls-1" data-name="Path 17"/>
        <path id="prefix__Path_18" d="M144.722 158.882a7.857 7.857 0 0 1 5.775 2.431 8.091 8.091 0 0 1 2.416 5.926 8 8 0 0 1-2.384 5.862 8.261 8.261 0 0 1-11.705-.064 8.314 8.314 0 0 1 5.9-14.155zm-.032 2.947a4.968 4.968 0 0 0-3.69 1.527 5.32 5.32 0 0 0-1.5 3.883 5.058 5.058 0 0 0 1.885 4.152 5.163 5.163 0 0 0 3.359 1.194 4.908 4.908 0 0 0 3.65-1.549 5.583 5.583 0 0 0-.011-7.642 4.952 4.952 0 0 0-3.693-1.565z" class="prefix__cls-1" data-name="Path 18"/>
        <path id="prefix__Path_19" d="M163.207 159.28h2.893l6.77 10.411V159.28h3.011v15.82h-2.9l-6.761-10.38v10.38h-3.012z" class="prefix__cls-1" data-name="Path 19"/>
        <path id="prefix__Path_20" d="M194.287 164.9h-2.71v-1.492a7.561 7.561 0 0 1 .349-2.432 7.382 7.382 0 0 1 1.178-2.1l1.054.828a6.7 6.7 0 0 0-.586 1 7.351 7.351 0 0 0-.371 1.119h1.086zm4.389 0h-2.711v-1.492a7.681 7.681 0 0 1 .344-2.432 7.169 7.169 0 0 1 1.183-2.1l1.054.828a6.7 6.7 0 0 0-.586 1 7.464 7.464 0 0 0-.371 1.119h1.087z" class="prefix__cls-1" data-name="Path 20"/>
        <g id="prefix__Group_20" data-name="Group 20">
            <path id="prefix__Path_21" d="M102.381 176H88.958V86.084h2.067v87.849h11.355z" class="prefix__cls-1" data-name="Path 21"/>
        </g>
    </g>
</svg>
