<svg xmlns="http://www.w3.org/2000/svg" width="167.998" height="38.05" viewBox="0 0 167.998 38.05">
    <defs>
        <style>
            .prefix__cls-1{fill:#ec6c00}.prefix__cls-2{fill:#231815}
        </style>
    </defs>
    <g id="prefix__logo" transform="translate(-1163.801 -49)">
        <g id="prefix__Group_25" data-name="Group 25">
            <path id="prefix__Path_23" d="M1186.458 79.242a1.7 1.7 0 0 0-.881-.515 3.6 3.6 0 0 0-.847-.077h-1c-.2 0-.348 0-.428.012a.434.434 0 0 0-.217.1.276.276 0 0 0-.11.146 2.28 2.28 0 0 0-.018.351v2.461a.525.525 0 0 0 .1.371.412.412 0 0 0 .217.12 3.559 3.559 0 0 0 .46.018h1.02a3.384 3.384 0 0 0 .93-.108 1.5 1.5 0 0 0 .5-.241 1.572 1.572 0 0 0 .511-.575 1.855 1.855 0 0 0 .173-.854 2.3 2.3 0 0 0-.065-.561 1.443 1.443 0 0 0-.345-.648zm-1.032 2.283a1.831 1.831 0 0 1-.842.147h-.709V79.21h.613a2.969 2.969 0 0 1 .656.052 1.007 1.007 0 0 1 .388.191.943.943 0 0 1 .27.345 1.518 1.518 0 0 1 .121.643 1.127 1.127 0 0 1-.497 1.084z" class="prefix__cls-1" data-name="Path 23"/>
            <path id="prefix__Path_24" d="M1191.011 81.7a.4.4 0 0 0-.135-.025 1.186 1.186 0 0 0-.141-.007h-2.141v-1.022h1.767c.129 0 .231-.006.3-.013a.325.325 0 0 0 .171-.071.248.248 0 0 0 .11-.2.237.237 0 0 0-.026-.116.417.417 0 0 0-.089-.1.315.315 0 0 0-.153-.052 1.885 1.885 0 0 0-.312-.019h-1.767v-.865h1.924a2.914 2.914 0 0 0 .32-.012.327.327 0 0 0 .167-.063.251.251 0 0 0 .108-.205.225.225 0 0 0-.032-.121.3.3 0 0 0-.076-.082.392.392 0 0 0-.244-.077h-2.315c-.208 0-.35 0-.425.012a.422.422 0 0 0-.217.1.259.259 0 0 0-.109.146 1.72 1.72 0 0 0-.02.351v2.366a1.838 1.838 0 0 0 .02.337.3.3 0 0 0 .121.166.383.383 0 0 0 .17.089 2.476 2.476 0 0 0 .322.012h2.281c.119 0 .214 0 .287-.005a.491.491 0 0 0 .179-.051.253.253 0 0 0 .141-.223.229.229 0 0 0-.059-.146.282.282 0 0 0-.127-.104z" class="prefix__cls-1" data-name="Path 24"/>
            <path id="prefix__Path_25" d="M1195.747 78.883a.282.282 0 0 0-.108-.185.5.5 0 0 0-.32-.107.432.432 0 0 0-.183.032.643.643 0 0 0-.134.082.244.244 0 0 0-.09.14.846.846 0 0 0-.018.166v2.13l-1.774-2.11-.255-.294a.505.505 0 0 0-.389-.146.693.693 0 0 0-.191.025.7.7 0 0 0-.172.082.324.324 0 0 0-.172.218c-.007.081-.013.213-.013.395v2.423a1.563 1.563 0 0 0 .02.293.316.316 0 0 0 .094.165.473.473 0 0 0 .318.109.446.446 0 0 0 .186-.033.568.568 0 0 0 .139-.076.214.214 0 0 0 .085-.127 1.067 1.067 0 0 0 .019-.249v-2.033l1.733 2.072a1.917 1.917 0 0 0 .358.363.548.548 0 0 0 .326.083.492.492 0 0 0 .47-.223.8.8 0 0 0 .078-.4v-2.515c0-.114-.002-.207-.007-.28z" class="prefix__cls-1" data-name="Path 25"/>
            <path id="prefix__Path_26" d="M1171.422 79.176h4.769a2.514 2.514 0 1 0 .148-2.572h-4.752a7.046 7.046 0 0 1 11.629-3.282v-2.284a8.867 8.867 0 0 0-13.494 5.566h-2.874l7.24-10.269v-6.444a11.1 11.1 0 0 0-.1-1.635 3.46 3.46 0 0 0-.457-1.259 1.674 1.674 0 0 0-.8-.769 3.776 3.776 0 0 0-1.258-.162h-5.161a3.428 3.428 0 0 0-1.108.147 1.727 1.727 0 0 0-.8.693 3.067 3.067 0 0 0-.489 1.055 6.97 6.97 0 0 0-.114 1.436v1.946h1.726V58.7h5.144v7.213l-6.87 9.4v3.857h5.788a8.86 8.86 0 0 0 13.627 6.447v-2.278a7.034 7.034 0 0 1-11.794-4.163z" class="prefix__cls-1" data-name="Path 26"/>
            <path id="prefix__Path_27" d="M1177.107 68.244a10.057 10.057 0 0 1 11.618 8.681h.071a1.177 1.177 0 0 0 1.1.777h2.517a1.179 1.179 0 0 0 0-2.358h-1.2a12.881 12.881 0 0 0-6.28-8.344v-2.212h1.749a1.009 1.009 0 0 0 1.008-1.01v-.653a1.008 1.008 0 0 0-1.008-1.009h-1.749v-2.941h-.032a3.607 3.607 0 0 0-3.264-3.358 3.448 3.448 0 1 0-1.342.014 3.6 3.6 0 0 0-3.171 3.344h-.032v8.376h.015z" class="prefix__cls-1" data-name="Path 27"/>
        </g>
        <g id="prefix__Group_32" data-name="Group 32">
            <g id="prefix__Group_26" data-name="Group 26">
                <path id="prefix__Path_28" d="M1230.3 62.741l.019-.007c-.037.011-.037.012-.019.007z" class="prefix__cls-2" data-name="Path 28"/>
                <path id="prefix__Path_29" d="M1245.168 74.682a2.027 2.027 0 0 0 .423-1.209v-9.162a2.177 2.177 0 0 0-.37-1.234 1.415 1.415 0 0 0-1.061-.44h-13.287a3.335 3.335 0 0 0-.575.1c-1.025.325-.91 1.57-.91 1.57v9.162a1.859 1.859 0 0 0 .4 1.233 1.9 1.9 0 0 0 1.086.368h13.287a1.457 1.457 0 0 0 1.007-.388zm-9.428-1.013h-2.5a.948.948 0 0 1-.556-.148.5.5 0 0 1-.212-.44v-3.544h3.269zm0-5.5h-3.269v-3.488a.812.812 0 0 1 .185-.54.846.846 0 0 1 .583-.17h2.5zm6.75 4.908a.7.7 0 0 1-.185.416.492.492 0 0 1-.45.172h-3.015v-4.128h3.65zm0-4.906h-3.65v-4.2h3.015a.611.611 0 0 1 .5.2 3.542 3.542 0 0 1 .132.794z" class="prefix__cls-2" data-name="Path 29"/>
                <path id="prefix__Path_30" d="M1249.673 58.583c-.342-.609-1.736-.743-2.564-.743h-14.372c.23-.577.6-1.694-.1-2.2a3.807 3.807 0 0 0-.943-.329 2.806 2.806 0 0 0-1.195.11 1.053 1.053 0 0 0-.357.583 20.843 20.843 0 0 1-4 7.655 2.234 2.234 0 0 0-.412.764 1.153 1.153 0 0 0 .142.773c.23.408 1.048.323 1.25.307.56-.051 1.156-.724 2.309-2.263l1.421-2.055c.919-1.532 1.016-1.305 1.237-1.846h12.736a4.116 4.116 0 0 1 1.741.193s.4.063.32 3.164v12.591a2.934 2.934 0 0 1-3.179 2.857h-3.3a.546.546 0 0 0-.393.588c0 .51.353.51.353.51h5.731s3.824-.863 3.824-3.375l.062-.983V60.649a4.442 4.442 0 0 0-.311-2.066z" class="prefix__cls-2" data-name="Path 30"/>
            </g>
            <g id="prefix__Group_27" data-name="Group 27">
                <path id="prefix__Path_31" d="M1222.68 63.67h-1.1v-5.654c-.017-.525-.177-.541-.483-.88a2.038 2.038 0 0 0-1.478-.643l-12.563-.008c-.29 0-.5.369-.5.678s.206.689.5.689h4.687v5.818h-6.043c-.215.2-.4.364-.4.592 0 .459.187.552.4.779h6.052v5.569h-4.709a.788.788 0 0 0-.535.7.718.718 0 0 0 .535.662l4.767-.009c-.208 2.452-.682 4.068-2.411 5.152a9.042 9.042 0 0 1-2.516 1.058s-.908.2-.727.742c0 0-.1.264.549.372a6.337 6.337 0 0 0 3.61-1.014 9.076 9.076 0 0 0 4.548-6.285h4.435a2.367 2.367 0 0 0 1.732-.711 1.905 1.905 0 0 0 .559-1.436v-4.8l1.1-.009a.878.878 0 0 0 .343-.787c-.009-.467-.441-.575-.352-.575zm-4.21 6.058a.983.983 0 0 1-.255.731c-.153.152-.084.135-.389.135h-2.981v-5.548h3.625zm.009-6.058h-3.638v-5.815h2.874a.58.58 0 0 1 .535.2 1.353 1.353 0 0 1 .229.81z" class="prefix__cls-2" data-name="Path 31"/>
                <path id="prefix__Path_32" d="M1205.261 55.7a1.277 1.277 0 0 0-.671-.305 4.167 4.167 0 0 0-1.3.192.891.891 0 0 0-.28.534 29.414 29.414 0 0 1-1.321 6.156 36.865 36.865 0 0 1-2.884 5.383.836.836 0 0 0-.082.569.581.581 0 0 0 .224.465 2.762 2.762 0 0 0 1.114.185 1.077 1.077 0 0 0 .752-.356 10.687 10.687 0 0 0 1.032-1.921.485.485 0 0 0-.012.068v12.1c0 .509 1.011.932 1.491.932s1.217-.423 1.217-.932V60.9a22.513 22.513 0 0 0 1-4.6 1.231 1.231 0 0 0-.28-.6z" class="prefix__cls-2" data-name="Path 32"/>
            </g>
            <g id="prefix__Group_31" data-name="Group 31">
                <g id="prefix__Group_28" data-name="Group 28">
                    <path id="prefix__Path_33" d="M1278.123 74.606a35.646 35.646 0 0 1-4.2-4.731h3.585c.112-.106.442-.393.46-.594 0-.218-.332-.6-.566-.788h-3.466v-9.362h2.459c.209 0 .38-.371.38-.592a1.085 1.085 0 0 0-.38-.764h-2.459l.005-1.195c0-.71-1.093-1.278-1.762-1.278a1.361 1.361 0 0 0-1.348 1.278v1.2h-9.407l.017-1.129a1.4 1.4 0 0 0-1.457-1.2c-.668 0-1.576.493-1.576 1.2l.051 1.119h-2.85a1.117 1.117 0 0 0-.408.764c0 .221.2.592.408.592h2.8V68.5h-3.373c-.219.176-.761.628-.626.779.117.117.08.4.626.575h3.45a27.947 27.947 0 0 1-4.378 4.73c-.444.37-.643.684-.478 1.167s.668.457 1.122.282c0 0 .154-.084.377-.224a26.293 26.293 0 0 0 6.729-5.946h8.477a24.312 24.312 0 0 0 6.723 5.719l.533.33c.453.176.745.184 1-.258.154-.271-.079-.698-.468-1.048zm-7.29-6.113h-9.333v-2.239h9.333zm0-3.556h-9.333v-2.311h9.333zm0-3.693h-9.333v-2.118h9.333z" class="prefix__cls-2" data-name="Path 33"/>
                    <path id="prefix__Path_34" d="M1275.56 77.993h-7.935V74.45h4.132c.312-.252.559-.28.559-.611a.979.979 0 0 0-.559-.78l-4.154.013v-1.281a1.482 1.482 0 0 0-1.578-1.317 1.572 1.572 0 0 0-1.491 1.383l.006 1.215-4.24-.013a.956.956 0 0 0-.542.78c0 .331.229.359.542.611h4.213V78l-.232-.005h-7.406c-.311.36-.478.337-.478.669a.669.669 0 0 0 .478.695h18.685a.663.663 0 0 0 .471-.695c0-.334-.159-.311-.471-.671z" class="prefix__cls-2" data-name="Path 34"/>
                </g>
                <g id="prefix__Group_29" data-name="Group 29">
                    <path id="prefix__Path_35" d="M1304.788 62.907a.972.972 0 0 0-.449-.445c-3.164-1.781-4.508-2.517-5.854-3.46-1.546-1.047-2.436-1.85-4.095-3.057a2.571 2.571 0 0 0-1.393-.524 2.192 2.192 0 0 0-1.265.524c-1.659 1.207-2.677 2.01-4.222 3.057-1.348.943-2.692 1.679-5.855 3.46a.971.971 0 0 0-.449.445 1.011 1.011 0 0 0 0 .627c.066.227.434.328.65.3.933-.118 8.516-4.375 10.1-5.25a1.955 1.955 0 0 1 2.088 0c1.67 1.083 9.086 5.022 10.154 5.25a.536.536 0 0 0 .593-.3 1.025 1.025 0 0 0-.003-.627z" class="prefix__cls-2" data-name="Path 35"/>
                    <path id="prefix__Path_36" d="M1303.293 68.455h-9.014v-4.672h5.448a.853.853 0 0 0 .389-.7c0-.29-.13-.626-.389-.626H1286.1c-.26 0-.416.336-.416.626a.881.881 0 0 0 .416.7h5.089v4.672h-8.867a1.02 1.02 0 0 0-.485.789c0 .278.236.434.485.551h8.867V78h-2.134c-.584-1.605-2.01-4.609-2.822-6.343a1.373 1.373 0 0 0-1.489-.2 1.116 1.116 0 0 0-.436 1.716l1.948 4.82h-3.385a2.1 2.1 0 0 0-.388.942.438.438 0 0 0 .388.435h20.189a.419.419 0 0 0 .365-.435 2.027 2.027 0 0 0-.365-.942l-3.84.006 2.177-4.88c.678-1.262-.4-1.657-.4-1.657a1.162 1.162 0 0 0-1.467.21c-.807 1.72-2.212 4.7-2.808 6.333h-2.442v-8.234l9.014.014a.688.688 0 0 0 .447-.6.872.872 0 0 0-.448-.73z" class="prefix__cls-2" data-name="Path 36"/>
                </g>
                <g id="prefix__Group_30" data-name="Group 30">
                    <path id="prefix__Path_37" d="M1331.631 60.422c-.066-.172-.237-.2-.473-.285-4.373-1.639-6.937-2.947-10.124-4.419a2.586 2.586 0 0 0-1.2-.425 2.545 2.545 0 0 0-1.222.5 69.817 69.817 0 0 1-9.85 4.858 1.118 1.118 0 0 0-.473.478 1.18 1.18 0 0 0-.05.6c.017.223.305.3.522.277 1.088-.116 8.522-3.13 10.2-3.979a2.05 2.05 0 0 1 .872-.311 2.088 2.088 0 0 1 .8.232c2.475.947 10.2 3.377 10.642 3.4.911.042.356-.926.356-.926z" class="prefix__cls-2" data-name="Path 37"/>
                    <path id="prefix__Path_38" d="M1326.032 71.28h-13.008a1.65 1.65 0 0 0-1.272.543 1.794 1.794 0 0 0-.5 1.386v4.08a2.706 2.706 0 0 0 .4 1.535 1.648 1.648 0 0 0 1.372.571h13.829a2.061 2.061 0 0 0 1.3-.544c.4-.313.46-1.294.477-1.813l.023-3.747a2.512 2.512 0 0 0-.5-1.493 3.824 3.824 0 0 0-2.121-.518zm-.124 5.884a1.862 1.862 0 0 1-.248.918 1.056 1.056 0 0 1-.675.258h-10.168a.658.658 0 0 1-.6-.233 2.347 2.347 0 0 1-.2-.943v-1.155h11.888zm0-2.255h-11.888l-.012-1.509a1.439 1.439 0 0 1 .358-.774c.117-.173.622-.258.906-.24h9.713a.933.933 0 0 1 .7.237c.15.173.225.221.225.446z" class="prefix__cls-2" data-name="Path 38"/>
                    <path id="prefix__Path_39" d="M1327.615 62.5h-15.3a4.563 4.563 0 0 0-2.245.544 1.886 1.886 0 0 0-.5 1.427v3.164a2.475 2.475 0 0 0 .4 1.46c.266.361 1.772.554 2.42.569h15.76a2.37 2.37 0 0 0 1.564-.544 3.368 3.368 0 0 0 .5-1.736V64.55a2.646 2.646 0 0 0-.5-1.535 3.729 3.729 0 0 0-2.099-.515zm-9.247 5.812h-1.168a5.878 5.878 0 0 0-.333-.584c-1.055-1.5-1.661-3.211-1.827-3.228a.873.873 0 0 0-1.437-.361s-.832.49-.08 1.49a13.2 13.2 0 0 0 1.521 2.683h-1.6a.659.659 0 0 1-.6-.234 3.807 3.807 0 0 1-.2-1.176v-1.946a1.754 1.754 0 0 1 .2-.879.623.623 0 0 1 .6-.234h4.919zm8.749-1.41a2.961 2.961 0 0 1-.249 1.151 1.061 1.061 0 0 1-.674.259h-1.453a13.065 13.065 0 0 0 1.52-2.683c.754-1-.078-1.49-.078-1.49a.873.873 0 0 0-1.438.361c-.167.017-.772 1.73-1.828 3.228a6.148 6.148 0 0 0-.332.584h-1.173v-4.469h4.782a.921.921 0 0 1 .7.234 1.754 1.754 0 0 1 .226.879z" class="prefix__cls-2" data-name="Path 39"/>
                    <path id="prefix__Path_40" d="M1325.157 61.5c.216 0 .483-.5.483-.74s-.2-.614-.483-.614h-9.7a.917.917 0 0 0-.469.844c0 .355.213.51.425.51z" class="prefix__cls-2" data-name="Path 40"/>
                </g>
            </g>
        </g>
    </g>
</svg>
