<svg xmlns="http://www.w3.org/2000/svg" width="12.044" height="17.315" viewBox="0 0 12.044 17.315">
    <g id="Group_27" data-name="Group 27" transform="translate(-171.834 -763.468)">
        <g id="Group_26" data-name="Group 26">
            <g id="Group_25" data-name="Group 25">
                <path id="Path_48" fill="#666" stroke="#666" stroke-miterlimit="10" stroke-width="0.266px" d="M183.745 769.159v5.041a4.891 4.891 0 0 1-.184 1.3 10.826 10.826 0 0 0-.466 2.577 6.129 6.129 0 0 0 .036.989.99.99 0 0 1-.527.98 5.952 5.952 0 0 1-2.9.6 4.883 4.883 0 0 1-2.9-.718.978.978 0 0 1-.43-.8 3.628 3.628 0 0 0-.126-.808c-.037-.126-.067-.232-.093-.326a3.185 3.185 0 0 0-.721-1.349 6.065 6.065 0 0 1-.7-1.746 6.181 6.181 0 0 0-.438-1.215l-2.038-2.391a1.157 1.157 0 0 1-.3-.793 1.2 1.2 0 0 1 .493-.879 1.143 1.143 0 0 1 1.563.093l1.954 1.865v-6.836a1.145 1.145 0 0 1 2.29-.039v2.342a1.146 1.146 0 0 1 1.795.607 1.146 1.146 0 0 1 1.543.068 1.154 1.154 0 0 1 .295.506 1.172 1.172 0 0 1 1.844.928zm-1.112 9.193c0-.1 0-.2.008-.3a11.157 11.157 0 0 1 .481-2.676 4.446 4.446 0 0 0 .168-1.18v-5.041a.651.651 0 0 0-.7-.685.614.614 0 0 0-.484.189.74.74 0 0 0-.16.5v1.083a.228.228 0 1 1-.455 0v-1.705a.69.69 0 1 0-1.381 0v1.705a.228.228 0 0 1-.455 0v-2.279a.69.69 0 1 0-1.381 0v2.278a.229.229 0 0 1-.228.228.229.229 0 0 1-.229-.228v-5.527a.69.69 0 0 0-1.38.032v7.368a.228.228 0 0 1-.385.165l-2.328-2.224c-.529-.444-.86-.17-.969-.08a.77.77 0 0 0-.328.545.788.788 0 0 0 .191.484l2.049 2.4a.3.3 0 0 1 .021.029 6.185 6.185 0 0 1 .495 1.338 5.814 5.814 0 0 0 .631 1.6 3.6 3.6 0 0 1 .791 1.495c.026.091.055.2.091.318a3.985 3.985 0 0 1 .144.917v.018a.53.53 0 0 0 .239.433 4.469 4.469 0 0 0 2.632.634 5.517 5.517 0 0 0 2.677-.547.527.527 0 0 0 .295-.52 6.687 6.687 0 0 1-.05-.767z" data-name="Path 48"/>
            </g>
        </g>
    </g>
</svg>
