<?xml version="1.0" encoding="utf-8"?>
<!-- Generator: Adobe Illustrator 16.0.0, SVG Export Plug-In . SVG Version: 6.00 Build 0)  -->
<!DOCTYPE svg PUBLIC "-//W3C//DTD SVG 1.1//EN" "http://www.w3.org/Graphics/SVG/1.1/DTD/svg11.dtd">
<svg version="1.1" id="圖層_1" xmlns="http://www.w3.org/2000/svg" xmlns:xlink="http://www.w3.org/1999/xlink" x="0px" y="0px"
	 width="34.356px" height="36.369px" viewBox="0 0 34.356 36.369" enable-background="new 0 0 34.356 36.369" xml:space="preserve">
<g id="prefix__KVtF4K">
	<g id="prefix__Group_114">
		<path id="prefix__Path_81" fill="#999999" d="M14.036,29.104c0.013-1.017,0.035-2.035,0.038-3.052
			c0.006-2.132-0.017-4.264,0.015-6.399c0.009-0.561-0.171-0.701-0.7-0.678c-0.917,0.041-1.838,0.01-2.821,0.01
			c0-1.187-0.013-2.313,0.021-3.438c0-0.112,0.289-0.3,0.448-0.308c0.979-0.029,1.959-0.015,3.043-0.015c0-0.291-0.012-0.545,0-0.8
			c-0.008-1.258,0.074-2.515,0.245-3.761c0.349-1.96,2.056-3.387,4.047-3.382c1.032-0.057,2.07,0.005,3.1,0.018
			c0.388,0,0.568,0.178,0.553,0.6c-0.027,0.772-0.023,1.547,0,2.319c0.011,0.393-0.128,0.528-0.523,0.528
			c-0.752-0.015-1.504,0.016-2.253,0.093c-0.712,0.009-1.283,0.594-1.273,1.306c0,0.031,0.002,0.062,0.004,0.094
			c-0.044,0.865-0.005,1.735-0.02,2.6c-0.006,0.353,0.191,0.391,0.469,0.389c0.981-0.006,1.962,0,2.943-0.005
			c0.294,0,0.477,0.058,0.424,0.413c-0.164,1.094-0.316,2.19-0.482,3.354c-0.946,0-1.884,0.012-2.821-0.008
			c-0.374-0.006-0.539,0.09-0.538,0.5c0.014,3.131,0.009,6.264,0.011,9.395c0.005,0.075,0.015,0.15,0.03,0.225L14.036,29.104z"/>
	</g>
</g>
</svg>
