<?xml version="1.0" encoding="utf-8"?>
<!-- Generator: Adobe Illustrator 24.1.2, SVG Export Plug-In . SVG Version: 6.00 Build 0)  -->
<svg version="1.1" id="圖層_1" xmlns="http://www.w3.org/2000/svg" xmlns:xlink="http://www.w3.org/1999/xlink" x="0px" y="0px"
	 viewBox="0 0 34.4 36.4" style="enable-background:new 0 0 34.4 36.4;" xml:space="preserve">
<style type="text/css">
	.st0{fill:#226DB6;}
</style>
<g id="prefix__KVtF4K">
	<g id="prefix__Group_114">
		<path id="prefix__Path_81" class="st0" d="M14,29.1c0-1,0-2,0-3.1c0-2.1,0-4.3,0-6.4c0-0.6-0.2-0.7-0.7-0.7c-0.9,0-1.8,0-2.8,0
			c0-1.2,0-2.3,0-3.4c0-0.1,0.3-0.3,0.4-0.3c1,0,2,0,3,0c0-0.3,0-0.5,0-0.8c0-1.3,0.1-2.5,0.2-3.8c0.3-2,2.1-3.4,4-3.4
			c1-0.1,2.1,0,3.1,0c0.4,0,0.6,0.2,0.6,0.6c0,0.8,0,1.5,0,2.3c0,0.4-0.1,0.5-0.5,0.5c-0.8,0-1.5,0-2.3,0.1c-0.7,0-1.3,0.6-1.3,1.3
			c0,0,0,0.1,0,0.1c0,0.9,0,1.7,0,2.6c0,0.4,0.2,0.4,0.5,0.4c1,0,2,0,2.9,0c0.3,0,0.5,0.1,0.4,0.4c-0.2,1.1-0.3,2.2-0.5,3.4
			c-0.9,0-1.9,0-2.8,0c-0.4,0-0.5,0.1-0.5,0.5c0,3.1,0,6.3,0,9.4c0,0.1,0,0.1,0,0.2L14,29.1z"/>
	</g>
</g>
</svg>
