<svg xmlns="http://www.w3.org/2000/svg" width="512" height="213.458" viewBox="0 0 512 213.458">
    <g id="prefix__A1nb" transform="translate(-552.48 -120.178)">
        <text id="prefix__讓我們_伊7友善吧_" fill="#69c" data-name="讓我們，伊7友善吧!" font-family="MicrosoftJhengHeiBold, Microsoft JhengHei" font-size="51.446px" letter-spacing="0.06em" transform="translate(569.48 320.636)">
            <tspan x="0" y="0">讓我們，伊7友善吧!</tspan>
        </text>
        <g id="prefix__Group_188" data-name="Group 188">
            <text id="prefix___1" fill="#b3b3b3" data-name="1" font-family="CenturyGothic, Century Gothic" font-size="120.084px" letter-spacing="0.08em" transform="translate(552.48 241.178)">
                <tspan x="0" y="0">1</tspan>
            </text>
        </g>
        <g id="prefix__Group_187" data-name="Group 187">
            <path id="prefix__Path_78" fill="#b3b3b3" d="M655.78 174.675a20.1 20.1 0 0 1-6.585 7.317l-2.718-3.031a16.27 16.27 0 0 0 7-11.917h-7.735V154.5h12.439V166a18.142 18.142 0 0 1-2.401 8.675zm20.071 0a22.156 22.156 0 0 1-6.586 7.317l-2.822-3.031a16.275 16.275 0 0 0 7-11.917h-7.631V154.5h12.439V166a18.142 18.142 0 0 1-2.4 8.675z" data-name="Path 78"/>
        </g>
    </g>
</svg>
