<svg xmlns="http://www.w3.org/2000/svg" width="296" height="213.801" viewBox="0 0 296 213.801">
    <g id="prefix__A1n" transform="translate(-43.76 -303.339)">
        <text id="prefix__讓我們_伊7友善吧_" fill="#69c" data-name="讓我們，伊7友善吧!" font-family="MicrosoftJhengHeiBold, Microsoft JhengHei" font-size="25.723px" letter-spacing="0.06em" transform="translate(188 408.068)">
            <tspan x="-123.704" y="0">讓我們，伊7友善吧!</tspan>
        </text>
        <text id="prefix__發揮我的影響力_邀請您與家人或朋友_一人一個7拼出友善愛心手勢_拍下照片上傳您的社群並加入hashtag_和我伊7友善_讓愛無礙_讓友善行動任務擴散到城市的每個角落_" fill="#4d4d4d" data-name="發揮我的影響力！ 邀請您與家人或朋友，一人一個7拼出友善愛心手勢， 拍下照片上傳您的社群並加入hashtag #和我伊7友善 #讓愛無礙， 讓友善行動任務擴散到城市的每個角落。" font-family="MicrosoftJhengHeiRegular, Microsoft JhengHei" font-size="10px" transform="translate(43.76 441.14)">
            <tspan x="108" y="11">發揮我的影響力！</tspan><tspan x="30.102" y="28.774">邀請您與家人或朋友，一人一個7拼出友善愛心手勢，</tspan><tspan x="2.395" y="46.548">拍下照片上傳您的社群並加入hashtag </tspan><tspan y="46.548" fill="blue">#和我伊7友善 #讓愛無礙</tspan><tspan y="46.548">，</tspan><tspan x="58" y="64.322">讓友善行動任務擴散到城市的每個角落。</tspan>
        </text>
        <text id="prefix___1" fill="#b3b3b3" data-name="1" font-family="CenturyGothic, Century Gothic" font-size="60.042px" letter-spacing="0.08em" transform="translate(171 363.339)">
            <tspan x="0" y="0">1</tspan>
        </text>
        <path id="prefix__Path_78" fill="#b3b3b3" d="M669.64 278.963a10.05 10.05 0 0 1-3.293 3.658l-1.359-1.515a8.135 8.135 0 0 0 3.5-5.959h-3.868v-6.272h6.22v5.75a9.074 9.074 0 0 1-1.2 4.338zm10.035 0a11.078 11.078 0 0 1-3.292 3.658l-1.412-1.515a8.135 8.135 0 0 0 3.5-5.959h-3.815v-6.272h6.22v5.75a9.076 9.076 0 0 1-1.201 4.338z" data-name="Path 78" transform="translate(-450.99 51.125)"/>
    </g>
</svg>
