<svg xmlns="http://www.w3.org/2000/svg" width="481.943" height="169.175" viewBox="0 0 481.943 169.175">
    <defs>
        <style>
            .cls-1{fill:#69c}.cls-2{fill:#b3b3b3}
        </style>
    </defs>
    <g id="Symbol_97_1" data-name="Symbol 97 – 1" transform="translate(-569 -156)">
        <g id="Group_263" data-name="Group 263" transform="translate(-.543 1.5)">
            <g id="Group_262" data-name="Group 262">
                <path id="Path_239" d="M586.813 286.773h-13.565v-4.044h4.975l-1.684-4.069 4.673-1.03q1.154 2.814 1.909 5.1h3.692zm-1.13 35.194h-4.12v-2.16h-3.291v3.24H574.2v-17.685h11.48zm.1-27.733h-11.53v-3.893h11.53zm-.05 7.461h-11.48V297.7h11.48zm-4.17 14.042v-6.3h-3.291v6.3zm36.274-6.1h-15.8a39.587 39.587 0 0 1-5.451 4.521v4.573a57.276 57.276 0 0 0 6.28-1.859l.2 3.768a52.011 52.011 0 0 1-10.525 2.788l-1.356-3.29a2.431 2.431 0 0 0 1.08-2.111v-1.457q-2.211.93-3.844 1.507l-2.11-3.617a29.569 29.569 0 0 0 9.571-4.823h-8.692v-3.09h7.762v-2.21h-6.38v-2.789h6.38v-2.21h-7.058v-3.141h7.058v-1.858h4.421v1.858h6.13v-1.858h4.421v1.858h6.983v3.141h-6.983v2.21h6v2.789h-6v2.21h7.913zm-.3-25.271h-29.543v-3.391h11.832a9.169 9.169 0 0 0-1.131-2.311l5.049-.829 1.281 3.14h12.51zm-16.152 8.692h-12.16v-7.033h12.158zm-4.019-2.663v-1.758h-4.22v1.758zm8.139 11.153v-2.21h-6.13v2.21zm0 5v-2.21h-6.13v2.21zm13.013 13.314l-2.438 3.818q-12.132-3.064-15.021-11.831l3.868-1.407a13.2 13.2 0 0 0 2.688 4.346 44.013 44.013 0 0 0 5.074-3.97l3.341 2.312a39.574 39.574 0 0 1-5.03 3.964 21.152 21.152 0 0 0 7.516 2.763zm-2.488-26.8h-12.386v-7.033h12.384zm-3.944-2.563v-1.858h-4.522v1.858z" class="cls-1" data-name="Path 239"/>
                <path id="Path_240" d="M672.722 313.175a24.059 24.059 0 0 1-2.651 7.587 4.862 4.862 0 0 1-4.232 2.687q-4.321 0-8.591-7.712a61.282 61.282 0 0 1-9.52 5.778l-2.563-3.819a58.627 58.627 0 0 0 10.425-6.154q-1.257-4.846-1.734-15.649H643.1V303q3.843-.779 8.541-2.16l.1 4.472q-4.647 1.356-8.641 2.16v11.4a4.449 4.449 0 0 1-.8 2.914 3.7 3.7 0 0 1-2.034 1.244 22.606 22.606 0 0 1-4.421.288q-2.388 0-4.673-.125l-1.608-4.874q3.466.151 5.677.152a9.342 9.342 0 0 0 2.764-.214.943.943 0 0 0 .4-.917v-8.893q-5.526 1.056-10.123 1.532l-.829-4.27q4.974-.552 10.952-1.758v-8.063H627.6v-4.372h10.8v-5.828q-3.465.528-8.741.98L627.6 282.4q13.039-.777 21.78-4.044l2.62 3.795a67.618 67.618 0 0 1-8.893 2.563v6.807h10.7q-.1-3.114-.1-13.113h4.571q-.073 6.683 0 13.113h14.042v4.372h-13.891a114.244 114.244 0 0 0 .928 12.032 44.917 44.917 0 0 0 6.432-10.023l4.019 2.009q-4.2 8.416-9.018 12.812a19.942 19.942 0 0 0 2.75 4.421q1.269 1.407 1.947 1.407 1.758 0 3.14-7.939zm-1.784-26.025l-3.717 2.764a37.315 37.315 0 0 0-6.632-7.461l3.542-2.964a40.847 40.847 0 0 1 6.807 7.661z" class="cls-1" data-name="Path 240"/>
                <path id="Path_241" d="M693.971 278.86q-.453 2.337-1.708 6.532l-1.256 4.019v33.837h-4.271v-24.216a22.652 22.652 0 0 1-2.736 4.221l-2.11-4.7q4.747-7.159 8.039-20.724zm14.821 21.906h-9.244V323.2h-4.271v-43.511h13.515zm-4.321-12.485v-4.422h-4.923v4.422zm.05 8.289v-4.446h-4.973v4.446zm21.2 22.206a4.29 4.29 0 0 1-2.336 3.87 11.624 11.624 0 0 1-4.748.627 23.043 23.043 0 0 1-2.99-.175l-1.306-4.17q1.582.15 3.693.15a8.286 8.286 0 0 0 2.863-.276 1.2 1.2 0 0 0 .5-1.156v-16.88h-9.37v-21.077h13.691zm-4.321-30.495v-4.422h-5.1v4.422zm0 8.289v-4.446h-5.1v4.446z" class="cls-1" data-name="Path 241"/>
                <path id="Path_242" d="M757.472 306.543a3.151 3.151 0 0 1-2.085-3.215 2.894 2.894 0 0 1 1.067-2.311 3.555 3.555 0 0 1 2.349-.9 3.034 3.034 0 0 1 2.386 1.056 3.807 3.807 0 0 1 .93 2.612q0 2.889-4.421 6.255l-1.557-1.206a13.366 13.366 0 0 0 1.331-2.291z" class="cls-1" data-name="Path 242"/>
                <path id="Path_243" d="M804.493 278.86a60.641 60.641 0 0 1-2.085 6.331l-1.431 3.542v34.314h-4.522v-25.622a38.792 38.792 0 0 1-3.291 4.32l-2.562-4.622q6.2-7.461 9.419-19.091zm31.426 16.253h-3.392v11.631h-13.213q-2.135 11.029-12.46 16.68l-3.291-3.667a19.556 19.556 0 0 0 7.26-5.389 15.349 15.349 0 0 0 3.743-7.624h-9.621v-4.32h10.249q.3-4.622.3-7.311h-12.51v-4.32H815.6q.05-1.508.049-6.833h-9.872v-4.271h26.753v11.1h3.392zm-8.014 7.311v-7.311h-7.737l-.3 7.311zm0-11.631v-6.833H820.4q0 5.326-.126 6.833z" class="cls-1" data-name="Path 243"/>
                <path id="Path_244" d="M870.355 284.035l-14.845 36.6h-6.155l14.319-33.835h-19.092v-5.074h25.773z" class="cls-1" data-name="Path 244"/>
                <path id="Path_245" d="M924.336 319.605l-2.211 4.02q-10.876-4.471-15.524-7.762a86.328 86.328 0 0 1-14.771 7.762l-2.889-3.919a53.444 53.444 0 0 0 14.143-6.782 34.549 34.549 0 0 1-7.813-11.832 61.133 61.133 0 0 1-12.911 20.825l-3.869-3.24a76.749 76.749 0 0 0 15.5-30.447h-14.52v-4.521h14.971a33.562 33.562 0 0 0 .829-5.627l4.623.051q-.227 2.537-.7 5.576h25.045v4.521h-25.777q-.9 4.723-1.483 6.833h21.353v4.572q-4.17 8.892-8.49 13.239a59.1 59.1 0 0 0 14.494 6.731zm-10.853-19.97h-14.192q3.668 7.561 6.883 10.6a36.741 36.741 0 0 0 7.309-10.6z" class="cls-1" data-name="Path 245"/>
                <path id="Path_246" d="M978.818 307.724H934v-3.768h11.631a25.5 25.5 0 0 0-2.06-2.562l2.638-1.382H934.23v-3.768h19.845v-2.713h-17.433v-3.718h17.433v-2.562h-18.94v-3.718h42.352v3.718h-18.739v2.562H976.1v3.718h-17.352v2.713h19.92v3.768h-11.832l2.513 1.131q-1.332 1.783-2.261 2.813h11.73zm-4.47 15.575h-4.522v-1.784h-26.8v1.785h-4.647v-12.963h35.973zM953.3 280.77l-3.492 2.461a47.31 47.31 0 0 0-7.31-2.662l3.567-2.637a66.76 66.76 0 0 1 7.235 2.838zm16.526 37.03V314h-26.8v3.8zm-5.678-17.785h-15.674q1.657 2.16 2.762 3.944h9.949q1.078-1.259 2.963-3.947zm5.929-20.171a54.727 54.727 0 0 1-7.36 3.29l-3.793-2.411a42.182 42.182 0 0 0 6.832-2.99z" class="cls-1" data-name="Path 246"/>
                <path id="Path_247" d="M1003.309 317.345h-4.322v-2.739l-4.873-.049v4.019h-4.4l-.1-36.626h13.692zm-4.322-7.26v-23.663h-4.873v23.663zm34.315 2.588q-.252 5.577-1.683 7.686a5.029 5.029 0 0 1-4.019 2.287q-2.589.176-8.265.175a75.143 75.143 0 0 1-7.611-.238 4.155 4.155 0 0 1-2.889-1.621 5.46 5.46 0 0 1-1.056-3.416v-37.857h23.564v22.785h-19.092v14.469q0 1.382 1.457 1.381l12.334-.05q1.431 0 1.972-1.821a27.218 27.218 0 0 0 .766-5.64zm-16-14.57v-13.992h-5.049V298.1zm9.471 0v-13.992h-4.9V298.1z" class="cls-1" data-name="Path 247"/>
                <path id="Path_248" d="M1044.075 317.672a3.332 3.332 0 0 1 1.08-2.525 3.9 3.9 0 0 1 5.251 0 3.328 3.328 0 0 1 1.08 2.525 3.288 3.288 0 0 1-1.068 2.474 3.508 3.508 0 0 1-2.5 1.017 3.846 3.846 0 0 1-2.764-1.029 3.29 3.29 0 0 1-1.079-2.462zm6.758-35.947l-.7 27.556h-4.8l-.678-27.556z" class="cls-1" data-name="Path 248"/>
            </g>
        </g>
        <g id="Group_264" data-name="Group 264" transform="translate(-.543 1.5)">
            <path id="Path_249" d="M574.7 154.926h16.945v86.252h-8.56V163.37h-13.542z" class="cls-2" data-name="Path 249"/>
        </g>
        <path id="Path_250" d="M655.78 174.675a20.1 20.1 0 0 1-6.585 7.317l-2.718-3.031a16.27 16.27 0 0 0 7-11.917h-7.735V154.5h12.439V166a18.142 18.142 0 0 1-2.401 8.675zm20.071 0a22.156 22.156 0 0 1-6.586 7.317l-2.822-3.031a16.275 16.275 0 0 0 7-11.917h-7.631V154.5h12.439V166a18.142 18.142 0 0 1-2.4 8.675z" class="cls-2" data-name="Path 250" transform="translate(-.543 1.5)"/>
    </g>
</svg>
