<svg xmlns="http://www.w3.org/2000/svg" width="238.886" height="89.588" viewBox="0 0 238.886 89.588">
    <defs>
        <style>
            .cls-1{fill:#69c}.cls-2{fill:#b3b3b3}
        </style>
    </defs>
    <g id="Symbol_84_1" data-name="Symbol 84 – 1" transform="translate(-66 -320)">
        <g id="prefix_讓我們_伊7友善吧_" data-name="prefix 讓我們 伊7友善吧" transform="translate(43.58 303.339)">
            <g id="Group_175" data-name="Group 175">
                <path id="Path_89" d="M29.2 87.8h-6.78v-2.024h2.487l-.842-2.035 2.337-.515q.578 1.409.954 2.55H29.2zm-.566 17.6h-2.056v-1.08h-1.646v1.62H22.9v-8.848h5.74zm.051-13.866h-5.763v-1.952h5.766zm-.025 3.729h-5.738v-2h5.741zm-2.085 7.022v-3.158h-1.643v3.153zm18.136-3.052h-7.9a19.843 19.843 0 0 1-2.726 2.261v2.286a28.584 28.584 0 0 0 3.141-.93l.1 1.884a26 26 0 0 1-5.263 1.4l-.678-1.646a1.214 1.214 0 0 0 .54-1.056v-.728q-1.105.465-1.922.754l-1.055-1.809a14.787 14.787 0 0 0 4.786-2.411h-4.343v-1.555h3.881v-1.1h-3.19v-1.4h3.19v-1.1h-3.529v-1.57h3.529v-.929h2.21v.929h3.065v-.929h2.211v.929h3.492v1.57h-3.492v1.1h3v1.4h-3v1.1h3.956zm-.151-12.636H29.793V84.9h5.915a4.577 4.577 0 0 0-.564-1.156l2.524-.414.641 1.57h6.254zm-8.076 4.346h-6.076v-3.522h6.079zm-2.009-1.331v-.88h-2.11v.88zm4.069 5.576v-1.1h-3.062v1.1zm0 2.5v-1.1h-3.062v1.1zm6.506 6.656l-1.218 1.91q-6.066-1.533-7.511-5.916l1.934-.7A6.6 6.6 0 0 0 39.6 101.8a22.183 22.183 0 0 0 2.537-1.984l1.67 1.155a19.694 19.694 0 0 1-2.512 1.985 10.578 10.578 0 0 0 3.758 1.383zm-1.243-13.4h-6.189v-3.523h6.192zm-1.972-1.281v-.93h-2.258v.93z" class="cls-1" data-name="Path 89"/>
                <path id="Path_90" d="M72.131 101a12.045 12.045 0 0 1-1.325 3.793 2.431 2.431 0 0 1-2.117 1.343q-2.16 0-4.3-3.855a30.513 30.513 0 0 1-4.76 2.888l-1.281-1.909a29.325 29.325 0 0 0 5.212-3.077 41.922 41.922 0 0 1-.867-7.825h-5.371v3.555q1.923-.389 4.271-1.08l.05 2.235q-2.323.678-4.321 1.081v5.7a2.226 2.226 0 0 1-.4 1.457 1.84 1.84 0 0 1-1.017.621 11.186 11.186 0 0 1-2.21.145q-1.194 0-2.337-.063l-.8-2.436q1.732.075 2.838.075a4.631 4.631 0 0 0 1.382-.107.471.471 0 0 0 .2-.459v-4.445q-2.764.528-5.062.767l-.416-2.136q2.485-.276 5.476-.879v-4.032h-5.4v-2.185h5.4v-2.914q-1.734.264-4.371.49l-1.03-2.135a37.908 37.908 0 0 0 10.887-2.023l1.307 1.9a33.71 33.71 0 0 1-4.447 1.281v3.4h5.351q-.05-1.558-.05-6.556h2.286q-.037 3.341 0 6.556h7.021v2.185h-6.946a57.128 57.128 0 0 0 .465 6.017 22.478 22.478 0 0 0 3.215-5.012l2.01 1a21.733 21.733 0 0 1-4.509 6.406 9.972 9.972 0 0 0 1.375 2.21c.423.47.748.7.974.7q.879 0 1.569-3.969zm-.892-13.012l-1.859 1.38a18.6 18.6 0 0 0-3.316-3.73l1.771-1.482a20.348 20.348 0 0 1 3.404 3.831z" class="cls-1" data-name="Path 90"/>
                <path id="Path_91" d="M82.729 83.841q-.225 1.17-.854 3.266l-.627 2.01v16.919h-2.136V93.927a11.281 11.281 0 0 1-1.369 2.111l-1.055-2.349a33.373 33.373 0 0 0 4.02-10.362zm7.411 10.953h-4.622v11.216h-2.135V84.256h6.757zm-2.161-6.243v-2.21h-2.461v2.21zM88 92.7v-2.227h-2.482V92.7zm10.6 11.1a2.172 2.172 0 0 1-.3 1.112 2.2 2.2 0 0 1-.872.823 5.81 5.81 0 0 1-2.375.313 11.424 11.424 0 0 1-1.494-.088l-.653-2.084q.791.075 1.846.076a4.11 4.11 0 0 0 1.432-.139.6.6 0 0 0 .251-.578v-8.44H91.76V84.256h6.845zm-2.16-15.248v-2.21H93.9v2.21zm0 4.146v-2.225H93.9V92.7z" class="cls-1" data-name="Path 91"/>
                <path id="Path_92" d="M114.454 97.683a1.575 1.575 0 0 1-1.042-1.608 1.447 1.447 0 0 1 .533-1.156 1.781 1.781 0 0 1 1.175-.452 1.518 1.518 0 0 1 1.193.528 1.9 1.9 0 0 1 .465 1.306q0 1.444-2.211 3.127l-.778-.6a6.675 6.675 0 0 0 .665-1.145z" class="cls-1" data-name="Path 92"/>
                <path id="Path_93" d="M137.939 83.841a30.14 30.14 0 0 1-1.042 3.165l-.716 1.772v17.157h-2.261V93.124a19.433 19.433 0 0 1-1.645 2.16l-1.281-2.311a25.246 25.246 0 0 0 4.71-9.546zm15.712 8.127h-1.7v5.816h-6.601a11.7 11.7 0 0 1-6.23 8.34l-1.645-1.834a9.784 9.784 0 0 0 3.625-2.69 7.662 7.662 0 0 0 1.872-3.811h-4.81v-2.166h5.124q.152-2.31.151-3.655h-6.255v-2.16h6.3q.025-.754.025-3.417h-4.927v-2.135h13.376v5.552h1.7zm-4.005 3.655v-3.655h-3.869l-.151 3.655zm0-5.815v-3.417h-3.756q0 2.664-.063 3.417z" class="cls-1" data-name="Path 93"/>
                <path id="Path_94" d="M170.844 86.429l-7.423 18.3h-3.077l7.156-16.918h-9.546v-2.537h12.887z" class="cls-1" data-name="Path 94"/>
                <path id="Path_95" d="M197.809 104.214l-1.106 2.01a42.276 42.276 0 0 1-7.762-3.882 43.154 43.154 0 0 1-7.385 3.882l-1.445-1.96a26.74 26.74 0 0 0 7.072-3.39 17.3 17.3 0 0 1-3.907-5.916 30.573 30.573 0 0 1-6.455 10.412l-1.934-1.62a38.4 38.4 0 0 0 7.749-15.223h-7.26v-2.261h7.486a16.769 16.769 0 0 0 .414-2.813l2.312.024q-.112 1.269-.352 2.789h12.523v2.261h-12.887q-.453 2.361-.741 3.416h10.676v2.286a23.777 23.777 0 0 1-4.245 6.619 29.6 29.6 0 0 0 7.247 3.366zm-5.426-9.985h-7.1a18.811 18.811 0 0 0 3.442 5.3 18.376 18.376 0 0 0 3.658-5.3z" class="cls-1" data-name="Path 95"/>
                <path id="Path_96" d="M225.024 98.273h-22.407v-1.884h5.816a12.636 12.636 0 0 0-1.031-1.281l1.32-.691h-5.992v-1.884h9.922v-1.357h-8.716v-1.858h8.716v-1.281h-9.469v-1.859h21.175v1.859h-9.369v1.281h8.679v1.858h-8.679v1.357h9.96v1.884h-5.916l1.256.565q-.665.893-1.13 1.407h5.865zm-2.235 7.787h-2.262v-.892h-13.4v.892H204.8v-6.48h17.986zM212.264 84.8l-1.746 1.231a23.587 23.587 0 0 0-3.656-1.331l1.784-1.32a33.707 33.707 0 0 1 3.618 1.42zm8.263 18.514v-1.9h-13.4v1.9zm-2.838-8.893h-7.837q.828 1.08 1.381 1.972h4.974q.54-.632 1.482-1.976zm2.964-10.085a27.453 27.453 0 0 1-3.679 1.645l-1.9-1.206a21.24 21.24 0 0 0 3.416-1.494z" class="cls-1" data-name="Path 96"/>
                <path id="Path_97" d="M237.243 103.083h-2.161v-1.369l-2.436-.024v2.01h-2.2l-.05-18.313h6.846zm-2.161-3.629V87.623h-2.436v11.831zm17.157 1.294a7.971 7.971 0 0 1-.842 3.843 2.511 2.511 0 0 1-2.008 1.143q-1.3.087-4.133.088a37.612 37.612 0 0 1-3.806-.119 2.075 2.075 0 0 1-1.444-.811 2.727 2.727 0 0 1-.527-1.708V84.256h11.781v11.392h-9.546v7.234q0 .691.728.692l6.167-.026q.717 0 .987-.91a13.713 13.713 0 0 0 .383-2.82zm-8-7.286v-7h-2.524v7zm4.736 0v-7h-2.45v7z" class="cls-1" data-name="Path 97"/>
                <path id="Path_98" d="M257.6 103.247a1.66 1.66 0 0 1 .54-1.262 1.947 1.947 0 0 1 2.625 0 1.664 1.664 0 0 1 .54 1.262 1.641 1.641 0 0 1-.535 1.237 1.752 1.752 0 0 1-1.249.509 1.92 1.92 0 0 1-1.381-.515 1.64 1.64 0 0 1-.54-1.231zm3.378-17.973l-.351 13.778h-2.4l-.339-13.778z" class="cls-1" data-name="Path 98"/>
            </g>
        </g>
        <g id="prefix_1" data-name="prefix 1" transform="translate(43.58 303.339)">
            <g id="Group_176" data-name="Group 176">
                <path id="Path_99" d="M138.352 16.874h8.472V60h-4.28V21.1h-6.773z" class="cls-2" data-name="Path 99"/>
            </g>
        </g>
        <path id="prefix_Path_78" d="M174.89 26.749a10.06 10.06 0 0 1-3.293 3.658l-1.359-1.515a8.135 8.135 0 0 0 3.5-5.959h-3.868v-6.272h6.22v5.75a9.068 9.068 0 0 1-1.2 4.338zm10.035 0a11.069 11.069 0 0 1-3.292 3.658l-1.412-1.515a8.135 8.135 0 0 0 3.5-5.959h-3.815v-6.272h6.22v5.75a9.081 9.081 0 0 1-1.2 4.338z" class="cls-2" data-name="prefix Path 78" transform="translate(43.58 303.339)"/>
    </g>
</svg>
