<svg xmlns="http://www.w3.org/2000/svg" width="288" height="244.462" viewBox="0 0 288 244.462">
    <g id="prefix__A4n" transform="translate(-43.75 -303.339)">
        <text id="prefix___4" fill="#b3b3b3" data-name="4" font-family="CenturyGothic, Century Gothic" font-size="60.042px" letter-spacing="0.08em" transform="translate(171 363.339)">
            <tspan x="0" y="0">4</tspan>
        </text>
        <path id="prefix__Path_78" fill="#b3b3b3" d="M669.64 278.963a10.05 10.05 0 0 1-3.293 3.658l-1.359-1.515a8.135 8.135 0 0 0 3.5-5.959h-3.868v-6.272h6.22v5.75a9.074 9.074 0 0 1-1.2 4.338zm10.035 0a11.078 11.078 0 0 1-3.292 3.658l-1.412-1.515a8.135 8.135 0 0 0 3.5-5.959h-3.815v-6.272h6.22v5.75a9.076 9.076 0 0 1-1.201 4.338z" data-name="Path 78" transform="translate(-450.99 51.125)"/>
        <text id="prefix__優先選購身障朋友_製作的產品" fill="#a31e4a" data-name="優先選購身障朋友 製作的產品" font-family="MicrosoftJhengHeiBold, Microsoft JhengHei" font-size="25.723px" letter-spacing="0.06em" transform="translate(188 408.729)">
            <tspan x="-108.294" y="0">優先選購身障朋友</tspan><tspan x="-67.395" y="35">製作的產品</tspan>
        </text>
        <text id="prefix__身障朋友多才多藝_優質商品任君挑選_挑選禮物時_不妨優先選購庇護工場的產品_讓您體面送禮也能做公益_更能為身障朋友帶來極大的鼓勵噢_" fill="#4d4d4d" data-name="身障朋友多才多藝，優質商品任君挑選！ 挑選禮物時，不妨優先選購庇護工場的產品， 讓您體面送禮也能做公益， 更能為身障朋友帶來極大的鼓勵噢！" font-family="MicrosoftJhengHeiRegular, Microsoft JhengHei" font-size="10px" transform="translate(43.75 471.801)">
            <tspan x="53.75" y="11">身障朋友多才多藝，優質商品任君挑選！</tspan><tspan x="43.75" y="28.774">挑選禮物時，不妨優先選購庇護工場的產品，</tspan><tspan x="83.75" y="46.548">讓您體面送禮也能做公益，</tspan><tspan x="63.75" y="64.322">更能為身障朋友帶來極大的鼓勵噢！</tspan>
        </text>
    </g>
</svg>
