<svg xmlns="http://www.w3.org/2000/svg" width="172.236" height="125.274" viewBox="0 0 172.236 125.274">
    <defs>
        <style>
            .cls-1{fill:#b3b3b3}.cls-2{fill:#f99}
        </style>
    </defs>
    <g id="Symbol_88_1" data-name="Symbol 88 – 1" transform="translate(-102 -320)">
        <g id="prefix_5" data-name="prefix 5" transform="translate(43.857 303.339)">
            <g id="Group_184" data-name="Group 184">
                <path id="Path_137" d="M156.772 16.874v4.1h-15.324l-2.158 11.764a18.18 18.18 0 0 1 5.066-.824 12.939 12.939 0 0 1 9.708 3.943 13.908 13.908 0 0 1 3.823 10.1 15.837 15.837 0 0 1-1.965 7.8 13.7 13.7 0 0 1-5.32 5.437 15.53 15.53 0 0 1-7.755 1.892 12.833 12.833 0 0 1-8.854-3.211 13.139 13.139 0 0 1-4.31-8.311h4.427a9.7 9.7 0 0 0 1.686 4.045 8.568 8.568 0 0 0 3.166 2.507 9.44 9.44 0 0 0 4.149.953 9.7 9.7 0 0 0 7.3-3.22 11.25 11.25 0 0 0 3.05-8.051 9.521 9.521 0 0 0-2.756-7.085 10.013 10.013 0 0 0-7.359-2.723 24.4 24.4 0 0 0-9.235 2.316l3.989-21.432z" class="cls-1" data-name="Path 137"/>
            </g>
        </g>
        <path id="prefix_Path_78" d="M174.9 26.749a10.06 10.06 0 0 1-3.293 3.658l-1.359-1.515a8.135 8.135 0 0 0 3.5-5.959h-3.868v-6.272h6.22v5.75a9.068 9.068 0 0 1-1.2 4.338zm10.035 0a11.069 11.069 0 0 1-3.292 3.658l-1.412-1.515a8.135 8.135 0 0 0 3.5-5.959h-3.815v-6.272h6.22v5.75a9.081 9.081 0 0 1-1.2 4.338z" class="cls-1" data-name="prefix Path 78" transform="translate(43.857 303.339)"/>
        <g id="prefix_無障礙設施_我OK_您先請" data-name="prefix 無障礙設施 我OK 您先請" transform="translate(43.857 303.339)">
            <g id="Group_185" data-name="Group 185">
                <path id="Path_138" d="M101.033 100.215H78.676V98.13h3.279v-3.466h-2.814v-2.085h2.814V89.9q-.591.515-1.759 1.47L78.5 89.6a19.387 19.387 0 0 0 5.477-5.64l2.4.666a9.96 9.96 0 0 1-1.369 2.01h15.336v2.135H83.085q-.339.39-1.055 1.056h2.21v2.75h2.386v-2.75h2.186v2.75h2.55v-2.75h2.16v2.75h2.55v-2.75h2.21v2.75h2.286v2.085h-2.286v3.468h2.751zm-17.408 1.6a22.083 22.083 0 0 1-2.939 5.2l-2.135-1.369a21.338 21.338 0 0 0 2.888-4.772zm3-3.68v-3.471H84.24v3.466zm2.4 8l-2.274.678a31.148 31.148 0 0 0-1.406-4.923l2.185-.766a28.01 28.01 0 0 1 1.496 5.007zm2.336-8v-3.471h-2.55v3.466zm3.781 7.8l-2.211.879a25.286 25.286 0 0 0-2.085-4.886l2.211-.853a32.724 32.724 0 0 1 2.086 4.855zm.929-7.8v-3.471h-2.55v3.466zm5.137 7.75l-2.261.98a24.509 24.509 0 0 0-2.826-5.125l2.211-1a25.906 25.906 0 0 1 2.877 5.14z" class="cls-2" data-name="Path 138"/>
                <path id="Path_139" d="M111.606 92.24a9.718 9.718 0 0 1 2.1 5.715q0 3.379-3.228 3.378a6.459 6.459 0 0 1-.69-.038l-.679-2.134q.414.049 1.6.049.8 0 .8-1.356a8.68 8.68 0 0 0-2.261-5.351 52.094 52.094 0 0 0 1.8-5.451h-2.318V106.7h-2.248V84.817h6.72v2.235q-.755 2.877-1.596 5.188zm16.592-.866h-15.047V89.6h3.681q-.3-.854-.754-1.834h-1.972v-1.819h5.451a6.48 6.48 0 0 0-.879-1.494l2.474-.465a12.609 12.609 0 0 1 .98 1.959h5.526v1.821h-1.909l-.841 1.834h3.29zm.051 12.295h-6.067v3h-2.3v-3H113.2v-1.859h6.682v-1.256h-5.062v-7.9h12.4v7.9h-5.037v1.256h6.067zm-3.266-7.975v-1.281h-7.925v1.281zm0 3.064v-1.369h-7.925v1.369zm-1.746-10.99h-4.659l.715 1.834h3.065q.566-1.092.879-1.834z" class="cls-2" data-name="Path 139"/>
                <path id="Path_140" d="M140.216 87.078h-1.984a41.246 41.246 0 0 1-1.394 5.136h3.14v11.869h-1.959v-.954h-1.282v1.671H134.8v-8.127q-.3.44-.892 1.232l-1.181-2.211a20.828 20.828 0 0 0 3.367-8.616h-2.914v-2.211h7.033zm-2.2 13.916v-6.669h-1.282v6.669zm9.106-1.784H145.2a6.012 6.012 0 0 1-.239 1.031 11 11 0 0 1 1.884 2.085l-1.282 1.783a9.113 9.113 0 0 0-1.268-1.758 13.815 13.815 0 0 1-3.366 4.434l-1.5-1.47a9.932 9.932 0 0 0 3.681-6.105h-2.45v-1.821h2.651a19.734 19.734 0 0 0 .025-2.235h-.427a11.877 11.877 0 0 1-1.055 1.9l-1.57-1.206a14.056 14.056 0 0 0 1.746-4.031l1.871.3a6.089 6.089 0 0 1-.3 1.244h3.317v1.8h-1.57c.016.234.025.511.025.829 0 .469-.018.937-.051 1.406h1.8zm.213-7.812h-4.145a2.354 2.354 0 0 1-1.651-.515 2.593 2.593 0 0 1-.56-1.934v-4.672h2.111v1.507h4.069v1.808h-4.069V88.9q0 .7.565.7h3.68zm8.516 12.861l-.678 2.136q-4.459.063-6.456-2.336a13.813 13.813 0 0 1-1.62 2.9l-1.432-1.419q2.336-2.6 2.186-9.458l1.745-.025a35.7 35.7 0 0 1-.076 3.617l-.125 1.884a2 2 0 0 0 .27.566 2.874 2.874 0 0 0 .672.791v-9.081h-2.512v-1.9h3.24a15.65 15.65 0 0 0-2.8-3.189l1.506-1.257a13.032 13.032 0 0 1 1.056.942 16.953 16.953 0 0 0 1.619-1.8H147.9v-1.8h7.021v1.8a22.3 22.3 0 0 1-2.776 3.266 14.876 14.876 0 0 1 .9 1.318l-.93.716h3.492a21.182 21.182 0 0 1-.942 4.761l-1.859-.591a20.918 20.918 0 0 0 .59-2.274h-1.155v3.894h2.726v1.947h-2.726v4.245a10.957 10.957 0 0 0 3.613.347z" class="cls-2" data-name="Path 140"/>
                <path id="Path_141" d="M169.278 88.7h-9.005v-2.087h3.454a17.247 17.247 0 0 0-.879-1.935l2.285-.564a13.091 13.091 0 0 1 1.055 2.5h3.09zm-.615 3.73h-7.7v-2.061h7.7zm0 3.68h-7.7v-2.036h7.7zm.024 9.973h-2.235v-1.03h-3.24v1.647h-2.186v-8.9h7.661zm-2.235-3.115v-3.054h-3.24v3.052zm16.592 1.784l-1.08 2.084a19.7 19.7 0 0 1-5.891-3.014 23.341 23.341 0 0 1-5.589 3.09l-1.306-1.959a15.931 15.931 0 0 0 5.25-2.651 17.35 17.35 0 0 1-3.241-5.3h-1.167V94.89h11.215V97a20.412 20.412 0 0 1-3.465 5.275 15.273 15.273 0 0 0 5.274 2.475zm-.288-11.368h-3.342a1.553 1.553 0 0 1-1.155-.546 1.756 1.756 0 0 1-.515-1.237v-4.574h-3.529v1.545a6.856 6.856 0 0 1-.848 3.278 5.974 5.974 0 0 1-2.318 2.425l-1.6-1.57q2.524-1.332 2.525-4.761v-3.027h8v5.728a.584.584 0 0 0 .24.452.712.712 0 0 0 .451.2h2.086zM178.773 97h-5.124a13.456 13.456 0 0 0 2.474 3.806 14.136 14.136 0 0 0 2.65-3.806z" class="cls-2" data-name="Path 141"/>
                <path id="Path_142" d="M196.544 89.54h-4.937q0 1.644-.049 3.139h4.342q.087 11.469-.629 12.818t-3.88 1.149l-.666-2.261a15.778 15.778 0 0 0 2.349-.082.522.522 0 0 0 .332-.326 26.9 26.9 0 0 0 .214-3.2q.119-2.952.119-5.942h-2.185q-.277 7.914-2.55 12.046l-1.62-1.96a16.815 16.815 0 0 0 1.733-6.524q.252-3.61.252-8.861h-1.81v-2.182h3.555q-.315-.979-1.13-2.876l2.26-.465a25.149 25.149 0 0 1 1.156 3.341h3.14zm13.5 12.61a6.086 6.086 0 0 1-1.031 3.422 3.539 3.539 0 0 1-2.675.848h-6.017q-2.033-.063-2.034-2.575v-7.309l-1.52.439-.3-2.136 1.821-.489v-2.211a6.461 6.461 0 0 1-.716.879l-1.72-1.444a26.654 26.654 0 0 0 4.031-7.536l2.16.54a21.718 21.718 0 0 1-.891 2.349h8.566v2.135h-9.572a28.542 28.542 0 0 1-1.468 2.462h1.77v2.16l1.884-.49V90h2.186v2.525l4.911-1.331a31.11 31.11 0 0 1-1.9 9.608l-2.059-.741a28.128 28.128 0 0 0 1.519-6.017l-2.474.691v8.127h-2.186v-7.483l-1.884.491v7.774a.487.487 0 0 0 .364.522 23.11 23.11 0 0 0 3.191.106 18.658 18.658 0 0 0 2.989-.15q.741-.151.867-2.538z" class="cls-2" data-name="Path 142"/>
            </g>
            <g id="Group_186" data-name="Group 186">
                <path id="Path_143" d="M80.776 136.659a12.026 12.026 0 0 1-1.325 3.793 2.43 2.43 0 0 1-2.117 1.344q-2.16 0-4.295-3.856a30.441 30.441 0 0 1-4.76 2.889L67 138.92a29.385 29.385 0 0 0 5.212-3.077 41.933 41.933 0 0 1-.867-7.825h-5.378v3.554q1.923-.389 4.271-1.08l.05 2.236q-2.324.678-4.321 1.081v5.7a2.228 2.228 0 0 1-.4 1.457 1.852 1.852 0 0 1-1.017.621 11.209 11.209 0 0 1-2.21.144q-1.194 0-2.337-.062l-.8-2.437q1.732.075 2.838.076a4.669 4.669 0 0 0 1.382-.107.471.471 0 0 0 .2-.459V134.3q-2.764.526-5.062.766l-.414-2.135q2.485-.276 5.476-.879v-4.032h-5.4v-2.185h5.4v-2.914q-1.734.264-4.371.489l-1.03-2.134a37.908 37.908 0 0 0 10.889-2.023l1.307 1.9a33.712 33.712 0 0 1-4.447 1.281v3.4h5.351q-.049-1.559-.05-6.556h2.286q-.038 3.34 0 6.556h7.021v2.185h-6.95a57.4 57.4 0 0 0 .465 6.016 22.433 22.433 0 0 0 3.215-5.012l2.01 1a21.726 21.726 0 0 1-4.509 6.407 10 10 0 0 0 1.375 2.21q.635.7.974.7.879 0 1.57-3.969zm-.892-13.012l-1.859 1.381a18.617 18.617 0 0 0-3.316-3.729l1.771-1.482a20.4 20.4 0 0 1 3.404 3.83z" class="cls-2" data-name="Path 143"/>
                <path id="Path_144" d="M84.843 130.907a10.672 10.672 0 0 1 2.581-7.455 8.94 8.94 0 0 1 6.965-2.844 8.441 8.441 0 0 1 6.594 2.763 10.186 10.186 0 0 1 2.487 7.084 10.723 10.723 0 0 1-2.537 7.423 9.608 9.608 0 0 1-13.534.1 9.952 9.952 0 0 1-2.556-7.071zm3.165-.214a8.265 8.265 0 0 0 1.646 5.294 5.371 5.371 0 0 0 4.446 2.079 5.6 5.6 0 0 0 4.572-1.978 8.146 8.146 0 0 0 1.633-5.345 8.611 8.611 0 0 0-1.576-5.451 5.377 5.377 0 0 0-4.491-2.009 5.545 5.545 0 0 0-4.534 2.085 8.17 8.17 0 0 0-1.696 5.325z" class="cls-2" data-name="Path 144"/>
                <path id="Path_145" d="M123.061 140.39h-4.006l-6.858-8.743a3.552 3.552 0 0 1-.515-.816h-.063v9.559H108.6v-19.455h3.015v9.165h.063a5.474 5.474 0 0 1 .527-.817l6.594-8.351h3.668l-7.787 9.319z" class="cls-2" data-name="Path 145"/>
                <path id="Path_146" d="M136.674 133.344a1.577 1.577 0 0 1-1.042-1.609 1.448 1.448 0 0 1 .534-1.155 1.771 1.771 0 0 1 1.174-.452 1.519 1.519 0 0 1 1.193.527 1.905 1.905 0 0 1 .465 1.307q0 1.444-2.21 3.127l-.779-.6a6.606 6.606 0 0 0 .665-1.145z" class="cls-2" data-name="Path 146"/>
                <path id="Path_147" d="M160.675 119.678a43.675 43.675 0 0 1-2.3 4.094v9.546l-2.235-.025v-6.456q-.491.54-1.671 1.671l-1.331-1.909a24.328 24.328 0 0 0 5.425-7.611zm-2.236 15.047a22.139 22.139 0 0 1-3.165 6.254l-1.934-1.28a20.323 20.323 0 0 0 2.964-5.639zm16.969-13.753a25.446 25.446 0 0 1-1.47 4.622l-2.185-.716a15.393 15.393 0 0 0 .678-1.771h-8.365a17.068 17.068 0 0 1-3.215 3.655l-1.646-1.545a22.938 22.938 0 0 0 4.811-6.229l2.059.879a11.115 11.115 0 0 1-.639 1.105zm-4.27 16.617a8.7 8.7 0 0 1-.873 2.788 2.356 2.356 0 0 1-1.42.93 22.453 22.453 0 0 1-4.339.251 10.1 10.1 0 0 1-4.007-.522q-1.018-.522-1.018-2.417v-4.711h2.274v4.547a.748.748 0 0 0 .5.785 9.952 9.952 0 0 0 2.519.183 20.878 20.878 0 0 0 2.782-.108 1.22 1.22 0 0 0 .879-.627 5.726 5.726 0 0 0 .446-1.978zm-5.5-10.827a26.111 26.111 0 0 1-4.119 5.677l-1.746-1.495a24.092 24.092 0 0 0 3.906-5.425zm2.236 9.847l-1.771 1.357a28.057 28.057 0 0 0-2.964-3.857l1.7-1.331a24.355 24.355 0 0 1 3.033 3.831zm1.13-3.265h-2.336v-9.257H169zm6.9-2.5l-1.846 1.319a33.472 33.472 0 0 0-4.019-5.275l1.834-1.206a34.4 34.4 0 0 1 4.027 5.162zm.076 9.055L174 141.08a32.263 32.263 0 0 0-3.454-5.865l1.884-1.231a29.516 29.516 0 0 1 3.543 5.916z" class="cls-2" data-name="Path 147"/>
                <path id="Path_148" d="M203.239 136.27a17.3 17.3 0 0 1-.728 3.662 2.659 2.659 0 0 1-1.106 1.2 5.276 5.276 0 0 1-2.606.421q-1.84-.033-2.631-.031a2.95 2.95 0 0 1-1.991-.579 2.741 2.741 0 0 1-.659-2.123v-7.56h-3.681a11.488 11.488 0 0 1-2.072 6.663 13.218 13.218 0 0 1-6.129 3.862l-1.08-2.136q6.969-2.133 6.92-8.389h-6.481v-2.111h9.8v-3.981h-4.886a16.692 16.692 0 0 1-2.55 3.077l-2.06-1.356a20.587 20.587 0 0 0 4.975-7.36l2.235.778-1.269 2.7h3.555v-3.73h2.286v3.73h8.88v2.16h-8.88v3.981h9.809v2.111h-6.995v7.435a.5.5 0 0 0 .326.509 7.536 7.536 0 0 0 1.909.132 5.068 5.068 0 0 0 1.77-.183 1.5 1.5 0 0 0 .61-.929 14.148 14.148 0 0 0 .421-2.719z" class="cls-2" data-name="Path 148"/>
                <path id="Path_149" d="M215.947 123.521H208v-2.084h2.964a13.107 13.107 0 0 0-.929-1.809l2.373-.69a20.662 20.662 0 0 1 1.181 2.5h2.361zm-.716 3.806h-6.669v-2.135h6.669zm0 3.806h-6.669v-2.16h6.669zm0 10.023h-2.185V140h-2.21v1.7h-2.274v-8.918h6.669zm-2.185-3.291v-2.976h-2.21v2.976zm16.152 1.7q0 2.186-2.637 2.185c-.369 0-.837-.017-1.407-.05l-.766-2.1h2.035c.343 0 .514-.181.514-.54v-1.294h-7.184a8.3 8.3 0 0 1-1.871 4.17l-1.86-1.344a8.279 8.279 0 0 0 1.734-5.627v-5.1H229.2zm1.181-10.877h-14.092v-1.922h5.891v-1.218h-4.862v-1.772h4.862v-1.129h-5.451v-1.859h5.451v-1.595h2.235v1.595h5.451v1.859h-5.451v1.129h4.836v1.772h-4.836v1.218h5.966zm-3.442 7.309V134.7h-6.97a10.036 10.036 0 0 1-.05 1.293zm0-3.064v-1.205h-6.945v1.205z" class="cls-2" data-name="Path 149"/>
            </g>
        </g>
    </g>
</svg>
