<svg xmlns="http://www.w3.org/2000/svg" id="Symbol_101_1" width="347.3" height="237" data-name="Symbol 101 1" viewBox="0 0 347.3 237">
    <defs>
        <style>
            .cls-1{fill:#f99}.cls-2{fill:#b3b3b3}
        </style>
    </defs>
    <g id="Group_275" data-name="Group 275" transform="translate(-.053)">
        <g id="Group_274" data-name="Group 274">
            <path id="Path_291" d="M47.453 155.8h-44.7v-4.2h6.6v-6.9h-5.6v-4.2h5.6v-5.4c-.8.7-2 1.7-3.5 2.9l-3.4-3.5a39.479 39.479 0 0 0 11-11.3l4.8 1.3a21.6 21.6 0 0 1-2.7 4h30.7v4.3h-34.5l-2.1 2.1h4.4v5.5h4.8v-5.5h4.4v5.5h5.1v-5.5h4.3v5.5h5.1v-5.5h4.4v5.5h4.6v4.2h-4.6v6.9h5.5zm-34.8 3.2a46.483 46.483 0 0 1-5.9 10.4l-4.3-2.7a43.953 43.953 0 0 0 5.8-9.5zm6-7.4v-6.9h-4.8v6.9zm4.8 16l-4.5 1.4a64.737 64.737 0 0 0-2.8-9.8l4.4-1.5a62.975 62.975 0 0 1 2.9 9.9zm4.7-16v-6.9h-5.1v6.9zm7.6 15.6l-4.4 1.8a44.558 44.558 0 0 0-4.2-9.8l4.4-1.7a83.488 83.488 0 0 1 4.2 9.7zm1.8-15.6v-6.9h-5.1v6.9zm10.3 15.5l-4.5 2a48.475 48.475 0 0 0-5.7-10.2l4.4-2a48.865 48.865 0 0 1 5.8 10.2z" class="cls-1" data-name="Path 291"/>
            <path id="Path_292" d="M68.653 139.8q4.2 5.85 4.2 11.4c0 4.5-2.2 6.8-6.5 6.8a6.6 6.6 0 0 1-1.4-.1l-1.4-4.3a24.655 24.655 0 0 0 3.2.1c1.1 0 1.6-.9 1.6-2.7 0-3.4-1.5-7-4.5-10.7a106.9 106.9 0 0 0 3.6-10.9h-4.6v39.3h-4.5v-43.8h13.4v4.5a71.98 71.98 0 0 1-3.1 10.4zm33.2-1.7h-30.1v-3.5h7.4c-.4-1.1-.9-2.4-1.5-3.7h-4v-3.6h10.9a9.233 9.233 0 0 0-1.8-3l4.9-.9a28.679 28.679 0 0 1 2 3.9h11.1v3.6h-3.8l-1.7 3.7h6.6zm.1 24.6h-12.1v6h-4.6v-6h-13.4V159h13.4v-2.5h-10.1v-15.8h24.8v15.8h-10.1v2.5h12.1zm-6.5-16v-2.6h-15.9v2.6zm0 6.2v-2.7h-15.9v2.7zm-3.5-22h-9.3l1.4 3.7h6.1a39.543 39.543 0 0 0 1.8-3.7z" class="cls-1" data-name="Path 292"/>
            <path id="Path_293" d="M125.953 129.5h-4a74.748 74.748 0 0 1-2.8 10.3h6.3v23.7h-3.9v-1.9h-2.6v3.3h-3.9v-16.3c-.4.6-1 1.4-1.8 2.5l-2.4-4.4c3.2-4.4 5.4-10.1 6.7-17.2h-5.8v-4.4h14.1zm-4.4 27.8V144h-2.6v13.3zm18.2-3.5h-3.8a15.986 15.986 0 0 1-.5 2.1 21.876 21.876 0 0 1 3.8 4.2l-2.6 3.6a22.154 22.154 0 0 0-2.5-3.5 27.859 27.859 0 0 1-6.7 8.9l-3-2.9c4.3-3.7 6.7-7.7 7.4-12.2h-4.9v-3.6h5.3a33.791 33.791 0 0 0 0-4.5h-.9a28.166 28.166 0 0 1-2.1 3.8l-3.1-2.4a26.538 26.538 0 0 0 3.5-8.1l3.7.6a11.364 11.364 0 0 1-.6 2.5h6.6v3.6h-3.1v1.7a26.2 26.2 0 0 1-.1 2.8h3.6v3.4zm.4-15.6h-8.3a4.808 4.808 0 0 1-3.3-1c-.7-.7-1.1-2-1.1-3.9V124h4.2v3h8.1v3.6h-8.1v2.6c0 .9.4 1.4 1.1 1.4h7.4zm17.1 25.7l-1.4 4.3c-5.9.1-10.2-1.5-12.9-4.7a25.211 25.211 0 0 1-3.2 5.8l-2.9-2.8c3.1-3.5 4.6-9.8 4.4-18.9h3.5a57.722 57.722 0 0 1-.2 7.2l-.3 3.8a3.7 3.7 0 0 0 .5 1.1 6.529 6.529 0 0 0 1.3 1.6v-18.2h-5v-3.8h6.5a34.3 34.3 0 0 0-5.6-6.4l3-2.5c.7.6 1.4 1.2 2.1 1.9a27.441 27.441 0 0 0 3.2-3.6h-9.1v-3.6h14v3.6a42.805 42.805 0 0 1-5.6 6.5 23.981 23.981 0 0 1 1.8 2.6l-1.9 1.4h7a44.446 44.446 0 0 1-1.9 9.5l-3.7-1.2a37.445 37.445 0 0 0 1.2-4.5h-2.3v7.8h5.5v3.9h-5.5v8.5a27.987 27.987 0 0 0 7.5.7z" class="cls-1" data-name="Path 293"/>
            <path id="Path_294" d="M184.153 132.8h-18v-4.2h6.9a33.894 33.894 0 0 0-1.8-3.9l4.6-1.1a24.13 24.13 0 0 1 2.1 5h6.2zm-1.2 7.4h-15.4v-4.1h15.4zm0 7.4h-15.4v-4.1h15.4zm0 19.9h-4.5v-2h-6.5v3.3h-4.3V151h15.3zm-4.5-6.2v-6.1h-6.5v6.1zm33.2 3.6l-2.2 4.2a41.1 41.1 0 0 1-11.8-6 47.089 47.089 0 0 1-11.2 6.2l-2.6-3.9a31.519 31.519 0 0 0 10.5-5.3 34.049 34.049 0 0 1-6.5-10.6h-2.2v-4.2h22.4v4.2a41.144 41.144 0 0 1-6.9 10.6 34.641 34.641 0 0 0 10.5 4.8zm-.6-22.8h-6.7a2.99 2.99 0 0 1-2.3-1.1 3.317 3.317 0 0 1-1-2.5v-9.1h-7.1v3.1a14.093 14.093 0 0 1-1.7 6.6 12.5 12.5 0 0 1-4.6 4.8l-3.2-3.1c3.4-1.8 5-4.9 5-9.5v-6.1h16v11.5a1.05 1.05 0 0 0 .5.9 1.489 1.489 0 0 0 .9.4h4.2zm-7.9 7.3h-10.2a27.511 27.511 0 0 0 4.9 7.6 33.429 33.429 0 0 0 5.3-7.6z" class="cls-1" data-name="Path 294"/>
            <path id="Path_295" d="M238.753 134.4h-9.9c0 2.2 0 4.3-.1 6.3h8.7c.1 15.3-.3 23.8-1.3 25.6s-3.5 2.6-7.8 2.3l-1.3-4.5a24.667 24.667 0 0 0 4.7-.2.988.988 0 0 0 .7-.7 45.833 45.833 0 0 0 .4-6.4c.2-3.9.2-7.9.2-11.9h-4.4c-.4 10.6-2.1 18.6-5.1 24.1l-3.2-3.9a34.939 34.939 0 0 0 3.5-13c.3-4.8.5-10.7.5-17.7h-3.6V130h7.1c-.4-1.3-1.2-3.2-2.3-5.8l4.5-.9a52.953 52.953 0 0 1 2.3 6.7h6.3zm27 25.3c-.3 3.4-1 5.7-2.1 6.8s-2.8 1.7-5.4 1.7h-12c-2.7-.1-4.1-1.8-4.1-5.1v-14.6l-3 .9-.6-4.3 3.6-1v-4.4a21.963 21.963 0 0 1-1.4 1.8l-3.4-2.9a53.67 53.67 0 0 0 8.1-15.1l4.3 1.1a37.983 37.983 0 0 1-1.8 4.7h17.1v4.3h-19.1c-.9 1.7-1.9 3.3-2.9 4.9h3.5v4.3l3.8-1v-6.4h4.4v5l9.8-2.7a59.6 59.6 0 0 1-3.8 19.2l-4.1-1.5a50.257 50.257 0 0 0 3-12l-4.9 1.4v16.3h-4.4v-15l-3.8 1v15.5a.9.9 0 0 0 .7 1 45.636 45.636 0 0 0 6.4.2 30.188 30.188 0 0 0 6-.3c1-.2 1.6-1.9 1.7-5.1z" class="cls-1" data-name="Path 295"/>
            <path id="Path_296" d="M47.853 226.5a23.039 23.039 0 0 1-2.7 7.6 4.948 4.948 0 0 1-4.2 2.7c-2.9 0-5.7-2.6-8.6-7.7a70.935 70.935 0 0 1-9.5 5.8l-2.6-3.8a51.987 51.987 0 0 0 10.4-6.2c-.8-3.2-1.4-8.4-1.7-15.6h-10.8v7.1a71.5 71.5 0 0 0 8.5-2.2l.1 4.5c-3.1.9-6 1.6-8.6 2.2v11.4a4.28 4.28 0 0 1-.8 2.9 3.219 3.219 0 0 1-2 1.2 32.527 32.527 0 0 1-4.4.3c-1.6 0-3.1 0-4.7-.1l-1.6-4.9c2.3.1 4.2.2 5.7.2a8.834 8.834 0 0 0 2.8-.2.87.87 0 0 0 .4-.9v-8.9c-3.7.7-7.1 1.2-10.1 1.5l-.8-4.3c3.3-.4 7-1 11-1.8v-8.1h-10.8v-4.4h10.8V199c-2.3.4-5.2.7-8.7 1l-2.1-4.3a77.894 77.894 0 0 0 21.8-4l2.6 3.8a69.634 69.634 0 0 1-8.9 2.6v6.8h10.7c-.1-2.1-.1-6.4-.1-13.1h4.6v13.1h14v4.4h-13.9q.15 6 .9 12a43.65 43.65 0 0 0 6.4-10l4 2c-2.8 5.6-5.8 9.9-9 12.8a15.664 15.664 0 0 0 2.8 4.4c.8.9 1.5 1.4 1.9 1.4 1.2 0 2.2-2.6 3.1-7.9zm-1.8-26l-3.7 2.8a39.447 39.447 0 0 0-6.6-7.5l3.5-3a38.332 38.332 0 0 1 6.8 7.7z" class="cls-1" data-name="Path 296"/>
            <path id="Path_297" d="M56.053 215c0-6.1 1.7-11.1 5.2-14.9s8.1-5.7 13.9-5.7c5.5 0 9.9 1.8 13.2 5.5s5 8.4 5 14.2c0 6.1-1.7 11.1-5.1 14.8-3.4 3.8-8 5.7-13.7 5.7a17.524 17.524 0 0 1-13.4-5.5q-5.1-5.4-5.1-14.1zm6.3-.4a16.317 16.317 0 0 0 3.3 10.6 10.9 10.9 0 0 0 8.9 4.2 10.96 10.96 0 0 0 9.1-4c2.2-2.6 3.3-6.2 3.3-10.7 0-4.6-1.1-8.2-3.2-10.9s-5.1-4-9-4a11.132 11.132 0 0 0-9.1 4.2 16.533 16.533 0 0 0-3.3 10.6z" class="cls-1" data-name="Path 297"/>
            <path id="Path_298" d="M132.553 234h-8l-13.8-17.5a5.372 5.372 0 0 1-1-1.6h-.1V234h-6v-38.9h6v18.3h.1a9.063 9.063 0 0 1 1.1-1.6l13.2-16.7h7.3l-15.6 18.6z" class="cls-1" data-name="Path 298"/>
            <path id="Path_299" d="M159.753 219.9a3.246 3.246 0 0 1-2.1-3.2 2.99 2.99 0 0 1 1.1-2.3 3.337 3.337 0 0 1 2.3-.9 3.194 3.194 0 0 1 2.4 1.1 3.607 3.607 0 0 1 .9 2.6c0 1.9-1.5 4-4.4 6.3l-1.6-1.2a12.316 12.316 0 0 0 1.4-2.4z" class="cls-1" data-name="Path 299"/>
            <path id="Path_301" d="M293.053 225.5a30.572 30.572 0 0 1-1.5 7.3 5.134 5.134 0 0 1-2.2 2.4 10.041 10.041 0 0 1-5.2.8c-2.5 0-4.2-.1-5.3-.1a5.914 5.914 0 0 1-4-1.2c-.9-.8-1.3-2.2-1.3-4.2v-15h-7.4c-.3 5.7-1.7 10.2-4.1 13.3-2.5 3.1-6.6 5.7-12.3 7.7l-2.2-4.3q13.95-4.2 13.8-16.8h-13v-4.2h19.6v-8h-9.8a37.357 37.357 0 0 1-5.1 6.2l-4.1-2.7a41.069 41.069 0 0 0 9.9-14.7l4.5 1.6-2.5 5.4h7.1v-7.5h4.6v7.5h17.8v4.3h-17.8v8h19.6v4.2h-14v14.9a.962.962 0 0 0 .7 1 24.328 24.328 0 0 0 3.8.3 8.236 8.236 0 0 0 3.5-.4 2.763 2.763 0 0 0 1.2-1.9 25.177 25.177 0 0 0 .8-5.4z" class="cls-1" data-name="Path 301"/>
            <path id="Path_302" d="M318.453 200.2h-15.9V196h5.9a15.467 15.467 0 0 0-1.9-3.6l4.7-1.4a45.9 45.9 0 0 1 2.4 5h4.7zm-1.4 7.6h-13.3v-4.3h13.3zm0 7.6h-13.3v-4.3h13.3zm0 20.1h-4.4v-2.3h-4.4v3.4h-4.5v-17.8h13.3v16.7zm-4.4-6.6v-6h-4.4v6zm32.3 3.4c0 2.9-1.8 4.4-5.3 4.4-.7 0-1.7 0-2.8-.1l-1.5-4.2h4.1c.7 0 1-.4 1-1.1v-2.6h-14.4a15.737 15.737 0 0 1-3.7 8.3l-3.7-2.7c2.3-2.6 3.5-6.4 3.5-11.3v-10.2h22.9zm2.4-21.8h-28.2v-3.8h11.8v-2.4h-9.7v-3.5h9.7v-2.3h-10.9v-3.7h10.9v-3.2h4.5v3.2h10.9v3.7h-10.9v2.3h9.7v3.5h-9.7v2.4h11.9zm-6.9 14.7v-2.6h-13.9a22.6 22.6 0 0 1-.1 2.6zm0-6.2v-2.4h-13.9v2.4z" class="cls-1" data-name="Path 302"/>
            <g id="Group_362" data-name="Group 362">
                <path id="Path_486" d="M207.253 192.8a71.8 71.8 0 0 1-2.8 6.9l-1.8 3.9v33.1h-4.3v-25.6a45.625 45.625 0 0 1-3.2 3.7l-2.4-4.7a52.5 52.5 0 0 0 10-18.7zm29.9 5.1a57.309 57.309 0 0 1-3.7 14l-4.1-1.8a54.108 54.108 0 0 0 2.4-8.1h-16.7a55.1 55.1 0 0 1-7.5 10.8l-3.2-3.3a53.891 53.891 0 0 0 10-17.7l4.3 1a47.506 47.506 0 0 1-2 4.9h20.5zm-20.3 15.2q-3.6 11.55-8.7 18.3l-3.5-2.8a54.025 54.025 0 0 0 8.1-16.7zm7.1 18.7c0 3.2-1.6 4.7-4.7 4.7h-5.7l-1.4-4.5 4.9.2c1.8 0 2.6-.6 2.6-1.8v-25.2h4.5v26.6zm14.4-2.4l-4.1 2.2a87.261 87.261 0 0 0-7.5-18.1l3.9-1.6a74.349 74.349 0 0 1 7.7 17.5z" class="cls-1" data-name="Path 486"/>
            </g>
        </g>
    </g>
    <g id="Group_276" data-name="Group 276" transform="translate(-.053)">
        <path id="Path_303" d="M54.153.4v8.2h-30.6l-4.3 23.5a34.929 34.929 0 0 1 10.1-1.6c7.8 0 14.3 2.6 19.4 7.9s7.6 12 7.6 20.2a31.425 31.425 0 0 1-3.9 15.6 27.116 27.116 0 0 1-10.6 10.9 31.22 31.22 0 0 1-15.5 3.8 25.62 25.62 0 0 1-17.7-6.4 26.156 26.156 0 0 1-8.6-16.6h8.9a18.738 18.738 0 0 0 3.4 8.1 16.869 16.869 0 0 0 6.3 5 18.364 18.364 0 0 0 8.3 1.9 19.6 19.6 0 0 0 14.6-6.4 22.238 22.238 0 0 0 6.1-16.1c0-5.8-1.8-10.5-5.5-14.2q-5.55-5.4-14.7-5.4c-5.1 0-11.2 1.5-18.5 4.6l8-42.9z" class="cls-2" data-name="Path 303"/>
    </g>
    <path id="Path_304" d="M98.4 20.2a20.137 20.137 0 0 1-6.6 7.3l-2.7-3a16.026 16.026 0 0 0 7-11.9h-7.7V0h12.4v11.5a18.079 18.079 0 0 1-2.4 8.7zm20.1 0a22 22 0 0 1-6.6 7.3l-2.8-3a16.026 16.026 0 0 0 7-11.9h-7.6V0h12.4v11.5a19.262 19.262 0 0 1-2.4 8.7z" class="cls-2" data-name="Path 304" transform="translate(-.053)"/>
</svg>
