<svg xmlns="http://www.w3.org/2000/svg" width="347.357" height="237.043" viewBox="0 0 347.357 237.043">
    <defs>
        <style>
            .cls-1{fill:#f99}.cls-2{fill:#b3b3b3}
        </style>
    </defs>
    <g id="Symbol_101_1" data-name="Symbol 101 – 1" transform="translate(-570 -156)">
        <g id="Group_275" data-name="Group 275" transform="translate(-.347 1.5)">
            <g id="Group_274" data-name="Group 274">
                <path id="Path_291" d="M617.837 310.286h-44.714v-4.17h6.557v-6.933h-5.627v-4.17h5.627v-5.351q-1.182 1.032-3.518 2.94l-3.391-3.542a38.8 38.8 0 0 0 10.953-11.28l4.8 1.332a19.985 19.985 0 0 1-2.738 4.019h30.672v4.27H581.94q-.678.78-2.11 2.111h4.421v5.5h4.773v-5.5h4.376v5.5h5.1v-5.5h4.321v5.5h5.1v-5.5h4.422v5.5h4.571v4.17h-4.571v6.933h5.5zm-34.816 3.191a44.184 44.184 0 0 1-5.878 10.4l-4.271-2.738a42.745 42.745 0 0 0 5.777-9.545zm6-7.361v-6.933h-4.773v6.933zm4.8 16l-4.547 1.357a62.431 62.431 0 0 0-2.813-9.848l4.371-1.532a56.07 56.07 0 0 1 2.99 10.025zm4.672-16v-6.933h-5.1v6.933zm7.562 15.6l-4.421 1.759a50.708 50.708 0 0 0-4.17-9.773l4.421-1.708a65.142 65.142 0 0 1 4.171 9.722zm1.858-15.6v-6.933h-5.1v6.933zm10.274 15.5l-4.521 1.96a49.13 49.13 0 0 0-5.652-10.249l4.422-2.01a51.666 51.666 0 0 1 5.752 10.298z" class="cls-1" data-name="Path 291"/>
                <path id="Path_292" d="M639.035 294.335q4.2 5.778 4.2 11.43 0 6.757-6.456 6.756a13.206 13.206 0 0 1-1.38-.075l-1.357-4.27q.828.1 3.19.1 1.608 0 1.608-2.713 0-5.1-4.523-10.7a103.868 103.868 0 0 0 3.593-10.9h-4.622v39.288h-4.5v-43.762h13.44v4.471q-1.509 5.753-3.193 10.375zm33.185-1.735h-30.095v-3.54h7.36q-.6-1.709-1.506-3.668h-3.945v-3.642h10.9a12.969 12.969 0 0 0-1.758-2.989l4.948-.93a25.226 25.226 0 0 1 1.959 3.919h11.057v3.642h-3.819l-1.683 3.668h6.582zm.1 24.592h-12.133v6h-4.6v-6h-13.361v-3.717h13.364v-2.512h-10.123v-15.8h24.793v15.8h-10.073v2.512h12.133zm-6.531-15.951v-2.562h-15.852v2.562zm0 6.129v-2.738h-15.852v2.738zm-3.492-21.98h-9.319l1.431 3.668h6.129q1.131-2.184 1.762-3.666z" class="cls-1" data-name="Path 292"/>
                <path id="Path_293" d="M696.307 284.011h-3.969a82.458 82.458 0 0 1-2.788 10.273h6.279v23.739h-3.918v-1.909h-2.562v3.341h-3.869V303.2q-.6.881-1.784 2.462l-2.361-4.421q4.773-6.531 6.732-17.232h-5.828v-4.422h14.068zm-4.4 27.833v-13.339h-2.562v13.339zm18.212-3.568h-3.844a11.9 11.9 0 0 1-.476 2.061 22 22 0 0 1 3.767 4.17l-2.562 3.566a18.4 18.4 0 0 0-2.537-3.516 27.65 27.65 0 0 1-6.733 8.867l-2.989-2.939q6.381-5.476 7.36-12.209h-4.9v-3.642h5.3a39.263 39.263 0 0 0 .05-4.471h-.854a23.842 23.842 0 0 1-2.11 3.793l-3.14-2.412a28.023 28.023 0 0 0 3.491-8.064l3.743.6a12.167 12.167 0 0 1-.6 2.486h6.632v3.593h-3.14q.05.7.05 1.657 0 1.408-.1 2.814h3.592zm.427-15.625h-8.289a4.718 4.718 0 0 1-3.3-1.029q-1.117-1.029-1.118-3.869v-9.345h4.221v3.015h8.14v3.617h-8.14v2.613q0 1.407 1.129 1.407h7.361zm17.032 25.724l-1.357 4.271q-8.917.125-12.912-4.673a27.218 27.218 0 0 1-3.241 5.8l-2.863-2.837q4.672-5.2 4.371-18.917l3.491-.049a71.294 71.294 0 0 1-.15 7.234l-.251 3.768a3.977 3.977 0 0 0 .54 1.13 5.694 5.694 0 0 0 1.344 1.584v-18.161h-5.025v-3.793h6.482a31.354 31.354 0 0 0-5.6-6.38l3.015-2.512a26.317 26.317 0 0 1 2.109 1.884 33.881 33.881 0 0 0 3.241-3.593h-9.093v-3.592h14.042v3.592a44.668 44.668 0 0 1-5.552 6.531 29.844 29.844 0 0 1 1.808 2.638l-1.858 1.432h6.981a42.336 42.336 0 0 1-1.883 9.521l-3.718-1.181a42.338 42.338 0 0 0 1.18-4.547h-2.311v7.788h5.451v3.893h-5.451v8.49a21.975 21.975 0 0 0 7.214.679z" class="cls-1" data-name="Path 293"/>
                <path id="Path_294" d="M754.482 287.251h-18.01v-4.17h6.907a34.026 34.026 0 0 0-1.758-3.868l4.571-1.131a26.274 26.274 0 0 1 2.111 5h6.179zm-1.23 7.461h-15.4v-4.12h15.4zm0 7.36h-15.4V298h15.4zm.05 19.946h-4.472v-2.061h-6.48v3.291h-4.371v-17.785H753.3zm-4.472-6.231v-6.1h-6.48v6.1zm33.185 3.567l-2.161 4.17a39.4 39.4 0 0 1-11.782-6.028 46.73 46.73 0 0 1-11.177 6.179l-2.614-3.918a31.876 31.876 0 0 0 10.5-5.3 34.72 34.72 0 0 1-6.481-10.6h-2.336v-4.22H778.4v4.22a40.78 40.78 0 0 1-6.932 10.551 30.506 30.506 0 0 0 10.547 4.946zm-.578-22.733h-6.682a3.114 3.114 0 0 1-2.312-1.093 3.515 3.515 0 0 1-1.03-2.474v-9.144h-7.059V287a13.714 13.714 0 0 1-1.7 6.556 11.941 11.941 0 0 1-4.635 4.848l-3.19-3.139q5.049-2.664 5.05-9.521v-6.055h16v11.456a1.17 1.17 0 0 0 .477.9 1.438 1.438 0 0 0 .905.4h4.17zm-7.963 7.234h-10.249a26.807 26.807 0 0 0 4.948 7.612 28.356 28.356 0 0 0 5.301-7.612z" class="cls-1" data-name="Path 294"/>
                <path id="Path_295" d="M809.065 288.934h-9.873q0 3.291-.1 6.28h8.692q.174 22.935-1.257 25.636t-7.761 2.3l-1.331-4.521a31.787 31.787 0 0 0 4.7-.163 1.054 1.054 0 0 0 .666-.653 54.766 54.766 0 0 0 .427-6.393q.238-5.9.238-11.882h-4.371q-.552 15.825-5.1 24.09l-3.241-3.919a33.607 33.607 0 0 0 3.467-13.05q.5-7.221.5-17.722H791.1v-4.371h7.109q-.629-1.959-2.261-5.752l4.522-.93a50.723 50.723 0 0 1 2.311 6.682h6.28zm27 25.22q-.477 5.151-2.059 6.846t-5.351 1.7h-12.029q-4.069-.126-4.069-5.149v-14.62l-3.039.88-.6-4.271 3.643-.98v-4.421a12.994 12.994 0 0 1-1.432 1.759L807.684 293a53.374 53.374 0 0 0 8.063-15.072l4.32 1.08a43.629 43.629 0 0 1-1.783 4.7h17.132v4.27h-19.142a57.091 57.091 0 0 1-2.939 4.924h3.542v4.321l3.769-.98v-6.381h4.371v5.05l9.821-2.663a62.145 62.145 0 0 1-3.793 19.217l-4.119-1.483a56.119 56.119 0 0 0 3.039-12.032l-4.948 1.382v16.253h-4.371v-14.971l-3.769.98v15.549a.971.971 0 0 0 .728 1.043 46.131 46.131 0 0 0 6.381.213 37.171 37.171 0 0 0 5.979-.3q1.482-.3 1.733-5.075z" class="cls-1" data-name="Path 295"/>
                <path id="Path_296" d="M618.188 380.992a24.029 24.029 0 0 1-2.65 7.587 4.864 4.864 0 0 1-4.232 2.688q-4.322 0-8.591-7.712a61.322 61.322 0 0 1-9.521 5.777l-2.562-3.818a58.627 58.627 0 0 0 10.425-6.155q-1.257-4.847-1.734-15.649h-10.751v7.108q3.843-.777 8.54-2.16l.1 4.472q-4.647 1.356-8.641 2.16v11.4a4.447 4.447 0 0 1-.8 2.914 3.7 3.7 0 0 1-2.035 1.245 22.678 22.678 0 0 1-4.421.288q-2.387 0-4.672-.125l-1.608-4.874q3.467.15 5.677.151a9.306 9.306 0 0 0 2.764-.214.942.942 0 0 0 .4-.917v-8.888q-5.527 1.056-10.123 1.532l-.829-4.271q4.974-.552 10.952-1.758v-8.063h-10.8v-4.371h10.8v-5.828q-3.467.527-8.741.979l-2.061-4.27q13.039-.779 21.78-4.044l2.613 3.793a67.61 67.61 0 0 1-8.893 2.562v6.808h10.7q-.1-3.114-.1-13.113h4.571q-.075 6.682 0 13.113h14.043v4.371H603.9a114.277 114.277 0 0 0 .928 12.032 44.885 44.885 0 0 0 6.432-10.022l4.018 2.009q-4.194 8.416-9.017 12.811a19.917 19.917 0 0 0 2.75 4.421q1.269 1.407 1.947 1.407 1.758 0 3.14-7.938zm-1.783-26.024l-3.718 2.763a37.249 37.249 0 0 0-6.631-7.46l3.542-2.964a40.789 40.789 0 0 1 6.807 7.661z" class="cls-1" data-name="Path 296"/>
                <path id="Path_297" d="M626.375 369.487q0-9.217 5.162-14.909t13.93-5.689q8.213 0 13.187 5.526t4.974 14.168q0 9.17-5.074 14.846t-13.716 5.677a17.42 17.42 0 0 1-13.351-5.476q-5.112-5.476-5.112-14.143zm6.33-.426A16.532 16.532 0 0 0 636 379.648a10.743 10.743 0 0 0 8.893 4.158 11.2 11.2 0 0 0 9.143-3.956q3.266-3.957 3.266-10.689 0-6.884-3.152-10.9t-8.981-4.02a11.092 11.092 0 0 0-9.068 4.17 16.336 16.336 0 0 0-3.396 10.65z" class="cls-1" data-name="Path 297"/>
                <path id="Path_298" d="M702.863 388.453h-8.013l-13.716-17.483a7.215 7.215 0 0 1-1.03-1.633h-.125v19.116h-6.03v-38.911h6.03v18.338h.125a10.781 10.781 0 0 1 1.055-1.633l13.188-16.705h7.336l-15.576 18.639z" class="cls-1" data-name="Path 298"/>
                <path id="Path_299" d="M730.141 374.36a3.15 3.15 0 0 1-2.085-3.214 2.9 2.9 0 0 1 1.067-2.312 3.554 3.554 0 0 1 2.349-.9 3.033 3.033 0 0 1 2.386 1.055 3.809 3.809 0 0 1 .93 2.613q0 2.888-4.421 6.255l-1.557-1.207a13.289 13.289 0 0 0 1.331-2.29z" class="cls-1" data-name="Path 299"/>
                <path id="Path_300" d="M778.192 347.03a87.813 87.813 0 0 1-4.6 8.189v19.092l-4.471-.051v-12.911q-.98 1.078-3.342 3.34l-2.662-3.818q5.879-5.15 10.852-15.223zm-4.471 30.094a44.345 44.345 0 0 1-6.33 12.51l-3.87-2.563a40.6 40.6 0 0 0 5.929-11.278zm33.937-27.507a50.93 50.93 0 0 1-2.939 9.244l-4.371-1.431a31.005 31.005 0 0 0 1.356-3.542h-16.729a34.086 34.086 0 0 1-6.431 7.309l-3.291-3.09q4.824-4.043 9.621-12.459l4.12 1.758a22.132 22.132 0 0 1-1.281 2.211zm-8.541 33.235a17.348 17.348 0 0 1-1.746 5.576 4.7 4.7 0 0 1-2.839 1.859 44.8 44.8 0 0 1-8.678.5q-5.979 0-8.014-1.042t-2.034-4.836v-9.42h4.547v9.094a1.494 1.494 0 0 0 .992 1.569 19.957 19.957 0 0 0 5.036.365 42.282 42.282 0 0 0 5.564-.213 2.443 2.443 0 0 0 1.759-1.256 11.418 11.418 0 0 0 .892-3.957zm-11-21.655a52.173 52.173 0 0 1-8.239 11.355l-3.491-2.989a48.217 48.217 0 0 0 7.811-10.852zm4.472 19.7l-3.542 2.712a55.921 55.921 0 0 0-5.929-7.711l3.392-2.663a48.666 48.666 0 0 1 6.076 7.657zm2.261-6.532h-4.673v-18.518h4.673zm13.791-5L804.945 372a67.211 67.211 0 0 0-8.039-10.55l3.668-2.412a68.88 68.88 0 0 1 8.064 10.323zm.15 18.113l-3.943 2.361a64.455 64.455 0 0 0-6.908-11.731l3.767-2.462a59.007 59.007 0 0 1 7.081 11.828z" class="cls-1" data-name="Path 300"/>
                <path id="Path_301" d="M863.372 380.214a34.353 34.353 0 0 1-1.457 7.322 5.309 5.309 0 0 1-2.211 2.4q-1.531.9-5.212.84t-5.263-.062a5.907 5.907 0 0 1-3.981-1.155q-1.32-1.156-1.319-4.246V370.19h-7.361q-.427 8.617-4.144 13.327t-12.259 7.724l-2.16-4.27q13.941-4.271 13.841-16.781h-12.962v-4.219h19.594v-7.963h-9.772a33.385 33.385 0 0 1-5.1 6.154l-4.12-2.713a41.147 41.147 0 0 0 9.949-14.72l4.471 1.557-2.537 5.4h7.109v-7.461h4.572v7.461h17.76v4.321h-17.76v7.963h19.619v4.219h-13.992v14.872a1 1 0 0 0 .653 1.017 15.061 15.061 0 0 0 3.817.264 10.192 10.192 0 0 0 3.542-.364 3.018 3.018 0 0 0 1.219-1.859 28.362 28.362 0 0 0 .842-5.438z" class="cls-1" data-name="Path 301"/>
                <path id="Path_302" d="M888.841 354.717h-15.9v-4.17h5.929a26.2 26.2 0 0 0-1.858-3.617l4.747-1.382a41.685 41.685 0 0 1 2.361 5h4.723zm-1.432 7.611H874.07v-4.27h13.339zm0 7.611H874.07v-4.32h13.339zm0 20.046h-4.371v-2.31h-4.421v3.39h-4.547V373.23h13.339zm-4.371-6.581v-5.954h-4.421v5.95zm32.3 3.391q0 4.371-5.276 4.371-1.105 0-2.813-.1l-1.532-4.2h4.069q1.031 0 1.03-1.08V383.2h-14.364a16.562 16.562 0 0 1-3.743 8.34l-3.718-2.688q3.468-3.969 3.467-11.253V367.4h22.885zm2.361-21.754H889.52V361.2h11.78v-2.436h-9.722v-3.542h9.722v-2.261h-10.9v-3.721h10.9v-3.19h4.47v3.19h10.9v3.718h-10.9v2.261h9.672v3.542h-9.672v2.439h11.93zm-6.883 14.62v-2.588H896.88a19.839 19.839 0 0 1-.1 2.588zm0-6.13v-2.411H896.93v2.411z" class="cls-1" data-name="Path 302"/>
            </g>
        </g>
        <g id="Group_276" data-name="Group 276" transform="translate(-.347 1.5)">
            <path id="Path_303" d="M624.525 154.926v8.209h-30.649l-4.316 23.52a36.365 36.365 0 0 1 10.133-1.649q11.773 0 19.417 7.886t7.644 20.2a31.654 31.654 0 0 1-3.929 15.6 27.4 27.4 0 0 1-10.642 10.877 31.061 31.061 0 0 1-15.509 3.782 25.674 25.674 0 0 1-17.708-6.42 26.285 26.285 0 0 1-8.619-16.623h8.853a19.429 19.429 0 0 0 3.371 8.092 17.174 17.174 0 0 0 6.333 5.013 18.9 18.9 0 0 0 8.3 1.9 19.411 19.411 0 0 0 14.6-6.44 22.506 22.506 0 0 0 6.1-16.1q0-8.724-5.512-14.169t-14.717-5.446q-7.623 0-18.47 4.632l7.974-42.862z" class="cls-2" data-name="Path 303"/>
        </g>
        <path id="Path_304" d="M668.78 174.675a20.1 20.1 0 0 1-6.585 7.317l-2.718-3.031a16.27 16.27 0 0 0 7-11.917h-7.735V154.5h12.439V166a18.142 18.142 0 0 1-2.401 8.675zm20.071 0a22.156 22.156 0 0 1-6.586 7.317l-2.822-3.031a16.275 16.275 0 0 0 7-11.917h-7.631V154.5h12.439V166a18.142 18.142 0 0 1-2.4 8.675z" class="cls-2" data-name="Path 304" transform="translate(-.347 1.5)"/>
    </g>
</svg>
