<svg xmlns="http://www.w3.org/2000/svg" id="Symbol_88_1" width="172.1" height="125.339" data-name="Symbol 88 1" viewBox="0 0 172.1 125.339">
    <defs>
        <style>
            .cls-1{fill:#b3b3b3}.cls-2{fill:#f99}
        </style>
    </defs>
    <g id="prefix_5" data-name="prefix 5" transform="translate(-.157)">
        <g id="Group_184" data-name="Group 184">
            <path id="Path_137" d="M98.657.239v4.1h-15.3l-2.2 11.8a17.016 17.016 0 0 1 5.1-.8 13.043 13.043 0 0 1 9.7 3.9 13.615 13.615 0 0 1 3.8 10.1 15.375 15.375 0 0 1-2 7.8 13.135 13.135 0 0 1-5.3 5.4 16.077 16.077 0 0 1-7.8 1.9 12.874 12.874 0 0 1-13.2-11.5h4.4a8.411 8.411 0 0 0 1.7 4 7.962 7.962 0 0 0 3.2 2.5 9.9 9.9 0 0 0 4.1 1 9.7 9.7 0 0 0 7.3-3.2 12.045 12.045 0 0 0 3.1-8.1 9.453 9.453 0 0 0-10.2-9.8 24.467 24.467 0 0 0-9.2 2.3l4-21.4z" class="cls-1" data-name="Path 137"/>
        </g>
    </g>
    <path id="prefix_Path_78" d="M116.8 10.1a10.643 10.643 0 0 1-3.3 3.7l-1.4-1.5a8.2 8.2 0 0 0 3.5-6h-3.9V0h6.2v5.8a9.16 9.16 0 0 1-1.1 4.3zm10 0a10.643 10.643 0 0 1-3.3 3.7l-1.4-1.5a8.2 8.2 0 0 0 3.5-6h-3.8V0h6.2v5.8a8.214 8.214 0 0 1-1.2 4.3z" class="cls-1" data-name="prefix Path 78" transform="translate(-.157)"/>
    <g id="prefix_無障礙設施_我OK_您先請" data-name="prefix 無障礙設施 我OK 您先請" transform="translate(-.157)">
        <g id="Group_185" data-name="Group 185">
            <path id="Path_138" d="M42.857 83.539h-22.3v-2.1h3.3v-3.5h-2.8v-2.1h2.8v-2.7q-.6.45-1.8 1.5l-1.7-1.8a19.55 19.55 0 0 0 5.5-5.6l2.4.7a9.022 9.022 0 0 1-1.4 2h15.3v2.1h-17.2a11.091 11.091 0 0 1-1.1 1.1h2.2v2.8h2.4v-2.8h2.2v2.8h2.6v-2.8h2.2v2.8h2.6v-2.8h2.2v2.8h2.3v2.1h-2.3v3.5h2.8zm-17.4 1.6a20.385 20.385 0 0 1-2.9 5.2l-2.1-1.4a23.6 23.6 0 0 0 2.9-4.8zm3-3.7v-3.5h-2.4v3.5zm2.4 8l-2.3.7a27.46 27.46 0 0 0-1.4-4.9l2.2-.8a22.131 22.131 0 0 1 1.5 5zm2.4-8v-3.5h-2.6v3.5zm3.7 7.8l-2.2.9a23.348 23.348 0 0 0-2.1-4.9l2.2-.9a25.823 25.823 0 0 1 2.1 4.9zm1-7.8v-3.5h-2.6v3.5zm5.1 7.8l-2.3 1a25.333 25.333 0 0 0-2.8-5.1l2.2-1a23.223 23.223 0 0 1 2.9 5.1z" class="cls-2" data-name="Path 138"/>
            <path id="Path_139" d="M53.457 75.539a9.713 9.713 0 0 1 2.1 5.7c0 2.3-1.1 3.4-3.2 3.4h-.7l-.7-2.1h1.6c.5 0 .8-.5.8-1.4a8.51 8.51 0 0 0-2.3-5.4 50.511 50.511 0 0 0 1.8-5.5h-2.3v19.6h-2.2v-21.7h6.7v2.2a40.558 40.558 0 0 1-1.6 5.2zm16.6-.8h-15v-1.8h3.7a14.167 14.167 0 0 0-.8-1.8h-2v-1.8h5.5a5.968 5.968 0 0 0-.9-1.5l2.5-.5a12.445 12.445 0 0 1 1 2h5.5v1.8h-1.9l-.8 1.8h3.3zm0 12.3h-6.1v3h-2.3v-3h-6.7v-1.9h6.7v-1.3h-5.1v-7.9h12.4v7.9h-5v1.3h6.1zm-3.2-8v-1.3h-7.9v1.3zm0 3.1v-1.4h-7.9v1.4zm-1.8-11h-4.7l.7 1.8h3.1a14.959 14.959 0 0 0 .9-1.8z" class="cls-2" data-name="Path 139"/>
            <path id="Path_140" d="M82.057 70.439h-2a42.546 42.546 0 0 1-1.4 5.1h3.1v11.9h-2v-1h-1.3v1.7h-1.9v-8.1q-.3.45-.9 1.2l-1.2-2.2a20.729 20.729 0 0 0 3.4-8.6h-2.9v-2.2h7zm-2.2 13.9v-6.7h-1.3v6.7zm9.1-1.8h-1.9a2.959 2.959 0 0 1-.2 1 12.865 12.865 0 0 1 1.9 2.1l-1.3 1.8a20.278 20.278 0 0 0-1.3-1.8 13.352 13.352 0 0 1-3.4 4.4l-1.5-1.5a10.027 10.027 0 0 0 3.7-6.1h-2.4v-1.8h2.7a8.1 8.1 0 0 0 0-2.2h-.4a7.24 7.24 0 0 1-1.1 1.9l-1.6-1.2a11.8 11.8 0 0 0 1.7-4l1.9.3-.3 1.2h3.3v1.8h-1.6v.8a6.6 6.6 0 0 1-.1 1.4h1.8zm.2-7.8h-4.1a2.618 2.618 0 0 1-1.7-.5 3.077 3.077 0 0 1-.6-1.9v-4.7h2.1v1.5h4.1v1.8h-4.1v1.3c0 .5.2.7.6.7h3.7zm8.6 12.9l-.7 2.1c-3 0-5.1-.7-6.5-2.3a16.408 16.408 0 0 1-1.6 2.9l-1.4-1.4c1.6-1.7 2.3-4.9 2.2-9.5h1.7c0 1.2 0 2.4-.1 3.6l-.1 1.9.3.6a2.7 2.7 0 0 0 .7.8v-9.1h-2.5v-1.9h3.2a14.316 14.316 0 0 0-2.8-3.2l1.5-1.3c.4.3.7.6 1.1.9.6-.6 1.1-1.2 1.6-1.8h-4.5v-1.8h7v1.8a17.5 17.5 0 0 1-2.8 3.3c.3.4.6.9.9 1.3l-.9.7h3.5a20.292 20.292 0 0 1-.9 4.8l-1.9-.6c.2-.7.4-1.5.6-2.3h-1.2v3.9h2.7v1.9h-2.7v4.2a10.463 10.463 0 0 0 3.6.5z" class="cls-2" data-name="Path 140"/>
            <path id="Path_141" d="M111.157 72.039h-9v-2.1h3.5a11.084 11.084 0 0 0-.9-1.9l2.3-.6a18.886 18.886 0 0 1 1.1 2.5h3.1zm-.6 3.7h-7.7v-2.1h7.7zm0 3.7h-7.7v-2h7.7zm0 10h-2.2v-1h-3.2v1.6h-2.3v-8.9h7.7zm-2.2-3.1v-3.1h-3.2v3.1zm16.5 1.8l-1.1 2.1a21.9 21.9 0 0 1-5.9-3 23.544 23.544 0 0 1-5.6 3.1l-1.3-2a15.661 15.661 0 0 0 5.3-2.7 17.077 17.077 0 0 1-3.2-5.3h-1.2v-2.1h11.2v2.1a20.313 20.313 0 0 1-3.5 5.3 18.344 18.344 0 0 0 5.3 2.5zm-.2-11.4h-3.3a1.707 1.707 0 0 1-1.7-1.7v-4.7h-3.5v1.5a7.639 7.639 0 0 1-.8 3.3 5.343 5.343 0 0 1-2.3 2.4l-1.6-1.6c1.7-.9 2.5-2.5 2.5-4.8v-3h8v5.7c0 .2.1.3.2.5a.764.764 0 0 0 .5.2h2.1zm-4 3.6h-5.1a11.947 11.947 0 0 0 2.5 3.8 17.022 17.022 0 0 0 2.6-3.8z" class="cls-2" data-name="Path 141"/>
            <path id="Path_142" d="M138.357 72.839h-4.9v3.1h4.3c.1 7.6-.2 11.9-.6 12.8-.5.9-1.8 1.3-3.9 1.1l-.7-2.3a16.95 16.95 0 0 0 2.3-.1q.3-.15.3-.3c.1-1.1.2-2.1.2-3.2.1-2 .1-3.9.1-5.9h-2.2c-.2 5.3-1 9.3-2.6 12l-1.6-2a16.5 16.5 0 0 0 1.7-6.5c.2-2.4.3-5.4.3-8.9h-1.8v-2.2h3.6c-.2-.7-.6-1.6-1.1-2.9l2.3-.5c.5 1.1.8 2.2 1.2 3.3h3.1zm13.5 12.7a6.742 6.742 0 0 1-1 3.4 3.635 3.635 0 0 1-2.7.8h-6c-1.4 0-2-.9-2-2.6v-7.3l-1.5.4-.3-2.1 1.8-.5v-2.2c-.2.3-.5.6-.7.9l-1.7-1.4a27.1 27.1 0 0 0 4-7.5l2.2.5a15.714 15.714 0 0 1-.9 2.3h8.6v2.1h-9.6a16.543 16.543 0 0 1-1.5 2.5h1.8v2.2l1.9-.5v-3.2h2.2v2.5l4.9-1.3a31.494 31.494 0 0 1-1.9 9.6l-2.1-.7a31 31 0 0 0 1.5-6l-2.5.7v8.1h-2.2v-7.5l-1.9.5v7.8c0 .2.1.5.4.5 1.1.1 2.1.1 3.2.1a15.138 15.138 0 0 0 3-.2c.5-.1.8-.9.9-2.5z" class="cls-2" data-name="Path 142"/>
        </g>
        <g id="Group_186" data-name="Group 186">
            <path id="Path_143" d="M22.657 120.039a13.164 13.164 0 0 1-1.3 3.8 2.332 2.332 0 0 1-2.1 1.3c-1.4 0-2.9-1.3-4.3-3.9a29.172 29.172 0 0 1-4.8 2.9l-1.3-1.9a27.475 27.475 0 0 0 5.2-3.1 51.789 51.789 0 0 1-.9-7.8h-5.3v3.6c1.3-.3 2.7-.6 4.3-1.1l.1 2.2c-1.5.5-3 .8-4.3 1.1v5.7a2.822 2.822 0 0 1-.4 1.5 2.075 2.075 0 0 1-1 .6 8.129 8.129 0 0 1-2.2.1 16.95 16.95 0 0 1-2.3-.1l-.8-2.4c1.2.1 2.1.1 2.8.1a6.6 6.6 0 0 0 1.4-.1.764.764 0 0 0 .2-.5v-4.4c-1.8.4-3.5.6-5.1.8l-.4-2.1c1.7-.2 3.5-.5 5.5-.9v-4h-5.4v-2.2h5.4v-2.9c-1.2.2-2.6.3-4.4.5l-1-2.1a36.824 36.824 0 0 0 10.9-2l1.3 1.9a36.616 36.616 0 0 1-4.4 1.3v3.4h5.4c0-1 0-3.2-.1-6.6h2.3v6.6h7v2.2h-6.9a40.473 40.473 0 0 0 .5 6 20.263 20.263 0 0 0 3.2-5l2 1a20.6 20.6 0 0 1-4.5 6.4 10.232 10.232 0 0 0 1.4 2.2c.4.5.7.7 1 .7.6 0 1.1-1.3 1.6-4zm-.9-13.1l-1.9 1.4a16.539 16.539 0 0 0-3.3-3.7l1.8-1.5a20.538 20.538 0 0 1 3.4 3.8z" class="cls-2" data-name="Path 143"/>
            <path id="Path_144" d="M26.657 114.239a10.919 10.919 0 0 1 2.6-7.5 8.723 8.723 0 0 1 7-2.8 8.359 8.359 0 0 1 6.6 2.8 10.311 10.311 0 0 1 2.5 7.1 10.9 10.9 0 0 1-2.5 7.4 9.6 9.6 0 0 1-13.5.1 10.041 10.041 0 0 1-2.7-7.1zm3.2-.2a8.317 8.317 0 0 0 1.6 5.3 5.491 5.491 0 0 0 4.4 2.1 5.618 5.618 0 0 0 4.6-2 7.767 7.767 0 0 0 1.6-5.3 8.459 8.459 0 0 0-1.6-5.5 5.309 5.309 0 0 0-4.5-2 5.276 5.276 0 0 0-4.5 2.1 8.317 8.317 0 0 0-1.6 5.3z" class="cls-2" data-name="Path 144"/>
            <path id="Path_145" d="M64.957 123.739h-4l-6.9-8.7a2.177 2.177 0 0 1-.5-.8h-.1v9.6h-3v-19.5h3v9.2h.1a5.582 5.582 0 0 1 .5-.8l6.6-8.4h3.7l-7.8 9.3z" class="cls-2" data-name="Path 145"/>
            <path id="Path_146" d="M78.557 116.639a1.435 1.435 0 0 1-1-1.6 1.845 1.845 0 0 1 .5-1.2 1.69 1.69 0 0 1 2.4 0 2.106 2.106 0 0 1 .5 1.3c0 1-.7 2-2.2 3.1l-.8-.6a4.372 4.372 0 0 0 .6-1z" class="cls-2" data-name="Path 146"/>
            <path id="Path_148" d="M145.057 119.639a24.088 24.088 0 0 1-.7 3.7 2.545 2.545 0 0 1-1.1 1.2 4.624 4.624 0 0 1-2.6.4h-2.6a2.957 2.957 0 0 1-2-.6 3.322 3.322 0 0 1-.7-2.1v-7.6h-3.7a11.563 11.563 0 0 1-2.1 6.7 13.646 13.646 0 0 1-6.1 3.9l-1.1-2.1c4.6-1.4 7-4.2 6.9-8.4h-6.4v-2.1h9.8v-4h-4.9a15.293 15.293 0 0 1-2.6 3.1l-2.1-1.4a20.643 20.643 0 0 0 5-7.4l2.2.8-1.3 2.7h3.6v-3.7h2.3v3.7h8.9v2.2h-8.9v4h9.8v2.1h-7v7.4a.55.55 0 0 0 .3.5 6.079 6.079 0 0 0 1.9.1 5.537 5.537 0 0 0 1.8-.2 1.8 1.8 0 0 0 .6-.9 12.589 12.589 0 0 0 .4-2.7z" class="cls-2" data-name="Path 148"/>
            <path id="Path_149" d="M157.757 106.839h-7.9v-2.1h3l-.9-1.8 2.4-.7c.4.8.8 1.6 1.2 2.5h2.4zm-.7 3.8h-6.7v-2.1h6.7zm0 3.8h-6.7v-2.1h6.7zm0 10.1h-2.2v-1.2h-2.2v1.7h-2.3v-8.9h6.7zm-2.2-3.3v-3h-2.2v3zm16.2 1.7c0 1.5-.9 2.2-2.6 2.2a7.6 7.6 0 0 1-1.4-.1l-.8-2.1h2a.472.472 0 0 0 .5-.5v-1.3h-7.2a8.468 8.468 0 0 1-1.9 4.2l-1.9-1.3a8.115 8.115 0 0 0 1.7-5.6v-5.1h11.4zm1.2-10.9h-14.1v-1.9h5.9v-1.2h-4.9v-1.8h4.9v-1.1h-5.5v-1.9h5.5v-1.6h2.2v1.6h5.5v1.9h-5.5v1.1h4.8v1.8h-4.8v1.2h6zm-3.5 7.3v-1.3h-7a5.7 5.7 0 0 1-.1 1.3zm0-3.1v-1.2h-6.9v1.2z" class="cls-2" data-name="Path 149"/>
            <g id="Group_363" data-name="Group 363">
                <path id="Path_487" d="M102.457 102.939a36.13 36.13 0 0 1-1.4 3.5l-.9 2v16.8h-2.2v-13c-.3.4-.8 1-1.6 1.9l-1.2-2.4a27.125 27.125 0 0 0 5.1-9.5zm15.2 2.6a26.716 26.716 0 0 1-1.9 7.1l-2.1-.9a27.687 27.687 0 0 0 1.2-4.1h-8.5a28.465 28.465 0 0 1-3.8 5.5l-1.6-1.7a27.883 27.883 0 0 0 5.1-9l2.2.5a25.541 25.541 0 0 1-1 2.5h10.4zm-10.3 7.7a31.019 31.019 0 0 1-4.4 9.3l-1.8-1.4a26.831 26.831 0 0 0 4.1-8.5zm3.6 9.5a2.121 2.121 0 0 1-2.4 2.4h-2.9l-.7-2.3 2.5.1c.9 0 1.3-.3 1.3-.9v-12.8h2.3v13.5zm7.3-1.2l-2.1 1.1a44.99 44.99 0 0 0-3.8-9.2l2-.8a38.336 38.336 0 0 1 3.9 8.9z" class="cls-2" data-name="Path 487"/>
            </g>
        </g>
    </g>
</svg>
