<svg xmlns="http://www.w3.org/2000/svg" width="438" height="281.458" viewBox="0 0 438 281.458">
    <g id="prefix__A4nb" transform="translate(-565.48 -120.178)">
        <text id="prefix__優先選購身障朋友_製作的產品" fill="#903" data-name="優先選購身障朋友 製作的產品" font-family="MicrosoftJhengHeiBold, Microsoft JhengHei" font-size="51.446px" letter-spacing="0.06em" transform="translate(569.48 320.636)">
            <tspan x="0" y="0">優先選購身障朋友</tspan><tspan x="0" y="67.818">製作的產品</tspan>
        </text>
        <text id="prefix___4" fill="#b3b3b3" data-name="4" font-family="CenturyGothic, Century Gothic" font-size="120.084px" letter-spacing="0.08em" transform="translate(565.48 241.178)">
            <tspan x="0" y="0">4</tspan>
        </text>
        <path id="prefix__Path_91" fill="#b3b3b3" d="M668.78 174.675a20.1 20.1 0 0 1-6.585 7.317l-2.718-3.031a16.27 16.27 0 0 0 7-11.917h-7.735V154.5h12.439V166a18.142 18.142 0 0 1-2.401 8.675zm20.071 0a22.156 22.156 0 0 1-6.586 7.317l-2.822-3.031a16.275 16.275 0 0 0 7-11.917h-7.631V154.5h12.439V166a18.142 18.142 0 0 1-2.4 8.675z" data-name="Path 91"/>
    </g>
</svg>
