<svg xmlns="http://www.w3.org/2000/svg" width="427.249" height="239.089" viewBox="0 0 427.249 239.089">
    <defs>
        <style>
            .cls-1{fill:#cc6}.cls-2{fill:#b3b3b3}
        </style>
    </defs>
    <g id="Symbol_102_1" data-name="Symbol 102 – 1" transform="translate(-572 -154)">
        <g id="Group_278" data-name="Group 278" transform="translate(-.42 1.244)">
            <g id="Group_277" data-name="Group 277">
                <path id="Path_305" d="M618.139 307.674l-2.663 3.743a124.839 124.839 0 0 0-17.912-12.385v24.115h-4.822v-25.773a80.439 80.439 0 0 1-17.66 13.942l-2.662-3.893q17.433-10.049 24.015-23.463H573.3v-4.522h43.76v4.522h-15.326a61.255 61.255 0 0 1-4.17 7.311v2.511q14.646 8.44 20.575 13.892z" class="cls-1" data-name="Path 305"/>
                <path id="Path_306" d="M671.391 302.876a120.766 120.766 0 0 1-.842 14.256q-.615 3.654-2.223 4.81t-5.275 1.156q-1.683 0-3.015-.1l-1.307-4.472q.931.1 5.4.1a1.609 1.609 0 0 0 1.569-.967q.466-.966.968-10.463H637.7a29.08 29.08 0 0 1-7.712 7.637L627 311.216q9.846-6.909 14.444-21.754h-12.758v-4.371h7.788a27.854 27.854 0 0 0-4.748-4.522l3.567-2.789a25.5 25.5 0 0 1 5.023 4.723l-3.089 2.588h5.35q.906-3.792 1.457-7.311l4.522.829a57.847 57.847 0 0 1-1.281 6.482h19.543q-.778 4.671-1.858 8.842h4.32q-.428 3.516-1.532 8.943zm-29.618 7.461a47.488 47.488 0 0 1-5.475 13.037l-3.794-2.336a61.683 61.683 0 0 0 5.15-11.933zm22.157-12.184h-20.725q-1.029 2.185-2.461 4.723H663zm-14.494 23.513l-4.372.879a52 52 0 0 0-1.407-12.208l4.271-.452a51.267 51.267 0 0 1 1.508 11.781zm11.68-32.2h-14.871a39.055 39.055 0 0 1-1.407 4.471h15.3q.501-2.037.978-4.475zm-3.567 29.993l-4.421 1.382a55.266 55.266 0 0 0-2.512-10.5l4.119-.7a46.6 46.6 0 0 1 2.814 9.814zm6.908-3.039l-4.119 1.481a34.453 34.453 0 0 0-2.689-7.962l4.07-1.231a34.736 34.736 0 0 1 2.738 7.708z" class="cls-1" data-name="Path 306"/>
                <path id="Path_307" d="M727.154 298.932a60.68 60.68 0 0 1-6.782 6.43V317.8a4.912 4.912 0 0 1-1.206 3.617 5.44 5.44 0 0 1-3.328 1.457q-2.123.252-9.056.276l-1.281-4.27q2.211.076 4.5.076a22.5 22.5 0 0 0 5.125-.289 1.111 1.111 0 0 0 .628-1.118V308.7q-10.6 7.587-31.8 13.942l-2.26-4.02a151.65 151.65 0 0 0 29.792-11.355q-12.912 1.434-28.209 2.413l-1.181-4.371q.727 0 5.35-.151v-22.91h6.331a21.778 21.778 0 0 0 3.34-4.572l4.9 1.03a20.551 20.551 0 0 1-2.411 3.542h20.774v17.56a31.914 31.914 0 0 0 4.17-4.121zm-11.4-9.369v-3.342h-23.617v3.342zm0 7.058V293.2h-23.617v3.417zm0 6.2v-2.512h-23.617v4.673q11.529-.625 23.613-2.157z" class="cls-1" data-name="Path 307"/>
                <path id="Path_308" d="M746.52 294.813q-2.388 14.82-6.281 23.26l-4.17-2.486a78.692 78.692 0 0 0 5.854-21.7zm24.944 13.212q-.152 4.925-.54 7.939a10.74 10.74 0 0 1-1.005 3.943 6.908 6.908 0 0 1-1.834 1.783 6.815 6.815 0 0 1-3.429 1.018q-2.21.162-4.722.163-2.79 0-5.25-.213a7.379 7.379 0 0 1-3.279-.792 3.99 3.99 0 0 1-1.294-1.582 5.647 5.647 0 0 1-.476-2.436v-28.487h4.6v27.255q0 1.86 2.248 1.784t7.524-.076a2.949 2.949 0 0 0 1.645-.54q.816-.539 1.106-4.509t.289-6.581zm-4.12-15.85l-3.918 2.838a63.6 63.6 0 0 0-10.6-14.143l3.241-2.838a67.916 67.916 0 0 1 11.277 14.143zm14.343 22.131l-4.471 2.11a81.016 81.016 0 0 0-7.862-20.122l4.019-2.16a99.154 99.154 0 0 1 8.314 20.172z" class="cls-1" data-name="Path 308"/>
                <path id="Path_309" d="M802.634 294.335q4.2 5.778 4.2 11.43 0 6.757-6.456 6.756a13.224 13.224 0 0 1-1.381-.075l-1.356-4.27q.827.1 3.189.1 1.608 0 1.609-2.713 0-5.1-4.523-10.7a103.868 103.868 0 0 0 3.593-10.9h-4.622v39.288h-4.5v-43.762h13.439v4.471q-1.51 5.753-3.192 10.375zm33.184-1.733h-30.094v-3.542h7.36q-.6-1.709-1.507-3.668h-3.944v-3.642h10.9a12.9 12.9 0 0 0-1.758-2.989l4.949-.93a25.318 25.318 0 0 1 1.959 3.919h11.053v3.642h-3.816l-1.684 3.668h6.582zm.1 24.592h-12.133v6h-4.6v-6h-13.361v-3.717h13.364v-2.512h-10.123v-15.8h24.793v15.8h-10.073v2.512h12.134zm-6.531-15.951v-2.562h-15.851v2.562zm0 6.129v-2.738h-15.851v2.738zm-3.492-21.98h-9.32l1.432 3.668h6.129q1.132-2.186 1.764-3.668z" class="cls-1" data-name="Path 309"/>
                <path id="Path_310" d="M859.905 284.011h-3.968a82.474 82.474 0 0 1-2.789 10.273h6.28v23.739h-3.918v-1.909h-2.563v3.341h-3.868V303.2q-.6.881-1.784 2.462l-2.361-4.421q4.771-6.531 6.732-17.232h-5.828v-4.422h14.067zm-4.4 27.833v-13.339h-2.563v13.339zm18.212-3.568h-3.844a11.88 11.88 0 0 1-.477 2.061 21.976 21.976 0 0 1 3.768 4.17l-2.563 3.566a18.355 18.355 0 0 0-2.537-3.516 27.632 27.632 0 0 1-6.732 8.867l-2.989-2.939q6.381-5.476 7.36-12.209h-4.9v-3.642h5.3a38.789 38.789 0 0 0 .05-4.471h-.853a23.771 23.771 0 0 1-2.111 3.793l-3.139-2.412a28.077 28.077 0 0 0 3.491-8.064l3.743.6a12.184 12.184 0 0 1-.6 2.486h6.632v3.593h-3.136q.05.7.049 1.657 0 1.408-.1 2.814h3.592zm.426-15.625h-8.289a4.715 4.715 0 0 1-3.3-1.029q-1.118-1.029-1.119-3.869v-9.345h4.221v3.015h8.144v3.617h-8.139v2.613q0 1.407 1.13 1.407h7.36zm17.033 25.724l-1.358 4.271q-8.916.125-12.911-4.673a27.309 27.309 0 0 1-3.241 5.8l-2.863-2.837q4.672-5.2 4.371-18.917l3.491-.049a71.294 71.294 0 0 1-.15 7.234l-.251 3.768a3.946 3.946 0 0 0 .54 1.13 5.693 5.693 0 0 0 1.343 1.584v-18.161h-5.024v-3.793h6.481a31.317 31.317 0 0 0-5.6-6.38l3.014-2.512a26.158 26.158 0 0 1 2.11 1.884 33.99 33.99 0 0 0 3.241-3.593h-9.094v-3.592h14.042v3.592a44.661 44.661 0 0 1-5.551 6.531 30.062 30.062 0 0 1 1.808 2.638l-1.858 1.432h6.984a42.275 42.275 0 0 1-1.884 9.521l-3.717-1.181a42.345 42.345 0 0 0 1.179-4.547h-2.31v7.788h5.451v3.893h-5.451v8.49a21.972 21.972 0 0 0 7.213.679z" class="cls-1" data-name="Path 310"/>
                <path id="Path_311" d="M920.393 319.2a3.717 3.717 0 0 1-1.545 3.14q-1.547 1.155-6.8.9l-1.533-4.521q1.281.074 2.562.075a7.644 7.644 0 0 0 2.537-.226.919.919 0 0 0 .4-.88v-10.843h-7.662q-.954 10.4-4.672 16.679l-3.768-2.938a38.711 38.711 0 0 0 4.221-18.565v-22.583h16.253zm-4.372-28.561v-6.784h-7.411v6.784zm0 11.831v-7.361h-7.411v7.361zm26.955 16.454q0 2.787-1.671 3.692t-7.373.679l-1.457-4.422 5.15-.1q.929 0 .929-1.029v-10.9h-8.842q-1.257 10.727-4.9 16.4l-3.692-2.813q4.169-7.033 4.17-17.61v-23.383h17.685zm-4.422-28.285v-6.784h-8.692v6.784zm0 11.831v-7.361h-8.692v7.361z" class="cls-1" data-name="Path 311"/>
                <path id="Path_312" d="M999.669 319.605l-2.211 4.02q-10.877-4.471-15.524-7.762a86.328 86.328 0 0 1-14.771 7.762l-2.889-3.919a53.445 53.445 0 0 0 14.143-6.782 34.549 34.549 0 0 1-7.813-11.832 61.133 61.133 0 0 1-12.911 20.825l-3.869-3.24a76.748 76.748 0 0 0 15.5-30.447H954.8v-4.521h14.971a33.562 33.562 0 0 0 .829-5.627l4.623.051q-.227 2.537-.7 5.576h25.045v4.521h-25.773q-.9 4.723-1.483 6.833h21.353v4.572q-4.17 8.892-8.49 13.239a59.1 59.1 0 0 0 14.494 6.731zm-10.853-19.97h-14.192q3.667 7.561 6.883 10.6a36.741 36.741 0 0 0 7.309-10.6z" class="cls-1" data-name="Path 312"/>
                <path id="Path_313" d="M591.084 378.581H579.3l3.139 1.281a46.111 46.111 0 0 1-5.953 11.43l-3.668-2.688a35.943 35.943 0 0 0 5.3-10.023h-3.869v-31.375h16.831zM586.512 356v-4.547h-7.661V356zm0 8.942v-4.671h-7.661v4.671zm0 9.27v-5.049h-7.661v5.049zm6.029 13.665l-4.069 2.061a42.1 42.1 0 0 0-4.472-8.267l3.994-1.909a43.193 43.193 0 0 1 4.547 8.113zm25.346-30.043h-11.58v9.018h8.918v24.014h-4.5v-3.039H598.9v3.039h-4.572V366.85h7.26v-20.9h4.673v7.561h11.63zm-7.26 25.673v-12.336H598.9v12.334z" class="cls-1" data-name="Path 313"/>
                <path id="Path_314" d="M643.005 367.729l-2.989 2.914q-1.056-2.186-2.362-4.321v24.643h-4.547v-22.106a33.237 33.237 0 0 1-3.793 8.943l-2.461-4.522a46.541 46.541 0 0 0 5.751-14.142h-5.2v-4.5h5.7v-8.588h4.547v8.592h4.622v4.5h-4.622v.8a68.008 68.008 0 0 1 5.354 7.787zm10.123 13.565a41.76 41.76 0 0 1-7.511 8.817l-3.642-2.989a32.927 32.927 0 0 0 7.259-7.888zm19.092-3.341h-12.912v13.012h-4.421v-13.012h-12.033v-3.944h29.366zm0-27.1h-8.792v2.938h7.56v11.355h-26.652v-11.359h7.464v-2.938h-8.9v-4.02h29.32zm-1.483 20.522h-25.623V367.4h25.623zM651.8 361.4v-4.119h-3.241v4.119zm7.461-7.611v-2.938h-3.291v2.938zm0 7.611v-4.119h-3.291v4.119zm13.162 26.226l-3.391 2.738a64.261 64.261 0 0 0-7.058-8.44l3.516-2.512a55.285 55.285 0 0 1 6.93 8.212zm-5.7-26.226v-4.119h-3.29v4.119z" class="cls-1" data-name="Path 314"/>
                <path id="Path_315" d="M727.205 383.6q-1.182 4.975-2.55 6.407a4.351 4.351 0 0 1-3.253 1.431q-2.94 0-5.6-4.647-3.191 3.415-5.049 5.05l-3.542-2.614q.629-.477 1.959-1.708-16.629 2.262-26.6 3.09l-1.03-3.818q5.879-.276 9.37-.7v-2.638h-7.737v-3.14h7.737V378.2h-7.21v-2.863h7.21l.05-2.01h-7.637v-3.09h7.587v-2.11h-8.34v-3.392h28.487q-.1-2.31-.1-5.124 0-1.809.05-2.864l4.472.051q-.052 3.492.126 7.937h10.851v3.392h-10.6a58.186 58.186 0 0 0 1.281 9.219 46.353 46.353 0 0 0 3.491-7.561l4.069 1.633a64.289 64.289 0 0 1-5.978 11.43q1.859 3.717 2.789 3.717.325 0 .853-1.244a17.994 17.994 0 0 0 .956-3.805zm-22.935-32.5h-13.364a30.248 30.248 0 0 1-5.526 4.747l-3.593-2.788a32.537 32.537 0 0 0 8.239-7.511l4.774.728a9.889 9.889 0 0 1-1.181 1.633h10.651zm-8.39 9.872l-2.512 2.637a27.426 27.426 0 0 0-3.04-2.788 23.278 23.278 0 0 1-3.692 3.09l-3.366-2.361a23 23 0 0 0 6.958-6.632L693.87 356a8.8 8.8 0 0 1-1.281 2.06q1.884 1.53 3.291 2.912zm3.668-6l-4.648.754a13.564 13.564 0 0 0-2.26-3.241l4.847-.8a15 15 0 0 1 2.061 3.283zm-.981 30.345v-17.186H695.1v17.534q1.13-.05 3.467-.352zm10.326-24.017l-2.664 2.764a19.43 19.43 0 0 0-3.717-3.291 28.106 28.106 0 0 1-3.241 3.089l-3.089-2.26a19.446 19.446 0 0 0 5.777-6.581l3.542 1.08a9.412 9.412 0 0 1-.93 1.783 26.736 26.736 0 0 1 4.322 3.416zm17.961-10.2h-14.922a29.39 29.39 0 0 1-5.5 4.622l-3.744-2.513a30.845 30.845 0 0 0 8.214-7.46l4.7.678a5.276 5.276 0 0 1-1.031 1.482h12.285zm-13.063 31.375a80.822 80.822 0 0 1-2.462-14.344h-8.44v1.909h6.882v3.039h-6.882v1.583h6.38v2.989h-6.38v1.809h6.731v3.015h-6.731v2.336q2.46-.2 7.56-.98l.2 2.211a26.005 26.005 0 0 0 3.142-3.567zm7.46-27.456l-4.7.878a29.452 29.452 0 0 0-2.411-3.291l4.571-.929a12.163 12.163 0 0 1 2.54 3.342zm4.321 6.581l-3.19 2.511a28.094 28.094 0 0 0-5.1-4.823l3.04-2.486a25.15 25.15 0 0 1 5.25 4.798z" class="cls-1" data-name="Path 315"/>
            </g>
        </g>
        <g id="Group_279" data-name="Group 279" transform="translate(-.42 1.244)">
            <path id="Path_316" d="M609.574 152.756l7.093 4.632-23.322 35.295a27.644 27.644 0 0 1 8.8-1.579 23.337 23.337 0 0 1 17.442 7.417 25.278 25.278 0 0 1 7.166 18.265 26.457 26.457 0 0 1-3.463 13.456 25.263 25.263 0 0 1-9.833 9.558 27.717 27.717 0 0 1-13.706 3.547 26.36 26.36 0 0 1-13.179-3.43 24.585 24.585 0 0 1-9.538-9.646 26.916 26.916 0 0 1-3.463-13.31 32.221 32.221 0 0 1 2.143-11.111 69.339 69.339 0 0 1 7.664-14.043zm-9.474 45.911a18.136 18.136 0 1 0 12.833 5.307 17.5 17.5 0 0 0-12.833-5.307z" class="cls-2" data-name="Path 316"/>
        </g>
        <path id="Path_317" d="M668.78 174.675a20.1 20.1 0 0 1-6.585 7.317l-2.718-3.031a16.27 16.27 0 0 0 7-11.917h-7.735V154.5h12.439V166a18.142 18.142 0 0 1-2.401 8.675zm20.071 0a22.156 22.156 0 0 1-6.586 7.317l-2.822-3.031a16.275 16.275 0 0 0 7-11.917h-7.631V154.5h12.439V166a18.142 18.142 0 0 1-2.4 8.675z" class="cls-2" data-name="Path 317" transform="translate(-.42 1.244)"/>
    </g>
</svg>
