<svg xmlns="http://www.w3.org/2000/svg" width="372.766" height="169.275" viewBox="0 0 372.766 169.275">
    <defs>
        <style>
            .cls-1{fill:#6cc}.cls-2{fill:#b3b3b3}
        </style>
    </defs>
    <g id="Symbol_103_1" data-name="Symbol 103 – 1" transform="translate(-572 -156)">
        <g id="Group_281" data-name="Group 281" transform="translate(-.42 1.5)">
            <g id="Group_280" data-name="Group 280">
                <path id="Path_318" d="M618.139 307.674l-2.663 3.743a124.839 124.839 0 0 0-17.912-12.385v24.115h-4.822v-25.773a80.439 80.439 0 0 1-17.66 13.942l-2.662-3.893q17.433-10.049 24.015-23.463H573.3v-4.522h43.76v4.522h-15.326a61.255 61.255 0 0 1-4.17 7.311v2.511q14.646 8.44 20.575 13.892z" class="cls-1" data-name="Path 318"/>
                <path id="Path_319" d="M666.19 316.516h-22.632l2.537 2.838a68.831 68.831 0 0 1-16.781 4.421l-2.161-4.018a64.912 64.912 0 0 0 14.671-3.241h-8.29v-19.342h32.656zm6.13-21.3h-45.066v-3.542h20.172v-2.21h-16.982v-3.291h16.982v-1.959h-18.941v-3.544h18.941v-2.312h4.674v2.312h19.04v3.542H652.1v1.959h17.03v3.291H652.1v2.21h20.22zm-10.7 7.461v-2.16h-23.363v2.16zm0 5.049v-2.161h-23.363v2.161zm0 5.5v-2.513h-23.363v2.513zm11 6.782l-2.059 3.718a83.474 83.474 0 0 0-15.726-2.788l2.06-3.694a75.9 75.9 0 0 1 15.726 2.764z" class="cls-1" data-name="Path 319"/>
                <path id="Path_320" d="M690.278 314.306a36.2 36.2 0 0 1-5 9.269l-3.542-2.989a33.757 33.757 0 0 0 4.421-7.913zm34.013-24.493H684.35v-10.55h39.941zM726.4 308.4a54.314 54.314 0 0 1-.552 8.478 11.753 11.753 0 0 1-1.37 4.522 3.716 3.716 0 0 1-2.022 1.456 23.374 23.374 0 0 1-5.074.34l-1.532-4.321q3.867.2 4.446-.125t.879-2.11a34.324 34.324 0 0 0 .377-4.648h-35.846v-19.969h40.519v3.392h-18.463v2.06h16.78v3.241h-16.78v2.16h16.83v3.315h-16.83v2.209zm-30.218-22.33v-3.09H688.9v3.09zm7.108 11.4v-2.06h-13.112v2.06zm0 5.4v-2.16h-13.062v2.16zm0 5.526v-2.211h-13.062v2.215zm-4.622 13.616l-4.421.527a42.608 42.608 0 0 0-1.558-8.441l4.271-.527a45.376 45.376 0 0 1 1.708 8.447zm9.37-35.948v-3.09h-7.309v3.09zm0 34.163l-4.4.855a37.657 37.657 0 0 0-2.562-7.285l4.37-.678a41.9 41.9 0 0 1 2.592 7.114zm8.415-2.737l-4.17 1.381a28.968 28.968 0 0 0-2.512-4.974l4.22-1.23a22.984 22.984 0 0 1 2.462 4.833zm3.291-31.426v-3.09h-7.134v3.09z" class="cls-1" data-name="Path 320"/>
                <path id="Path_321" d="M765.184 302.926l-3.442 3.366a42.147 42.147 0 0 0-8.641-7.737l3.391-3.391a44.368 44.368 0 0 1 8.692 7.762z" class="cls-1" data-name="Path 321"/>
                <path id="Path_322" d="M836.271 307.674l-2.664 3.743a124.821 124.821 0 0 0-17.907-12.385v24.115h-4.822v-25.773a80.44 80.44 0 0 1-17.66 13.942l-2.662-3.893q17.433-10.049 24.014-23.463h-23.139v-4.522h43.759v4.522h-15.324a61.256 61.256 0 0 1-4.17 7.311v2.511q14.646 8.44 20.575 13.892z" class="cls-1" data-name="Path 322"/>
                <path id="Path_323" d="M857.946 317.3h-4.069v-2.889h-2.889v4.119h-4.12V281.9h11.078zm-4.069-7.26v-23.92h-2.889v23.915zm21.151-23.562h-5.577v3.39h4.7v18.212h-4.7v3.241h5.25v4.019h-5.25v7.913h-4.371v-7.913h-5.8v-4.019h5.8v-3.241h-4.823v-18.217h4.823v-3.39h-5.652V282.5h5.652v-4.271h4.371v4.271h5.577zm-5.15 10.549v-3.441h-5.25v3.441zm0 7.26v-3.667h-5.25v3.667zm19.544 15.113a3.406 3.406 0 0 1-1.219 2.876q-1.218.942-4.584.942-1.031 0-2.01-.076l-1.331-4.219q2.11.126 3.894.125a1.016 1.016 0 0 0 .716-.389 1.19 1.19 0 0 0 .364-.816v-11.1h-4.421q-.327 10.2-4.27 16.63l-3.694-2.537q3.943-5.853 3.945-17.384v-23.863h12.61zm-4.17-28.713v-6.833h-4.271v6.833zm0 11.832v-7.561h-4.271v7.561z" class="cls-1" data-name="Path 323"/>
                <path id="Path_324" d="M922.6 286.321h-13.64a38.4 38.4 0 0 1-5.6 6.833l-3.542-2.763a36.606 36.606 0 0 0 8.441-12.309l4.572 1.08q-.477 1.105-1.633 3.291H922.6zm22.583 32.933l-2.01 4.221q-15.549-3.166-20.623-13.641-4.923 11.053-20.121 13.59l-2.513-4.17q14.293-2.286 18.312-10.852h-17.782v-4.12h19.117a40.723 40.723 0 0 0 .427-4.47q-8.692.325-14.67.4l-1.583-4.17q8.215.152 18.941-.49a138.305 138.305 0 0 0 16.655-1.771l2.01 3.919q-7.461 1.105-16.68 1.783-.077 2.238-.4 4.8H944.1l.051 4.12h-17.177q4.195 8.465 18.212 10.851zm-26.653-26.5l-4.32 1.03a21.942 21.942 0 0 0-2.612-5.652l4.47-.879a23.111 23.111 0 0 1 2.465 5.499zm26.452-6.431h-15.069a38.7 38.7 0 0 1-5.8 7.26l-3.869-2.486a34.351 34.351 0 0 0 8.642-12.863l4.27 1.031a14.845 14.845 0 0 1-1.23 3.19h13.062zm-5.4 5.351l-4.421 1.281a17.383 17.383 0 0 0-2.788-4.371l4.32-1.23a13.484 13.484 0 0 1 2.891 4.318z" class="cls-1" data-name="Path 324"/>
            </g>
        </g>
        <g id="Group_282" data-name="Group 282" transform="translate(-.42 1.5)">
            <path id="Path_325" d="M574.1 154.926h54.706l-46.145 88.421-7.142-3.659 39.818-76.553H574.1z" class="cls-2" data-name="Path 325"/>
        </g>
        <path id="Path_326" d="M668.78 174.675a20.1 20.1 0 0 1-6.585 7.317l-2.718-3.031a16.27 16.27 0 0 0 7-11.917h-7.735V154.5h12.439V166a18.142 18.142 0 0 1-2.401 8.675zm20.071 0a22.156 22.156 0 0 1-6.586 7.317l-2.822-3.031a16.275 16.275 0 0 0 7-11.917h-7.631V154.5h12.439V166a18.142 18.142 0 0 1-2.4 8.675z" class="cls-2" data-name="Path 326" transform="translate(-.42 1.5)"/>
    </g>
</svg>
