<svg xmlns="http://www.w3.org/2000/svg" width="186.227" height="89.638" viewBox="0 0 186.227 89.638">
    <defs>
        <style>
            .cls-1{fill:#6cc}.cls-2{fill:#b3b3b3}
        </style>
    </defs>
    <g id="Symbol_90_1" data-name="Symbol 90 – 1" transform="translate(-95 -320)">
        <g id="prefix_不責罵_不嘲笑" data-name="prefix 不責罵 不嘲笑" transform="translate(43.951 303.339)">
            <g id="Group_190" data-name="Group 190">
                <path id="Path_162" d="M73.908 98.248l-1.331 1.872a62.356 62.356 0 0 0-8.956-6.193v12.058h-2.412V93.1a40.147 40.147 0 0 1-8.829 6.971l-1.331-1.946q8.715-5.025 12.007-11.734H51.488V84.13h21.88v2.261h-7.662a30.645 30.645 0 0 1-2.085 3.655V91.3a62.3 62.3 0 0 1 10.287 6.948z" class="cls-1" data-name="Path 162"/>
                <path id="Path_163" d="M97.908 102.669H86.591l1.269 1.419a34.385 34.385 0 0 1-8.39 2.211l-1.08-2.009a32.429 32.429 0 0 0 7.335-1.621H81.58V93h16.328zm3.065-10.651H78.44v-1.77h10.086v-1.106h-8.491V87.5h8.491v-.98h-9.47v-1.774h9.47V83.59h2.336v1.156h9.52v1.771h-9.52v.98h8.516v1.645h-8.516v1.106h10.111zm-5.351 3.731v-1.081H83.941v1.081zm0 2.524v-1.08H83.941v1.08zm0 2.751v-1.256H83.941v1.256zm5.5 3.391l-1.03 1.859a41.825 41.825 0 0 0-7.863-1.4l1.03-1.845a37.854 37.854 0 0 1 7.865 1.386z" class="cls-1" data-name="Path 163"/>
                <path id="Path_164" d="M109.926 101.564a18.094 18.094 0 0 1-2.5 4.635l-1.771-1.495a16.9 16.9 0 0 0 2.21-3.956zm17.007-12.246h-19.971v-5.276h19.971zm1.054 9.294a27.156 27.156 0 0 1-.276 4.239 5.853 5.853 0 0 1-.684 2.261 1.862 1.862 0 0 1-1.011.728 11.656 11.656 0 0 1-2.537.17l-.767-2.16a6.946 6.946 0 0 0 2.224-.063q.288-.164.439-1.055a17.09 17.09 0 0 0 .188-2.323H107.64v-9.986h20.26v1.7h-9.231v1.03h8.39v1.62h-8.39v1.08h8.415v1.658h-8.415v1.1zm-15.109-11.165V85.9h-3.643v1.545zm3.554 5.7v-1.03h-6.556v1.03zm0 2.7v-1.08H109.9v1.08zm0 2.763v-1.1H109.9v1.1zm-2.311 6.807l-2.21.264a21.347 21.347 0 0 0-.779-4.22l2.135-.263a22.664 22.664 0 0 1 .854 4.221zm4.685-17.972V85.9h-3.655v1.545zm0 17.081l-2.2.428a18.809 18.809 0 0 0-1.281-3.643l2.185-.34a20.892 20.892 0 0 1 1.296 3.557zm4.208-1.369l-2.085.691a14.448 14.448 0 0 0-1.256-2.487l2.11-.615a11.5 11.5 0 0 1 1.231 2.413zm1.645-15.712V85.9h-3.567v1.545z" class="cls-1" data-name="Path 164"/>
                <path id="Path_165" d="M147.353 95.875l-1.721 1.682a21.051 21.051 0 0 0-4.32-3.868l1.7-1.7a22.144 22.144 0 0 1 4.341 3.886z" class="cls-1" data-name="Path 165"/>
                <path id="Path_166" d="M182.87 98.248l-1.331 1.872a62.289 62.289 0 0 0-8.955-6.193v12.058h-2.412V93.1a40.17 40.17 0 0 1-8.829 6.971l-1.331-1.946q8.715-5.025 12.007-11.732h-11.568V84.13h21.879v2.261h-7.661a30.646 30.646 0 0 1-2.085 3.655V91.3a62.235 62.235 0 0 1 10.286 6.948z" class="cls-1" data-name="Path 166"/>
                <path id="Path_167" d="M193.683 103.058h-2.036v-1.444H190.2v2.06h-2.059V85.362h5.539zm-2.036-3.63V87.471H190.2v11.957zm10.576-11.781h-2.788v1.7h2.348v9.106h-2.348v1.62h2.625v2.01h-2.625v3.957h-2.186v-3.957h-2.9v-2.01h2.9v-1.62h-2.411v-9.11h2.411v-1.7h-2.826v-1.98h2.826v-2.135h2.186v2.135h2.788zm-2.575 5.275V91.2h-2.625v1.72zm0 3.63v-1.834h-2.625v1.834zm9.772 7.562a1.7 1.7 0 0 1-.609 1.437 3.956 3.956 0 0 1-2.292.472c-.344 0-.678-.013-1-.038l-.665-2.11q1.055.063 1.946.063a.51.51 0 0 0 .358-.2.594.594 0 0 0 .182-.409v-5.55h-2.211a16.753 16.753 0 0 1-2.135 8.314l-1.846-1.268q1.971-2.928 1.972-8.692V84.206h6.3zm-2.085-14.357v-3.416H205.2v3.416zm0 5.916v-3.78H205.2v3.78z" class="cls-1" data-name="Path 167"/>
                <path id="Path_168" d="M225.984 87.572h-6.819a19.257 19.257 0 0 1-2.8 3.417l-1.77-1.382a18.307 18.307 0 0 0 4.219-6.154l2.287.54q-.24.552-.817 1.645h5.7zm11.292 16.467l-1.005 2.109q-7.774-1.583-10.311-6.819-2.463 5.524-10.061 6.795l-1.256-2.085q7.146-1.145 9.156-5.427h-8.893v-2.06h9.559a20.718 20.718 0 0 0 .214-2.235q-4.347.162-7.335.2l-.792-2.085q4.107.075 9.47-.245a69.248 69.248 0 0 0 8.328-.886l1 1.959q-3.73.553-8.339.893-.039 1.118-.2 2.4h9.923l.025 2.06h-8.589q2.097 4.232 9.106 5.426zM223.95 90.788l-2.16.514a10.975 10.975 0 0 0-1.307-2.826l2.236-.439a11.58 11.58 0 0 1 1.231 2.751zm13.226-3.216h-7.536a19.362 19.362 0 0 1-2.9 3.63l-1.94-1.244a17.192 17.192 0 0 0 4.321-6.43l2.135.514a7.481 7.481 0 0 1-.615 1.6h6.531zm-2.7 2.676l-2.211.64a8.685 8.685 0 0 0-1.4-2.185l2.161-.616a6.765 6.765 0 0 1 1.45 2.161z" class="cls-1" data-name="Path 168"/>
            </g>
        </g>
        <g id="prefix_7" data-name="prefix 7" transform="translate(43.951 303.339)">
            <g id="Group_191" data-name="Group 191">
                <path id="Path_169" d="M131.55 16.874h27.35l-23.07 44.211-3.571-1.83 19.91-38.276H131.55z" class="cls-2" data-name="Path 169"/>
            </g>
        </g>
        <path id="prefix_Path_78" d="M174.89 26.749a10.06 10.06 0 0 1-3.293 3.658l-1.359-1.515a8.135 8.135 0 0 0 3.5-5.959h-3.868v-6.272h6.22v5.75a9.068 9.068 0 0 1-1.2 4.338zm10.035 0a11.069 11.069 0 0 1-3.292 3.658l-1.412-1.515a8.135 8.135 0 0 0 3.5-5.959h-3.815v-6.272h6.22v5.75a9.081 9.081 0 0 1-1.2 4.338z" class="cls-2" data-name="prefix Path 78" transform="translate(43.951 303.339)"/>
    </g>
</svg>
