<svg xmlns="http://www.w3.org/2000/svg" width="288" height="244.462" viewBox="0 0 288 244.462">
    <g id="prefix__A6n" transform="translate(-43.75 -303.339)">
        <text id="prefix___6" fill="#b3b3b3" data-name="6" font-family="CenturyGothic, Century Gothic" font-size="60.042px" letter-spacing="0.08em" transform="translate(171 363.339)">
            <tspan x="0" y="0">6</tspan>
        </text>
        <path id="prefix__Path_78" fill="#b3b3b3" d="M669.64 278.963a10.05 10.05 0 0 1-3.293 3.658l-1.359-1.515a8.135 8.135 0 0 0 3.5-5.959h-3.868v-6.272h6.22v5.75a9.074 9.074 0 0 1-1.2 4.338zm10.035 0a11.078 11.078 0 0 1-3.292 3.658l-1.412-1.515a8.135 8.135 0 0 0 3.5-5.959h-3.815v-6.272h6.22v5.75a9.076 9.076 0 0 1-1.201 4.338z" data-name="Path 78" transform="translate(-450.99 51.125)"/>
        <text id="prefix__不為身心障礙朋友_貼標籤" fill="#cc6" data-name="不為身心障礙朋友 貼標籤" font-family="MicrosoftJhengHeiBold, Microsoft JhengHei" font-size="25.723px" letter-spacing="0.06em" transform="translate(188 408.729)">
            <tspan x="-108.294" y="0">不為身心障礙朋友</tspan><tspan x="-40.128" y="35">貼標籤</tspan>
        </text>
        <text id="prefix__同理和接納_這是第一步_身心障礙者努力學習自立生活_也在工作過程中找到屬於自_己的價值_他們和我們一樣_我們沒有不同_" fill="#4d4d4d" data-name="同理和接納，這是第一步！ 身心障礙者努力學習自立生活，也在工作過程中找到屬於自 己的價值，他們和我們一樣，我們沒有不同！" font-family="MicrosoftJhengHeiRegular, Microsoft JhengHei" font-size="10px" transform="translate(43.75 471.801)">
            <tspan x="83.75" y="11">同理和接納，這是第一步！</tspan><tspan x="13.75" y="28.774">身心障礙者努力學習自立生活，也在工作過程中找到屬於自</tspan><tspan x="43.75" y="46.548">己的價值，他們和我們一樣，我們沒有不同！</tspan>
        </text>
    </g>
</svg>
