<svg xmlns="http://www.w3.org/2000/svg" width="213.443" height="126.296" viewBox="0 0 213.443 126.296">
    <defs>
        <style>
            .cls-1{fill:#b3b3b3}.cls-2{fill:#cc6}
        </style>
    </defs>
    <g id="Symbol_89_1" data-name="Symbol 89 – 1" transform="translate(-81 -319)">
        <g id="prefix_6" data-name="prefix 6" transform="translate(43.574 303.211)">
            <g id="Group_187" data-name="Group 187">
                <path id="Path_150" d="M149.3 15.789l3.547 2.316-11.665 17.648a13.84 13.84 0 0 1 4.4-.79 11.671 11.671 0 0 1 8.722 3.709 12.644 12.644 0 0 1 3.582 9.132 13.224 13.224 0 0 1-1.732 6.728 12.635 12.635 0 0 1-4.917 4.78 13.871 13.871 0 0 1-6.852 1.773 13.187 13.187 0 0 1-6.59-1.715 12.3 12.3 0 0 1-4.769-4.823 13.459 13.459 0 0 1-1.731-6.655 16.124 16.124 0 0 1 1.071-5.556 34.738 34.738 0 0 1 3.833-7.022zm-4.736 22.956a9.076 9.076 0 0 0-6.415 15.494A9.077 9.077 0 0 0 150.978 41.4a8.758 8.758 0 0 0-6.417-2.655z" class="cls-1" data-name="Path 150"/>
            </g>
        </g>
        <path id="prefix_Path_78" d="M174.9 26.749a10.06 10.06 0 0 1-3.293 3.658l-1.359-1.515a8.135 8.135 0 0 0 3.5-5.959h-3.868v-6.272h6.22v5.75a9.068 9.068 0 0 1-1.2 4.338zm10.035 0a11.069 11.069 0 0 1-3.292 3.658l-1.412-1.515a8.135 8.135 0 0 0 3.5-5.959h-3.815v-6.272h6.22v5.75a9.081 9.081 0 0 1-1.2 4.338z" class="cls-1" data-name="prefix Path 78" transform="translate(43.574 303.211)"/>
        <g id="prefix_不為身心障礙朋友_貼標籤" data-name="prefix 不為身心障礙朋友 貼標籤" transform="translate(43.574 303.211)">
            <g id="Group_188" data-name="Group 188">
                <path id="Path_151" d="M60.285 98.909l-1.331 1.872A62.437 62.437 0 0 0 50 94.588v12.058h-2.414V93.759a40.147 40.147 0 0 1-8.829 6.971l-1.331-1.946q8.715-5.025 12.007-11.732H37.865v-2.26h21.88v2.26h-7.662A30.73 30.73 0 0 1 50 90.708v1.255a62.3 62.3 0 0 1 10.285 6.946z" class="cls-2" data-name="Path 151"/>
                <path id="Path_152" d="M86.885 96.51a60.165 60.165 0 0 1-.421 7.128 3.619 3.619 0 0 1-1.111 2.4 4.626 4.626 0 0 1-2.638.578q-.841 0-1.507-.05l-.653-2.236q.463.051 2.7.05a.805.805 0 0 0 .785-.483 30.992 30.992 0 0 0 .484-5.232H70.042a14.543 14.543 0 0 1-3.856 3.819l-1.495-1.809q4.924-3.455 7.223-10.877h-6.381v-2.18h3.894a13.927 13.927 0 0 0-2.374-2.261l1.783-1.4a12.755 12.755 0 0 1 2.512 2.362L69.8 87.618h2.676q.452-1.9.728-3.656l2.261.415a28.727 28.727 0 0 1-.641 3.241H84.6q-.39 2.336-.93 4.421h2.16q-.213 1.758-.766 4.471zm-14.808 3.731a23.779 23.779 0 0 1-2.738 6.518l-1.9-1.168a30.866 30.866 0 0 0 2.575-5.966zm11.078-6.092H72.792q-.515 1.092-1.23 2.361H82.69zM75.908 105.9l-2.186.439a26.023 26.023 0 0 0-.7-6.1l2.135-.227a25.669 25.669 0 0 1 .751 5.888zm5.84-16.1h-7.435a19.759 19.759 0 0 1-.7 2.236h7.649q.248-1.014.486-2.236zm-1.784 15l-2.21.691a27.671 27.671 0 0 0-1.256-5.25l2.06-.352a23.293 23.293 0 0 1 1.406 4.911zm3.454-1.52l-2.06.741a17.268 17.268 0 0 0-1.343-3.981l2.034-.616a17.311 17.311 0 0 1 1.369 3.856z" class="cls-2" data-name="Path 152"/>
                <path id="Path_153" d="M114.741 94.539a30.384 30.384 0 0 1-3.391 3.214v6.218a2.458 2.458 0 0 1-.6 1.809 2.729 2.729 0 0 1-1.664.728q-1.062.125-4.528.138l-.64-2.135q1.1.038 2.248.037a11.254 11.254 0 0 0 2.562-.144.555.555 0 0 0 .314-.559v-4.421q-5.3 3.793-15.9 6.971l-1.131-2.01a75.831 75.831 0 0 0 14.9-5.677q-6.456.715-14.1 1.206l-.591-2.186q.364 0 2.676-.075V86.2h3.165a10.91 10.91 0 0 0 1.67-2.286l2.449.514a10.217 10.217 0 0 1-1.205 1.772h10.375v8.779a15.98 15.98 0 0 0 2.085-2.06zm-5.7-4.686v-1.67H97.232v1.67zm0 3.529v-1.708H97.232v1.708zm0 3.1v-1.253H97.232v2.336q5.768-.313 11.807-1.08z" class="cls-2" data-name="Path 153"/>
                <path id="Path_154" d="M124.4 92.478a46.109 46.109 0 0 1-3.14 11.631l-2.085-1.243a39.333 39.333 0 0 0 2.925-10.852zm12.472 6.607q-.075 2.461-.27 3.969a5.376 5.376 0 0 1-.5 1.972 3.475 3.475 0 0 1-.917.891 3.4 3.4 0 0 1-1.715.509q-1.105.083-2.361.082-1.395 0-2.625-.107a3.687 3.687 0 0 1-1.639-.4 1.979 1.979 0 0 1-.647-.791 2.823 2.823 0 0 1-.239-1.218v-14.24h2.3v13.628q0 .93 1.124.892t3.762-.037a1.472 1.472 0 0 0 .822-.271q.408-.268.553-2.254t.144-3.291zm-2.06-7.925l-1.959 1.419a31.79 31.79 0 0 0-5.3-7.072l1.621-1.419a33.974 33.974 0 0 1 5.636 7.072zm7.172 11.065l-2.236 1.055a40.519 40.519 0 0 0-3.931-10.061l2.01-1.08a49.628 49.628 0 0 1 4.155 10.086z" class="cls-2" data-name="Path 154"/>
                <path id="Path_155" d="M152.43 92.24a9.723 9.723 0 0 1 2.1 5.715q0 3.379-3.228 3.378a6.506 6.506 0 0 1-.691-.038l-.678-2.134q.414.049 1.6.049.806 0 .8-1.356a8.68 8.68 0 0 0-2.261-5.351 51.837 51.837 0 0 0 1.8-5.451h-2.31V106.7H147.3V84.817h6.719v2.235q-.748 2.877-1.589 5.188zm16.591-.866h-15.046V89.6h3.679q-.3-.854-.753-1.834h-1.972v-1.819h5.451a6.48 6.48 0 0 0-.879-1.494l2.475-.465a12.7 12.7 0 0 1 .979 1.959h5.526v1.821h-1.909l-.842 1.832h3.291zm.05 12.295h-6.066v3h-2.3v-3h-6.683v-1.859h6.683v-1.256h-5.062v-7.9h12.4v7.9h-5.037v1.256h6.066zm-3.265-7.975v-1.281h-7.925v1.281zm0 3.064v-1.369h-7.925v1.369zm-1.745-10.99H159.4l.716 1.834h3.065q.565-1.092.88-1.834z" class="cls-2" data-name="Path 155"/>
                <path id="Path_156" d="M181.039 87.078h-1.984a41.25 41.25 0 0 1-1.395 5.136h3.14v11.869h-1.959v-.954h-1.281v1.671h-1.934v-8.127q-.3.44-.893 1.232l-1.18-2.211a20.814 20.814 0 0 0 3.366-8.616h-2.914v-2.211h7.034zm-2.2 13.916v-6.669h-1.279v6.669zm9.106-1.784h-1.922a5.917 5.917 0 0 1-.239 1.031 11.011 11.011 0 0 1 1.885 2.085l-1.281 1.783a9.242 9.242 0 0 0-1.269-1.758 13.843 13.843 0 0 1-3.366 4.434l-1.5-1.47a9.93 9.93 0 0 0 3.68-6.105h-2.449v-1.821h2.651a19.75 19.75 0 0 0 .024-2.235h-.427a11.944 11.944 0 0 1-1.054 1.9l-1.571-1.206a14 14 0 0 0 1.746-4.031l1.871.3a6.01 6.01 0 0 1-.3 1.244h3.316v1.8h-1.57c.016.234.025.511.025.829 0 .469-.016.937-.051 1.406h1.8zm.213-7.812h-4.144a2.355 2.355 0 0 1-1.652-.515 2.594 2.594 0 0 1-.559-1.934v-4.672h2.11v1.507h4.069v1.808h-4.069V88.9q0 .7.565.7h3.68zm8.516 12.861l-.674 2.136q-4.46.063-6.456-2.336a13.723 13.723 0 0 1-1.62 2.9l-1.432-1.419q2.337-2.6 2.186-9.458l1.745-.025a35.95 35.95 0 0 1-.075 3.617l-.125 1.884a2.009 2.009 0 0 0 .269.566 2.891 2.891 0 0 0 .672.791v-9.081h-2.514v-1.9h3.241a15.689 15.689 0 0 0-2.8-3.189l1.507-1.257a13.183 13.183 0 0 1 1.055.942 16.98 16.98 0 0 0 1.62-1.8h-4.546v-1.8h7.021v1.8a22.365 22.365 0 0 1-2.776 3.266 14.607 14.607 0 0 1 .9 1.318l-.929.716h3.491a21.125 21.125 0 0 1-.942 4.761l-1.858-.591a21.148 21.148 0 0 0 .59-2.274h-1.156v3.894h2.732v1.947h-2.726v4.245a10.965 10.965 0 0 0 3.602.347z" class="cls-2" data-name="Path 156"/>
                <path id="Path_157" d="M211.257 104.674a1.861 1.861 0 0 1-.773 1.571q-.772.576-3.4.452l-.766-2.261q.64.036 1.282.037a3.814 3.814 0 0 0 1.268-.113.459.459 0 0 0 .2-.44V98.5h-3.828a19.948 19.948 0 0 1-2.336 8.339l-1.884-1.469a19.346 19.346 0 0 0 2.11-9.282V84.792h8.127zm-2.186-14.281V87h-3.706v3.391zm0 5.916v-3.68h-3.706v3.68zm13.477 8.227a1.9 1.9 0 0 1-.835 1.846 8.638 8.638 0 0 1-3.687.339l-.728-2.21 2.574-.051c.311 0 .465-.17.465-.514V98.5h-4.421a19.6 19.6 0 0 1-2.449 8.2l-1.847-1.407a17.019 17.019 0 0 0 2.085-8.805V84.792h8.843zm-2.211-14.143V87h-4.346v3.391zm0 5.916v-3.68h-4.346v3.68z" class="cls-2" data-name="Path 157"/>
                <path id="Path_158" d="M250.869 104.875l-1.1 2.01A42.292 42.292 0 0 1 242 103a43.229 43.229 0 0 1-7.385 3.882l-1.444-1.96a26.717 26.717 0 0 0 7.071-3.39 17.274 17.274 0 0 1-3.906-5.916 30.575 30.575 0 0 1-6.456 10.412l-1.935-1.62a38.4 38.4 0 0 0 7.75-15.223h-7.259v-2.258h7.485a16.844 16.844 0 0 0 .415-2.813l2.31.024q-.112 1.269-.351 2.789h12.522v2.261h-12.885q-.452 2.361-.742 3.416h10.677v2.286a23.755 23.755 0 0 1-4.246 6.619 29.567 29.567 0 0 0 7.248 3.366zm-5.427-9.985h-7.1a18.768 18.768 0 0 0 3.441 5.3 18.353 18.353 0 0 0 3.659-5.3z" class="cls-2" data-name="Path 158"/>
            </g>
            <g id="Group_189" data-name="Group 189">
                <path id="Path_159" d="M114.924 135.453h-5.891l1.57.641a23.016 23.016 0 0 1-2.977 5.715l-1.834-1.344a17.964 17.964 0 0 0 2.651-5.012h-1.935v-15.687h8.416zm-2.286-11.291v-2.273h-3.831v2.273zm0 4.472V126.3h-3.831v2.337zm0 4.635v-2.526h-3.831v2.526zm3.014 6.832l-2.034 1.03a21.133 21.133 0 0 0-2.236-4.131l2-.954a21.652 21.652 0 0 1 2.27 4.054zm12.673-15.022h-5.79v4.509h4.459V141.6h-2.248v-1.521h-5.916v1.521h-2.286v-12.012h3.63v-10.45h2.336v3.781h5.815zm-3.63 12.836v-6.167h-5.865v6.167z" class="cls-2" data-name="Path 159"/>
                <path id="Path_160" d="M140.858 130.027l-1.494 1.457q-.528-1.092-1.181-2.16v12.322h-2.273v-11.053a16.609 16.609 0 0 1-1.9 4.471l-1.231-2.26a23.275 23.275 0 0 0 2.876-7.072h-2.6v-2.249h2.851v-4.294h2.273v4.294h2.311v2.249h-2.311v.4a34.071 34.071 0 0 1 2.679 3.895zm5.062 6.783a20.9 20.9 0 0 1-3.755 4.409l-1.822-1.495a16.485 16.485 0 0 0 3.63-3.944zm9.545-1.67h-6.455v6.506h-2.21v-6.506h-6.016v-1.972h14.682zm0-13.553h-4.4v1.47h3.781v5.677h-13.322v-5.677h3.73v-1.47h-4.446v-2.009h14.657zm-.74 10.262h-12.812v-1.985h12.812zm-9.471-4.987V124.8h-1.62v2.059zm3.73-3.805v-1.47h-1.645v1.47zm0 3.805V124.8h-1.645v2.059zm6.581 13.114l-1.7 1.368a32.091 32.091 0 0 0-3.529-4.22l1.759-1.256a27.515 27.515 0 0 1 3.47 4.108zm-2.85-13.114V124.8h-1.646v2.059z" class="cls-2" data-name="Path 160"/>
                <path id="Path_161" d="M182.932 137.966a7.679 7.679 0 0 1-1.275 3.2 2.172 2.172 0 0 1-1.627.717q-1.469 0-2.8-2.324-1.595 1.707-2.524 2.524l-1.77-1.306q.313-.239.979-.854-8.314 1.131-13.3 1.545l-.515-1.909q2.94-.138 4.685-.352v-1.318h-3.869v-1.569h3.869v-1.054h-3.605v-1.433h3.605l.025-1h-3.819v-1.545h3.794v-1.054h-4.17v-1.7h14.243q-.051-1.155-.05-2.562 0-.9.025-1.432l2.235.025q-.024 1.746.063 3.969h5.427v1.7h-5.3a29.047 29.047 0 0 0 .641 4.609 23.266 23.266 0 0 0 1.746-3.78l2.034.816a32.175 32.175 0 0 1-2.989 5.715q.93 1.858 1.394 1.858c.108 0 .251-.207.427-.621a8.976 8.976 0 0 0 .477-1.9zm-11.467-16.253h-6.682a15.177 15.177 0 0 1-2.763 2.374l-1.8-1.394a16.272 16.272 0 0 0 4.119-3.755l2.386.364a5.029 5.029 0 0 1-.589.817h5.325zm-4.195 4.936l-1.256 1.319a13.69 13.69 0 0 0-1.52-1.4 11.566 11.566 0 0 1-1.847 1.545l-1.682-1.18a11.49 11.49 0 0 0 3.478-3.316l1.822.54a4.4 4.4 0 0 1-.641 1.03q.942.772 1.646 1.462zm1.834-3l-2.324.376a6.8 6.8 0 0 0-1.131-1.619l2.424-.4a7.523 7.523 0 0 1 1.027 1.641zm-.491 15.172v-8.59h-1.733v8.766q.566-.026 1.733-.178zm5.162-12.006l-1.331 1.38a9.706 9.706 0 0 0-1.858-1.644 14.321 14.321 0 0 1-1.621 1.545l-1.544-1.131a9.738 9.738 0 0 0 2.889-3.291l1.77.54a4.668 4.668 0 0 1-.465.892 13.192 13.192 0 0 1 2.16 1.707zm8.981-5.1H175.3a14.655 14.655 0 0 1-2.751 2.31l-1.871-1.255a15.419 15.419 0 0 0 4.106-3.73l2.349.339a2.642 2.642 0 0 1-.515.742h6.142zm-6.531 15.685a40.494 40.494 0 0 1-1.231-7.171h-4.22v.955h3.442v1.516h-3.442v.791h3.19v1.495h-3.19v.9h3.366v1.514h-3.366v1.168q1.231-.1 3.781-.49l.1 1.106a13.008 13.008 0 0 0 1.57-1.784zm3.73-13.728l-2.349.439a14.607 14.607 0 0 0-1.206-1.644l2.287-.465a6.063 6.063 0 0 1 1.268 1.67zm2.16 3.291l-1.594 1.256a14.059 14.059 0 0 0-2.55-2.411l1.519-1.244a12.535 12.535 0 0 1 2.625 2.399z" class="cls-2" data-name="Path 161"/>
            </g>
        </g>
    </g>
</svg>
