<svg xmlns="http://www.w3.org/2000/svg" width="288" height="244.462" viewBox="0 0 288 244.462">
    <g id="prefix__A5n" transform="translate(-43.75 -303.339)">
        <text id="prefix___5" fill="#b3b3b3" data-name="5" font-family="CenturyGothic, Century Gothic" font-size="60.042px" letter-spacing="0.08em" transform="translate(171 363.339)">
            <tspan x="0" y="0">5</tspan>
        </text>
        <path id="prefix__Path_78" fill="#b3b3b3" d="M669.64 278.963a10.05 10.05 0 0 1-3.293 3.658l-1.359-1.515a8.135 8.135 0 0 0 3.5-5.959h-3.868v-6.272h6.22v5.75a9.074 9.074 0 0 1-1.2 4.338zm10.035 0a11.078 11.078 0 0 1-3.292 3.658l-1.412-1.515a8.135 8.135 0 0 0 3.5-5.959h-3.815v-6.272h6.22v5.75a9.076 9.076 0 0 1-1.201 4.338z" data-name="Path 78" transform="translate(-450.99 51.125)"/>
        <text id="prefix__無障礙設施_我OK_您先請" fill="#f99" data-name="無障礙設施 我OK，您先請" font-family="MicrosoftJhengHeiBold, Microsoft JhengHei" font-size="25.723px" letter-spacing="0.06em" transform="translate(188 408.729)">
            <tspan x="-67.395" y="0">無障礙設施</tspan><tspan x="-87.828" y="35">我OK，您先請</tspan>
        </text>
        <text id="prefix__禮讓_讓生活更美好_體貼身障者的不方便_發揮優先禮讓的美德_讓生活更美好_心情也跟著美好起來_" fill="#4d4d4d" data-name="禮讓，讓生活更美好！ 體貼身障者的不方便，發揮優先禮讓的美德， 讓生活更美好，心情也跟著美好起來！" font-family="MicrosoftJhengHeiRegular, Microsoft JhengHei" font-size="10px" transform="translate(43.75 471.801)">
            <tspan x="93.75" y="11">禮讓，讓生活更美好！</tspan><tspan x="43.75" y="28.774">體貼身障者的不方便，發揮優先禮讓的美德，</tspan><tspan x="58.75" y="46.548">讓生活更美好，心情也跟著美好起來！</tspan>
        </text>
    </g>
</svg>
