<svg xmlns="http://www.w3.org/2000/svg" width="383" height="213.458" viewBox="0 0 383 213.458">
    <g id="prefix__A7nb" transform="translate(-564.98 -121.678)">
        <text id="prefix__不責罵_不嘲笑" fill="#6cc" data-name="不責罵、不嘲笑" font-family="MicrosoftJhengHeiBold, Microsoft JhengHei" font-size="51.446px" letter-spacing="0.06em" transform="translate(568.98 322.136)">
            <tspan x="0" y="0">不責罵、不嘲笑</tspan>
        </text>
        <text id="prefix___7" fill="#b3b3b3" data-name="7" font-family="CenturyGothic, Century Gothic" font-size="120.084px" letter-spacing="0.08em" transform="translate(564.98 242.678)">
            <tspan x="0" y="0">7</tspan>
        </text>
        <path id="prefix__Path_104" fill="#b3b3b3" d="M668.78 174.675a20.1 20.1 0 0 1-6.585 7.317l-2.718-3.031a16.27 16.27 0 0 0 7-11.917h-7.735V154.5h12.439V166a18.142 18.142 0 0 1-2.401 8.675zm20.071 0a22.156 22.156 0 0 1-6.586 7.317l-2.822-3.031a16.275 16.275 0 0 0 7-11.917h-7.631V154.5h12.439V166a18.142 18.142 0 0 1-2.4 8.675z" data-name="Path 104" transform="translate(-.5 1.5)"/>
    </g>
</svg>
