<svg xmlns="http://www.w3.org/2000/svg" width="296" height="213.801" viewBox="0 0 296 213.801">
    <g id="prefix__A7n" transform="translate(-43.76 -303.339)">
        <text id="prefix__不責罵_不嘲笑" fill="#6cc" data-name="不責罵、不嘲笑" font-family="MicrosoftJhengHeiBold, Microsoft JhengHei" font-size="25.723px" letter-spacing="0.06em" transform="translate(188 408.068)">
            <tspan x="-94.661" y="0">不責罵、不嘲笑</tspan>
        </text>
        <text id="prefix__讚美和鼓勵的言語人人都喜歡聽_與身心障礙朋友溝通_不必過度小心翼翼_像朋友一般互動就好_但要記得_人人都喜歡聽正面的言語噢_" fill="#4d4d4d" data-name="讚美和鼓勵的言語人人都喜歡聽！ 與身心障礙朋友溝通，不必過度小心翼翼， 像朋友一般互動就好，但要記得， 人人都喜歡聽正面的言語噢！" font-family="MicrosoftJhengHeiRegular, Microsoft JhengHei" font-size="10px" transform="translate(43.76 441.14)">
            <tspan x="73" y="11">讚美和鼓勵的言語人人都喜歡聽！</tspan><tspan x="53" y="28.774">與身心障礙朋友溝通，不必過度小心翼翼，</tspan><tspan x="73" y="46.548">像朋友一般互動就好，但要記得，</tspan><tspan x="83" y="64.322">人人都喜歡聽正面的言語噢！</tspan>
        </text>
        <text id="prefix___7" fill="#b3b3b3" data-name="7" font-family="CenturyGothic, Century Gothic" font-size="60.042px" letter-spacing="0.08em" transform="translate(171 363.339)">
            <tspan x="0" y="0">7</tspan>
        </text>
        <path id="prefix__Path_78" fill="#b3b3b3" d="M669.64 278.963a10.05 10.05 0 0 1-3.293 3.658l-1.359-1.515a8.135 8.135 0 0 0 3.5-5.959h-3.868v-6.272h6.22v5.75a9.074 9.074 0 0 1-1.2 4.338zm10.035 0a11.078 11.078 0 0 1-3.292 3.658l-1.412-1.515a8.135 8.135 0 0 0 3.5-5.959h-3.815v-6.272h6.22v5.75a9.076 9.076 0 0 1-1.201 4.338z" data-name="Path 78" transform="translate(-450.99 51.125)"/>
    </g>
</svg>
