<svg xmlns="http://www.w3.org/2000/svg" width="177" height="180.816" viewBox="0 0 177 180.816">
    <g id="prefix__A5t" transform="translate(-62.241 -3571.361)">
        <text id="prefix__無障礙設施_我OK_您先請" fill="#333" data-name="無障礙設施 我OK，您先請" font-family="MicrosoftJhengHeiLight, Microsoft JhengHei" font-size="25.723px" letter-spacing="0.08em" transform="translate(62.241 3704.178)">
            <tspan x="0" y="0">無障礙設施</tspan><tspan x="0" y="40.909">我OK，您先請</tspan>
        </text>
        <g id="prefix__Group_71" data-name="Group 71" transform="translate(-669.57 -860.5)">
            <text id="prefix___5" fill="#f99" data-name="5" font-family="CenturyGothic, Century Gothic" font-size="70px" letter-spacing="0.08em" transform="translate(811.311 4501.861)">
                <tspan x="0" y="0">5</tspan>
            </text>
            <g id="prefix__Group_70" data-name="Group 70">
                <text id="prefix__友善行動_任務" fill="#f99" data-name="友善行動 任務" font-family="MicrosoftJhengHeiRegular, Microsoft JhengHei" font-size="12.5px" letter-spacing="0.4em" transform="translate(731.811 4476.52)">
                    <tspan x="0" y="0">友善行動</tspan><tspan x="0" y="24.774">任務</tspan>
                </text>
                <path id="prefix__Line_7" fill="none" stroke="#f99" stroke-miterlimit="10" stroke-width="0.375px" d="M0 10.5L28 0" data-name="Line 7" transform="translate(767.66 4491.469)"/>
            </g>
        </g>
        <g id="prefix__Group_73" data-name="Group 73" transform="translate(-669.57 -860.5)">
            <g id="prefix__Group_72" data-name="Group 72">
                <path id="prefix__Path_57" fill="#f99" d="M873.96 4461.747a10.049 10.049 0 0 1-3.293 3.658l-1.359-1.515a8.135 8.135 0 0 0 3.5-5.959h-3.868v-6.272h6.22v5.75a9.073 9.073 0 0 1-1.2 4.338zm10.035 0a11.078 11.078 0 0 1-3.292 3.658l-1.412-1.515a8.135 8.135 0 0 0 3.5-5.959h-3.815v-6.272h6.22v5.75a9.075 9.075 0 0 1-1.201 4.338z" data-name="Path 57"/>
            </g>
        </g>
    </g>
</svg>
