<svg xmlns="http://www.w3.org/2000/svg" id="Symbol_92_1" width="174.75" height="155.59" data-name="Symbol 92 1" viewBox="0 0 174.75 155.59">
    <defs>
        <style>
            .cls-1{fill:#333}.cls-2{fill:#f99}
        </style>
    </defs>
    <g id="Group_229" data-name="Group 229" transform="translate(1.151 91.802)">
        <g id="Group_228" data-name="Group 228">
            <path id="Path_185" d="M24.687 199.143H2.374v-.951h3.952v-4.752H2.874v-.951h3.452v-3.3h1.051v3.3h3.6v-3.3h1.053v3.3h3.6v-3.3h1.051v3.3h3.6v-3.3h1.051v3.3h3v.951h-3v4.753h3.4zm-17.61 1.851a26.912 26.912 0 0 1-3.852 5.353l-.85-.7a23.694 23.694 0 0 0 3.852-5.253zm16.76-13.057H6.226a33.99 33.99 0 0 1-2.852 2.5l-.75-.8a27.506 27.506 0 0 0 5.753-5.8l1.1.4c-.75.951-1.5 1.9-2.351 2.8h16.71zm-12.858 10.255v-4.752h-3.6v4.753zm.951 7.9l-1.1.25a34.267 34.267 0 0 0-1.2-5.553l1-.3a41.466 41.466 0 0 1 1.3 5.6zm3.652-7.9v-4.752h-3.6v4.753zm2.7 7.855l-1 .4a25.96 25.96 0 0 0-2.2-5.653l1-.35a25.577 25.577 0 0 1 2.2 5.6zm1.951-7.855v-4.752h-3.6v4.753zm4.4 7.7l-.9.5a23.223 23.223 0 0 0-3-5.6l.9-.5a23.222 23.222 0 0 1 3 5.6z" class="cls-1" data-name="Path 185" transform="translate(-2.274 -183.684)"/>
            <path id="Path_186" d="M63.376 191.739c1.7 1.351 2.551 3.5 2.6 6.3 0 1.951-1.1 2.952-3.252 2.952h-1.1l-.35-1.051c.5.05 1 .1 1.451.1a2.4 2.4 0 0 0 1.651-.5 2.474 2.474 0 0 0 .55-1.9 6.675 6.675 0 0 0-2.7-5.653 50.722 50.722 0 0 0 2.4-6.5h-4V206.2h-1.052v-21.715h6.1v.951a36.664 36.664 0 0 1-2.3 6.3zm17.66 10.706h-7.054v3.655h-1.05v-3.652h-7.054v-.9h7.054v-2.051h-5.353v-6.7h11.906v6.7h-5.553v2.051h7.054zm-.05-11.557H65.978v-.951h4.552a16.011 16.011 0 0 0-1.3-3h-2.352v-.9h6.2a11.2 11.2 0 0 0-1.1-2l1-.4a20.794 20.794 0 0 1 1.2 2.351h6.254v.9h-2.7a19.943 19.943 0 0 1-1.251 3h4.5zm-2.5 4.753v-1.951h-9.857v1.951zm0 2.9v-2h-9.857v2zm-1.751-11.607h-6.4a22.665 22.665 0 0 1 1.3 3h3.8a13.3 13.3 0 0 0 1.3-3z" class="cls-1" data-name="Path 186" transform="translate(-30.858 -183.584)"/>
            <path id="Path_187" d="M120.578 186.385h-2.8a55.579 55.579 0 0 1-1.8 6.254h3.8V203.6h-1v-1.251h-2.5v1.9h-1v-10.01a18.309 18.309 0 0 1-1.8 3l-.7-.8a24.4 24.4 0 0 0 4-10.006h-3.552v-.951h7.354zm-1.8 15.009v-7.8h-2.5v7.8zm8.4-2.551h-2.6a5.043 5.043 0 0 1-.25 1.251q2.1 2.026 2.4 2.4l-.8.8a15.788 15.788 0 0 0-1.9-2.2 12.65 12.65 0 0 1-4.3 5.4l-.75-.7a10.913 10.913 0 0 0 4.6-7h-2.7v-.951h2.8a19.278 19.278 0 0 0 .1-2.4v-.9h-1.348a6.657 6.657 0 0 1-1.151 1.9l-.85-.55a11.387 11.387 0 0 0 1.9-4.1l.9.3c-.15.5-.3 1.051-.45 1.5h4.152v.951h-2.2a31.936 31.936 0 0 1-.15 3.3h2.5zm.6-7.754h-4.348a1.5 1.5 0 0 1-1.251-.5 1.921 1.921 0 0 1-.45-1.251v-5.2h1.051v1.9h4.753v.951h-4.753v2.351c0 .55.3.8.9.8h4.152zm7.9 14.008l-.25 1-1.051.05a7.782 7.782 0 0 1-3.8-.8 6.21 6.21 0 0 1-2.251-2.3 12.193 12.193 0 0 1-1.851 3.352l-.85-.55a13.1 13.1 0 0 0 2.551-8.355l-.05-1.7h1l.05 1.451a21.027 21.027 0 0 1-.5 4.653 6.922 6.922 0 0 0 2.151 2.5v-11.209h-2.952v-.9h4.3a19.309 19.309 0 0 0-3.7-3.852l.65-.7a11.26 11.26 0 0 1 1.851 1.551 28.008 28.008 0 0 0 3-3.452h-5.453v-.951h6.554v1.051a24.9 24.9 0 0 1-3.5 4.1c.15.15.35.4.7.75a6.641 6.641 0 0 1 .7.85l-.65.7h3.252a16.554 16.554 0 0 1-1.2 4.352l-1-.4a10.925 10.925 0 0 0 1-3.052h-2.6v4.9h2.5v.951h-2.5v5.753a7.363 7.363 0 0 0 2.551.4z" class="cls-1" data-name="Path 187" transform="translate(-57.442 -183.834)"/>
            <path id="Path_188" d="M178.129 187.386h-9.055v-.951h4a7.837 7.837 0 0 0-1.051-2.5l1.051-.4a12.106 12.106 0 0 1 1.151 2.9h3.852zm-.951 3.7h-7.554v-.951h7.554zm0 3.8h-7.554v-.951h7.554zm-.3 10.706h-1.051v-1.5h-4.953v1.951h-1.051v-8.3h7v7.857zm-1.051-2.451v-4.4h-4.953v4.4zm15.859 2.1l-.65.9a19.42 19.42 0 0 1-6.754-3.052 26.048 26.048 0 0 1-6.254 3.1l-.7-.8a18.905 18.905 0 0 0 6.154-2.952 16.185 16.185 0 0 1-3.8-6.654h-1.051v-.951h10.506v.951a12.248 12.248 0 0 1-4.1 6.654 18.258 18.258 0 0 0 6.65 2.809zm-.4-12.507h-2.451a1.526 1.526 0 0 1-1.751-1.7v-5.653h-4.853a11.952 11.952 0 0 1-.85 5.053 11.259 11.259 0 0 1-2.551 3.2l-.8-.75a9.663 9.663 0 0 0 2.6-3.4 15.664 15.664 0 0 0 .6-5.053h6.9v6.654c0 .5.2.75.65.75h2.5zm-3.1 3.052h-7.4a13.922 13.922 0 0 0 3.6 6 10.676 10.676 0 0 0 3.799-5.995z" class="cls-1" data-name="Path 188" transform="translate(-85.576 -183.534)"/>
            <path id="Path_189" d="M233.929 188.437h-5.553c0 1.5-.05 2.9-.1 4.3h4.753c-.2 7.454-.45 11.557-.85 12.307s-1.351 1.1-2.952 1.1a6.378 6.378 0 0 1-1-.05l-.35-.951h1.151a5.54 5.54 0 0 0 1.8-.2 1.519 1.519 0 0 0 .6-.65 25.815 25.815 0 0 0 .4-3.9c.15-2.351.25-4.553.25-6.7h-3.752a32.453 32.453 0 0 1-2.6 12.407l-.8-.65q2.551-5.328 2.551-14.558l-.05-2.5h-2.652v-1h4.6a15.193 15.193 0 0 0-1.151-3.3l1-.351a31.422 31.422 0 0 1 1.251 3.652h3.5zm13.408-.3h-10.156a39.244 39.244 0 0 1-3.3 4.3l-.75-.8a28.6 28.6 0 0 0 5.3-8l1.051.2a25.723 25.723 0 0 1-1.7 3.3h9.555zm-.35 13.808a7.6 7.6 0 0 1-.6 2.6 1.835 1.835 0 0 1-1.2 1.151 33.981 33.981 0 0 1-3.9.2 33.022 33.022 0 0 1-3.852-.1 1.874 1.874 0 0 1-1-.6 1.921 1.921 0 0 1-.45-1.251v-8.355l-1.9.55-.3-.9 2.2-.6v-3.4h1.051v3.1l3.5-1v-4.052h1.051v3.752l4.653-1.351a28.441 28.441 0 0 1-1.5 8.705l-.9-.4a27.942 27.942 0 0 0 1.351-7.054l-3.6 1.051v8.305h-1.051v-8l-3.5 1v8.755a.746.746 0 0 0 .45.75 32.766 32.766 0 0 0 4.953.2 9.951 9.951 0 0 0 2.451-.15 1.472 1.472 0 0 0 .75-.8 8.234 8.234 0 0 0 .5-2.451z" class="cls-1" data-name="Path 189" transform="translate(-113.41 -183.584)"/>
            <path id="Path_190" d="M24.687 282.944a23.546 23.546 0 0 1-.951 3.2 3.7 3.7 0 0 1-1.151 1.9 2.277 2.277 0 0 1-1 .25 3.356 3.356 0 0 1-2.4-1.551 12.231 12.231 0 0 1-1.951-3.652 21.126 21.126 0 0 1-5.553 3.452l-.55-.851a19 19 0 0 0 5.8-3.652 34.428 34.428 0 0 1-1.1-8.155H9.378v5c1.751-.45 3.352-.9 4.953-1.4v1q-2.852.825-4.953 1.351v6.9a1.4 1.4 0 0 1-.55 1.1 1.889 1.889 0 0 1-1.2.45h-3.4l-.3-1.051c.65.05 1.8.05 3.552.05.55 0 .85-.25.85-.8v-6.354c-2 .5-3.9.85-5.753 1.151l-.25-1a49.519 49.519 0 0 0 6.053-1.1v-5.3h-6.2v-.951h6.2v-4.4c-1.751.35-3.5.6-5.3.8l-.35-1a47.088 47.088 0 0 0 11.106-2.251l.4.951c-1.551.5-3.152.951-4.753 1.3v4.653h6.4c-.05-1-.05-3.352-.05-7.054h1.051l-.05 4.252.05 2.8h7.854v.951h-7.8a40.478 40.478 0 0 0 .9 7.354 23.2 23.2 0 0 0 3.852-5.5l.85.55a26.153 26.153 0 0 1-4.4 6 12.9 12.9 0 0 0 1.151 2.7 7.3 7.3 0 0 0 1.3 1.7 1.729 1.729 0 0 0 1.051.5.637.637 0 0 0 .55-.25 5.705 5.705 0 0 0 .75-1.7 14.683 14.683 0 0 0 .8-2.9zm-1.451-12.007l-.8.6a16.993 16.993 0 0 0-3.352-4.2l.75-.6a18.184 18.184 0 0 1 3.4 4.2z" class="cls-1" data-name="Path 190" transform="translate(-2.174 -224.71)"/>
            <path id="Path_191" d="M66.275 288.592a8.906 8.906 0 0 1-4.753-1.251 7.892 7.892 0 0 1-3.152-3.5 11.378 11.378 0 0 1-1.1-5.153 11.809 11.809 0 0 1 1.151-5.4 8.2 8.2 0 0 1 3.3-3.6 9.484 9.484 0 0 1 4.953-1.251 8.4 8.4 0 0 1 4.6 1.251 8.243 8.243 0 0 1 3.1 3.452 11.1 11.1 0 0 1 1.1 5.053 12.821 12.821 0 0 1-1.1 5.453 8.7 8.7 0 0 1-3.2 3.652 9.844 9.844 0 0 1-4.899 1.294zm.15-18.911a7.249 7.249 0 0 0-6.754 4.252 10.414 10.414 0 0 0-.951 4.6 11.116 11.116 0 0 0 .9 4.6 6.934 6.934 0 0 0 6.654 4.1 7.317 7.317 0 0 0 5.7-2.352 11.1 11.1 0 0 0 0-12.857 7 7 0 0 0-5.553-2.351z" class="cls-1" data-name="Path 191" transform="translate(-29.704 -225.956)"/>
            <path id="Path_192" d="M115.73 288.545l-8.255-9.305-.35-.45h-.05v9.756h-1.4v-19.462h1.4v9.155h.05a1.8 1.8 0 0 1 .35-.5l7.854-8.7h1.8l-8.5 9.455 9.055 10.006h-1.954z" class="cls-1" data-name="Path 192" transform="translate(-53.894 -226.26)"/>
            <path id="Path_193" d="M158.575 290.226a1.423 1.423 0 0 1-.9-1.2 1.227 1.227 0 0 1 .3-.8 1.12 1.12 0 0 1 .85-.3 1.069 1.069 0 0 1 .85.4 2.142 2.142 0 0 1 .3 1.1 3.162 3.162 0 0 1-1.451 2.4l-.5-.45a1.681 1.681 0 0 0 .55-1.151z" class="cls-1" data-name="Path 193" transform="translate(-79.879 -235.694)"/>
            <path id="Path_195" d="M271.137 282.395a10.686 10.686 0 0 1-.85 4.052 2.278 2.278 0 0 1-1.5 1.1 14.609 14.609 0 0 1-2.952.15 20.086 20.086 0 0 1-2.451-.1 1.352 1.352 0 0 1-.85-.5 1.847 1.847 0 0 1-.35-1.151v-9.155h-5a11.938 11.938 0 0 1-1.9 6.854 13.046 13.046 0 0 1-5.86 4.355l-.55-.9a11.4 11.4 0 0 0 5.5-3.9 11.277 11.277 0 0 0 1.8-6.4h-7.154v-1h10.46v-5h-6.053a24.345 24.345 0 0 1-2.9 3.552l-.8-.65a23.862 23.862 0 0 0 5.1-7.654l.951.35a30.815 30.815 0 0 1-1.7 3.4h5.453v-4.252h1.051v4.252h9.255v1h-9.255v5h10.356v1h-7.654v8.9a.876.876 0 0 0 .2.6.722.722 0 0 0 .55.35c.2 0 .8.05 1.8.05a16.877 16.877 0 0 0 2.752-.1 1.215 1.215 0 0 0 .7-.45 3.22 3.22 0 0 0 .55-1.351 17.258 17.258 0 0 0 .35-2.752z" class="cls-1" data-name="Path 195" transform="translate(-125.453 -224.512)"/>
            <path id="Path_196" d="M312.328 269.186h-7.654v-.951h3.5a7.835 7.835 0 0 0-1.051-2.5l1.051-.4a12.107 12.107 0 0 1 1.151 2.9h3zm-.6 3.7h-6.4v-.951h6.4zm0 3.8h-6.4v-.951h6.4zm-.3 10.706h-1.051v-1.5h-3.8v1.951h-1.051v-8.255h5.853v7.8zm-1-2.451v-4.4h-3.8v4.4zm14.658 1.1c0 1.2-.75 1.8-2.3 1.8h-2.2l-.35-1c.6.05 1.351.05 2.251.05a2.622 2.622 0 0 0 1.251-.15.686.686 0 0 0 .3-.65v-2.4h-8.7a8.019 8.019 0 0 1-2.651 4.5l-.75-.7c1.8-1.5 2.7-3.752 2.7-6.8v-4.052h10.456zm1.851-11.507h-14.158v-.9h6.554v-2.151h-5.053v-.9h5.053v-2.051h-6v-.9h6v-2.052h1.051v2.052h6v.9h-6v2.051h5.053v.9h-5.053v2.151h6.554zm-2.852 8.3v-2.2h-8.4a15.735 15.735 0 0 1-.15 2.2zm0-3.152v-2.2h-8.4v2.2z" class="cls-1" data-name="Path 196" transform="translate(-153.337 -224.411)"/>
            <g id="Group_362" data-name="Group 362" transform="translate(95.355 41.023)">
                <path id="Path_486" d="M199.628 265.884a42.264 42.264 0 0 1-1.851 4.4V288h-1.051v-15.812a23.96 23.96 0 0 1-3.352 4.5l-.6-.85a26.358 26.358 0 0 0 5.8-10.306zm15.009 3.2a35.588 35.588 0 0 1-2 6.154l-1-.3a33.261 33.261 0 0 0 1.651-4.9h-9.708a24.14 24.14 0 0 1-3.8 5.7l-.65-.8a24.07 24.07 0 0 0 5.1-9.305l.951.3a24.4 24.4 0 0 1-1.151 3.2h10.606zm-10.156 7.3a33.7 33.7 0 0 1-4.152 8.7l-.9-.6a28.334 28.334 0 0 0 4.1-8.455zm3.452 9.906a1.591 1.591 0 0 1-.45 1.251 2.608 2.608 0 0 1-1.8.45h-2.153l-.4-1 2.6.05c.8 0 1.151-.25 1.151-.75v-14.053h1.051zm7.554-1.7l-1 .5a45.885 45.885 0 0 0-4.152-8.455l.85-.45a45.163 45.163 0 0 1 4.302 8.41z" class="cls-1" data-name="Path 486" transform="translate(-192.774 -265.534)"/>
            </g>
        </g>
    </g>
    <g id="Group_235" data-name="Group 235">
        <g id="Group_231" data-name="Group 231" transform="translate(81.847)">
            <g id="Group_230" data-name="Group 230">
                <path id="Path_197" d="M195.042.034v4.8h-17.86l-2.5 13.708a21.416 21.416 0 0 1 5.9-.951 15.042 15.042 0 0 1 11.306 4.6A16.321 16.321 0 0 1 196.343 34a18.127 18.127 0 0 1-2.3 9.105 16.458 16.458 0 0 1-6.2 6.354 18.375 18.375 0 0 1-9.055 2.2 14.859 14.859 0 0 1-10.306-3.752 15.186 15.186 0 0 1-5-9.706h5.153a11.483 11.483 0 0 0 1.951 4.7 9.97 9.97 0 0 0 3.7 2.9 10.78 10.78 0 0 0 4.853 1.1 11.223 11.223 0 0 0 8.5-3.752 13.242 13.242 0 0 0 3.552-9.405 11 11 0 0 0-3.2-8.255 11.759 11.759 0 0 0-8.6-3.152 28.351 28.351 0 0 0-10.756 2.7L173.28.035z" class="cls-2" data-name="Path 197" transform="translate(-163.474 -.034)"/>
            </g>
        </g>
        <g id="Group_234" data-name="Group 234" transform="translate(0 14.508)">
            <g id="Group_233" data-name="Group 233">
                <g id="Group_232" data-name="Group 232">
                    <path id="Path_198" d="M11.33 39.44l-.3.65a12.278 12.278 0 0 1-4.052-2 12.766 12.766 0 0 1-4.1 2.1l-.4-.6a11.92 11.92 0 0 0 4-1.951 7.105 7.105 0 0 1-2.3-3.552 14.587 14.587 0 0 1-3.352 5.6l-.45-.5a14.254 14.254 0 0 0 3.752-7.9H.374v-.65h3.852c.1-.55.15-1.051.2-1.6h.7c-.05.45-.1 1-.2 1.6h6.3v.65h-6.4c-.1.6-.25 1.3-.45 2.051h5.253v.65a10.864 10.864 0 0 1-2.2 3.552 9.772 9.772 0 0 0 3.901 1.9zm-2.4-5.353H4.877a6.863 6.863 0 0 0 2.151 3.152 8.87 8.87 0 0 0 1.9-3.152z" class="cls-2" data-name="Path 198" transform="translate(-.124 -29.034)"/>
                    <path id="Path_199" d="M46.33 36.188H35.474v-.6h3.052a5.023 5.023 0 0 0-.8-1l.4-.35h-2.552v-.551h5v-1.051h-4.4v-.55h4.4v-.951h-4.7v-.6H45.98v.6h-4.7v.951h4.4v.55h-4.4v1.051h5v.551h-2.651l.45.45a8.811 8.811 0 0 1-.65.9h2.9zm-1.251 3.952h-.6v-.6h-7.1v.6h-.65v-3.051h8.355zm-.65-1.2v-1.251h-7.054v1.251zm-4.9-8.955l-.6.3a3.847 3.847 0 0 0-.9-.9l.6-.3a3.847 3.847 0 0 1 .9.9zm4 4.252h-5.2a8.569 8.569 0 0 1 1 1.351h3.252a9.246 9.246 0 0 0 .951-1.351zm.2-4.853a4.55 4.55 0 0 1-1.051.9l-.65-.351a5.1 5.1 0 0 0 1.151-.9z" class="cls-2" data-name="Path 199" transform="translate(-17.664 -29.034)"/>
                    <path id="Path_200" d="M74.326 32.136a10.389 10.389 0 0 1-1.2 1.7v6.4h-.65v-5.649a14.991 14.991 0 0 1-1.6 1.5l-.35-.5a14.485 14.485 0 0 0 3.3-3.852zm-.3-2.5a11.234 11.234 0 0 1-3.152 2.6l-.4-.5a11.112 11.112 0 0 0 3-2.5zm7.354 4h-1.951v5.554a1.006 1.006 0 0 1-.2.65.851.851 0 0 1-.5.3 7.746 7.746 0 0 1-1.1.05h-1.1l-.25-.65h1.1a9.641 9.641 0 0 0 1.2-.05c.1-.05.15-.15.1-.2v-5.6h-4.4v-.65h7.1zm-.6-3.152h-5.954v-.65h5.954z" class="cls-2" data-name="Path 200" transform="translate(-35.154 -29.134)"/>
                    <path id="Path_201" d="M111.427 29.784a14.6 14.6 0 0 1-2.5.45v1h2.5v.6h-2.5v.9h2.3v3.652h-2.3v.9h2.3v.6h-2.3v1.254a19.368 19.368 0 0 0 2.3-.3v.6c-2.251.3-4.152.5-5.7.7l-.15-.65c.9-.05 1.9-.15 2.952-.3v-1.351h-2.3v-.6h2.3v-.9h-2.3v-3.653h2.3v-.9h-2.752v-.6h2.752v-.9c-.7.05-1.451.1-2.3.1l-.2-.55a18.77 18.77 0 0 0 5.3-.6zm-3.1 4.453v-.85h-1.651v.85zm0 1.551v-.951h-1.651v.951zm2.251-1.551v-.85h-1.651v.85zm0 1.551v-.951h-1.651v.951zm5.2-4.052c0 1.851-.05 3.5-.1 5a15.776 15.776 0 0 1-.2 2.652 1.076 1.076 0 0 1-.45.6 2.64 2.64 0 0 1-1.251.2h-.45l-.2-.65h1.2a.611.611 0 0 0 .45-.2.752.752 0 0 0 .2-.55l.1-2.4c.05-1.351.1-2.7.1-4.052h-1.351a16.184 16.184 0 0 1-1.9 7.9l-.55-.25a15.185 15.185 0 0 0 1.851-7.654h-1.351v-.6h1.351l.05-2.451h.6c0 1-.05 1.851-.05 2.451z" class="cls-2" data-name="Path 201" transform="translate(-52.594 -29.134)"/>
                    <path id="Path_202" d="M3.226 78.884c-.15.35-.3.8-.55 1.3l-.35.7v8.756h-.7v-7.4a17.537 17.537 0 0 1-1.351 2l-.4-.7a17.285 17.285 0 0 0 2.652-4.9zm7.754 5.6H7.328v4.256h3.352v.65H3.226v-.65h3.4v-4.253h-3.7v-.65h3.7v-4.2h-3.1v-.65h6.9v.65h-3.1v4.2h3.654z" class="cls-2" data-name="Path 202" transform="translate(.126 -53.82)"/>
                    <path id="Path_203" d="M40.227 82.786a5.473 5.473 0 0 1-1 2.9l-.5-.45a5.727 5.727 0 0 0 .75-1.8h-1.1v5.5a.889.889 0 0 1-.2.5c-.15.2-.45.25-1 .25a1.876 1.876 0 0 1-.55-.05l-.35-.65c.55.05.951.05 1.251.05a.379.379 0 0 0 .2-.1.26.26 0 0 0 .1-.2v-4.5a14.631 14.631 0 0 1-1.9 3.6l-.45-.5a14.411 14.411 0 0 0 2-3.9h-1.954v-.6h2.752a10.275 10.275 0 0 0-1.9-1.7l.45-.4c.3.2.65.5 1.151.851a10.1 10.1 0 0 0 1.351-1.9h-3.354v-.6h4.1v.6a14.56 14.56 0 0 1-1.6 2.3l.45.5-.4.35zm5.4 2.852a17.863 17.863 0 0 1-.2 2.3 3.588 3.588 0 0 1-.35 1.251 1.349 1.349 0 0 1-.4.35 3.439 3.439 0 0 1-1.6.1l-.3-.65c.25 0 .55.051.85.051a4.261 4.261 0 0 0 .8-.051.391.391 0 0 0 .2-.2 2.34 2.34 0 0 0 .15-.851c.05-.45.15-1 .2-1.65h-2.1a4.763 4.763 0 0 1-3.1 3.451l-.5-.5a4 4 0 0 0 1.851-1.15 3.671 3.671 0 0 0 1.051-1.8h-2v-.6h2.151a10.524 10.524 0 0 0 .1-1.251h.65a11.435 11.435 0 0 1-.1 1.251zm.7-1.5l-.35.55a9.124 9.124 0 0 1-2.7-1.351 9.34 9.34 0 0 1-2.4 1.3l-.45-.55a7.485 7.485 0 0 0 2.351-1.2 5.916 5.916 0 0 1-1.1-1.4l.55-.3a5.443 5.443 0 0 0 1.051 1.3 5.454 5.454 0 0 0 1.351-2h-2.652a10.657 10.657 0 0 1-1.451 1.551l-.5-.45a8.43 8.43 0 0 0 2.351-2.952l.6.25a5.3 5.3 0 0 1-.6 1h3.8v.6h-.9a5.752 5.752 0 0 1-1.5 2.4 7.573 7.573 0 0 0 2.551 1.251z" class="cls-2" data-name="Path 203" transform="translate(-17.664 -53.82)"/>
                </g>
            </g>
            <path id="Line_33" fill="none" stroke="#f99" stroke-miterlimit="10" stroke-width="0.75px" d="M70.474 90.24L98.49 79.734" data-name="Line 33" transform="translate(-35.154 -54.369)"/>
        </g>
    </g>
    <g id="Group_237" data-name="Group 237" transform="translate(136.678 .1)">
        <g id="Group_236" data-name="Group 236">
            <path id="Path_204" d="M278.077 10.29a10.075 10.075 0 0 1-3.3 3.652l-1.351-1.5a8.018 8.018 0 0 0 3.5-5.953h-3.852V.234h6.2v5.753a9.437 9.437 0 0 1-1.2 4.3zm10.056 0a11 11 0 0 1-3.3 3.652l-1.4-1.5a8.018 8.018 0 0 0 3.5-5.953h-3.8V.234h6.2v5.753a9.436 9.436 0 0 1-1.2 4.3z" class="cls-2" data-name="Path 204" transform="translate(-273.074 -.234)"/>
        </g>
    </g>
</svg>
