<svg xmlns="http://www.w3.org/2000/svg" width="221" height="180.816" viewBox="0 0 221 180.816">
    <g id="prefix__A3t" transform="translate(-62 -2420.547)">
        <text id="prefix__別擔心_需要幫助有我在_" fill="#333" data-name="別擔心， 需要幫助有我在！" font-family="MicrosoftJhengHeiLight, Microsoft JhengHei" font-size="25.723px" letter-spacing="0.08em" transform="translate(62 2553.363)">
            <tspan x="0" y="0">別擔心，</tspan><tspan x="0" y="40.909">需要幫助有我在！</tspan>
        </text>
        <g id="prefix__Group_51" data-name="Group 51" transform="translate(505.439 239.25)">
            <text id="prefix___3" fill="#693" data-name="3" font-family="CenturyGothic, Century Gothic" font-size="70px" letter-spacing="0.08em" transform="translate(-363.939 2251.297)">
                <tspan x="0" y="0">3</tspan>
            </text>
            <g id="prefix__Group_50" data-name="Group 50">
                <text id="prefix__友善行動_任務" fill="#693" data-name="友善行動 任務" font-family="MicrosoftJhengHeiRegular, Microsoft JhengHei" font-size="12.5px" letter-spacing="0.4em" transform="translate(-443.439 2225.955)">
                    <tspan x="0" y="0">友善行動</tspan><tspan x="0" y="24.774">任務</tspan>
                </text>
                <path id="prefix__Line_5" fill="none" stroke="#693" stroke-miterlimit="10" stroke-width="0.375px" d="M0 10.5L28 0" data-name="Line 5" transform="translate(-407.59 2240.904)"/>
            </g>
        </g>
        <g id="prefix__Group_53" data-name="Group 53" transform="translate(505.439 239.25)">
            <g id="prefix__Group_52" data-name="Group 52">
                <path id="prefix__Path_53" fill="#693" d="M-300.29 2211a10.05 10.05 0 0 1-3.293 3.658l-1.359-1.515a8.135 8.135 0 0 0 3.5-5.959h-3.868v-6.272h6.22v5.75a9.074 9.074 0 0 1-1.2 4.338zm10.035 0a11.079 11.079 0 0 1-3.292 3.658l-1.412-1.515a8.135 8.135 0 0 0 3.5-5.959h-3.815v-6.272h6.22v5.75a9.076 9.076 0 0 1-1.201 4.338z" data-name="Path 53"/>
            </g>
        </g>
    </g>
</svg>
