<svg xmlns="http://www.w3.org/2000/svg" width="221" height="180.816" viewBox="0 0 221 180.816">
    <g id="prefix__Group_69" data-name="Group 69" transform="translate(-62 -2994.797)">
        <g id="prefix__A4t">
            <text id="prefix__優先選購身障朋友_製作的產品" fill="#333" data-name="優先選購身障朋友 製作的產品" font-family="MicrosoftJhengHeiLight, Microsoft JhengHei" font-size="25.723px" letter-spacing="0.08em" transform="translate(62 3127.613)">
                <tspan x="0" y="0">優先選購身障朋友</tspan><tspan x="0" y="40.909">製作的產品</tspan>
            </text>
            <g id="prefix__Group_62" data-name="Group 62" transform="translate(-321.698 -802.582)">
                <text id="prefix___4" fill="#903" data-name="4" font-family="CenturyGothic, Century Gothic" font-size="70px" letter-spacing="0.08em" transform="translate(463.198 3867.379)">
                    <tspan x="0" y="0">4</tspan>
                </text>
                <g id="prefix__Group_61" data-name="Group 61">
                    <text id="prefix__友善行動_任務" fill="#903" data-name="友善行動 任務" font-family="MicrosoftJhengHeiRegular, Microsoft JhengHei" font-size="12.5px" letter-spacing="0.4em" transform="translate(383.698 3842.037)">
                        <tspan x="0" y="0">友善行動</tspan><tspan x="0" y="24.774">任務</tspan>
                    </text>
                    <path id="prefix__Line_6" fill="none" stroke="#903" stroke-miterlimit="10" stroke-width="0.375px" d="M0 10.5L28 0" data-name="Line 6" transform="translate(419.549 3856.987)"/>
                </g>
            </g>
            <g id="prefix__Group_64" data-name="Group 64" transform="translate(-321.698 -802.582)">
                <g id="prefix__Group_63" data-name="Group 63">
                    <path id="prefix__Path_55" fill="#903" d="M527.848 3826.829a10.058 10.058 0 0 1-3.292 3.659l-1.359-1.516a8.137 8.137 0 0 0 3.5-5.959h-3.867v-6.272h6.22v5.75a9.076 9.076 0 0 1-1.202 4.338zm10.036 0a11.094 11.094 0 0 1-3.293 3.659l-1.411-1.516a8.141 8.141 0 0 0 3.5-5.959h-3.816v-6.272h6.22v5.75a9.074 9.074 0 0 1-1.2 4.338z" data-name="Path 55"/>
                </g>
            </g>
        </g>
    </g>
</svg>
