<svg xmlns="http://www.w3.org/2000/svg" width="193" height="139.816" viewBox="0 0 193 139.816">
    <g id="prefix__A7t" transform="translate(-62.74 -4783.361)">
        <text id="prefix__不責罵_不嘲笑" fill="#333" data-name="不責罵、不嘲笑" font-family="MicrosoftJhengHeiLight, Microsoft JhengHei" font-size="25.723px" letter-spacing="0.08em" transform="translate(62.74 4916.178)">
            <tspan x="0" y="0">不責罵、不嘲笑</tspan>
        </text>
        <g id="prefix__Group_87" data-name="Group 87" transform="translate(-659 -919)">
            <text id="prefix___7" fill="#6cc" data-name="7" font-family="CenturyGothic, Century Gothic" font-size="70px" letter-spacing="0.08em" transform="translate(801.24 5772.361)">
                <tspan x="0" y="0">7</tspan>
            </text>
            <g id="prefix__Group_86" data-name="Group 86">
                <text id="prefix__友善行動_任務" fill="#6cc" data-name="友善行動 任務" font-family="MicrosoftJhengHeiRegular, Microsoft JhengHei" font-size="12.5px" letter-spacing="0.4em" transform="translate(721.74 5747.02)">
                    <tspan x="0" y="0">友善行動</tspan><tspan x="0" y="24.774">任務</tspan>
                </text>
                <path id="prefix__Line_9" fill="none" stroke="#6cc" stroke-miterlimit="10" stroke-width="0.375px" d="M0 10.5L28 0" data-name="Line 9" transform="translate(757.59 5761.969)"/>
            </g>
        </g>
        <g id="prefix__Group_89" data-name="Group 89" transform="translate(-659 -919)">
            <g id="prefix__Group_88" data-name="Group 88">
                <path id="prefix__Path_61" fill="#6cc" d="M864.39 5732.247a10.049 10.049 0 0 1-3.293 3.658l-1.359-1.515a8.135 8.135 0 0 0 3.5-5.959h-3.868v-6.272h6.22v5.75a9.073 9.073 0 0 1-1.2 4.338zm10.035 0a11.078 11.078 0 0 1-3.292 3.658l-1.412-1.515a8.135 8.135 0 0 0 3.5-5.959h-3.815v-6.272h6.22v5.75a9.075 9.075 0 0 1-1.201 4.338z" data-name="Path 61"/>
            </g>
        </g>
    </g>
</svg>
