<svg xmlns="http://www.w3.org/2000/svg" width="165" height="180.816" viewBox="0 0 165 180.816">
    <g id="prefix__A6t" transform="translate(-62.74 -4190.861)">
        <text id="prefix__不為身心障礙_朋友貼標籤" fill="#333" data-name="不為身心障礙 朋友貼標籤" font-family="MicrosoftJhengHeiLight, Microsoft JhengHei" font-size="25.723px" letter-spacing="0.08em" transform="translate(62.74 4323.678)">
            <tspan x="0" y="0">不為身心障礙</tspan><tspan x="0" y="40.909">朋友貼標籤</tspan>
        </text>
        <g id="prefix__Group_79" data-name="Group 79" transform="translate(-322.88 -879.5)">
            <text id="prefix___6" fill="#cc6" data-name="6" font-family="CenturyGothic, Century Gothic" font-size="70px" letter-spacing="0.08em" transform="translate(465.12 5140.361)">
                <tspan x="0" y="0">6</tspan>
            </text>
            <g id="prefix__Group_78" data-name="Group 78">
                <text id="prefix__友善行動_任務" fill="#cc6" data-name="友善行動 任務" font-family="MicrosoftJhengHeiRegular, Microsoft JhengHei" font-size="12.5px" letter-spacing="0.4em" transform="translate(385.62 5115.02)">
                    <tspan x="0" y="0">友善行動</tspan><tspan x="0" y="24.774">任務</tspan>
                </text>
                <path id="prefix__Line_8" fill="none" stroke="#cc6" stroke-miterlimit="10" stroke-width="0.375px" d="M0 10.5L28 0" data-name="Line 8" transform="translate(421.47 5129.969)"/>
            </g>
        </g>
        <g id="prefix__Group_81" data-name="Group 81" transform="translate(-322.88 -879.5)">
            <g id="prefix__Group_80" data-name="Group 80">
                <path id="prefix__Path_59" fill="#cc6" d="M527.77 5100.247a10.049 10.049 0 0 1-3.293 3.658l-1.359-1.515a8.135 8.135 0 0 0 3.5-5.959h-3.868v-6.272h6.22v5.75a9.073 9.073 0 0 1-1.2 4.338zm10.035 0a11.071 11.071 0 0 1-3.293 3.658l-1.411-1.515a8.135 8.135 0 0 0 3.5-5.959h-3.816v-6.272h6.22v5.75a9.074 9.074 0 0 1-1.205 4.338z" data-name="Path 59"/>
            </g>
        </g>
    </g>
</svg>
