<svg xmlns="http://www.w3.org/2000/svg" width="248" height="139.816" viewBox="0 0 248 139.816">
    <g id="prefix__Group_47" data-name="Group 47" transform="translate(-62.486 -1918.315)">
        <g id="prefix__A2t">
            <text id="prefix__微笑_是最好的禮物" fill="#333" data-name="微笑，是最好的禮物" font-family="MicrosoftJhengHeiLight, Microsoft JhengHei" font-size="25.723px" letter-spacing="0.08em" transform="translate(62.486 2051.132)">
                <tspan x="0" y="0">微笑，是最好的禮物</tspan>
            </text>
            <g id="prefix__Group_44" data-name="Group 44">
                <text id="prefix___2" fill="#fc3" data-name="2" font-family="CenturyGothic, Century Gothic" font-size="70px" letter-spacing="0.08em" transform="translate(141.986 1988.315)">
                    <tspan x="0" y="0">2</tspan>
                </text>
                <g id="prefix__Group_43" data-name="Group 43">
                    <text id="prefix__友善行動_任務" fill="#fc0" data-name="友善行動 任務" font-family="MicrosoftJhengHeiRegular, Microsoft JhengHei" font-size="12.5px" letter-spacing="0.4em" transform="translate(62.486 1962.974)">
                        <tspan x="0" y="0">友善行動</tspan><tspan x="0" y="24.774">任務</tspan>
                    </text>
                    <path id="prefix__Line_4" fill="none" stroke="#fc0" stroke-miterlimit="10" stroke-width="0.375px" d="M0 10.5L28 0" data-name="Line 4" transform="translate(98.336 1977.923)"/>
                </g>
            </g>
            <g id="prefix__Group_46" data-name="Group 46">
                <g id="prefix__Group_45" data-name="Group 45">
                    <path id="prefix__Path_52" fill="#fc3" d="M205.136 1947.747a10.05 10.05 0 0 1-3.293 3.658l-1.359-1.515a8.138 8.138 0 0 0 3.5-5.959h-3.868v-6.272h6.22v5.75a9.074 9.074 0 0 1-1.2 4.338zm10.035 0a11.071 11.071 0 0 1-3.293 3.658l-1.411-1.515a8.138 8.138 0 0 0 3.5-5.959h-3.816v-6.272h6.22v5.75a9.074 9.074 0 0 1-1.2 4.338z" data-name="Path 52"/>
                </g>
            </g>
        </g>
    </g>
</svg>
