<svg xmlns="http://www.w3.org/2000/svg" width="264" height="133.176" viewBox="0 0 264 133.176">
    <g id="prefix__Group_34" data-name="Group 34" transform="translate(-54.518 -1415.143)">
        <g id="prefix__A1t">
            <text id="prefix__讓我們_伊7友善吧_" fill="#333" data-name="讓我們，伊7友善吧！" font-family="MicrosoftJhengHeiLight, Microsoft JhengHei" font-size="25.723px" letter-spacing="0.08em" transform="translate(54.518 1541.318)">
                <tspan x="0" y="0">讓我們，伊7友善吧！</tspan>
            </text>
            <text id="prefix___1" fill="#69c" data-name="1" font-family="CenturyGothic, Century Gothic" font-size="70px" letter-spacing="0.08em" transform="translate(134.018 1485.143)">
                <tspan x="0" y="0">1</tspan>
            </text>
            <g id="prefix__Group_31" data-name="Group 31">
                <text id="prefix__友善行動_任務" fill="#69c" data-name="友善行動 任務" font-family="MicrosoftJhengHeiRegular, Microsoft JhengHei" font-size="12.5px" letter-spacing="0.4em" transform="translate(54.518 1459.801)">
                    <tspan x="0" y="0">友善行動</tspan><tspan x="0" y="24.774">任務</tspan>
                </text>
                <path id="prefix__Line_3" fill="none" stroke="#69c" stroke-miterlimit="10" stroke-width="0.375px" d="M0 10.5L28 0" data-name="Line 3" transform="translate(90.367 1474.75)"/>
            </g>
            <g id="prefix__Group_33" data-name="Group 33">
                <g id="prefix__Group_32" data-name="Group 32">
                    <path id="prefix__Path_49" fill="#69c" d="M184.167 1445.747a10.05 10.05 0 0 1-3.293 3.658l-1.359-1.515a8.135 8.135 0 0 0 3.5-5.959h-3.865v-6.272h6.219v5.75a9.074 9.074 0 0 1-1.202 4.338zm10.035 0a11.079 11.079 0 0 1-3.292 3.658l-1.412-1.515a8.135 8.135 0 0 0 3.5-5.959h-3.815v-6.272h6.22v5.75a9.075 9.075 0 0 1-1.203 4.338z" data-name="Path 49"/>
                </g>
            </g>
        </g>
    </g>
</svg>
