<svg xmlns="http://www.w3.org/2000/svg" width="528" height="266.351" viewBox="0 0 528 266.351">
    <g id="prefix__Group_39" data-name="Group 39" transform="translate(-690.48 -1803.285)">
        <g id="prefix__A1b">
            <text id="prefix__讓我們_伊7友善吧_" fill="#333" data-name="讓我們，伊7友善吧！" font-family="MicrosoftJhengHeiLight, Microsoft JhengHei" font-size="51.446px" letter-spacing="0.08em" transform="translate(690.48 2056.636)">
                <tspan x="0" y="0">讓我們，伊7友善吧！</tspan>
            </text>
        </g>
        <g id="prefix__A1N">
            <text id="prefix___1" fill="#69c" data-name="1" font-family="CenturyGothic, Century Gothic" font-size="140px" letter-spacing="0.08em" transform="translate(849.48 1944.285)">
                <tspan x="0" y="0">1</tspan>
            </text>
            <g id="prefix__Group_36" data-name="Group 36">
                <text id="prefix__友善行動_任務" fill="#69c" data-name="友善行動 任務" font-family="MicrosoftJhengHeiRegular, Microsoft JhengHei" font-size="25px" letter-spacing="0.4em" transform="translate(690.48 1893.602)">
                    <tspan x="0" y="0">友善行動</tspan><tspan x="0" y="49.548">任務</tspan>
                </text>
                <path id="prefix__Line_7" fill="none" stroke="#69c" stroke-miterlimit="10" stroke-width="0.75px" d="M0 21L56 0" data-name="Line 7" transform="translate(762.181 1923.5)"/>
            </g>
            <g id="prefix__Group_38" data-name="Group 38">
                <g id="prefix__Group_37" data-name="Group 37">
                    <path id="prefix__Path_42" fill="#69c" d="M949.78 1865.493a20.1 20.1 0 0 1-6.585 7.318l-2.718-3.032a16.27 16.27 0 0 0 7-11.917h-7.735v-12.544h12.439v11.5a18.139 18.139 0 0 1-2.401 8.675zm20.071 0a22.161 22.161 0 0 1-6.586 7.318l-2.822-3.032a16.275 16.275 0 0 0 7-11.917h-7.631v-12.544h12.439v11.5a18.139 18.139 0 0 1-2.4 8.675z" data-name="Path 42"/>
                </g>
            </g>
        </g>
    </g>
</svg>
