<svg xmlns="http://www.w3.org/2000/svg" width="503.108" height="215.946" viewBox="0 0 503.108 215.946">
    <defs>
        <style>
            .cls-1{fill:#333}.cls-2{fill:#69c}
        </style>
    </defs>
    <g id="Symbol_96_1" data-name="Symbol 96 – 1" transform="translate(-691 -1843) translate(-.726 -.729)">
        <g id="Group_194" data-name="Group 194">
            <path id="Path_109" d="M707.411 2021.644h-13.238v-1.885h6.13a18.753 18.753 0 0 0-2.061-5l2.01-.829a20.7 20.7 0 0 1 2.311 5.827h4.848zm-.778 7.41h-11.2v-1.909h11.2zm0 7.611h-11.2v-1.884h11.2zm-.352 21.4h-2.059v-2.965h-6.582v3.943h-2.06v-16.605h10.7zm-2.059-4.873v-8.842h-6.582v8.842zm34.465-7.51h-16.681a40.942 40.942 0 0 1-5.652 4.671v6.632a69.447 69.447 0 0 0 7.662-2.411l.151 1.859q-5.2 1.809-10.174 3.089l-.628-1.607a1.833 1.833 0 0 0 1.03-1.583v-4.8a33.918 33.918 0 0 1-6.532 2.788l-.928-1.607a29.668 29.668 0 0 0 12.358-7.033h-10.65v-1.759h8.49v-3.542H710.8v-1.758h6.33v-3.241h-7.461v-1.734h7.461v-2.788h2.06v2.788h8.943v-2.788h2.067v2.788h7.562v1.734H730.2v3.241h6.33v1.758h-6.33v3.542h8.492zm-.529-25.673h-29.264v-1.759h13.791a13.153 13.153 0 0 0-2.111-3.14l1.809-1.03a19.487 19.487 0 0 1 2.663 4.17h13.112zm-16.3 9.57h-10.9v-6.958h10.9zm-1.959-1.758v-3.441h-6.983v3.441zm8.24 10.8v-3.241h-8.943v3.241zm0 5.3v-3.542h-8.943v3.542zm10.8 13.741l-1.03 1.809a26.021 26.021 0 0 1-15.173-11.581l1.709-.929a28.893 28.893 0 0 0 4.37 5.35 30.725 30.725 0 0 0 5.1-5.35l1.733 1.13a40 40 0 0 1-5.4 5.5 19.824 19.824 0 0 0 8.689 4.075zm-2.562-28.085h-10.9v-6.958h10.9zm-1.959-1.758v-3.441h-7.009v3.441z" class="cls-1" data-name="Path 109"/>
            <path id="Path_110" d="M794.448 2048.547a41.122 41.122 0 0 1-1.921 6.393q-1.269 3.279-2.286 3.781a4.537 4.537 0 0 1-2.022.5q-2.312 0-4.785-3.065a22.7 22.7 0 0 1-3.857-7.284 44.337 44.337 0 0 1-11.053 6.933l-1.129-1.683a36.47 36.47 0 0 0 11.58-7.311 71.689 71.689 0 0 1-2.211-16.352H763.9v10.022q5.177-1.281 9.872-2.788v1.959q-5.7 1.609-9.872 2.689v13.841a2.653 2.653 0 0 1-1.067 2.16 3.813 3.813 0 0 1-2.449.854l-6.782-.051-.628-2.109q1.908.1 7.108.1 1.709 0 1.708-1.582v-12.711q-5.953 1.457-11.53 2.26l-.528-1.959a86.474 86.474 0 0 0 12.058-2.21v-10.475h-12.407v-1.909h12.409v-8.843a100.318 100.318 0 0 1-10.6 1.583l-.728-1.96a96.167 96.167 0 0 0 22.182-4.521l.778 1.859a96.822 96.822 0 0 1-9.521 2.612v9.27h12.812q-.1-3.04-.1-14.144h2.085l-.075 8.541.075 5.6h15.651v1.909h-15.578a78.864 78.864 0 0 0 1.834 14.695 47.4 47.4 0 0 0 7.712-11l1.708 1.13a53.359 53.359 0 0 1-8.792 12.033 26 26 0 0 0 2.324 5.375 12.634 12.634 0 0 0 2.626 3.367 3.668 3.668 0 0 0 2.109 1.03 1.45 1.45 0 0 0 1.1-.452 15.356 15.356 0 0 0 1.545-3.416 34.2 34.2 0 0 0 1.646-5.8zm-2.888-23.965l-1.633 1.231a34.331 34.331 0 0 0-6.682-8.39l1.532-1.231a36.612 36.612 0 0 1 6.783 8.39z" class="cls-1" data-name="Path 110"/>
            <path id="Path_111" d="M816.677 2015.062q-.8 3.315-2.111 7.109l-1.281 3.441v33.435h-2.059v-28.963a43.126 43.126 0 0 1-4.9 7.561l-1.281-1.533a56.694 56.694 0 0 0 9.621-21.829zm15.122 21.3h-10.224v22.684h-2.059v-43.156H831.8zm-2.06-11.429v-7.133h-8.164v7.134zm0 9.52v-7.611h-8.164v7.611zm18.413 20.7a4.207 4.207 0 0 1-.715 2.614 2.785 2.785 0 0 1-1.809 1.1 38 38 0 0 1-4.686.176l-2.713-.05-.7-1.959 3.844.05a20.938 20.938 0 0 0 3.969-.214q.777-.215.778-1.569v-18.942h-10.252v-20.472h12.284zm-2.035-30.219v-7.134h-8.188v7.134zm0 9.52v-7.611h-8.188v7.611z" class="cls-1" data-name="Path 111"/>
            <path id="Path_112" d="M882.387 2041.212a2.72 2.72 0 0 1-1.759-2.361 2.154 2.154 0 0 1 .6-1.571 2.249 2.249 0 0 1 1.683-.615 2.04 2.04 0 0 1 1.746.791 3.655 3.655 0 0 1 .59 2.224q0 2.511-2.913 4.847l-1.005-.853a4.527 4.527 0 0 0 1.058-2.462z" class="cls-1" data-name="Path 112"/>
            <path id="Path_113" d="M928.981 2014.71a64.745 64.745 0 0 1-2.21 6.255l-1.482 3.316v34.766h-2.06v-31.024a47.585 47.585 0 0 1-6.281 8.34l-1.18-1.682a49.35 49.35 0 0 0 11.253-20.7zm32.1 14.721h-4.271v12.283h-13.259q-2.136 10.074-11.681 17.484l-1.558-1.482q8.817-6.582 11.079-16h-11.58v-1.908h11.931a63.731 63.731 0 0 0 .829-10.375H928v-1.91h14.569v-9.771h-11.477v-1.909h25.722v11.68h4.271zm-6.33 10.375v-10.375h-10.12a61.078 61.078 0 0 1-.729 10.375zm0-12.285v-9.771h-10.12v9.771z" class="cls-1" data-name="Path 113"/>
            <path id="Path_114" d="M994.139 2018.7q-5.451 9.974-8.1 15.814a100.444 100.444 0 0 0-4.346 11.215 75.961 75.961 0 0 0-2.574 10.9H976.2a83.961 83.961 0 0 1 4.56-16.279 161.076 161.076 0 0 1 9.934-20.271H970.2v-2.361h23.94z" class="cls-1" data-name="Path 114"/>
            <path id="Path_115" d="M1048.771 2057.314l-.929 1.884a48.082 48.082 0 0 1-17.006-8.491q-6.131 5.277-17.308 8.968l-1.281-1.859q10.977-3.366 17.031-8.44a34.332 34.332 0 0 1-10.178-15.276 63.182 63.182 0 0 1-13.891 23.814l-1.406-1.532q12.735-13.49 15.8-33.385h-15.851v-1.96h16.152a58.614 58.614 0 0 0 .829-6.531h2.061q-.277 3.19-.829 6.531h26.451V2023h-26.753q-.853 4.5-2.06 9.144h21.93v2.16a38.586 38.586 0 0 1-9.219 15.022 46.348 46.348 0 0 0 16.457 7.988zm-9.293-23.211h-18.313q2.31 7.662 9.62 13.992a32.483 32.483 0 0 0 8.693-13.995z" class="cls-1" data-name="Path 115"/>
            <path id="Path_116" d="M1103.881 2042.9h-44.564v-1.859h13.189a22.845 22.845 0 0 0-3.768-4.873l1.281-1.281h-10.325v-1.86h20.926v-4.571h-18.413v-1.859h18.413v-4.522h-19.694v-1.858h41.474v1.858h-19.72v4.522h18.413v1.859h-18.413v4.571h20.95v1.86h-10.35l1.483 1.331q-.73 1.105-3.793 4.823h12.911zm-5.4 16.529h-2.06v-2.738h-29.642v2.738h-2.059v-12.309h33.761zm-2.06-4.6v-5.853h-29.642v5.853zm-20.674-37.077l-1.858.929a17.512 17.512 0 0 0-3.769-3.617l1.86-.98a14.094 14.094 0 0 1 3.766 3.666zm17.132 17.132H1070.3a49.8 49.8 0 0 1 4.422 6.154h13.791a46.527 46.527 0 0 0 4.365-6.156zm.051-19.921a16.933 16.933 0 0 1-4.271 3.768l-1.859-.979a18.255 18.255 0 0 0 4.371-3.818z" class="cls-1" data-name="Path 116"/>
            <path id="Path_117" d="M1129 2053.6h-2.06v-4.171h-8.14v5.251h-2.06v-36.526H1129zm-2.06-6.055v-27.481h-8.14v27.481zm32.807.8q-.652 6.231-1.847 8.466t-4.584 2.235h-13.741a4.682 4.682 0 0 1-3.441-1.017 4.325 4.325 0 0 1-.98-3.1v-39.189h21.829v22.382h-19.769v17.478q0 1.534 1.909 1.533h14.721a2.609 2.609 0 0 0 2.487-1.507q.779-1.508 1.406-8.089zm-14.721-12.133v-18.564h-7.812v18.564zm9.9 0v-18.564h-7.838v18.564z" class="cls-1" data-name="Path 117"/>
            <path id="Path_118" d="M1192.572 2057.113a2.11 2.11 0 0 1-1.569-.653 2.211 2.211 0 0 1 1.569-3.793 2.233 2.233 0 0 1 1.609.628 2.259 2.259 0 0 1 .012 3.165 2.172 2.172 0 0 1-1.621.653zm1.157-11.405h-2.387l-.3-27.983h2.989z" class="cls-1" data-name="Path 118"/>
        </g>
        <g id="Group_195" data-name="Group 195">
            <path id="Path_119" d="M875.389 1843.729h19.756v100.556h-9.981v-90.713h-15.791z" class="cls-2" data-name="Path 119"/>
        </g>
        <g id="Group_197" data-name="Group 197">
            <g id="Group_196" data-name="Group 196">
                <path id="Path_120" d="M714.027 1893.6l-.573 1.269a24.778 24.778 0 0 1-8.118-3.967 25.681 25.681 0 0 1-8.2 4.2l-.8-1.221a23.549 23.549 0 0 0 8.031-3.858 13.843 13.843 0 0 1-4.577-7.092 29.857 29.857 0 0 1-6.653 11.243l-.928-.977a28.425 28.425 0 0 0 7.532-15.8h-7.506v-1.3h7.7q.281-1.587.4-3.2h1.379q-.121 1.356-.4 3.2h12.616v1.3H701.1q-.33 1.808-.915 4.127h10.546v1.342a21.107 21.107 0 0 1-4.381 7.134 21.571 21.571 0 0 0 7.677 3.6zm-4.821-10.731h-8.13a13.509 13.509 0 0 0 4.285 6.275 17.733 17.733 0 0 0 3.845-6.273z" class="cls-2" data-name="Path 120"/>
                <path id="Path_121" d="M748.881 1887.107h-21.654v-1.232h6.054a9.983 9.983 0 0 0-1.551-1.979l.806-.744h-5.127v-1.123h10.023v-2.075h-8.8v-1.147h8.8v-1.856h-9.424v-1.172h20.153v1.172h-9.436v1.856h8.8v1.147h-8.8v2.075h10.035v1.123h-5.274l.915.879q-.366.549-1.318 1.844h5.8zm-2.5 7.85h-1.245v-1.185h-14.15v1.185h-1.306v-6.129h16.7zm-1.245-2.381v-2.527h-14.15v2.527zm-9.8-17.92l-1.2.574a9.478 9.478 0 0 0-1.83-1.757l1.2-.623a6.9 6.9 0 0 1 1.826 1.806zm7.946 8.5h-10.428a18.976 18.976 0 0 1 2.026 2.723h6.53a16.609 16.609 0 0 0 1.868-2.727zm.452-9.728a8.146 8.146 0 0 1-2.1 1.83l-1.331-.684a8.354 8.354 0 0 0 2.282-1.769z" class="cls-2" data-name="Path 121"/>
                <path id="Path_122" d="M769.855 1878.746a25.678 25.678 0 0 1-2.429 3.43v12.781h-1.293V1883.7a35.6 35.6 0 0 1-3.248 3l-.684-1.025a28.925 28.925 0 0 0 6.556-7.655zm-.574-4.969a23.166 23.166 0 0 1-6.273 5.2l-.758-1.026a21.662 21.662 0 0 0 5.957-4.98zm14.723 8h-3.943v11.108a1.864 1.864 0 0 1-.421 1.288 1.721 1.721 0 0 1-.958.574 14.141 14.141 0 0 1-2.161.1q-1.392 0-2.247-.049l-.524-1.343q1.06.048 2.233.049a14.953 14.953 0 0 0 2.429-.092.406.406 0 0 0 .244-.433v-11.206h-8.8v-1.318H784zm-1.221-6.324h-11.878v-1.318h11.878z" class="cls-2" data-name="Path 122"/>
                <path id="Path_123" d="M809.226 1874.107a30.68 30.68 0 0 1-5.042.915v1.954h4.968v1.2h-4.968V1880h4.566v7.275h-4.566v1.771h4.566v1.183h-4.566v2.515q2.185-.183 4.566-.573v1.232q-6.726.879-11.365 1.367l-.3-1.269q2.733-.209 5.871-.574v-2.7h-4.627v-1.183h4.627v-1.771h-4.59V1880h4.59v-1.831h-5.469v-1.2h5.469v-1.769q-2.076.171-4.627.172l-.414-1.148a41.591 41.591 0 0 0 10.645-1.172zm-6.275 8.874v-1.733h-3.32v1.733zm0 3.1v-1.9h-3.32v1.9zm4.553-3.1v-1.733h-3.32v1.733zm0 3.1v-1.9h-3.32v1.9zm10.351-8.1q0 5.529-.176 10.04a33.019 33.019 0 0 1-.427 5.28 2.125 2.125 0 0 1-.9 1.178 5.135 5.135 0 0 1-2.472.408q-.5 0-.892-.036l-.426-1.294q1.391.048 2.416.049a1.224 1.224 0 0 0 .855-.354 1.623 1.623 0 0 0 .427-1.123l.231-4.811q.173-4.039.172-8.092h-2.625a32.464 32.464 0 0 1-3.808 15.807l-1.123-.549q3.54-6.042 3.7-15.258l-2.674.024V1878l2.723-.024.085-4.9h1.245q-.05 3.051-.122 4.9z" class="cls-2" data-name="Path 123"/>
                <path id="Path_124" d="M698.281 1922.874q-.39 1.11-1.074 2.6l-.672 1.427v17.518h-1.355V1929.6a27.21 27.21 0 0 1-2.7 3.955l-.756-1.355a34.658 34.658 0 0 0 5.286-9.8zm15.551 11.182h-7.324v8.519h6.7v1.27H698.3v-1.27h6.848v-8.519h-7.446v-1.307h7.446v-8.35h-6.225v-1.269h13.806v1.269h-6.226v8.35h7.324z" class="cls-2" data-name="Path 124"/>
                <path id="Path_125" d="M736.711 1930.649a10.854 10.854 0 0 1-1.953 5.75l-.952-.9a10.49 10.49 0 0 0 1.5-3.6h-2.331v10.973a1.726 1.726 0 0 1-.4 1.02q-.4.531-2.02.531a8.3 8.3 0 0 1-1.148-.073l-.732-1.343q1.586.121 2.477.122a.614.614 0 0 0 .391-.183.507.507 0 0 0 .208-.367v-9.02a30.2 30.2 0 0 1-3.8 7.165l-.855-1a28.964 28.964 0 0 0 3.98-7.825H727.2v-1.246h5.53a20.512 20.512 0 0 0-3.844-3.369l.915-.83q.891.611 2.259 1.746a22.975 22.975 0 0 0 2.746-3.772h-6.726v-1.245h8.154v1.245a27.235 27.235 0 0 1-3.21 4.6l.855.952-.77.671zm10.742 5.725a35.83 35.83 0 0 1-.4 4.6 7.086 7.086 0 0 1-.666 2.477 3.183 3.183 0 0 1-.842.739 8.479 8.479 0 0 1-3.217.226l-.6-1.343c.511.041 1.069.062 1.671.062a5.308 5.308 0 0 0 1.63-.135.961.961 0 0 0 .409-.4 7.064 7.064 0 0 0 .342-1.654q.2-1.392.354-3.332h-4.174q-1.05 4.821-6.2 6.885l-.952-1.026a9.123 9.123 0 0 0 3.735-2.277 7.436 7.436 0 0 0 2.136-3.582h-3.967v-1.246h4.272a16.234 16.234 0 0 0 .22-2.5l1.258.049a19.216 19.216 0 0 1-.208 2.453zm1.477-3.027l-.72 1.123a17.633 17.633 0 0 1-5.384-2.673 18.969 18.969 0 0 1-4.8 2.624l-.879-1.074a15.625 15.625 0 0 0 4.651-2.368 13.721 13.721 0 0 1-2.246-2.783l1.1-.623a10.417 10.417 0 0 0 2.123 2.6 9.46 9.46 0 0 0 2.65-4.027h-5.345a18.776 18.776 0 0 1-2.93 3.076l-.964-.892a17.828 17.828 0 0 0 4.7-5.884l1.245.477a15.593 15.593 0 0 1-1.172 1.976h7.593v1.247h-1.771a11.719 11.719 0 0 1-2.953 4.808 16.265 16.265 0 0 0 5.102 2.393z" class="cls-2" data-name="Path 125"/>
            </g>
            <path id="Line_29" fill="none" stroke="#69c" stroke-miterlimit="10" stroke-width="0.75px" d="M0 21L56 0" data-name="Line 29" transform="translate(762.181 1923.5)"/>
        </g>
        <g id="Group_199" data-name="Group 199">
            <g id="Group_198" data-name="Group 198">
                <path id="Path_126" d="M949.78 1865.493a20.1 20.1 0 0 1-6.585 7.318l-2.718-3.032a16.27 16.27 0 0 0 7-11.917h-7.735v-12.544h12.439v11.5a18.139 18.139 0 0 1-2.401 8.675zm20.071 0a22.161 22.161 0 0 1-6.586 7.318l-2.822-3.032a16.275 16.275 0 0 0 7-11.917h-7.631v-12.544h12.439v11.5a18.139 18.139 0 0 1-2.4 8.675z" class="cls-2" data-name="Path 126"/>
            </g>
        </g>
    </g>
</svg>
