<svg xmlns="http://www.w3.org/2000/svg" width="330" height="361.633" viewBox="0 0 330 361.633">
    <g id="prefix__Group_64" data-name="Group 64" transform="translate(-117.48 -4968.722)">
        <g id="prefix__A6b">
            <text id="prefix__不為身心障礙_朋友貼標籤" fill="#333" data-name="不為身心障礙 朋友貼標籤" font-family="MicrosoftJhengHeiLight, Microsoft JhengHei" font-size="51.446px" letter-spacing="0.08em" transform="translate(117.48 5235.355)">
                <tspan x="0" y="0">不為身心障礙</tspan><tspan x="0" y="81.818">朋友貼標籤</tspan>
            </text>
        </g>
        <g id="prefix__A6n">
            <g id="prefix__Group_61" data-name="Group 61">
                <text id="prefix___6" fill="#cc6" data-name="6" font-family="CenturyGothic, Century Gothic" font-size="140px" letter-spacing="0.08em" transform="translate(276.48 5109.722)">
                    <tspan x="0" y="0">6</tspan>
                </text>
                <g id="prefix__Group_60" data-name="Group 60">
                    <text id="prefix__友善行動_任務" fill="#cc6" data-name="友善行動 任務" font-family="MicrosoftJhengHeiRegular, Microsoft JhengHei" font-size="25px" letter-spacing="0.4em" transform="translate(117.48 5059.039)">
                        <tspan x="0" y="0">友善行動</tspan><tspan x="0" y="49.548">任務</tspan>
                    </text>
                    <path id="prefix__Line_12" fill="none" stroke="#cc6" stroke-miterlimit="10" stroke-width="0.75px" d="M0 21L56 0" data-name="Line 12" transform="translate(189.181 5088.937)"/>
                </g>
            </g>
            <g id="prefix__Group_63" data-name="Group 63">
                <g id="prefix__Group_62" data-name="Group 62">
                    <path id="prefix__Path_47" fill="#cc6" d="M401.78 5029.493a20.1 20.1 0 0 1-6.585 7.318l-2.718-3.032a16.27 16.27 0 0 0 7-11.917h-7.735v-12.544h12.439v11.5a18.14 18.14 0 0 1-2.401 8.675zm20.071 0a22.16 22.16 0 0 1-6.586 7.318l-2.822-3.032a16.274 16.274 0 0 0 7-11.917h-7.631v-12.544h12.439v11.5a18.14 18.14 0 0 1-2.4 8.675z" data-name="Path 47"/>
                </g>
            </g>
        </g>
    </g>
</svg>
