<svg xmlns="http://www.w3.org/2000/svg" width="377.594" height="313.575" viewBox="0 0 377.594 313.575">
    <defs>
        <style>
            .cls-1{fill:#333}.cls-2{fill:#903}
        </style>
    </defs>
    <g id="Symbol_93_1" data-name="Symbol 93 – 1" transform="translate(-127 -3728) translate(.274 -.508)">
        <g id="Group_219" data-name="Group 219">
            <g id="Group_218" data-name="Group 218">
                <path id="Path_164" d="M139.422 3915.552q-.528 2.11-2.838 9.018v35.118h-2.061v-30.093a50.837 50.837 0 0 1-4.873 8.54l-1.13-1.783q5.477-7.436 9.144-21.628zm34.164 42.5l-.98 1.783a68.977 68.977 0 0 1-14.921-3.491q-6.231 2.712-16.555 3.491l-.879-1.734a46.407 46.407 0 0 0 15.122-2.687 32.551 32.551 0 0 1-7.209-4.221 34.3 34.3 0 0 1-6.381 2.94l-1.08-1.432a31.338 31.338 0 0 0 6.13-2.638 16.024 16.024 0 0 1-1.96-2.009l1.382-1.181a19.61 19.61 0 0 0 2.16 2.211 22.9 22.9 0 0 0 4.17-3.542l1.809.678-1.432 1.482h14.193v1.607a21.93 21.93 0 0 1-7.21 6 63.113 63.113 0 0 0 13.641 2.747zm-.527-39.916h-15.525a18.353 18.353 0 0 1-1.231 3.34h11.882v12.962h4.321v5.854h-2.061v-4.271h-27.983v4.271H140.4v-5.854h4.321v-12.958h9.52a18.394 18.394 0 0 0 1.231-3.34h-14.09v-1.608h31.677zm-25.247 21.126a28.242 28.242 0 0 1-5.25 7.159l-1.557-1.13a22.793 22.793 0 0 0 5.049-6.783zm18.313-13.465v-2.738h-19.343v2.738zm0 4.321v-2.738h-19.343v2.738zm0 4.32v-2.738h-19.343v2.738zm-1.607 6.532q-.252 2.712-1.508 3.492t-5.627.778q-5.149 0-6.4-.7a2.51 2.51 0 0 1-1.256-2.387v-4.019h2.059v4.22q0 .855.992 1.042a33.09 33.09 0 0 0 4.61.189 23.014 23.014 0 0 0 3.655-.176 1.59 1.59 0 0 0 1.193-1 5.741 5.741 0 0 0 .352-2.21zm.225 8.339h-13.69l-1.282.855a31.792 31.792 0 0 0 7.864 4.4 22.39 22.39 0 0 0 7.108-5.251zm-4.27-9.319l-1.181 1.483a19.347 19.347 0 0 0-4.646-3.04l1.029-1.332a19.07 19.07 0 0 1 4.798 2.893zm11.731 5.552l-1.759.979a31.046 31.046 0 0 0-5.2-7.36l1.482-.979a32.482 32.482 0 0 1 5.473 7.364z" class="cls-1" data-name="Path 164"/>
                <path id="Path_165" d="M229 3948.484q-.552 6.306-1.67 8.127a4.328 4.328 0 0 1-2.952 2.16 36.419 36.419 0 0 1-5.928.339 41.61 41.61 0 0 1-4.874-.163 2.689 2.689 0 0 1-1.682-1.042 3.508 3.508 0 0 1-.7-2.261v-18.337h-9.973q-.126 8.415-3.756 13.727t-11.693 8.654l-1.131-1.783q7.562-2.889 10.966-7.8t3.553-12.8h-14.3v-1.986h20.925v-10.048h-12.133a50.393 50.393 0 0 1-5.777 7.11l-1.633-1.331a47.353 47.353 0 0 0 10.174-15.3l1.858.728a55.573 55.573 0 0 1-3.391 6.783h10.9v-8.54h2.061v8.54h18.512v2.009h-18.51v10.048h20.723v1.986h-15.323v17.759a2.176 2.176 0 0 0 .39 1.218 1.4 1.4 0 0 0 1.054.666q.666.075 3.6.075a36.511 36.511 0 0 0 5.464-.212 2.879 2.879 0 0 0 1.407-.855 6.881 6.881 0 0 0 1.117-2.726 29.5 29.5 0 0 0 .7-5.526z" class="cls-1" data-name="Path 165"/>
                <path id="Path_166" d="M284.609 3957.025l-.779 1.86h-17.282a38.056 38.056 0 0 1-11.644-1.47 23.125 23.125 0 0 1-7.849-4.358 34.257 34.257 0 0 1-6.231 6.631l-1.556-1.281q8.59-7.059 10.2-16.881h-8.239v-1.883a88.377 88.377 0 0 0 7.41-11.129h-8.491v-1.914h10.9v1.909a92.9 92.9 0 0 1-7.386 11.129h7.913v1.883a33.74 33.74 0 0 1-3.441 9.848 21.248 21.248 0 0 0 10.048 4.835q5.175.843 20.9.842zm-34.64-35.043l-1.382 1.508a54.221 54.221 0 0 0-7.21-7.26l1.257-1.506a66.07 66.07 0 0 1 7.335 7.258zm34.062 24.242h-31.475v-1.91h8.792v-4.571h-7.561v-1.909h7.561v-3.492h2.06v3.492h9.772v-3.492h2.059v3.492h7.561v1.909h-7.562v4.571h8.792zm-19.894 2.713a39.947 39.947 0 0 1-9.22 4.748l-1.08-1.708a31.743 31.743 0 0 0 8.993-4.472zm3.441-18.262q-5.453 1.607-12.309 3.19l-1.231-1.683a2.412 2.412 0 0 0 1.08-2.211v-13.59h10.751v9.194h-8.691v5.828q7.083-1.634 10.148-2.637zm-3.768-6.984v-5.4h-6.632v5.4zm9.37 20.623v-4.571h-9.772v4.571zm10.55-12.132h-9.772q-3.542 0-3.542-3.618v-12.233h11.355v9.244h-9.32v3.266q0 1.431 1.558 1.431h9.721zm-.678 19.945l-1.031 1.759a43.106 43.106 0 0 0-10.073-4.472l.829-1.607a68.581 68.581 0 0 1 10.275 4.32zm-3.341-28.436v-5.451h-7.26v5.451z" class="cls-1" data-name="Path 166"/>
                <path id="Path_167" d="M309.349 3946.676h-7.612l1.281.829a46.7 46.7 0 0 1-5.752 12.133l-1.608-1.482a42.973 42.973 0 0 0 5.5-11.48h-3.291v-29.616h11.481zm-2.061-20.523v-7.259h-7.36v7.259zm0 9.168v-7.259h-7.36v7.259zm0 9.5v-7.611h-7.36v7.611zm3.593 12.988l-1.834.954a55.472 55.472 0 0 0-3.969-8.993l1.809-.829a61.606 61.606 0 0 1 3.994 8.859zm29.641-7.361h-3.743v5.4q0 3.892-4.6 3.893h-4.045l-.678-1.884q1.658.152 5.3.151a2.231 2.231 0 0 0 1.368-.44 1.341 1.341 0 0 0 .591-1.117v-6h-17.504v9.294h-2.06v-9.294h-4.422v-1.758h4.422v-12.133h9.8v-4.07h-13.442v-1.758h7.812v-4.17h-5.5v-1.734h5.5v-4.069h-6.883V3919h6.883v-3.943h2.06V3919h9.169v-3.943h2.059V3919h6.883v1.759h-6.883v4.069h5.5v1.734h-5.5v4.17h7.813v1.758h-13.44v4.07h9.8v12.133h3.743zm-15.574-7.838v-4.32h-7.737v4.32zm0 6.08v-4.321h-7.737v4.321zm5.6-23.865v-4.069h-9.169v4.069zm0 5.9v-4.17h-9.169v4.17zm4.17 11.881v-4.32h-7.738v4.32zm0 6.08v-4.321h-7.738v4.321z" class="cls-1" data-name="Path 167"/>
                <path id="Path_168" d="M396.235 3934.9a84.725 84.725 0 0 1-7.611 6.631v14.721q0 3.341-3.743 3.341h-6.23l-.677-2.01 5.375.075a9.2 9.2 0 0 0 2.738-.225.973.973 0 0 0 .477-.98v-13.314q-12.41 9.093-34.464 15.625l-1.031-1.834q21.277-6.105 33.586-14.921-14.142 2.235-32.3 3.592l-.553-1.859 5.6-.452v-23.663h6.482a45.148 45.148 0 0 0 4.421-5.2l2.16.4q-.627.955-3.843 4.8h22.005v19.393q2.513-1.96 6.33-5.6zm-9.671-8.165v-5.2h-27.1v5.2zm0 7.185v-5.3h-27.1v5.3zm0 5.979v-4.07h-27.1v7.31q14.942-1.31 27.1-3.245z" class="cls-1" data-name="Path 168"/>
                <path id="Path_169" d="M416.151 3930.825q5.15 4.121 5.15 12.611 0 5.877-6.531 5.877l-2.21-.049-.729-2.111a27.765 27.765 0 0 0 2.939.2 4.761 4.761 0 0 0 3.316-1.03q1.131-1.029 1.13-3.818a13.247 13.247 0 0 0-5.375-11.254 97.079 97.079 0 0 0 4.823-13.012H410.7v41.448h-2.059v-43.357h12.233v1.909a82.539 82.539 0 0 1-4.723 12.586zm35.345 21.453h-14.142v7.31h-2.061v-7.31H421.15v-1.834h14.143v-4.069h-10.7v-13.39h23.814v13.39h-11.053v4.069H451.5zm-.1-23.135h-30.044v-1.86h9.143a32.3 32.3 0 0 0-2.612-6.028h-4.723v-1.834h12.44a21.974 21.974 0 0 0-2.16-3.97l2.009-.778a32.648 32.648 0 0 1 2.411 4.748h12.41v1.834h-5.351a35.446 35.446 0 0 1-2.537 6.028h9.018zm-5.05 9.57v-3.868h-19.7v3.868zm0 5.8v-3.969h-19.7v3.969zm-3.492-23.261h-12.811a39.7 39.7 0 0 1 2.612 6.028h7.637a30.976 30.976 0 0 0 2.562-6.025z" class="cls-1" data-name="Path 169"/>
                <path id="Path_170" d="M148.466 4038.064q0 3.417-4.1 3.416l-4.5-.125-.652-1.959q1.884.15 4.069.15a7 7 0 0 0 2.625-.288 1.2 1.2 0 0 0 .515-1.144v-13.363h-10.97a45.6 45.6 0 0 1-4.622 16.956l-1.809-1.332q4.647-8.691 4.648-20.875v-21.4h14.8zm-2.035-15.222v-10.5h-10.7q0 8.742-.125 10.5zm0-12.41v-10.425h-10.7v10.425zm25.346 27.13a3.734 3.734 0 0 1-.9 2.637 3.374 3.374 0 0 1-2.173 1.118q-1.269.138-3.856.138-1.557 0-2.788-.1l-.829-1.959q3.39.2 5.224.2a5.168 5.168 0 0 0 2.689-.44 1.829 1.829 0 0 0 .577-1.545v-12.861h-13.016a51.656 51.656 0 0 1-4.823 17.031l-1.809-1.206a45.5 45.5 0 0 0 3.856-10.789 66.821 66.821 0 0 0 1.193-13.853V3998.1h16.655zm-2.06-14.72v-10.5h-12.534q0 8.088-.277 10.5zm0-12.41v-10.425h-12.534v10.425z" class="cls-1" data-name="Path 170"/>
                <path id="Path_171" d="M229.649 4039.723l-.929 1.883a48.073 48.073 0 0 1-17.006-8.491q-6.131 5.277-17.308 8.968l-1.281-1.858q10.977-3.368 17.031-8.441a34.331 34.331 0 0 1-10.174-15.273 63.175 63.175 0 0 1-13.891 23.814l-1.406-1.532q12.735-13.489 15.8-33.385h-15.851v-1.96h16.152a58.6 58.6 0 0 0 .829-6.531h2.061q-.277 3.19-.829 6.531H229.3v1.96h-26.755q-.854 4.5-2.06 9.144h21.93v2.16a38.588 38.588 0 0 1-9.219 15.022 46.366 46.366 0 0 0 16.453 7.989zm-9.294-23.212h-18.312q2.31 7.662 9.62 13.992a32.465 32.465 0 0 0 8.692-13.992z" class="cls-1" data-name="Path 171"/>
                <path id="Path_172" d="M284.961 4025.881H261.7a45.632 45.632 0 0 1-7.862 5.853v7.411a60.5 60.5 0 0 0 11.228-3.09v1.959a73.356 73.356 0 0 1-13.539 3.492l-.629-1.483a1.321 1.321 0 0 0 .88-1.381v-5.778a41.989 41.989 0 0 1-10.073 3.668l-.979-1.759q11-2.562 18.061-8.892h-18.64v-1.859h22.232a8.654 8.654 0 0 0-1.331-2.311l2.059-.879a12.811 12.811 0 0 1 1.683 3.19h20.172zm-15.173-18.062h-13.74v3.542H266.7v5.6a2.986 2.986 0 0 1-.778 2.085q-.78.855-4.2.854l-2.236-.049-.653-1.759q1.08.1 2.336.1a10.622 10.622 0 0 0 2.952-.226.932.932 0 0 0 .515-.954v-3.844h-8.591v8.34h-2.061v-8.34H245.4v6.782h-2.059v-8.591h10.65v-3.542h-13.74v-1.808h13.74v-3.743h-8.64a25.95 25.95 0 0 1-2.462 3.14l-1.658-1.256a23.019 23.019 0 0 0 4.8-7.336l2.06.654a17.935 17.935 0 0 1-1.557 2.989h7.46v-3.692h2.061v3.692h11.43v1.809h-11.43v3.743h13.74zm14.721 32.255l-1.231 1.708q-9.219-2.562-13.377-5.438a26.214 26.214 0 0 1-7.221-7.75l1.858-.7a22.935 22.935 0 0 0 6.13 6.581 39.978 39.978 0 0 0 9.62-6.908l1.533 1.231a43.879 43.879 0 0 1-9.421 6.808 42.712 42.712 0 0 0 12.109 4.468zm-1.181-23.463a2.771 2.771 0 0 1-1.243 2.713q-1.243.654-5.539.654l-3.065-.076-.653-1.808q1.833.1 3.793.1a15.723 15.723 0 0 0 4.132-.276 1.206 1.206 0 0 0 .565-1.206v-19.945h2.01zm-8.29-3.139h-2.059v-14.344h2.059z" class="cls-1" data-name="Path 172"/>
                <path id="Path_173" d="M309.349 3997.118a54.7 54.7 0 0 1-2.412 6.054l-1.659 3.417v34.866h-2.059v-31.324a50.232 50.232 0 0 1-6.782 8.64l-1.232-1.682a49.8 49.8 0 0 0 12.134-20.7zm31.023 9.571h-16.555v10.074h14.344v1.909h-14.344v10.073h15.324v1.908h-15.324v10.8h-2.059v-34.766h-5.778a57.26 57.26 0 0 1-6.883 11.2l-1.557-1.331a56.777 56.777 0 0 0 10.2-19.921l2.01.578q-1.482 4.371-2.889 7.561h23.513z" class="cls-1" data-name="Path 173"/>
                <path id="Path_174" d="M368.829 4040.476h-2.059V4036h-11.782v5.45h-2.059v-36.1h4.771a48.08 48.08 0 0 0 3.718-9.068l2.01.679a78.956 78.956 0 0 1-3.467 8.389h8.867zm-2.059-21.352v-11.882h-11.782v11.882zm0 14.972v-13.063h-11.782v13.067zm27.632-28.537q-.2 11.2-1.081 21.453t-1.457 11.379a7.087 7.087 0 0 1-1.682 2.1q-1.107.968-6.18.967l-3.291-.1-.678-1.959 3.191.075q4.47 0 5.488-.565a3.558 3.558 0 0 0 1.532-2.123q.516-1.557 1.219-10.212t.829-19.052H378.5a59.778 59.778 0 0 1-6.23 10.524l-1.709-1.532q6.28-7.686 9.572-19.594l2.059.452a68 68 0 0 1-2.888 8.19zm-9.219 22.834l-1.859 1.281a62.335 62.335 0 0 0-7.31-11.932l1.607-1.231a54.768 54.768 0 0 1 7.562 11.882z" class="cls-1" data-name="Path 174"/>
                <path id="Path_175" d="M451.6 4017.44h-38.111v6.984q0 11-5.2 17.358l-1.607-1.407a19.283 19.283 0 0 0 3.641-6.632 32.018 32.018 0 0 0 1.106-9.268v-8.944H451.6zm-1.282-14.243h-8.139a25.51 25.51 0 0 1-6.1 5.451q5.751 1.458 11.782 3.592l-1.031 1.658a109.274 109.274 0 0 0-12.962-4.019q-6.758 3.417-18.739 3.894l-.679-1.784q10.9-.475 16.579-2.788-7.284-1.707-13.639-2.663l.829-1.607q8.037 1.281 15.373 3.09a21.952 21.952 0 0 0 6.079-4.824H409.47v-1.909h19.895a18.12 18.12 0 0 0-2.311-3.919l1.859-.828a24.833 24.833 0 0 1 2.612 4.747h18.79zm.83 37.128h-36.956v-1.909H432.2v-5.552h-12.858v-1.834H432.2v-5.3h-11.43a35.407 35.407 0 0 1-4.571 5.124l-1.332-1.431a28.929 28.929 0 0 0 7.662-10.3l1.759.828a34.411 34.411 0 0 1-2.211 3.919H432.2v-4.47h2.061v4.471h14.342v1.859h-14.339v5.3h13.262v1.834h-13.262v5.552h16.881z" class="cls-1" data-name="Path 175"/>
                <path id="Path_176" d="M481.486 4041.506h-2.06v-3.593h-12.083v3.593h-2.06v-22.056h16.2zm-2.11-5.552v-14.545h-12.033v14.545zm21-23.136h-29.691v-14.871h29.691zm-2.06-1.959v-10.977h-25.572v10.977zm6 30.647h-2.035v-3.593h-12.053v3.593h-2.06v-22.056h16.152zm-2.035-5.552v-14.545h-12.053v14.545z" class="cls-1" data-name="Path 176"/>
            </g>
        </g>
        <g id="Group_225" data-name="Group 225">
            <g id="Group_221" data-name="Group 221">
                <g id="Group_220" data-name="Group 220">
                    <path id="Path_177" d="M344.1 3728.508h2.037v70.137h12.168v9.57h-12.164v23.379h-9.981v-23.379h-48.125zm-7.944 70.137v-42.237l-29.792 42.237z" class="cls-2" data-name="Path 177"/>
                </g>
            </g>
            <g id="Group_224" data-name="Group 224">
                <g id="Group_223" data-name="Group 223">
                    <g id="Group_222" data-name="Group 222">
                        <path id="Path_178" d="M149.027 3780.91l-.573 1.27a24.791 24.791 0 0 1-8.118-3.967 25.678 25.678 0 0 1-8.2 4.2l-.8-1.221a23.542 23.542 0 0 0 8.031-3.857 13.841 13.841 0 0 1-4.577-7.093 29.84 29.84 0 0 1-6.653 11.243l-.928-.976a28.429 28.429 0 0 0 7.532-15.8h-7.506v-1.306h7.7q.28-1.586.4-3.2h1.379q-.121 1.355-.4 3.2h12.616v1.306H136.1q-.33 1.808-.915 4.127h10.546v1.342a21.129 21.129 0 0 1-4.382 7.129 21.567 21.567 0 0 0 7.678 3.603zm-4.821-10.73h-8.13a13.515 13.515 0 0 0 4.285 6.275 17.734 17.734 0 0 0 3.845-6.275z" class="cls-2" data-name="Path 178"/>
                        <path id="Path_179" d="M183.881 3774.416h-21.654v-1.232h6.054a9.953 9.953 0 0 0-1.551-1.979l.806-.744h-5.127v-1.123h10.023v-2.075h-8.8v-1.148h8.8v-1.855h-9.424v-1.172h20.153v1.172h-9.436v1.855h8.8v1.148h-8.8v2.075h10.035v1.123h-5.274l.915.879q-.366.549-1.318 1.844h5.8zm-2.5 7.85h-1.245v-1.185h-14.15v1.185h-1.306v-6.129h16.7zm-1.245-2.381v-2.528h-14.15v2.528zm-9.8-17.92l-1.2.574a9.508 9.508 0 0 0-1.83-1.758l1.2-.623a6.9 6.9 0 0 1 1.826 1.807zm7.946 8.5h-10.428a18.984 18.984 0 0 1 2.026 2.723h6.53a16.66 16.66 0 0 0 1.868-2.727zm.452-9.729a8.153 8.153 0 0 1-2.1 1.831l-1.331-.684a8.362 8.362 0 0 0 2.282-1.77z" class="cls-2" data-name="Path 179"/>
                        <path id="Path_180" d="M204.855 3766.055a25.653 25.653 0 0 1-2.429 3.429v12.782h-1.293v-11.256a35.6 35.6 0 0 1-3.248 3l-.684-1.026a28.924 28.924 0 0 0 6.556-7.654zm-.574-4.969a23.159 23.159 0 0 1-6.273 5.2l-.758-1.025a21.664 21.664 0 0 0 5.957-4.981zm14.723 8h-3.943v11.107a1.866 1.866 0 0 1-.421 1.289 1.727 1.727 0 0 1-.958.574 14.3 14.3 0 0 1-2.161.1q-1.392 0-2.247-.049l-.524-1.342q1.061.048 2.233.049a15.085 15.085 0 0 0 2.429-.092.407.407 0 0 0 .244-.434v-11.205h-8.8v-1.318H219zm-1.221-6.324H205.9v-1.319h11.878z" class="cls-2" data-name="Path 180"/>
                        <path id="Path_181" d="M244.226 3761.416a30.8 30.8 0 0 1-5.042.915v1.953h4.968v1.2h-4.968v1.832h4.566v7.275h-4.566v1.77h4.566v1.184h-4.566v2.515q2.186-.183 4.566-.574v1.233q-6.726.879-11.365 1.367l-.3-1.269q2.733-.208 5.871-.575v-2.7h-4.627v-1.184h4.627v-1.77h-4.59v-7.275h4.59v-1.832h-5.469v-1.2h5.469v-1.77q-2.076.171-4.627.172l-.414-1.149a41.548 41.548 0 0 0 10.645-1.172zm-6.275 8.874v-1.733h-3.32v1.733zm0 3.1v-1.905h-3.32v1.905zm4.553-3.1v-1.733h-3.32v1.733zm0 3.1v-1.905h-3.32v1.905zm10.351-8.106q0 5.531-.176 10.04a32.985 32.985 0 0 1-.427 5.28 2.122 2.122 0 0 1-.9 1.178 5.123 5.123 0 0 1-2.472.408c-.334 0-.631-.011-.892-.036l-.426-1.294q1.39.049 2.416.049a1.223 1.223 0 0 0 .855-.353 1.626 1.626 0 0 0 .427-1.123l.231-4.811q.172-4.04.172-8.093h-2.625a32.467 32.467 0 0 1-3.808 15.808l-1.123-.549q3.54-6.042 3.7-15.259l-2.674.025v-1.245l2.723-.025.085-4.894h1.245q-.05 3.051-.122 4.894z" class="cls-2" data-name="Path 181"/>
                        <path id="Path_182" d="M133.281 3810.183q-.39 1.11-1.074 2.6l-.672 1.428v17.518h-1.355v-14.82a27.157 27.157 0 0 1-2.7 3.955l-.756-1.354a34.671 34.671 0 0 0 5.286-9.8zm15.551 11.181h-7.324v8.52h6.7v1.269H133.3v-1.269h6.848v-8.52h-7.446v-1.306h7.446v-8.35h-6.225v-1.27h13.806v1.27h-6.226v8.35h7.324z" class="cls-2" data-name="Path 182"/>
                        <path id="Path_183" d="M171.711 3817.958a10.853 10.853 0 0 1-1.953 5.75l-.952-.9a10.493 10.493 0 0 0 1.5-3.6h-2.331v10.974a1.721 1.721 0 0 1-.4 1.019q-.4.532-2.02.532a8.334 8.334 0 0 1-1.148-.074l-.732-1.342q1.585.122 2.477.122a.614.614 0 0 0 .391-.183.506.506 0 0 0 .208-.367v-9.021a30.157 30.157 0 0 1-3.8 7.165l-.855-1a28.933 28.933 0 0 0 3.98-7.825H162.2v-1.245h5.53a20.507 20.507 0 0 0-3.844-3.369l.915-.83q.891.61 2.259 1.746a22.933 22.933 0 0 0 2.746-3.773h-6.726v-1.245h8.154v1.245a27.277 27.277 0 0 1-3.21 4.6l.855.951-.77.672zm10.742 5.725a35.786 35.786 0 0 1-.4 4.6 7.092 7.092 0 0 1-.666 2.478 3.18 3.18 0 0 1-.842.739 8.5 8.5 0 0 1-3.217.226l-.6-1.343c.511.041 1.069.061 1.671.061a5.359 5.359 0 0 0 1.63-.134.961.961 0 0 0 .409-.4 7.093 7.093 0 0 0 .342-1.654q.195-1.392.354-3.332h-4.174q-1.05 4.821-6.2 6.884l-.952-1.025a9.146 9.146 0 0 0 3.735-2.277 7.436 7.436 0 0 0 2.136-3.582h-3.967v-1.246h4.272a16.265 16.265 0 0 0 .22-2.5l1.258.048a19.238 19.238 0 0 1-.208 2.454zm1.477-3.028l-.72 1.123a17.611 17.611 0 0 1-5.384-2.673 18.908 18.908 0 0 1-4.8 2.624l-.879-1.074a15.6 15.6 0 0 0 4.651-2.367 13.722 13.722 0 0 1-2.246-2.783l1.1-.623a10.432 10.432 0 0 0 2.123 2.6 9.448 9.448 0 0 0 2.65-4.027h-5.345a18.691 18.691 0 0 1-2.93 3.076l-.964-.891a17.827 17.827 0 0 0 4.7-5.884l1.245.476a15.524 15.524 0 0 1-1.172 1.977h7.593v1.246h-1.771a11.723 11.723 0 0 1-2.953 4.809 16.239 16.239 0 0 0 5.102 2.391z" class="cls-2" data-name="Path 183"/>
                    </g>
                </g>
                <path id="Line_32" fill="none" stroke="#903" stroke-miterlimit="10" stroke-width="0.75px" d="M0 21L56 0" data-name="Line 32" transform="translate(197.181 3810.809)"/>
            </g>
        </g>
        <g id="Group_227" data-name="Group 227">
            <g id="Group_226" data-name="Group 226">
                <path id="Path_184" d="M413.78 3750.493a20.1 20.1 0 0 1-6.585 7.318l-2.718-3.032a16.271 16.271 0 0 0 7-11.917h-7.735v-12.544h12.439v11.5a18.139 18.139 0 0 1-2.401 8.675zm20.071 0a22.16 22.16 0 0 1-6.586 7.318l-2.822-3.032a16.275 16.275 0 0 0 7-11.917h-7.631v-12.544h12.439v11.5a18.139 18.139 0 0 1-2.4 8.675z" class="cls-2" data-name="Path 184"/>
            </g>
        </g>
    </g>
</svg>
