<svg xmlns="http://www.w3.org/2000/svg" width="415.672" height="313.199" viewBox="0 0 415.672 313.199">
    <defs>
        <style>
            .cls-1{fill:#333}.cls-2{fill:#693}
        </style>
    </defs>
    <g id="Symbol_94_1" data-name="Symbol 94 – 1" transform="translate(-718 -3084) translate(.274 -.008)">
        <g id="Group_209" data-name="Group 209">
            <g id="Group_208" data-name="Group 208">
                <path id="Path_144" d="M744.515 3294.815v2.111q0 4.2-.176 8.88a38.131 38.131 0 0 1-.49 5.916 4.322 4.322 0 0 1-1.156 2.059 4.263 4.263 0 0 1-1.8 1.106 17.391 17.391 0 0 1-3.918.276l-3.618-.075-.728-2.06 6.33.151a3.85 3.85 0 0 0 1.984-.4 2.1 2.1 0 0 0 .9-1.268 30.787 30.787 0 0 0 .439-4.835q.189-3.971.188-7.11l-.024-2.788H730.07a31.925 31.925 0 0 1-8.817 18.363l-1.28-1.533q8.64-8.413 8.64-25.9v-1.008h-4.823v-14.92h20.624v14.92h-13.69a70.617 70.617 0 0 1-.453 8.113zm-2.161-10.073v-11.053h-16.5v11.053zm10.751 20.976h-2.059v-31.777h2.054zm9.973 5.778q0 3.593-4.144 3.592l-6.958-.05-.83-2.01q7.085 0 8.089-.05a1.535 1.535 0 0 0 1.407-.854 3.1 3.1 0 0 0 .4-1.206V3270.6h2.034z" class="cls-1" data-name="Path 144"/>
                <path id="Path_145" d="M789.225 3293.032l-5.351 2.462v16.3a3.5 3.5 0 0 1-.893 2.311q-.891 1.056-3.454 1.055h-2.436l-.628-2.085 3.417.126q1.983 0 1.984-1.608v-15.223q-4.27 1.809-6.23 2.513l-.653-1.809q3.691-1.306 6.883-2.714v-12.81h-6.23v-1.909h6.23v-9.141h2.01v9.145h3.642v1.909h-3.642v11.931l4.948-2.31zm31.023-12.308h-8.843v3.39q0 1.233 1.382 1.232h6.933v1.758h-7.712a2.8 2.8 0 0 1-1.884-.666 2.027 2.027 0 0 1-.778-1.595l.05-4.119h-6.281q-.25 6.48-7.309 8.44l-1.031-1.759q6-1.2 6.331-6.681h-7.863v12.032a57.054 57.054 0 0 1-4.646 22.583l-1.785-1.181a51.978 51.978 0 0 0 4.421-21.452v-13.615l-1.959 1.08-1.23-1.508a35.2 35.2 0 0 0 10.852-8.39l2.16.678-2.01 2.111H814.4v1.758a48.051 48.051 0 0 1-4.8 4.17h10.651zm-8.792-5.9h-14.319a43.347 43.347 0 0 1-5.7 4.17h15.172a46.961 46.961 0 0 0 4.847-4.174zm8.792 17.735h-26.125v-1.734h12.133a33.3 33.3 0 0 0-1.909-4.069l2.11-.577q1.305 2.737 2.009 4.646h11.782zm-2.412 4.748h-21.779v-1.759h21.779zm0 4.722h-21.779v-1.758h21.779zm0 13.113h-2.01v-2.311h-17.76v2.311h-2.009v-10.123h21.779zm-2.01-4.07v-4.32h-17.76v4.32z" class="cls-1" data-name="Path 145"/>
                <path id="Path_146" d="M840.165 3287.3q-3.015 13.566-7.26 21.98l-1.859-1.331a75.407 75.407 0 0 0 7.109-21.3zm25.723 13.389q-.3 4.446-.855 7.912t-1.431 4.347a4.392 4.392 0 0 1-1.884 1.168 35.343 35.343 0 0 1-6.18.288q-3.894 0-6.129-.15a4.691 4.691 0 0 1-3.115-1.068 3.954 3.954 0 0 1-.879-2.826v-28.21h2.06v27.959q0 1.659 1.054 2a37.527 37.527 0 0 0 6.984.339 38.746 38.746 0 0 0 5.464-.176 3.2 3.2 0 0 0 1.092-.766q.6-.59 1.093-4.132a63.345 63.345 0 0 0 .566-7.41zm-5.1-16.353l-1.758 1.382a61.14 61.14 0 0 0-11.3-13.742l1.583-1.431a70.9 70.9 0 0 1 11.475 13.796zm15.023 22.206l-2.162.779a101.372 101.372 0 0 0-8.289-19.443l1.91-1.131a117.456 117.456 0 0 1 8.541 19.8z" class="cls-1" data-name="Path 146"/>
                <path id="Path_147" d="M908.387 3297.3a2.721 2.721 0 0 1-1.759-2.362 2.153 2.153 0 0 1 .6-1.57 2.249 2.249 0 0 1 1.683-.615 2.04 2.04 0 0 1 1.746.791 3.653 3.653 0 0 1 .59 2.224q0 2.511-2.913 4.847l-1.005-.853a4.527 4.527 0 0 0 1.058-2.462z" class="cls-1" data-name="Path 147"/>
                <path id="Path_148" d="M764.736 3377.161h-21.452a36.876 36.876 0 0 1-2.311 5.1h20.221v11.354a3.325 3.325 0 0 1-.891 2.437 3.09 3.09 0 0 1-2.3.9h-4.6l-.7-2.059q1.884.125 3.768.125a4.418 4.418 0 0 0 2.2-.339 1.354 1.354 0 0 0 .465-1.168v-9.369h-9.722v12.258h-2.059v-12.258h-9.722v12.208h-2.06v-12.208h-9.721v12.81h-2.062v-14.7h14.972a33.36 33.36 0 0 0 2.361-5.1h-21.051v-1.909h44.664zm-1.23-6.531h-2.061v-8.868h-18.01v11.731h-2.06v-11.731h-18.012v8.868h-2.034v-10.7h20.046v-4.322h-18.514v-1.858h39.087v1.858h-18.513v4.322h20.071zm-25.07-.1q-6.684 1.484-11.932 2.11l-.553-1.758a87.727 87.727 0 0 0 11.781-2.01zm-.05-4.9l-.7 1.708a72.361 72.361 0 0 0-11.379-1.759l.879-1.657a81.721 81.721 0 0 1 11.2 1.709zm20.7 5.4l-.98 1.708a77.6 77.6 0 0 0-12.359-2.109l.93-1.609a83.673 83.673 0 0 1 12.407 2.011zm-.376-5.3a98.24 98.24 0 0 1-11.882 1.708l-.6-1.708a112.747 112.747 0 0 0 11.881-1.683z" class="cls-1" data-name="Path 148"/>
                <path id="Path_149" d="M820.349 3380.9h-12.335a31.636 31.636 0 0 1-6.28 8.039 180.05 180.05 0 0 1 17.685 6.38l-1.232 1.684a158.894 158.894 0 0 0-18.413-6.482q-6.781 5.226-22.632 6.281l-.98-1.909q13.766-.753 20.824-5.125a118.84 118.84 0 0 0-13.791-3.19q2.714-2.537 5.527-5.678H775.81v-1.959h14.6q2.611-2.963 4.9-6h-16v-11.479h11.882v-5.753h-15.081v-1.909H820.2v1.909h-15.075v5.753h11.882v11.479h-21l1.3 1.282-3.917 4.722h13.262a36.084 36.084 0 0 0 1.658-3.34l2.06.577q-.528 1.232-1.331 2.763h11.3zm-29.165-9.872v-7.661h-9.823v7.661zm14.343 9.872h-13.841q-1.783 2.061-4.27 4.547a118.8 118.8 0 0 1 11.63 2.814 27.776 27.776 0 0 0 6.481-7.361zm-2.462-19.442v-5.753h-9.822v5.753zm0 9.57v-7.661h-9.822v7.661zm11.882 0v-7.661h-9.822v7.661z" class="cls-1" data-name="Path 149"/>
                <path id="Path_150" d="M856.267 3369.449q-11.255 1.305-24.643 1.833l-.151-1.783q5.953-.1 11.506-.478v-3.542h-8.893v-1.556h8.893v-2.965h-11.205v-1.607h11.205v-2.889h-8.893v-1.583h8.893v-2.462h2.059v2.462h8.918v1.583h-8.918v2.889h9.722v1.607h-9.722v2.965h8.918v1.556h-8.918v3.392q5.3-.3 11.229-1.08zm16.152 22.532q0 2.087-1.281 2.525a17.916 17.916 0 0 1-4.924.44l-2.863-.05-.5-1.683 3.265.075a14.228 14.228 0 0 0 3.83-.276 1.181 1.181 0 0 0 .617-1.206v-3.793h-16.1v8.942H852.6v-8.942h-16.1V3395h-1.959v-8.591H852.6v-2.914h-14.344v-9.9h12.61a23.414 23.414 0 0 0 1.683-2.462l2.059.3-1.481 2.16H868.7v9.9h-14.242v2.914h17.961zm-5.777-14.267v-2.514h-26.327v2.513zm0 4.17v-2.563h-26.327v2.563zm9.169-22.936h-4.9v8.693a3.2 3.2 0 0 1-1.08 2.838 7.959 7.959 0 0 1-4.095.728l-2.286-.075-.6-1.633 2.184.051a9.071 9.071 0 0 0 3.216-.327 1.133 1.133 0 0 0 .6-1.08v-9.2h-12.433v-1.556h12.435v-4.975h2.06v4.975h4.9zm-11.933 6.833l-1.507 1.231a30.06 30.06 0 0 0-4.974-4.672l1.432-1.181a24.476 24.476 0 0 1 5.049 4.622z" class="cls-1" data-name="Path 150"/>
                <path id="Path_151" d="M908.789 3387.334q-12.033 4.272-22.231 7.109l-.729-1.909q2.009-.453 3.969-1.08V3354h15.173v32.757a33.318 33.318 0 0 0 3.818-1.483zm-5.929-22.1v-9.219h-10.952v9.219zm0 11.5v-9.495h-10.952v9.495zm0 10.652v-8.642h-10.952v12.156q6.407-1.907 10.952-3.515zm26.452-25q0 13.389-.465 22.269t-.98 9.8a4.808 4.808 0 0 1-1.431 1.57q-.918.653-4.284.653l-3.591-.125-.729-2.035 4.823.151a5.212 5.212 0 0 0 2.06-.276 3.127 3.127 0 0 0 1.583-2.073q.148-.691.439-6.719t.4-11q.113-4.976.113-10.2h-8.94q-.478 14.772-3.945 21.252a32.942 32.942 0 0 1-10.977 11.556l-1.659-1.532q7.486-4.773 10.8-10.853t3.718-20.423h-8.137v-2.009h8.24v-9.973h2.06v9.973z" class="cls-1" data-name="Path 151"/>
                <path id="Path_152" d="M986.935 3360.381h-25.523a76.484 76.484 0 0 1-4.221 6.431h23.564v26.4a3.374 3.374 0 0 1-.93 2.474 4.568 4.568 0 0 1-2.964 1.1q-2.034.163-4.848.163-1.884 0-3.492-.1l-.779-2.009q2.738.2 5.6.2a15.783 15.783 0 0 0 4.484-.364 1.392 1.392 0 0 0 .866-1.419v-7.357h-23.811a23.156 23.156 0 0 1-5.854 11.3l-1.959-1.131a18.831 18.831 0 0 0 5.175-8.252 41.472 41.472 0 0 0 1.256-11.14v-5.351a51.013 51.013 0 0 1-10.1 8.44l-1.38-1.482a55.968 55.968 0 0 0 17.081-17.91h-16.73v-1.909h17.86q1.457-2.512 3.191-6.281l2.01.578q-1.383 2.863-2.94 5.7h24.443zm-8.241 23.612v-6.681h-23.135a48.058 48.058 0 0 1-.376 6.681zm0-8.591v-6.681H955.76l-.2.251v6.43z" class="cls-1" data-name="Path 152"/>
                <path id="Path_153" d="M1042.7 3386.455a41.18 41.18 0 0 1-1.921 6.394q-1.269 3.277-2.286 3.78a4.53 4.53 0 0 1-2.022.5q-2.312 0-4.785-3.065a22.7 22.7 0 0 1-3.857-7.284 44.323 44.323 0 0 1-11.053 6.933l-1.129-1.683a36.447 36.447 0 0 0 11.58-7.31 71.7 71.7 0 0 1-2.211-16.353h-12.866v10.023q5.176-1.282 9.872-2.788v1.959q-5.7 1.608-9.872 2.688v13.841a2.651 2.651 0 0 1-1.067 2.16 3.813 3.813 0 0 1-2.449.854l-6.782-.05-.628-2.11q1.908.1 7.108.1 1.709 0 1.708-1.582v-12.711q-5.953 1.458-11.53 2.261l-.528-1.959a86.65 86.65 0 0 0 12.058-2.211v-10.475h-12.409v-1.909h12.409v-8.843a100.034 100.034 0 0 1-10.6 1.583l-.728-1.96a96.16 96.16 0 0 0 22.182-4.521l.778 1.859a96.765 96.765 0 0 1-9.521 2.612v9.27h12.812q-.1-3.039-.1-14.144h2.085l-.075 8.541.075 5.6h15.652v1.909h-15.576a78.853 78.853 0 0 0 1.834 14.7 47.389 47.389 0 0 0 7.712-11l1.708 1.129a53.4 53.4 0 0 1-8.792 12.034 26.108 26.108 0 0 0 2.324 5.375 12.645 12.645 0 0 0 2.626 3.366 3.67 3.67 0 0 0 2.109 1.03 1.45 1.45 0 0 0 1.1-.452 15.33 15.33 0 0 0 1.545-3.416 34.11 34.11 0 0 0 1.646-5.8zm-2.888-23.965l-1.633 1.232a34.32 34.32 0 0 0-6.682-8.391l1.532-1.23a36.585 36.585 0 0 1 6.779 8.389z" class="cls-1" data-name="Path 153"/>
                <path id="Path_154" d="M1098.059 3395.046H1064.2v1.909h-2.059v-23.286a68.052 68.052 0 0 1-7.336 7.134l-1.608-1.683a56.1 56.1 0 0 0 14.37-16.73h-13.138v-1.959h14.142a64.977 64.977 0 0 0 3.517-8.491l2.16.477a74.972 74.972 0 0 1-3.291 8.014h26.276v1.959h-27.255a58.392 58.392 0 0 1-5.778 8.793v21.929h15.549v-15.3h-11.63v-1.883h11.63v-9.948h2.061v9.948h12.76v1.883h-12.76v15.3h16.253z" class="cls-1" data-name="Path 154"/>
                <path id="Path_155" d="M1131.137 3395.021a2.113 2.113 0 0 1-1.57-.653 2.211 2.211 0 0 1 1.57-3.793 2.23 2.23 0 0 1 1.608.628 2.26 2.26 0 0 1 .013 3.165 2.175 2.175 0 0 1-1.621.653zm1.156-11.405h-2.387l-.3-27.983h2.99z" class="cls-1" data-name="Path 155"/>
            </g>
        </g>
        <g id="Group_215" data-name="Group 215">
            <g id="Group_211" data-name="Group 211">
                <g id="Group_210" data-name="Group 210">
                    <path id="Path_156" d="M894.006 3109.848h-10.254q2.8-12.441 10.732-19.141a28.105 28.105 0 0 1 18.731-6.7 30.95 30.95 0 0 1 14.663 3.589 26.561 26.561 0 0 1 10.527 9.673 23.992 23.992 0 0 1 3.726 12.714q0 12.99-12.92 20.577a29.316 29.316 0 0 1 11.894 8.613 27.524 27.524 0 0 1 6.563 17.91 31.953 31.953 0 0 1-4.512 16.3 31.287 31.287 0 0 1-12.3 12 35.893 35.893 0 0 1-17.432 4.238q-12.988 0-21.67-7.485T880.4 3160.16h9.844q2.6 9.777 7.451 14.151 6.22 5.536 15.86 5.537 10.937 0 17.568-6.563a20.96 20.96 0 0 0 6.631-15.381 19.905 19.905 0 0 0-3.316-11.006 20.882 20.882 0 0 0-8.886-7.724q-5.573-2.6-17.261-3.213v-9.229a31.66 31.66 0 0 0 12.578-2.426q5.673-2.427 8.237-6.187a14.26 14.26 0 0 0 2.564-8.2 14.89 14.89 0 0 0-5.23-11.348 18.843 18.843 0 0 0-13.227-4.785A17.76 17.76 0 0 0 902 3097.44q-4.714 3.66-7.994 12.408z" class="cls-2" data-name="Path 156"/>
                </g>
            </g>
            <g id="Group_214" data-name="Group 214">
                <g id="Group_213" data-name="Group 213">
                    <g id="Group_212" data-name="Group 212">
                        <path id="Path_157" d="M740.027 3136.41l-.573 1.27a24.79 24.79 0 0 1-8.118-3.967 25.678 25.678 0 0 1-8.2 4.2l-.8-1.221a23.543 23.543 0 0 0 8.031-3.857 13.841 13.841 0 0 1-4.577-7.093 29.84 29.84 0 0 1-6.653 11.243l-.928-.976a28.428 28.428 0 0 0 7.532-15.8h-7.506v-1.306h7.7q.281-1.586.4-3.2h1.379q-.121 1.355-.4 3.2h12.616v1.306H727.1q-.33 1.808-.915 4.127h10.546v1.342a21.128 21.128 0 0 1-4.382 7.129 21.568 21.568 0 0 0 7.678 3.603zm-4.821-10.73h-8.13a13.515 13.515 0 0 0 4.285 6.275 17.735 17.735 0 0 0 3.845-6.275z" class="cls-2" data-name="Path 157"/>
                        <path id="Path_158" d="M774.881 3129.916h-21.654v-1.232h6.054a9.952 9.952 0 0 0-1.551-1.979l.806-.744h-5.127v-1.123h10.023v-2.075h-8.8v-1.148h8.8v-1.855h-9.424v-1.172h20.153v1.172h-9.436v1.855h8.8v1.148h-8.8v2.075h10.035v1.123h-5.274l.915.879q-.366.549-1.318 1.844h5.8zm-2.5 7.85h-1.245v-1.185h-14.15v1.185h-1.306v-6.129h16.7zm-1.245-2.381v-2.528h-14.15v2.528zm-9.8-17.92l-1.2.574a9.51 9.51 0 0 0-1.83-1.758l1.2-.623a6.9 6.9 0 0 1 1.826 1.807zm7.946 8.5h-10.428a18.984 18.984 0 0 1 2.026 2.723h6.53a16.659 16.659 0 0 0 1.868-2.727zm.452-9.729a8.153 8.153 0 0 1-2.1 1.831l-1.331-.684a8.361 8.361 0 0 0 2.282-1.77z" class="cls-2" data-name="Path 158"/>
                        <path id="Path_159" d="M795.855 3121.555a25.654 25.654 0 0 1-2.429 3.429v12.782h-1.293v-11.256a35.6 35.6 0 0 1-3.248 3l-.684-1.026a28.925 28.925 0 0 0 6.556-7.654zm-.574-4.969a23.159 23.159 0 0 1-6.273 5.2l-.758-1.025a21.663 21.663 0 0 0 5.957-4.981zm14.723 8h-3.943v11.107a1.867 1.867 0 0 1-.421 1.289 1.727 1.727 0 0 1-.958.574 14.3 14.3 0 0 1-2.161.1q-1.392 0-2.247-.049l-.524-1.342q1.06.048 2.233.049a15.085 15.085 0 0 0 2.429-.092.407.407 0 0 0 .244-.434v-11.205h-8.8v-1.318H810zm-1.221-6.324h-11.878v-1.319h11.878z" class="cls-2" data-name="Path 159"/>
                        <path id="Path_160" d="M835.226 3116.916a30.8 30.8 0 0 1-5.042.915v1.953h4.968v1.2h-4.968v1.832h4.566v7.275h-4.566v1.77h4.566v1.184h-4.566v2.515q2.185-.183 4.566-.574v1.233q-6.726.879-11.365 1.367l-.3-1.269q2.733-.208 5.871-.575v-2.7h-4.627v-1.184h4.627v-1.77h-4.59v-7.275h4.59v-1.832h-5.469v-1.2h5.469v-1.77q-2.076.171-4.627.172l-.414-1.149a41.548 41.548 0 0 0 10.645-1.172zm-6.275 8.874v-1.733h-3.32v1.733zm0 3.1v-1.905h-3.32v1.905zm4.553-3.1v-1.733h-3.32v1.733zm0 3.1v-1.905h-3.32v1.905zm10.351-8.106q0 5.531-.176 10.04a32.989 32.989 0 0 1-.427 5.28 2.122 2.122 0 0 1-.9 1.178 5.123 5.123 0 0 1-2.472.408c-.334 0-.631-.011-.892-.036l-.426-1.294q1.391.049 2.416.049a1.223 1.223 0 0 0 .855-.353 1.626 1.626 0 0 0 .427-1.123l.231-4.811q.173-4.04.172-8.093h-2.625a32.467 32.467 0 0 1-3.808 15.808l-1.123-.549q3.54-6.042 3.7-15.259l-2.674.025v-1.245l2.723-.025.085-4.894h1.245q-.05 3.051-.122 4.894z" class="cls-2" data-name="Path 160"/>
                        <path id="Path_161" d="M724.281 3165.683q-.39 1.11-1.074 2.6l-.672 1.428v17.518h-1.355v-14.82a27.155 27.155 0 0 1-2.7 3.955l-.756-1.354a34.673 34.673 0 0 0 5.286-9.8zm15.551 11.181h-7.324v8.52h6.7v1.269H724.3v-1.269h6.848v-8.52h-7.446v-1.306h7.446v-8.35h-6.225v-1.27h13.806v1.27h-6.226v8.35h7.324z" class="cls-2" data-name="Path 161"/>
                        <path id="Path_162" d="M762.711 3173.458a10.853 10.853 0 0 1-1.953 5.75l-.952-.9a10.494 10.494 0 0 0 1.5-3.6h-2.331v10.974a1.721 1.721 0 0 1-.4 1.019q-.4.532-2.02.532a8.334 8.334 0 0 1-1.148-.074l-.732-1.342q1.586.122 2.477.122a.614.614 0 0 0 .391-.183.507.507 0 0 0 .208-.367v-9.021a30.158 30.158 0 0 1-3.8 7.165l-.855-1a28.933 28.933 0 0 0 3.98-7.825H753.2v-1.245h5.53a20.507 20.507 0 0 0-3.844-3.369l.915-.83q.891.61 2.259 1.746a22.932 22.932 0 0 0 2.746-3.773h-6.726v-1.245h8.154v1.245a27.275 27.275 0 0 1-3.21 4.6l.855.951-.77.672zm10.742 5.725a35.792 35.792 0 0 1-.4 4.6 7.093 7.093 0 0 1-.666 2.478 3.18 3.18 0 0 1-.842.739 8.5 8.5 0 0 1-3.217.226l-.6-1.343c.511.041 1.069.061 1.671.061a5.359 5.359 0 0 0 1.63-.134.961.961 0 0 0 .409-.4 7.1 7.1 0 0 0 .342-1.654q.2-1.392.354-3.332h-4.174q-1.05 4.821-6.2 6.884l-.952-1.025a9.146 9.146 0 0 0 3.735-2.277 7.436 7.436 0 0 0 2.136-3.582h-3.967v-1.246h4.272a16.261 16.261 0 0 0 .22-2.5l1.258.048a19.23 19.23 0 0 1-.208 2.454zm1.477-3.028l-.72 1.123a17.611 17.611 0 0 1-5.384-2.673 18.908 18.908 0 0 1-4.8 2.624l-.879-1.074a15.6 15.6 0 0 0 4.651-2.367 13.722 13.722 0 0 1-2.246-2.783l1.1-.623a10.433 10.433 0 0 0 2.123 2.6 9.449 9.449 0 0 0 2.65-4.027h-5.345a18.7 18.7 0 0 1-2.93 3.076l-.964-.891a17.827 17.827 0 0 0 4.7-5.884l1.245.476a15.515 15.515 0 0 1-1.172 1.977h7.593v1.246h-1.771a11.723 11.723 0 0 1-2.953 4.809 16.238 16.238 0 0 0 5.102 2.391z" class="cls-2" data-name="Path 162"/>
                    </g>
                </g>
                <path id="Line_31" fill="none" stroke="#693" stroke-miterlimit="10" stroke-width="0.75px" d="M0 21L56 0" data-name="Line 31" transform="translate(788.181 3166.309)"/>
            </g>
        </g>
        <g id="Group_217" data-name="Group 217">
            <g id="Group_216" data-name="Group 216">
                <path id="Path_163" d="M1002.78 3106.493a20.1 20.1 0 0 1-6.585 7.318l-2.718-3.032a16.27 16.27 0 0 0 7-11.917h-7.735v-12.544h12.439v11.5a18.139 18.139 0 0 1-2.401 8.675zm20.071 0a22.161 22.161 0 0 1-6.586 7.318l-2.822-3.032a16.275 16.275 0 0 0 7-11.917h-7.631v-12.544h12.439v11.5a18.14 18.14 0 0 1-2.4 8.675z" class="cls-2" data-name="Path 163"/>
            </g>
        </g>
    </g>
</svg>
