<svg xmlns="http://www.w3.org/2000/svg" id="Component_113_1" width="349" height="311.501" data-name="Component 113 – 1" viewBox="0 0 349 311.501">
    <defs>
        <style>
            .cls-1{fill:#f99}.cls-3{fill:#333}
        </style>
    </defs>
    <g id="Group_235" data-name="Group 235" transform="translate(-728.726 -4376.166)">
        <g id="Group_231" data-name="Group 231">
            <g id="Group_230" data-name="Group 230">
                <path id="Path_197" d="M955.318 4376.166v9.57h-35.732l-5.032 27.42a42.453 42.453 0 0 1 11.813-1.922q13.727 0 22.638 9.194t8.911 23.551a36.914 36.914 0 0 1-4.58 18.183 31.973 31.973 0 0 1-12.407 12.68 36.217 36.217 0 0 1-18.081 4.41q-12.238 0-20.645-7.486a30.647 30.647 0 0 1-10.049-19.379h10.323a22.661 22.661 0 0 0 3.93 9.433 20 20 0 0 0 7.383 5.844 22.018 22.018 0 0 0 9.673 2.223 22.628 22.628 0 0 0 17.021-7.51q7.11-7.506 7.11-18.773 0-10.17-6.426-16.52t-17.158-6.348q-8.887 0-21.533 5.4l9.3-49.971z" class="cls-1" data-name="Path 197"/>
            </g>
        </g>
        <g id="Group_234" data-name="Group 234">
            <g id="Group_233" data-name="Group 233">
                <g id="Group_232" data-name="Group 232">
                    <path id="Path_198" d="M751.027 4426.039l-.573 1.27a24.829 24.829 0 0 1-8.118-3.967 25.7 25.7 0 0 1-8.2 4.2l-.8-1.221a23.578 23.578 0 0 0 8.031-3.857 13.843 13.843 0 0 1-4.577-7.094 29.834 29.834 0 0 1-6.653 11.244l-.928-.976a28.433 28.433 0 0 0 7.532-15.8h-7.506v-1.307h7.7q.281-1.584.4-3.2h1.379q-.121 1.353-.4 3.2h12.616v1.307H738.1q-.33 1.808-.915 4.127h10.546v1.342a21.127 21.127 0 0 1-4.382 7.129 21.572 21.572 0 0 0 7.678 3.603zm-4.821-10.73h-8.13a13.515 13.515 0 0 0 4.285 6.275 17.751 17.751 0 0 0 3.845-6.275z" class="cls-1" data-name="Path 198"/>
                    <path id="Path_199" d="M785.881 4419.545h-21.654v-1.232h6.054a9.924 9.924 0 0 0-1.551-1.979l.806-.744h-5.127v-1.123h10.023v-2.076h-8.8v-1.147h8.8v-1.855h-9.424v-1.172h20.153v1.172h-9.436v1.855h8.8v1.147h-8.8v2.076h10.035v1.123h-5.274l.915.879q-.366.547-1.318 1.844h5.8zm-2.5 7.85h-1.245v-1.186h-14.15v1.186h-1.306v-6.129h16.7zm-1.245-2.381v-2.528h-14.15v2.528zm-9.8-17.92l-1.2.574a9.415 9.415 0 0 0-1.83-1.758l1.2-.623a6.9 6.9 0 0 1 1.826 1.807zm7.946 8.5h-10.428a18.943 18.943 0 0 1 2.026 2.723h6.53a16.692 16.692 0 0 0 1.868-2.727zm.452-9.729a8.144 8.144 0 0 1-2.1 1.83l-1.331-.683a8.356 8.356 0 0 0 2.282-1.77z" class="cls-1" data-name="Path 199"/>
                    <path id="Path_200" d="M806.855 4411.184a25.7 25.7 0 0 1-2.429 3.429v12.787h-1.293v-11.256a35.745 35.745 0 0 1-3.248 3l-.684-1.026a28.941 28.941 0 0 0 6.556-7.654zm-.574-4.969a23.158 23.158 0 0 1-6.273 5.2l-.758-1.025a21.633 21.633 0 0 0 5.957-4.981zm14.723 8h-3.943v11.107a1.86 1.86 0 0 1-.421 1.287 1.714 1.714 0 0 1-.958.575 14.336 14.336 0 0 1-2.161.1c-.928 0-1.677-.015-2.247-.049l-.524-1.341q1.06.046 2.233.048a15.309 15.309 0 0 0 2.429-.091.407.407 0 0 0 .244-.434v-11.205h-8.8v-1.318H821zm-1.221-6.324h-11.878v-1.319h11.878z" class="cls-1" data-name="Path 200"/>
                    <path id="Path_201" d="M846.226 4406.545a30.785 30.785 0 0 1-5.042.914v1.953h4.968v1.2h-4.968v1.83h4.566v7.276h-4.566v1.771h4.566v1.184h-4.566v2.514q2.185-.182 4.566-.573v1.233q-6.726.879-11.365 1.367l-.3-1.27q2.733-.207 5.871-.574v-2.7h-4.627v-1.184h4.627v-1.771h-4.59v-7.276h4.59v-1.83h-5.469v-1.2h5.469v-1.769q-2.076.169-4.627.171l-.414-1.148a41.548 41.548 0 0 0 10.645-1.172zm-6.275 8.873v-1.732h-3.32v1.732zm0 3.1v-1.9h-3.32v1.9zm4.553-3.1v-1.732h-3.32v1.732zm0 3.1v-1.9h-3.32v1.9zm10.351-8.106q0 5.529-.176 10.039a33 33 0 0 1-.427 5.281 2.121 2.121 0 0 1-.9 1.178 5.136 5.136 0 0 1-2.472.408c-.334 0-.631-.011-.892-.037l-.426-1.293c.927.031 1.732.049 2.416.049a1.228 1.228 0 0 0 .855-.353 1.626 1.626 0 0 0 .427-1.123l.231-4.811q.173-4.039.172-8.094h-2.625a32.47 32.47 0 0 1-3.808 15.809l-1.123-.549q3.54-6.043 3.7-15.26l-2.674.026v-1.246l2.723-.024.085-4.894h1.245q-.05 3.05-.122 4.894z" class="cls-1" data-name="Path 201"/>
                    <path id="Path_202" d="M735.281 4455.311q-.39 1.11-1.074 2.6l-.672 1.428v17.517h-1.355v-14.818a27.265 27.265 0 0 1-2.7 3.955l-.756-1.355a34.645 34.645 0 0 0 5.286-9.8zm15.551 11.181h-7.324v8.52h6.7v1.269H735.3v-1.269h6.848v-8.52h-7.446v-1.306h7.446v-8.35h-6.225v-1.27h13.806v1.27h-6.226v8.35h7.324z" class="cls-1" data-name="Path 202"/>
                    <path id="Path_203" d="M773.711 4463.086a10.851 10.851 0 0 1-1.953 5.75l-.952-.9a10.491 10.491 0 0 0 1.5-3.6h-2.331v10.973a1.722 1.722 0 0 1-.4 1.019c-.265.356-.938.531-2.02.531a8.35 8.35 0 0 1-1.148-.072l-.732-1.344q1.586.123 2.477.124a.616.616 0 0 0 .391-.184.507.507 0 0 0 .208-.367v-9.02a30.188 30.188 0 0 1-3.8 7.164l-.855-1a28.921 28.921 0 0 0 3.98-7.824H764.2v-1.246h5.53a20.6 20.6 0 0 0-3.844-3.369l.915-.83q.891.612 2.259 1.746a23 23 0 0 0 2.746-3.772h-6.726v-1.246h8.154v1.246a27.26 27.26 0 0 1-3.21 4.6l.855.951-.77.672zm10.742 5.725a35.812 35.812 0 0 1-.4 4.6 7.091 7.091 0 0 1-.666 2.477 3.209 3.209 0 0 1-.842.74 8.493 8.493 0 0 1-3.217.224l-.6-1.341c.511.041 1.069.06 1.671.06a5.307 5.307 0 0 0 1.63-.135.945.945 0 0 0 .409-.4 7.078 7.078 0 0 0 .342-1.654q.2-1.392.354-3.332h-4.174q-1.05 4.821-6.2 6.884l-.952-1.025a9.135 9.135 0 0 0 3.735-2.277 7.437 7.437 0 0 0 2.136-3.582h-3.967v-1.246h4.272a16.248 16.248 0 0 0 .22-2.5l1.258.048a19.21 19.21 0 0 1-.208 2.454zm1.477-3.028l-.72 1.123a17.586 17.586 0 0 1-5.384-2.672 18.919 18.919 0 0 1-4.8 2.623l-.879-1.074a15.581 15.581 0 0 0 4.651-2.367 13.715 13.715 0 0 1-2.246-2.783l1.1-.623a10.426 10.426 0 0 0 2.123 2.6 9.449 9.449 0 0 0 2.65-4.027h-5.345a18.619 18.619 0 0 1-2.93 3.076l-.964-.89a17.822 17.822 0 0 0 4.7-5.885l1.245.476a15.431 15.431 0 0 1-1.172 1.977h7.593v1.246h-1.771a11.717 11.717 0 0 1-2.953 4.809 16.244 16.244 0 0 0 5.102 2.391z" class="cls-1" data-name="Path 203"/>
                </g>
            </g>
            <path id="Line_33" fill="none" stroke="#f99" stroke-miterlimit="10" stroke-width="0.75px" d="M0 21L56 0" data-name="Line 33" transform="translate(799.181 4455.937)"/>
        </g>
    </g>
    <g id="Group_237" data-name="Group 237" transform="translate(-728.726 -4376.166)">
        <g id="Group_236" data-name="Group 236">
            <path id="Path_204" d="M1011.78 4396.493a20.1 20.1 0 0 1-6.585 7.318l-2.718-3.032a16.27 16.27 0 0 0 7-11.917h-7.735v-12.544h12.439v11.5a18.14 18.14 0 0 1-2.401 8.675zm20.071 0a22.159 22.159 0 0 1-6.586 7.318l-2.822-3.032a16.274 16.274 0 0 0 7-11.917h-7.631v-12.544h12.439v11.5a18.14 18.14 0 0 1-2.4 8.675z" class="cls-1" data-name="Path 204"/>
        </g>
    </g>
    <g id="Group_228" data-name="Group 228" transform="translate(-.174 .466)">
        <path id="Path_185" d="M46.974 214.434h-44.6v-1.9h7.9v-9.5h-6.9v-1.9h6.9v-6.6h2.1v6.6h7.2v-6.6h2.1v6.6h7.2v-6.6h2.1v6.6h7.2v-6.6h2.1v6.6h6v1.9h-6v9.5h6.8zm-35.2 3.7a53.79 53.79 0 0 1-7.7 10.7l-1.7-1.4a47.363 47.363 0 0 0 7.7-10.5zm33.5-26.1h-35.2a67.948 67.948 0 0 1-5.7 5l-1.5-1.6a54.98 54.98 0 0 0 11.5-11.6l2.2.8c-1.5 1.9-3 3.8-4.7 5.6h33.4zm-25.7 20.5v-9.5h-7.2v9.5zm1.9 15.8l-2.2.5a68.494 68.494 0 0 0-2.4-11.1l2-.6a82.886 82.886 0 0 1 2.6 11.2zm7.3-15.8v-9.5h-7.2v9.5zm5.4 15.7l-2 .8a51.889 51.889 0 0 0-4.4-11.3l2-.7a51.125 51.125 0 0 1 4.4 11.2zm3.9-15.7v-9.5h-7.2v9.5zm8.8 15.4l-1.8 1a46.417 46.417 0 0 0-6-11.2l1.8-1a46.417 46.417 0 0 1 6 11.2z" class="cls-3" data-name="Path 185"/>
        <path id="Path_186" d="M67.174 199.834c3.4 2.7 5.1 7 5.2 12.6 0 3.9-2.2 5.9-6.5 5.9h-2.2l-.7-2.1c1 .1 2 .2 2.9.2a4.808 4.808 0 0 0 3.3-1c.8-.7 1.1-2 1.1-3.8a13.343 13.343 0 0 0-5.4-11.3 101.384 101.384 0 0 0 4.8-13h-8v41.4h-2.1v-43.4h12.2v1.9a73.284 73.284 0 0 1-4.6 12.6zm35.3 21.4h-14.1v7.3h-2.1v-7.3h-14.1v-1.8h14.1v-4.1h-10.7v-13.4h23.8v13.4h-11.1v4.1h14.1zm-.1-23.1h-30v-1.9h9.1a32 32 0 0 0-2.6-6h-4.7v-1.8h12.4a22.388 22.388 0 0 0-2.2-4l2-.8a41.56 41.56 0 0 1 2.4 4.7h12.5v1.8h-5.4a39.865 39.865 0 0 1-2.5 6h9zm-5 9.5v-3.9h-19.7v3.9zm0 5.8v-4h-19.7v4zm-3.5-23.2h-12.8a45.3 45.3 0 0 1 2.6 6h7.6a26.579 26.579 0 0 0 2.6-6z" class="cls-3" data-name="Path 186"/>
        <path id="Path_187" d="M128.374 188.634h-5.6a111.1 111.1 0 0 1-3.6 12.5h7.6v21.9h-2v-2.5h-5v3.8h-2v-20a36.6 36.6 0 0 1-3.6 6l-1.4-1.6c3.8-5.1 6.4-11.8 8-20h-7.1v-1.9h14.7zm-3.6 30v-15.6h-5v15.6zm16.8-5.1h-5.2a10.08 10.08 0 0 1-.5 2.5q4.2 4.05 4.8 4.8l-1.6 1.6a31.558 31.558 0 0 0-3.8-4.4 25.286 25.286 0 0 1-8.6 10.8l-1.5-1.4c5.3-4 8.3-8.6 9.2-14h-5.4v-1.9h5.6a38.538 38.538 0 0 0 .2-4.8v-1.8h-2.7a13.306 13.306 0 0 1-2.3 3.8l-1.7-1.1a22.76 22.76 0 0 0 3.8-8.2l1.8.6c-.3 1-.6 2.1-.9 3h8.3v1.9h-4.4a63.838 63.838 0 0 1-.3 6.6h5zm1.2-15.5h-8.7a2.989 2.989 0 0 1-2.5-1 3.84 3.84 0 0 1-.9-2.5v-10.4h2.1v3.8h9.5v1.9h-9.5v4.7c0 1.1.6 1.6 1.8 1.6h8.3zm15.8 28l-.5 2-2.1.1a15.556 15.556 0 0 1-7.6-1.6 12.413 12.413 0 0 1-4.5-4.6 24.373 24.373 0 0 1-3.7 6.7l-1.7-1.1c3.4-4.3 5.1-9.9 5.1-16.7l-.1-3.4h2l.1 2.9a42.031 42.031 0 0 1-1 9.3 13.837 13.837 0 0 0 4.3 5v-22.4h-5.9v-1.8h8.6a38.6 38.6 0 0 0-7.4-7.7l1.3-1.4a22.508 22.508 0 0 1 3.7 3.1 55.979 55.979 0 0 0 6-6.9h-10.9v-1.9h13.1v2.1a49.767 49.767 0 0 1-7 8.2c.3.3.7.8 1.4 1.5a13.272 13.272 0 0 1 1.4 1.7l-1.3 1.4h6.5a33.088 33.088 0 0 1-2.4 8.7l-2-.8a21.838 21.838 0 0 0 2-6.1h-5.2v9.8h5v1.9h-5v11.5a14.718 14.718 0 0 0 5.1.8z" class="cls-3" data-name="Path 187"/>
        <path id="Path_188" d="M187.174 191.234h-18.1v-1.9h8a15.663 15.663 0 0 0-2.1-5l2.1-.8a24.2 24.2 0 0 1 2.3 5.8h7.7zm-1.9 7.4h-15.1v-1.9h15.1zm0 7.6h-15.1v-1.9h15.1zm-.6 21.4h-2.1v-3h-9.9v3.9h-2.1v-16.6h14v15.7zm-2.1-4.9v-8.8h-9.9v8.8zm31.7 4.2l-1.3 1.8c-6-1.7-10.5-3.7-13.5-6.1a52.067 52.067 0 0 1-12.5 6.2l-1.4-1.6a37.788 37.788 0 0 0 12.3-5.9c-3-2.8-5.5-7.2-7.6-13.3h-2.1v-1.9h21v1.9a24.482 24.482 0 0 1-8.2 13.3 36.5 36.5 0 0 0 13.3 5.6zm-.8-25h-4.9c-2.3 0-3.5-1.1-3.5-3.4v-11.3h-9.7c0 4.5-.6 7.8-1.7 10.1a22.507 22.507 0 0 1-5.1 6.4l-1.6-1.5a19.315 19.315 0 0 0 5.2-6.8c.8-2.2 1.2-5.5 1.2-10.1h13.8v13.3c0 1 .4 1.5 1.3 1.5h5zm-6.2 6.1h-14.8q2.7 7.95 7.2 12a21.339 21.339 0 0 0 7.6-12z" class="cls-3" data-name="Path 188"/>
        <path id="Path_189" d="M243.074 193.234h-11.1c0 3-.1 5.8-.2 8.6h9.5c-.4 14.9-.9 23.1-1.7 24.6s-2.7 2.2-5.9 2.2a12.749 12.749 0 0 1-2-.1l-.7-1.9h2.3a11.074 11.074 0 0 0 3.6-.4 3.036 3.036 0 0 0 1.2-1.3 51.6 51.6 0 0 0 .8-7.8c.3-4.7.5-9.1.5-13.4h-7.5c-.4 10.1-2.2 18.4-5.2 24.8l-1.6-1.3q5.1-10.65 5.1-29.1l-.1-5h-5.3v-2h9.2a30.369 30.369 0 0 0-2.3-6.6l2-.7a62.821 62.821 0 0 1 2.5 7.3h7zm26.8-.6h-20.3a78.446 78.446 0 0 1-6.6 8.6l-1.5-1.6a57.164 57.164 0 0 0 10.6-16l2.1.4a51.414 51.414 0 0 1-3.4 6.6h19.1zm-.7 27.6a15.2 15.2 0 0 1-1.2 5.2 3.667 3.667 0 0 1-2.4 2.3 67.923 67.923 0 0 1-7.8.4 66 66 0 0 1-7.7-.2 3.746 3.746 0 0 1-2-1.2 3.84 3.84 0 0 1-.9-2.5v-16.7l-3.8 1.1-.6-1.8 4.4-1.2v-6.8h2.1v6.2l7-2v-8.1h2.1v7.5l9.3-2.7q-.45 10.65-3 17.4l-1.8-.8a55.85 55.85 0 0 0 2.7-14.1l-7.2 2.1v16.6h-2.1v-16l-7 2v17.5a1.491 1.491 0 0 0 .9 1.5c.6.2 3.9.4 9.9.4a19.891 19.891 0 0 0 4.9-.3 2.942 2.942 0 0 0 1.5-1.6 16.458 16.458 0 0 0 1-4.9z" class="cls-3" data-name="Path 189"/>
        <path id="Path_190" d="M47.174 299.934a47.066 47.066 0 0 1-1.9 6.4c-.8 2.2-1.6 3.4-2.3 3.8a4.552 4.552 0 0 1-2 .5c-1.5 0-3.1-1-4.8-3.1a24.447 24.447 0 0 1-3.9-7.3 42.227 42.227 0 0 1-11.1 6.9l-1.1-1.7a37.974 37.974 0 0 0 11.6-7.3 68.818 68.818 0 0 1-2.2-16.3h-12.9v10c3.5-.9 6.7-1.8 9.9-2.8v2q-5.7 1.65-9.9 2.7v13.8a2.8 2.8 0 0 1-1.1 2.2 3.777 3.777 0 0 1-2.4.9h-6.8l-.6-2.1c1.3.1 3.6.1 7.1.1 1.1 0 1.7-.5 1.7-1.6v-12.7c-4 1-7.8 1.7-11.5 2.3l-.5-2a98.986 98.986 0 0 0 12.1-2.2v-10.6h-12.4v-1.9h12.4v-8.8c-3.5.7-7 1.2-10.6 1.6l-.7-2a94.123 94.123 0 0 0 22.2-4.5l.8 1.9c-3.1 1-6.3 1.9-9.5 2.6v9.3h12.8c-.1-2-.1-6.7-.1-14.1h2.1l-.1 8.5.1 5.6h15.7v1.9h-15.6a80.911 80.911 0 0 0 1.8 14.7 46.38 46.38 0 0 0 7.7-11l1.7 1.1a52.273 52.273 0 0 1-8.8 12 25.786 25.786 0 0 0 2.3 5.4 14.6 14.6 0 0 0 2.6 3.4 3.456 3.456 0 0 0 2.1 1 1.274 1.274 0 0 0 1.1-.5 11.4 11.4 0 0 0 1.5-3.4 29.351 29.351 0 0 0 1.6-5.8zm-2.9-24l-1.6 1.2a33.968 33.968 0 0 0-6.7-8.4l1.5-1.2a36.349 36.349 0 0 1 6.8 8.4z" class="cls-3" data-name="Path 190"/>
        <path id="Path_191" d="M75.274 308.734a17.8 17.8 0 0 1-9.5-2.5 15.775 15.775 0 0 1-6.3-7 22.743 22.743 0 0 1-2.2-10.3 23.6 23.6 0 0 1 2.3-10.8 16.4 16.4 0 0 1 6.6-7.2 18.959 18.959 0 0 1 9.9-2.5 16.794 16.794 0 0 1 9.2 2.5 16.477 16.477 0 0 1 6.2 6.9 22.193 22.193 0 0 1 2.2 10.1 25.627 25.627 0 0 1-2.2 10.9 17.385 17.385 0 0 1-6.4 7.3 19.676 19.676 0 0 1-9.8 2.6zm.3-37.8a14.491 14.491 0 0 0-13.5 8.5 20.815 20.815 0 0 0-1.9 9.2 22.219 22.219 0 0 0 1.8 9.2 13.86 13.86 0 0 0 13.3 8.2c4.8 0 8.6-1.6 11.4-4.7s4.1-7.5 4.1-13c0-5.4-1.4-9.6-4.1-12.7s-6.4-4.7-11.1-4.7z" class="cls-3" data-name="Path 191"/>
        <path id="Path_192" d="M125.774 308.034l-16.5-18.6-.7-.9h-.1v19.5h-2.8v-38.9h2.8v18.3h.1a3.592 3.592 0 0 1 .7-1l15.7-17.4h3.6l-17 18.9 18.1 20h-3.9z" class="cls-3" data-name="Path 192"/>
        <path id="Path_193" d="M159.474 292.534a2.845 2.845 0 0 1-1.8-2.4 2.452 2.452 0 0 1 .6-1.6 2.239 2.239 0 0 1 1.7-.6 2.136 2.136 0 0 1 1.7.8 4.282 4.282 0 0 1 .6 2.2c0 1.7-1 3.3-2.9 4.8l-1-.9a3.36 3.36 0 0 0 1.1-2.3z" class="cls-3" data-name="Path 193"/>
        <path id="Path_195" d="M293.374 299.234c-.4 4.2-.9 6.9-1.7 8.1a4.553 4.553 0 0 1-3 2.2 29.2 29.2 0 0 1-5.9.3 40.152 40.152 0 0 1-4.9-.2 2.7 2.7 0 0 1-1.7-1 3.691 3.691 0 0 1-.7-2.3v-18.3h-10c-.1 5.6-1.3 10.2-3.8 13.7q-3.6 5.25-11.7 8.7l-1.1-1.8c5-1.9 8.7-4.5 11-7.8s3.5-7.5 3.6-12.8h-14.3v-2h20.9v-10h-12.1a48.662 48.662 0 0 1-5.8 7.1l-1.6-1.3a47.7 47.7 0 0 0 10.2-15.3l1.9.7a61.6 61.6 0 0 1-3.4 6.8h10.9v-8.5h2.1v8.5h18.5v2h-18.5v10h20.7v2h-15.3v17.8a1.75 1.75 0 0 0 .4 1.2 1.442 1.442 0 0 0 1.1.7c.4 0 1.6.1 3.6.1a33.732 33.732 0 0 0 5.5-.2 2.43 2.43 0 0 0 1.4-.9 6.437 6.437 0 0 0 1.1-2.7 34.5 34.5 0 0 0 .7-5.5z" class="cls-3" data-name="Path 195"/>
        <path id="Path_196" d="M319.974 273.034h-15.3v-1.9h7a15.663 15.663 0 0 0-2.1-5l2.1-.8a24.2 24.2 0 0 1 2.3 5.8h6zm-1.2 7.4h-12.8v-1.9h12.8zm0 7.6h-12.8v-1.9h12.8zm-.6 21.4h-2.1v-3h-7.6v3.9h-2.1v-16.5h11.7v15.6zm-2-4.9v-8.8h-7.6v8.8zm29.3 2.2c0 2.4-1.5 3.6-4.6 3.6h-4.4l-.7-2c1.2.1 2.7.1 4.5.1a5.242 5.242 0 0 0 2.5-.3 1.371 1.371 0 0 0 .6-1.3v-4.8h-17.4a16.029 16.029 0 0 1-5.3 9l-1.5-1.4c3.6-3 5.4-7.5 5.4-13.6v-8.1h20.9zm3.7-23h-28.3v-1.8h13.1v-4.3h-10.1v-1.8h10.1v-4.1h-12v-1.8h12v-4.1h2.1v4.1h12v1.8h-12v4.1h10.1v1.8h-10.1v4.3h13.1zm-5.7 16.6v-4.4h-16.8a31.451 31.451 0 0 1-.3 4.4zm0-6.3v-4.4h-16.8v4.4z" class="cls-3" data-name="Path 196"/>
        <g id="Group_361" data-name="Group 361">
            <path id="Path_485" d="M206.474 266.234a84.47 84.47 0 0 1-3.7 8.8v35.4h-2.1v-31.6a47.892 47.892 0 0 1-6.7 9l-1.2-1.7a52.685 52.685 0 0 0 11.6-20.6zm30 6.4a71.138 71.138 0 0 1-4 12.3l-2-.6a66.473 66.473 0 0 0 3.3-9.8h-19.4a48.251 48.251 0 0 1-7.6 11.4l-1.3-1.6q6.3-6.6 10.2-18.6l1.9.6a48.775 48.775 0 0 1-2.3 6.4h21.2zm-20.3 14.6c-2.5 7.4-5.3 13.2-8.3 17.4l-1.8-1.2a56.635 56.635 0 0 0 8.2-16.9zm6.9 19.8a3.18 3.18 0 0 1-.9 2.5q-.9.9-3.6.9h-4.3l-.8-2 5.2.1c1.6 0 2.3-.5 2.3-1.5v-28.1h2.1zm15.1-3.4l-2 1a91.719 91.719 0 0 0-8.3-16.9l1.7-.9a90.273 90.273 0 0 1 8.6 16.8z" class="cls-3" data-name="Path 485"/>
        </g>
    </g>
</svg>
