<svg xmlns="http://www.w3.org/2000/svg" width="441" height="361.633" viewBox="0 0 441 361.633">
    <g id="prefix__Group_49" data-name="Group 49" transform="translate(-716.48 -3046.094)">
        <g id="prefix__A3b">
            <text id="prefix__別擔心_需要幫助有我在_" fill="#333" data-name="別擔心， 需要幫助有我在！" font-family="MicrosoftJhengHeiLight, Microsoft JhengHei" font-size="51.446px" letter-spacing="0.08em" transform="translate(716.48 3312.727)">
                <tspan x="0" y="0">別擔心，</tspan><tspan x="0" y="81.818">需要幫助有我在！</tspan>
            </text>
        </g>
        <g id="prefix__A3N">
            <g id="prefix__Group_46" data-name="Group 46">
                <text id="prefix___3" fill="#693" data-name="3" font-family="CenturyGothic, Century Gothic" font-size="140px" letter-spacing="0.08em" transform="translate(875.48 3187.094)">
                    <tspan x="0" y="0">3</tspan>
                </text>
                <g id="prefix__Group_45" data-name="Group 45">
                    <text id="prefix__友善行動_任務" fill="#693" data-name="友善行動 任務" font-family="MicrosoftJhengHeiRegular, Microsoft JhengHei" font-size="25px" letter-spacing="0.4em" transform="translate(716.48 3136.41)">
                        <tspan x="0" y="0">友善行動</tspan><tspan x="0" y="49.548">任務</tspan>
                    </text>
                    <path id="prefix__Line_9" fill="none" stroke="#693" stroke-miterlimit="10" stroke-width="0.75px" d="M0 21L56 0" data-name="Line 9" transform="translate(788.181 3166.309)"/>
                </g>
            </g>
            <g id="prefix__Group_48" data-name="Group 48">
                <g id="prefix__Group_47" data-name="Group 47">
                    <path id="prefix__Path_44" fill="#693" d="M1002.78 3106.493a20.1 20.1 0 0 1-6.585 7.318l-2.718-3.032a16.27 16.27 0 0 0 7-11.917h-7.735v-12.544h12.439v11.5a18.139 18.139 0 0 1-2.401 8.675zm20.071 0a22.161 22.161 0 0 1-6.586 7.318l-2.822-3.032a16.275 16.275 0 0 0 7-11.917h-7.631v-12.544h12.439v11.5a18.14 18.14 0 0 1-2.4 8.675z" data-name="Path 44"/>
                </g>
            </g>
        </g>
    </g>
</svg>
