<svg xmlns="http://www.w3.org/2000/svg" width="490.175" height="231.708" viewBox="0 0 490.175 231.708">
    <defs>
        <style>
            .cls-1{fill:#333}.cls-2{fill:#fc3}.cls-3{fill:#fc0}
        </style>
    </defs>
    <g id="Symbol_95_1" data-name="Symbol 95 – 1" transform="translate(-127 -2483) translate(.274 .455)">
        <g id="Group_201" data-name="Group 201">
            <g id="Group_200" data-name="Group 200">
                <path id="Path_127" d="M140.05 2682.451l-2.838 6.279v24.945h-2.061v-21.2a40.741 40.741 0 0 1-5.048 6.657l-1.282-1.609a46.64 46.64 0 0 0 9.471-16.3zm-.376-12.61a45.3 45.3 0 0 1-9.195 13.489l-1.356-1.607a39.991 39.991 0 0 0 8.817-13.013zm6.43 24.291l.025 1.783a38.412 38.412 0 0 1-1.1 10.463 20.555 20.555 0 0 1-3.291 6.594l-1.859-1.256a15.322 15.322 0 0 0 3.316-6.669 52.75 52.75 0 0 0 .854-10.915zm11.832-3.643h-16.454v-1.909h16.454zm-.93-6.531h-14.494V2671.7h2.06v10.35h4.17v-12.912h2.06v12.912h4.17v-10.35h2.034zm2.789 19.744a87.028 87.028 0 0 1-7.913 5.7l-1.307-1.682a2.946 2.946 0 0 0 .779-2.06v-11.48h2.06v11.781q2.312-1.407 5.6-3.868zm14.469 8.541l-1.457 1.633a22.575 22.575 0 0 1-7.26-7.813 29.979 29.979 0 0 1-7.762 7.763l-1.532-1.382a27.134 27.134 0 0 0 8.214-8.541 49.248 49.248 0 0 1-3.442-13.941l2.01-.553a44.637 44.637 0 0 0 2.688 12.234q3.442-7.059 3.441-22.131h-5.351a35.3 35.3 0 0 1-3.617 8.691l-1.682-1.181q3.994-6.656 5.149-18.162l2.06.578a77.943 77.943 0 0 1-1.407 8.19h9.32v1.884h-2.362q-.1 16.73-4.47 24.492a22.6 22.6 0 0 0 7.46 8.239z" class="cls-1" data-name="Path 127"/>
                <path id="Path_128" d="M229.6 2712.294l-1.131 1.959q-15.951-5.4-21.4-16.529h-.6q-3.342 12.108-21.453 16.152l-.779-1.984q16.605-3.216 20.122-14.168h-18.74v-1.884h19.242a45.453 45.453 0 0 0 .628-6.482q-4.848.328-9.9.328-3.092 0-6.306-.126l-.577-2.01 5.426.076a151.526 151.526 0 0 0 30.5-2.813l.552 1.909a163.334 163.334 0 0 1-17.584 2.461 47.584 47.584 0 0 1-.729 6.657h21.252v1.884h-19.097q5.149 9.645 20.574 14.57zm-23.965-36.123h-14.194a45.173 45.173 0 0 1-5.5 6.958l-1.457-1.507a37.856 37.856 0 0 0 8.843-13.163l1.758.93a50.777 50.777 0 0 1-2.462 4.873h13.013zm-4.9 7.787l-1.733.9a61.209 61.209 0 0 0-3.341-6.154l1.633-.93a48.619 48.619 0 0 1 3.442 6.184zm28.06-7.787h-17.308a43.762 43.762 0 0 1-6.255 7.511l-1.457-1.432a40.4 40.4 0 0 0 9.722-13.59l1.759.929a50.5 50.5 0 0 1-2.462 4.673h16zm-7.311 6.908l-1.757 1.08a40.989 40.989 0 0 0-3.392-5.5l1.633-1.08a54.528 54.528 0 0 1 3.517 5.5z" class="cls-1" data-name="Path 128"/>
                <path id="Path_129" d="M261.825 2695.84a2.72 2.72 0 0 1-1.759-2.361 2.155 2.155 0 0 1 .6-1.571 2.248 2.248 0 0 1 1.683-.615 2.043 2.043 0 0 1 1.746.791 3.663 3.663 0 0 1 .589 2.224q0 2.511-2.913 4.847l-1-.853a4.524 4.524 0 0 0 1.054-2.462z" class="cls-1" data-name="Path 129"/>
                <path id="Path_130" d="M340.773 2711.113l-.653 1.959h-17.182q-6.732 0-10.764-1.846a21.641 21.641 0 0 1-7.5-5.992 34.122 34.122 0 0 1-7.738 8.492l-1.431-1.432a31.042 31.042 0 0 0 11.1-16.253l1.959.5a31.2 31.2 0 0 1-2.813 6.908q5.125 6.532 12.033 7.361v-17.31h-21.98v-1.935h44.613v1.935h-20.568v7.36h17.91v1.959h-17.91v8.139q1.732.152 5.35.151zm-7.084-24.292h-31.023v-16.5h31.023zm-2.059-9.244v-5.3h-26.9v5.3zm0 7.335v-5.4h-26.9v5.4z" class="cls-1" data-name="Path 130"/>
                <path id="Path_131" d="M395.935 2689.761h-23.312v23.914h-2.061v-5.9q-12.686 2.136-18.965 2.614l-.577-1.734 4.571-.477v-18.413h-4.22V2688h44.564zm-25.373 4.32v-4.32h-12.911v4.32zm0 6.079v-4.32h-12.911v4.32zm0 5.8v-4.069h-12.911v6.029q6.379-.876 12.911-1.957zm18.49-20.874h-2.061v-12.912h-26.652v12.912h-2.06v-14.671h30.773zm-5.528-7.26H363.78v-1.759h19.744zm0 5.651H363.78v-1.757h19.744zm12.511 28.663l-1.332 1.632a33.587 33.587 0 0 1-9.47-5.4 28.314 28.314 0 0 1-9.772 5.4l-1.231-1.481a27.057 27.057 0 0 0 9.622-5.15 28.382 28.382 0 0 1-7.612-11.48h-1.306v-1.733h18.488a24.912 24.912 0 0 1-6.908 13.213 31.336 31.336 0 0 0 9.521 5.002zm-5-16.479H378.3a24.527 24.527 0 0 0 6.883 10.3 19.76 19.76 0 0 0 5.853-10.297z" class="cls-1" data-name="Path 131"/>
                <path id="Path_132" d="M427.1 2679.838q-2.111.428-3.241.553-.728 13.59-4.47 21a74.263 74.263 0 0 1 7.41 6.782l-1.331 1.658a79.869 79.869 0 0 0-7.06-6.657 31.689 31.689 0 0 1-10.45 10.651l-1.231-1.633a27.571 27.571 0 0 0 10.1-10.3q-4.095-3.216-7.737-5.6a123.5 123.5 0 0 0 3.291-14.394l-5.276.5-.377-1.808 5.929-.5q.9-5.6 1.381-11.38l2.061.377q-.4 4.6-1.282 10.751 3.543-.4 7.084-.929l.176-5h2.034l-.15 4.622a30.022 30.022 0 0 0 3.14-.5zm-5.3.854l-7.31.98a115.748 115.748 0 0 1-3.065 13.942q2.838 1.833 6.305 4.5 3.37-7.114 4.07-19.422zm29.742 11.079h-11.53v18.162a3.475 3.475 0 0 1-.754 2.323 3.408 3.408 0 0 1-1.771 1.155 17.22 17.22 0 0 1-3.7.264q-2.136 0-3.844-.1l-.778-2.06q2.337.227 4.823.226a7.583 7.583 0 0 0 3.341-.428 1.5 1.5 0 0 0 .628-1.331v-18.211h-12.712v-1.91h12.711v-6.782a56.42 56.42 0 0 0 9.37-10.8H426.4v-1.909h23.287v1.859a52.55 52.55 0 0 1-9.671 11.405v6.229h11.53z" class="cls-1" data-name="Path 132"/>
                <path id="Path_133" d="M479.953 2712.7h-2.059v-4.47h-11.782v5.45h-2.059v-36.1h4.772a48.08 48.08 0 0 0 3.718-9.068l2.01.679a78.942 78.942 0 0 1-3.467 8.389h8.867zm-2.059-21.351v-11.882h-11.782v11.882zm0 14.971v-13.062h-11.782v13.062zm27.632-28.537q-.2 11.2-1.081 21.453t-1.457 11.379a7.086 7.086 0 0 1-1.682 2.1q-1.107.968-6.18.967l-3.291-.1-.678-1.96 3.191.075q4.47 0 5.488-.564a3.558 3.558 0 0 0 1.532-2.123q.516-1.557 1.219-10.212t.829-19.053h-13.791a59.784 59.784 0 0 1-6.23 10.525l-1.708-1.533q6.279-7.686 9.571-19.593l2.059.452a67.934 67.934 0 0 1-2.888 8.189zm-9.219 22.834l-1.859 1.282a62.341 62.341 0 0 0-7.31-11.932l1.607-1.232a54.73 54.73 0 0 1 7.562 11.877z" class="cls-1" data-name="Path 133"/>
                <path id="Path_134" d="M533.455 2697.07l-1.555 1.33a42.094 42.094 0 0 0-5.2-6.682v21.955h-1.985v-19.9a65.15 65.15 0 0 1-5.576 6.155l-1.432-1.331q9.219-8.919 12.309-18.514h-11.48v-1.909h13.59v1.909a49.468 49.468 0 0 1-4.7 9.872 47.619 47.619 0 0 1 6.029 7.115zm-4.948-21.15l-1.734 1.029a34.546 34.546 0 0 0-4.27-7.309l1.683-.98a38.965 38.965 0 0 1 4.321 7.26zm34.062 36.475h-29.692v-1.86h9.772a48.95 48.95 0 0 0-2.361-5.7h-3.341v-8.843h22.08v8.843h-3.566a35.537 35.537 0 0 1-2.262 5.7h9.37zm-.477-20.123h-28.285v-1.833h28.285zm-1.432-5.4h-25.521v-13.842h7.887v-3.893h1.959v3.893h5.853v-3.893h1.96v3.893h7.862zm-17.634-7.812v-4.271H537.1v4.271zm0 6.079v-4.321H537.1v4.321zm13.992 17.885v-5.25h-18.062v5.25zm-3.618 1.809h-10.9a51.18 51.18 0 0 1 2.211 5.7h6.28a30.384 30.384 0 0 0 2.409-5.7zm-2.562-25.773v-4.271h-5.853v4.271zm0 6.079v-4.321h-5.853v4.321zm7.863-6.079v-4.271h-5.9v4.271zm0 6.079v-4.321h-5.9v4.321z" class="cls-1" data-name="Path 134"/>
                <path id="Path_135" d="M591.932 2693.4q-3.944 1.86-6.581 2.839v17.484h-2.061v-16.705q-4.747 1.707-9.546 3.089l-.527-1.959q5.777-1.582 10.073-3.19v-13.289h-4.974a63.326 63.326 0 0 1-2.687 9.018l-1.885-.979a49.464 49.464 0 0 0 3.895-16.881l2.059.15q-.252 2.814-.979 6.758h4.571v-10.55h2.061v10.55h5.726v1.934h-5.726v12.46q3.566-1.382 6.581-2.788zm24.969-16.855q0 8.013-.3 15.863t-.766 12.711a27.023 27.023 0 0 1-.917 5.853 4.438 4.438 0 0 1-1.294 1.658 4.99 4.99 0 0 1-2.1.93 60.471 60.471 0 0 1-7.737.263l-.929-2.06q1.681.1 3.517.1 4.545 0 5.514-.54a2.926 2.926 0 0 0 1.356-1.733q.39-1.192.992-11.53t.6-19.631h-3.818a57.422 57.422 0 0 1-5.564 19.819q-4.282 8.391-13.577 15.273l-1.583-1.482q16.881-11.755 18.664-33.61h-4.471a44.156 44.156 0 0 1-12.485 23.462l-1.558-1.432a40.368 40.368 0 0 0 11.983-22.03h-4.618a38.867 38.867 0 0 1-5.878 9.52l-1.583-1.281q5.551-6.052 8.541-17.635l1.96.5a52.745 52.745 0 0 1-2.211 7.009z" class="cls-1" data-name="Path 135"/>
            </g>
        </g>
        <g id="Group_205" data-name="Group 205">
            <g id="Group_202" data-name="Group 202">
                <path id="Path_136" d="M300.682 2516.52h-9.639q.41-14.873 9.946-24.424a31.97 31.97 0 0 1 23.55-9.551q13.877 0 22.456 8.959a29.548 29.548 0 0 1 8.579 21.132 32.944 32.944 0 0 1-4.091 16.038q-4.089 7.488-15.883 20.277l-25.05 26.973h46.391v9.707H288.65l38.418-41.52q11.689-12.519 15.21-18.575a25 25 0 0 0 3.521-12.759 19.64 19.64 0 0 0-6.323-14.607 21.416 21.416 0 0 0-15.484-6.123 21.681 21.681 0 0 0-16.03 6.426q-6.393 6.427-7.28 18.047z" class="cls-2" data-name="Path 136"/>
            </g>
            <g id="Group_204" data-name="Group 204">
                <g id="Group_203" data-name="Group 203">
                    <path id="Path_137" d="M149.027 2534.947l-.573 1.27a24.8 24.8 0 0 1-8.118-3.967 25.677 25.677 0 0 1-8.2 4.2l-.8-1.22a23.549 23.549 0 0 0 8.031-3.858 13.843 13.843 0 0 1-4.577-7.093 29.84 29.84 0 0 1-6.653 11.243l-.928-.976a28.428 28.428 0 0 0 7.532-15.8h-7.506v-1.306h7.7q.28-1.585.4-3.2h1.379q-.121 1.355-.4 3.2h12.616v1.306H136.1q-.33 1.807-.915 4.127h10.546v1.342a21.128 21.128 0 0 1-4.382 7.129 21.567 21.567 0 0 0 7.678 3.603zm-4.821-10.73h-8.13a13.509 13.509 0 0 0 4.285 6.275 17.733 17.733 0 0 0 3.845-6.275z" class="cls-3" data-name="Path 137"/>
                    <path id="Path_138" d="M183.881 2528.453h-21.654v-1.232h6.054a9.96 9.96 0 0 0-1.551-1.979l.806-.744h-5.127v-1.123h10.023v-2.075h-8.8v-1.148h8.8v-1.852h-9.424v-1.172h20.153v1.172h-9.436v1.855h8.8v1.148h-8.8v2.075h10.035v1.123h-5.274l.915.879q-.366.549-1.318 1.844h5.8zm-2.5 7.85h-1.245v-1.185h-14.15v1.185h-1.306v-6.129h16.7zm-1.245-2.381v-2.522h-14.15v2.527zm-9.8-17.92l-1.2.574a9.508 9.508 0 0 0-1.83-1.758l1.2-.623a6.9 6.9 0 0 1 1.826 1.805zm7.946 8.5h-10.428a18.968 18.968 0 0 1 2.026 2.723h6.53a16.646 16.646 0 0 0 1.868-2.725zm.452-9.728a8.167 8.167 0 0 1-2.1 1.83l-1.331-.684a8.342 8.342 0 0 0 2.282-1.77z" class="cls-3" data-name="Path 138"/>
                    <path id="Path_139" d="M204.855 2520.092a25.684 25.684 0 0 1-2.429 3.429v12.779h-1.293v-11.256a35.6 35.6 0 0 1-3.248 3l-.684-1.026a28.92 28.92 0 0 0 6.556-7.654zm-.574-4.969a23.164 23.164 0 0 1-6.273 5.2l-.758-1.025a21.664 21.664 0 0 0 5.957-4.981zm14.723 8h-3.943v11.108a1.865 1.865 0 0 1-.421 1.288 1.722 1.722 0 0 1-.958.574 14.347 14.347 0 0 1-2.161.1q-1.392 0-2.247-.048l-.524-1.343q1.061.048 2.233.049a15.085 15.085 0 0 0 2.429-.092.407.407 0 0 0 .244-.434v-11.205h-8.8v-1.32H219zm-1.221-6.324H205.9v-1.318h11.878z" class="cls-3" data-name="Path 139"/>
                    <path id="Path_140" d="M244.226 2515.453a30.743 30.743 0 0 1-5.042.915v1.953h4.968v1.2h-4.968v1.831h4.566v7.275h-4.566v1.771h4.566v1.183h-4.566v2.515q2.186-.183 4.566-.573v1.232q-6.726.879-11.365 1.367l-.3-1.269q2.733-.209 5.871-.575v-2.7h-4.627v-1.178h4.627v-1.771h-4.59v-7.275h4.59v-1.831h-5.469v-1.2h5.469v-1.77q-2.076.171-4.627.172l-.414-1.149a41.548 41.548 0 0 0 10.645-1.172zm-6.275 8.874v-1.733h-3.32v1.733zm0 3.1v-1.905h-3.32v1.905zm4.553-3.1v-1.733h-3.32v1.733zm0 3.1v-1.905h-3.32v1.905zm10.351-8.106q0 5.531-.176 10.04a33.021 33.021 0 0 1-.427 5.281 2.123 2.123 0 0 1-.9 1.177 5.121 5.121 0 0 1-2.472.409q-.5 0-.892-.037l-.426-1.294q1.39.049 2.416.049a1.223 1.223 0 0 0 .855-.353 1.627 1.627 0 0 0 .427-1.123l.231-4.811q.172-4.039.172-8.093h-2.625a32.469 32.469 0 0 1-3.808 15.808l-1.123-.549q3.54-6.042 3.7-15.259l-2.674.025v-1.245l2.723-.025.085-4.894h1.245q-.05 3.051-.122 4.894z" class="cls-3" data-name="Path 140"/>
                    <path id="Path_141" d="M133.281 2564.22q-.39 1.11-1.074 2.6l-.672 1.428v17.518h-1.355v-14.82a27.153 27.153 0 0 1-2.7 3.955l-.756-1.354a34.668 34.668 0 0 0 5.286-9.8zm15.551 11.181h-7.324v8.52h6.7v1.269H133.3v-1.269h6.848v-8.52h-7.446v-1.306h7.446v-8.35h-6.225v-1.269h13.806v1.269h-6.226v8.35h7.324z" class="cls-3" data-name="Path 141"/>
                    <path id="Path_142" d="M171.711 2572a10.855 10.855 0 0 1-1.953 5.75l-.952-.9a10.485 10.485 0 0 0 1.5-3.6h-2.331v10.974a1.721 1.721 0 0 1-.4 1.019q-.4.532-2.02.532a8.3 8.3 0 0 1-1.148-.074l-.732-1.342q1.585.121 2.477.122a.614.614 0 0 0 .391-.183.507.507 0 0 0 .208-.367v-9.031a30.152 30.152 0 0 1-3.8 7.165l-.855-1a28.935 28.935 0 0 0 3.98-7.825H162.2V2572h5.53a20.517 20.517 0 0 0-3.844-3.369l.915-.83q.891.61 2.259 1.746a22.969 22.969 0 0 0 2.746-3.772h-6.726v-1.246h8.154v1.246a27.331 27.331 0 0 1-3.21 4.6l.855.951-.77.672zm10.742 5.725a35.79 35.79 0 0 1-.4 4.6 7.094 7.094 0 0 1-.666 2.478 3.184 3.184 0 0 1-.842.739 8.5 8.5 0 0 1-3.217.226l-.6-1.343c.511.041 1.069.061 1.671.061a5.363 5.363 0 0 0 1.63-.134.961.961 0 0 0 .409-.4 7.073 7.073 0 0 0 .342-1.654q.195-1.392.354-3.332h-4.174q-1.05 4.821-6.2 6.885l-.952-1.026a9.135 9.135 0 0 0 3.735-2.277 7.436 7.436 0 0 0 2.136-3.582h-3.967v-1.246h4.272a16.235 16.235 0 0 0 .22-2.5l1.258.049a19.236 19.236 0 0 1-.208 2.453zm1.477-3.028l-.72 1.123a17.63 17.63 0 0 1-5.384-2.672 18.969 18.969 0 0 1-4.8 2.624l-.879-1.075a15.6 15.6 0 0 0 4.651-2.367 13.715 13.715 0 0 1-2.246-2.783l1.1-.623a10.434 10.434 0 0 0 2.123 2.6 9.459 9.459 0 0 0 2.65-4.028h-5.345a18.681 18.681 0 0 1-2.93 3.076l-.964-.891a17.83 17.83 0 0 0 4.7-5.884l1.245.477a15.62 15.62 0 0 1-1.172 1.976h7.593v1.246h-1.771a11.724 11.724 0 0 1-2.953 4.809 16.238 16.238 0 0 0 5.102 2.387z" class="cls-3" data-name="Path 142"/>
                </g>
                <path id="Line_30" fill="none" stroke="#fc0" stroke-miterlimit="10" stroke-width="0.75px" d="M0 21L56 0" data-name="Line 30" transform="translate(197.181 2564.846)"/>
            </g>
        </g>
        <g id="Group_207" data-name="Group 207">
            <g id="Group_206" data-name="Group 206">
                <path id="Path_143" d="M410.78 2504.493a20.1 20.1 0 0 1-6.585 7.318l-2.718-3.032a16.271 16.271 0 0 0 7-11.917h-7.735v-12.544h12.439v11.5a18.139 18.139 0 0 1-2.401 8.675zm20.071 0a22.16 22.16 0 0 1-6.586 7.318l-2.822-3.032a16.275 16.275 0 0 0 7-11.917h-7.631v-12.544h12.439v11.5a18.139 18.139 0 0 1-2.4 8.675z" class="cls-2" data-name="Path 143"/>
            </g>
        </g>
    </g>
</svg>
