<svg xmlns="http://www.w3.org/2000/svg" width="385" height="361.633" viewBox="0 0 385 361.633">
    <g id="prefix__Group_54" data-name="Group 54" transform="translate(-125.48 -3690.594)">
        <g id="prefix__A4b">
            <text id="prefix__優先選購身障_朋友製作的產品" fill="#333" data-name="優先選購身障 朋友製作的產品" font-family="MicrosoftJhengHeiLight, Microsoft JhengHei" font-size="51.446px" letter-spacing="0.08em" transform="translate(125.48 3957.227)">
                <tspan x="0" y="0">優先選購身障</tspan><tspan x="0" y="81.818">朋友製作的產品</tspan>
            </text>
        </g>
        <g id="prefix__A4n">
            <g id="prefix__Group_51" data-name="Group 51">
                <text id="prefix___4" fill="#903" data-name="4" font-family="CenturyGothic, Century Gothic" font-size="140px" letter-spacing="0.08em" transform="translate(284.48 3831.594)">
                    <tspan x="0" y="0">4</tspan>
                </text>
                <g id="prefix__Group_50" data-name="Group 50">
                    <text id="prefix__友善行動_任務" fill="#903" data-name="友善行動 任務" font-family="MicrosoftJhengHeiRegular, Microsoft JhengHei" font-size="25px" letter-spacing="0.4em" transform="translate(125.48 3780.91)">
                        <tspan x="0" y="0">友善行動</tspan><tspan x="0" y="49.548">任務</tspan>
                    </text>
                    <path id="prefix__Line_10" fill="none" stroke="#903" stroke-miterlimit="10" stroke-width="0.75px" d="M0 21L56 0" data-name="Line 10" transform="translate(197.181 3810.809)"/>
                </g>
            </g>
            <g id="prefix__Group_53" data-name="Group 53">
                <g id="prefix__Group_52" data-name="Group 52">
                    <path id="prefix__Path_45" fill="#903" d="M413.78 3750.493a20.1 20.1 0 0 1-6.585 7.318l-2.718-3.032a16.271 16.271 0 0 0 7-11.917h-7.735v-12.544h12.439v11.5a18.139 18.139 0 0 1-2.401 8.675zm20.071 0a22.16 22.16 0 0 1-6.586 7.318l-2.822-3.032a16.275 16.275 0 0 0 7-11.917h-7.631v-12.544h12.439v11.5a18.139 18.139 0 0 1-2.4 8.675z" data-name="Path 45"/>
                </g>
            </g>
        </g>
    </g>
</svg>
