<svg xmlns="http://www.w3.org/2000/svg" width="385" height="279.633" viewBox="0 0 385 279.633">
    <g id="prefix__Group_69" data-name="Group 69" transform="translate(-707.48 -5586.722)">
        <g id="prefix__A7b">
            <text id="prefix__不責罵_不嘲笑" fill="#333" data-name="不責罵、不嘲笑" font-family="MicrosoftJhengHeiLight, Microsoft JhengHei" font-size="51.446px" letter-spacing="0.08em" transform="translate(707.48 5853.355)">
                <tspan x="0" y="0">不責罵、不嘲笑</tspan>
            </text>
        </g>
        <g id="prefix__A7n">
            <g id="prefix__Group_66" data-name="Group 66">
                <text id="prefix___7" fill="#6cc" data-name="7" font-family="CenturyGothic, Century Gothic" font-size="140px" letter-spacing="0.08em" transform="translate(866.48 5727.722)">
                    <tspan x="0" y="0">7</tspan>
                </text>
                <g id="prefix__Group_65" data-name="Group 65">
                    <text id="prefix__友善行動_任務" fill="#6cc" data-name="友善行動 任務" font-family="MicrosoftJhengHeiRegular, Microsoft JhengHei" font-size="25px" letter-spacing="0.4em" transform="translate(707.48 5677.039)">
                        <tspan x="0" y="0">友善行動</tspan><tspan x="0" y="49.548">任務</tspan>
                    </text>
                    <path id="prefix__Line_13" fill="none" stroke="#6cc" stroke-miterlimit="10" stroke-width="0.75px" d="M0 21L56 0" data-name="Line 13" transform="translate(779.181 5706.937)"/>
                </g>
            </g>
            <g id="prefix__Group_68" data-name="Group 68">
                <g id="prefix__Group_67" data-name="Group 67">
                    <path id="prefix__Path_48" fill="#6cc" d="M992.78 5647.493a20.1 20.1 0 0 1-6.585 7.318l-2.718-3.032a16.27 16.27 0 0 0 7-11.917h-7.735v-12.544h12.439v11.5a18.14 18.14 0 0 1-2.401 8.675zm20.071 0a22.16 22.16 0 0 1-6.586 7.318l-2.822-3.032a16.274 16.274 0 0 0 7-11.917h-7.631v-12.544h12.439v11.5a18.14 18.14 0 0 1-2.4 8.675z" data-name="Path 48"/>
                </g>
            </g>
        </g>
    </g>
</svg>
