<svg xmlns="http://www.w3.org/2000/svg" width="349.208" height="311.045" viewBox="0 0 349.208 311.045">
    <defs>
        <style>
            .cls-1{fill:#333}.cls-2{fill:#f99}
        </style>
    </defs>
    <g id="Symbol_92_1" data-name="Symbol 92 – 1" transform="translate(-729 -4376) translate(.274 -.166)">
        <g id="Group_229" data-name="Group 229">
            <g id="Group_228" data-name="Group 228">
                <path id="Path_185" d="M775.687 4590.574h-44.564v-1.91h7.888v-9.519h-6.859v-1.885h6.859v-6.608h2.059v6.608h7.185v-6.608h2.059v6.608h7.21v-6.608h2.06v6.608h7.21v-6.608h2.06v6.608h5.953v1.885h-5.953v9.519h6.833zm-35.194 3.692a51.8 51.8 0 0 1-7.712 10.652l-1.658-1.432a46.969 46.969 0 0 0 7.687-10.451zm33.535-26.075H738.81a62.165 62.165 0 0 1-5.677 4.95l-1.532-1.559a58.221 58.221 0 0 0 11.529-11.631l2.161.779a69.793 69.793 0 0 1-4.7 5.553h33.435zm-25.773 20.473v-9.519h-7.185v9.519zm1.909 15.8l-2.16.453a64.451 64.451 0 0 0-2.412-11.1l2.01-.552a85.4 85.4 0 0 1 2.562 11.2zm7.36-15.8v-9.519h-7.21v9.519zm5.4 15.7l-1.959.778a51.892 51.892 0 0 0-4.371-11.278l1.959-.679a59.12 59.12 0 0 1 4.372 11.18zm3.869-15.7v-9.519h-7.21v9.519zm8.792 15.4l-1.809 1.031a46.647 46.647 0 0 0-6-11.229l1.784-.98a45.344 45.344 0 0 1 6.026 11.177z" class="cls-1" data-name="Path 185"/>
                <path id="Path_186" d="M795.9 4575.953q5.149 4.122 5.15 12.611 0 5.877-6.532 5.877l-2.209-.048-.729-2.112a27.45 27.45 0 0 0 2.938.2 4.762 4.762 0 0 0 3.317-1.029q1.131-1.031 1.13-3.818a13.246 13.246 0 0 0-5.375-11.254 97.192 97.192 0 0 0 4.823-13.012h-7.964v41.447h-2.059v-43.357h12.233v1.91a82.5 82.5 0 0 1-4.723 12.585zm35.345 21.453H817.1v7.311h-2.06v-7.311H800.9v-1.834h14.143v-4.072h-10.7v-13.391h23.814v13.391H817.1v4.068h14.143zm-.1-23.135H801.1v-1.859h9.143a32.282 32.282 0 0 0-2.612-6.029h-4.723v-1.834h12.435a21.948 21.948 0 0 0-2.16-3.969l2.009-.779a32.707 32.707 0 0 1 2.411 4.748h12.41v1.834h-5.351a35.437 35.437 0 0 1-2.537 6.029h9.018zm-5.049 9.571v-3.869H806.4v3.869zm0 5.8v-3.969H806.4v3.969zm-3.492-23.262h-12.809a39.63 39.63 0 0 1 2.612 6.029h7.637a31 31 0 0 0 2.562-6.026z" class="cls-1" data-name="Path 186"/>
                <path id="Path_187" d="M857.118 4564.8h-5.552a97.914 97.914 0 0 1-3.642 12.51h7.561v21.853h-1.959v-2.463h-5v3.793h-2.009v-20.047a35.09 35.09 0 0 1-3.593 5.955l-1.381-1.584q5.676-7.635 7.963-20.019h-7.135v-1.91h14.746zm-3.592 29.992v-15.6h-5.049v15.6zm16.73-5.049h-5.2a14.462 14.462 0 0 1-.477 2.537q4.271 4.1 4.8 4.824l-1.607 1.608a33.468 33.468 0 0 0-3.794-4.371 24.817 24.817 0 0 1-8.591 10.8l-1.457-1.407q7.938-5.926 9.169-13.992h-5.351v-1.908h5.552a45.885 45.885 0 0 0 .225-4.773l-.024-1.809h-2.713a15.672 15.672 0 0 1-2.262 3.818l-1.657-1.131a21.626 21.626 0 0 0 3.768-8.238l1.834.627q-.4 1.559-.93 3.039h8.34v1.885h-4.371q0 3.744-.251 6.582h5zm1.281-15.574h-8.742a3.207 3.207 0 0 1-2.512-1 3.551 3.551 0 0 1-.9-2.463v-10.375h2.059v3.793h9.471v1.859h-9.471v4.723q0 1.608 1.759 1.608h8.34zm15.726 27.984l-.5 1.959-2.135.051a15.168 15.168 0 0 1-7.562-1.582 12.369 12.369 0 0 1-4.5-4.6 23.066 23.066 0 0 1-3.717 6.682l-1.684-1.131q5.125-6.5 5.125-16.654l-.1-3.416h2.01l.075 2.914a38.59 38.59 0 0 1-1 9.295 12.848 12.848 0 0 0 4.32 4.972v-22.357h-5.9v-1.809h8.592a39.319 39.319 0 0 0-7.411-7.71l1.332-1.407a21.116 21.116 0 0 1 3.718 3.139 54.078 54.078 0 0 0 5.953-6.932H873.02v-1.91h13.112v2.061a52.044 52.044 0 0 1-6.984 8.189q.376.451 1.37 1.52t1.444 1.67l-1.331 1.38h6.48a35.9 35.9 0 0 1-2.361 8.692l-2.01-.777a22.7 22.7 0 0 0 2.01-6.106h-5.2v9.774h5.05v1.882h-5.049v11.532a13.666 13.666 0 0 0 5.124.752z" class="cls-1" data-name="Path 187"/>
                <path id="Path_188" d="M915.92 4567.363h-18.062v-1.884h8.042a18.692 18.692 0 0 0-2.06-5l2.06-.83a21.8 21.8 0 0 1 2.311 5.829h7.712zm-1.959 7.41h-15.123v-1.91h15.123zm0 7.612h-15.123v-1.885h15.123zm-.553 21.4h-2.059v-2.965h-9.873v3.944h-2.06v-16.6h13.992zm-2.059-4.873v-8.844h-9.873v8.844zm31.651 4.221l-1.256 1.834q-9.02-2.487-13.465-6.1a48.288 48.288 0 0 1-12.509 6.155l-1.382-1.633a39.936 39.936 0 0 0 12.334-5.879q-4.471-4.168-7.612-13.262h-2.059v-1.91H938.1v1.91a24 24 0 0 1-8.19 13.262q4.674 3.614 13.09 5.623zm-.779-25.069h-4.9q-3.492 0-3.491-3.392v-11.3h-9.722q0 6.706-1.708 10.1a20.989 20.989 0 0 1-5.125 6.355l-1.607-1.482a18.281 18.281 0 0 0 5.187-6.82q1.192-3.226 1.194-10.061h13.841v13.264c0 .97.426 1.457 1.281 1.457h5.049zm-6.23 6.18h-14.77q2.661 7.937 7.159 11.983a21.463 21.463 0 0 0 7.611-11.983z" class="cls-1" data-name="Path 188"/>
                <path id="Path_189" d="M971.759 4569.422h-11.078q0 4.448-.151 8.592h9.521q-.552 22.306-1.7 24.554t-5.941 2.248a17.857 17.857 0 0 1-2.034-.1l-.729-1.91 2.261.05a9.456 9.456 0 0 0 3.592-.427 2.4 2.4 0 0 0 1.168-1.268 51.832 51.832 0 0 0 .779-7.826q.438-6.981.54-13.363h-7.512q-.652 15.123-5.2 24.843l-1.633-1.281q5.075-10.6 5.075-29.064l-.051-5.049h-5.3v-1.959h9.219a34.317 34.317 0 0 0-2.261-6.631l1.96-.705a57.146 57.146 0 0 1 2.512 7.336h6.958zm26.853-.6h-20.271a70.712 70.712 0 0 1-6.582 8.641l-1.507-1.557a59.206 59.206 0 0 0 10.6-15.953l2.059.377a58.948 58.948 0 0 1-3.391 6.582h19.091zm-.677 27.557a14.229 14.229 0 0 1-1.245 5.225 3.959 3.959 0 0 1-2.436 2.336 48.711 48.711 0 0 1-7.85.351 75.232 75.232 0 0 1-7.662-.2 3.513 3.513 0 0 1-2.047-1.205 3.682 3.682 0 0 1-.891-2.537v-16.705l-3.794 1.08-.577-1.809 4.371-1.182v-6.755h2.059v6.179l6.958-2.009v-8.065h2.06v7.512l9.3-2.738q-.428 10.575-2.964 17.408l-1.809-.78a50.8 50.8 0 0 0 2.662-14.091l-7.184 2.109v16.555h-2.06V4581.1l-6.958 1.959v17.484a1.431 1.431 0 0 0 .879 1.469q.879.365 9.948.365a20.082 20.082 0 0 0 4.936-.328 3.151 3.151 0 0 0 1.47-1.557 14.835 14.835 0 0 0 .979-4.873z" class="cls-1" data-name="Path 189"/>
                <path id="Path_190" d="M775.887 4676.084a41.3 41.3 0 0 1-1.921 6.393q-1.27 3.278-2.286 3.781a4.553 4.553 0 0 1-2.023.5q-2.311 0-4.785-3.065a22.71 22.71 0 0 1-3.856-7.285 44.4 44.4 0 0 1-11.053 6.934l-1.13-1.684a36.439 36.439 0 0 0 11.58-7.31A71.762 71.762 0 0 1 758.2 4658h-12.859v10.022q5.175-1.281 9.872-2.788v1.959q-5.7 1.61-9.872 2.688v13.842a2.655 2.655 0 0 1-1.068 2.16 3.814 3.814 0 0 1-2.449.853l-6.782-.05-.628-2.11q1.91.1 7.108.1 1.709 0 1.708-1.582v-12.711q-5.952 1.46-11.53 2.262l-.527-1.959a86.677 86.677 0 0 0 12.057-2.211V4658h-12.409v-1.91h12.409v-8.842a100.353 100.353 0 0 1-10.6 1.582l-.729-1.959a96.213 96.213 0 0 0 22.182-4.521l.778 1.859a96.6 96.6 0 0 1-9.52 2.611v9.27h12.811q-.1-3.037-.1-14.143h2.085l-.075 8.541.075 5.6h15.65V4658h-15.575a78.7 78.7 0 0 0 1.834 14.695 47.439 47.439 0 0 0 7.712-11l1.708 1.131a53.41 53.41 0 0 1-8.792 12.034 26.13 26.13 0 0 0 2.323 5.375 12.635 12.635 0 0 0 2.626 3.365 3.669 3.669 0 0 0 2.109 1.031 1.447 1.447 0 0 0 1.106-.453 15.353 15.353 0 0 0 1.545-3.416 34.1 34.1 0 0 0 1.645-5.8zM773 4652.119l-1.633 1.231a34.342 34.342 0 0 0-6.681-8.391l1.532-1.23a36.608 36.608 0 0 1 6.782 8.39z" class="cls-1" data-name="Path 190"/>
                <path id="Path_191" d="M804.043 4684.852a18.082 18.082 0 0 1-9.483-2.463 16.415 16.415 0 0 1-6.343-6.971 22.852 22.852 0 0 1-2.236-10.287 24.212 24.212 0 0 1 2.311-10.84 16.607 16.607 0 0 1 6.582-7.184 19.182 19.182 0 0 1 9.872-2.5 17.372 17.372 0 0 1 9.206 2.45 16.3 16.3 0 0 1 6.231 6.922 22.717 22.717 0 0 1 2.2 10.148A25.384 25.384 0 0 1 820.17 4675a16.552 16.552 0 0 1-6.381 7.285 18.249 18.249 0 0 1-9.746 2.567zm.275-37.707a14.523 14.523 0 0 0-13.539 8.515 20.993 20.993 0 0 0-1.934 9.17 21.578 21.578 0 0 0 1.846 9.193 13.9 13.9 0 0 0 5.3 6.118 14.848 14.848 0 0 0 8 2.148q7.234 0 11.38-4.7t4.145-13.014q0-8.062-4.07-12.748t-11.128-4.682z" class="cls-1" data-name="Path 191"/>
                <path id="Path_192" d="M854.506 4684.172l-16.529-18.563-.654-.9h-.1v19.467h-2.788v-38.91h2.788v18.334h.1a5.54 5.54 0 0 1 .7-.981l15.7-17.357h3.592l-17.032 18.865 18.087 20.045z" class="cls-1" data-name="Path 192"/>
                <path id="Path_193" d="M888.212 4668.748a2.72 2.72 0 0 1-1.759-2.361 2.156 2.156 0 0 1 .6-1.571 2.246 2.246 0 0 1 1.682-.615 2.04 2.04 0 0 1 1.746.791 3.66 3.66 0 0 1 .59 2.225q0 2.511-2.913 4.847l-1.005-.853a4.529 4.529 0 0 0 1.059-2.463z" class="cls-1" data-name="Path 193"/>
                <path id="Path_194" d="M935.484 4642.3a55.808 55.808 0 0 1-4.747 8.391v19.593h-2.06v-16.73a36.312 36.312 0 0 1-5.9 6.381l-1.18-1.582a51.108 51.108 0 0 0 11.982-16.782zm-4.27 30.4a51.615 51.615 0 0 1-7.46 11.981l-1.658-1.18a52.068 52.068 0 0 0 7.209-11.6zm33.184-26.754a46.951 46.951 0 0 1-2.789 8.641l-1.858-.6a38.124 38.124 0 0 0 2.336-6.131h-19.393a40.717 40.717 0 0 1-7.159 8.441l-1.382-1.381a42.883 42.883 0 0 0 9.823-13.34l1.783.78q-.453 1.028-1.884 3.591zm-19.669 10.249a52.4 52.4 0 0 1-8.541 11l-1.482-1.382a48.882 48.882 0 0 0 8.34-10.7zm11.53 22.935q-.25 3.993-1.117 5.4a3.629 3.629 0 0 1-2.588 1.709 53.24 53.24 0 0 1-7.247.3q-6.909 0-8.29-.7a2.682 2.682 0 0 1-1.381-2.637v-12.192h2.064v12.031a1.217 1.217 0 0 0 .9 1.244q.9.313 7.561.315a33.762 33.762 0 0 0 6.33-.315q1-.313 1.382-2.16a18.734 18.734 0 0 0 .377-3.756zm-6.23-1.783l-1.633 1.23a61.365 61.365 0 0 0-6.581-9.218l1.533-1.131a60.674 60.674 0 0 1 6.681 9.112zm1.307-7.512h-2.061v-18.495h2.061zm14.192-4.32l-1.457 1.23a55.7 55.7 0 0 0-8.314-10.4l1.382-1.281a50.435 50.435 0 0 1 8.389 10.444zm1.282 18.363l-1.659 1.231a68.75 68.75 0 0 0-7.963-11.68l1.659-1.031a87.089 87.089 0 0 1 7.963 11.473z" class="cls-1" data-name="Path 194"/>
                <path id="Path_195" d="M1022.069 4675.43q-.552 6.307-1.67 8.127a4.329 4.329 0 0 1-2.952 2.16 36.37 36.37 0 0 1-5.927.34 41.494 41.494 0 0 1-4.874-.164 2.693 2.693 0 0 1-1.683-1.041 3.511 3.511 0 0 1-.7-2.262v-18.338h-9.973q-.126 8.416-3.756 13.728t-11.693 8.655l-1.131-1.783q7.562-2.889 10.966-7.8t3.554-12.8h-14.296v-1.984h20.924v-10.049h-12.132a50.3 50.3 0 0 1-5.778 7.109l-1.633-1.33a47.344 47.344 0 0 0 10.174-15.3l1.859.729a55.434 55.434 0 0 1-3.392 6.781h10.9v-8.539h2.061v8.539h18.513v2.01h-18.513v10.049h20.724v1.984h-15.324v17.76a2.174 2.174 0 0 0 .39 1.218 1.4 1.4 0 0 0 1.055.666q.664.073 3.6.075a36.262 36.262 0 0 0 5.464-.213 2.874 2.874 0 0 0 1.407-.854 6.887 6.887 0 0 0 1.117-2.726 29.578 29.578 0 0 0 .7-5.526z" class="cls-1" data-name="Path 195"/>
                <path id="Path_196" d="M1048.669 4649.18h-15.3v-1.885h6.959a18.774 18.774 0 0 0-2.06-5l2.06-.828a21.806 21.806 0 0 1 2.311 5.826h6.029zm-1.181 7.41h-12.811v-1.908h12.811zm0 7.611h-12.811v-1.883h12.811zm-.578 21.4h-2.059v-2.963h-7.562v3.943h-2.06v-16.6h11.681zm-2.059-4.874v-8.841h-7.562v8.841zm29.39 2.211q0 3.642-4.647 3.643h-4.371l-.729-2.01q1.785.126 4.522.125a6.4 6.4 0 0 0 2.549-.326 1.363 1.363 0 0 0 .616-1.332v-4.848h-17.409a16.367 16.367 0 0 1-5.3 9.018l-1.533-1.381q5.4-4.447 5.4-13.641v-8.086h20.9zm3.693-23.06h-28.286v-1.778h13.113v-4.321h-10.149v-1.759h10.149v-4.069h-11.983v-1.783h11.983v-4.121h2.06v4.121h11.979v1.783h-11.983v4.069h10.123v1.759h-10.123v4.321h13.113zm-5.753 16.58v-4.422H1055.4a30.91 30.91 0 0 1-.3 4.422zm0-6.231v-4.371H1055.4v4.371z" class="cls-1" data-name="Path 196"/>
            </g>
        </g>
        <g id="Group_235" data-name="Group 235">
            <g id="Group_231" data-name="Group 231">
                <g id="Group_230" data-name="Group 230">
                    <path id="Path_197" d="M955.318 4376.166v9.57h-35.732l-5.032 27.42a42.453 42.453 0 0 1 11.813-1.922q13.727 0 22.638 9.194t8.911 23.551a36.914 36.914 0 0 1-4.58 18.183 31.973 31.973 0 0 1-12.407 12.68 36.217 36.217 0 0 1-18.081 4.41q-12.238 0-20.645-7.486a30.647 30.647 0 0 1-10.049-19.379h10.323a22.661 22.661 0 0 0 3.93 9.433 20 20 0 0 0 7.383 5.844 22.018 22.018 0 0 0 9.673 2.223 22.628 22.628 0 0 0 17.021-7.51q7.11-7.506 7.11-18.773 0-10.17-6.426-16.52t-17.158-6.348q-8.887 0-21.533 5.4l9.3-49.971z" class="cls-2" data-name="Path 197"/>
                </g>
            </g>
            <g id="Group_234" data-name="Group 234">
                <g id="Group_233" data-name="Group 233">
                    <g id="Group_232" data-name="Group 232">
                        <path id="Path_198" d="M751.027 4426.039l-.573 1.27a24.829 24.829 0 0 1-8.118-3.967 25.7 25.7 0 0 1-8.2 4.2l-.8-1.221a23.578 23.578 0 0 0 8.031-3.857 13.843 13.843 0 0 1-4.577-7.094 29.834 29.834 0 0 1-6.653 11.244l-.928-.976a28.433 28.433 0 0 0 7.532-15.8h-7.506v-1.307h7.7q.281-1.584.4-3.2h1.379q-.121 1.353-.4 3.2h12.616v1.307H738.1q-.33 1.808-.915 4.127h10.546v1.342a21.127 21.127 0 0 1-4.382 7.129 21.572 21.572 0 0 0 7.678 3.603zm-4.821-10.73h-8.13a13.515 13.515 0 0 0 4.285 6.275 17.751 17.751 0 0 0 3.845-6.275z" class="cls-2" data-name="Path 198"/>
                        <path id="Path_199" d="M785.881 4419.545h-21.654v-1.232h6.054a9.924 9.924 0 0 0-1.551-1.979l.806-.744h-5.127v-1.123h10.023v-2.076h-8.8v-1.147h8.8v-1.855h-9.424v-1.172h20.153v1.172h-9.436v1.855h8.8v1.147h-8.8v2.076h10.035v1.123h-5.274l.915.879q-.366.547-1.318 1.844h5.8zm-2.5 7.85h-1.245v-1.186h-14.15v1.186h-1.306v-6.129h16.7zm-1.245-2.381v-2.528h-14.15v2.528zm-9.8-17.92l-1.2.574a9.415 9.415 0 0 0-1.83-1.758l1.2-.623a6.9 6.9 0 0 1 1.826 1.807zm7.946 8.5h-10.428a18.943 18.943 0 0 1 2.026 2.723h6.53a16.692 16.692 0 0 0 1.868-2.727zm.452-9.729a8.144 8.144 0 0 1-2.1 1.83l-1.331-.683a8.356 8.356 0 0 0 2.282-1.77z" class="cls-2" data-name="Path 199"/>
                        <path id="Path_200" d="M806.855 4411.184a25.7 25.7 0 0 1-2.429 3.429v12.787h-1.293v-11.256a35.745 35.745 0 0 1-3.248 3l-.684-1.026a28.941 28.941 0 0 0 6.556-7.654zm-.574-4.969a23.158 23.158 0 0 1-6.273 5.2l-.758-1.025a21.633 21.633 0 0 0 5.957-4.981zm14.723 8h-3.943v11.107a1.86 1.86 0 0 1-.421 1.287 1.714 1.714 0 0 1-.958.575 14.336 14.336 0 0 1-2.161.1c-.928 0-1.677-.015-2.247-.049l-.524-1.341q1.06.046 2.233.048a15.309 15.309 0 0 0 2.429-.091.407.407 0 0 0 .244-.434v-11.205h-8.8v-1.318H821zm-1.221-6.324h-11.878v-1.319h11.878z" class="cls-2" data-name="Path 200"/>
                        <path id="Path_201" d="M846.226 4406.545a30.785 30.785 0 0 1-5.042.914v1.953h4.968v1.2h-4.968v1.83h4.566v7.276h-4.566v1.771h4.566v1.184h-4.566v2.514q2.185-.182 4.566-.573v1.233q-6.726.879-11.365 1.367l-.3-1.27q2.733-.207 5.871-.574v-2.7h-4.627v-1.184h4.627v-1.771h-4.59v-7.276h4.59v-1.83h-5.469v-1.2h5.469v-1.769q-2.076.169-4.627.171l-.414-1.148a41.548 41.548 0 0 0 10.645-1.172zm-6.275 8.873v-1.732h-3.32v1.732zm0 3.1v-1.9h-3.32v1.9zm4.553-3.1v-1.732h-3.32v1.732zm0 3.1v-1.9h-3.32v1.9zm10.351-8.106q0 5.529-.176 10.039a33 33 0 0 1-.427 5.281 2.121 2.121 0 0 1-.9 1.178 5.136 5.136 0 0 1-2.472.408c-.334 0-.631-.011-.892-.037l-.426-1.293c.927.031 1.732.049 2.416.049a1.228 1.228 0 0 0 .855-.353 1.626 1.626 0 0 0 .427-1.123l.231-4.811q.173-4.039.172-8.094h-2.625a32.47 32.47 0 0 1-3.808 15.809l-1.123-.549q3.54-6.043 3.7-15.26l-2.674.026v-1.246l2.723-.024.085-4.894h1.245q-.05 3.05-.122 4.894z" class="cls-2" data-name="Path 201"/>
                        <path id="Path_202" d="M735.281 4455.311q-.39 1.11-1.074 2.6l-.672 1.428v17.517h-1.355v-14.818a27.265 27.265 0 0 1-2.7 3.955l-.756-1.355a34.645 34.645 0 0 0 5.286-9.8zm15.551 11.181h-7.324v8.52h6.7v1.269H735.3v-1.269h6.848v-8.52h-7.446v-1.306h7.446v-8.35h-6.225v-1.27h13.806v1.27h-6.226v8.35h7.324z" class="cls-2" data-name="Path 202"/>
                        <path id="Path_203" d="M773.711 4463.086a10.851 10.851 0 0 1-1.953 5.75l-.952-.9a10.491 10.491 0 0 0 1.5-3.6h-2.331v10.973a1.722 1.722 0 0 1-.4 1.019c-.265.356-.938.531-2.02.531a8.35 8.35 0 0 1-1.148-.072l-.732-1.344q1.586.123 2.477.124a.616.616 0 0 0 .391-.184.507.507 0 0 0 .208-.367v-9.02a30.188 30.188 0 0 1-3.8 7.164l-.855-1a28.921 28.921 0 0 0 3.98-7.824H764.2v-1.246h5.53a20.6 20.6 0 0 0-3.844-3.369l.915-.83q.891.612 2.259 1.746a23 23 0 0 0 2.746-3.772h-6.726v-1.246h8.154v1.246a27.26 27.26 0 0 1-3.21 4.6l.855.951-.77.672zm10.742 5.725a35.812 35.812 0 0 1-.4 4.6 7.091 7.091 0 0 1-.666 2.477 3.209 3.209 0 0 1-.842.74 8.493 8.493 0 0 1-3.217.224l-.6-1.341c.511.041 1.069.06 1.671.06a5.307 5.307 0 0 0 1.63-.135.945.945 0 0 0 .409-.4 7.078 7.078 0 0 0 .342-1.654q.2-1.392.354-3.332h-4.174q-1.05 4.821-6.2 6.884l-.952-1.025a9.135 9.135 0 0 0 3.735-2.277 7.437 7.437 0 0 0 2.136-3.582h-3.967v-1.246h4.272a16.248 16.248 0 0 0 .22-2.5l1.258.048a19.21 19.21 0 0 1-.208 2.454zm1.477-3.028l-.72 1.123a17.586 17.586 0 0 1-5.384-2.672 18.919 18.919 0 0 1-4.8 2.623l-.879-1.074a15.581 15.581 0 0 0 4.651-2.367 13.715 13.715 0 0 1-2.246-2.783l1.1-.623a10.426 10.426 0 0 0 2.123 2.6 9.449 9.449 0 0 0 2.65-4.027h-5.345a18.619 18.619 0 0 1-2.93 3.076l-.964-.89a17.822 17.822 0 0 0 4.7-5.885l1.245.476a15.431 15.431 0 0 1-1.172 1.977h7.593v1.246h-1.771a11.717 11.717 0 0 1-2.953 4.809 16.244 16.244 0 0 0 5.102 2.391z" class="cls-2" data-name="Path 203"/>
                    </g>
                </g>
                <path id="Line_33" fill="none" stroke="#f99" stroke-miterlimit="10" stroke-width="0.75px" d="M0 21L56 0" data-name="Line 33" transform="translate(799.181 4455.937)"/>
            </g>
        </g>
        <g id="Group_237" data-name="Group 237">
            <g id="Group_236" data-name="Group 236">
                <path id="Path_204" d="M1011.78 4396.493a20.1 20.1 0 0 1-6.585 7.318l-2.718-3.032a16.27 16.27 0 0 0 7-11.917h-7.735v-12.544h12.439v11.5a18.14 18.14 0 0 1-2.401 8.675zm20.071 0a22.159 22.159 0 0 1-6.586 7.318l-2.822-3.032a16.274 16.274 0 0 0 7-11.917h-7.631v-12.544h12.439v11.5a18.14 18.14 0 0 1-2.4 8.675z" class="cls-2" data-name="Path 204"/>
            </g>
        </g>
    </g>
</svg>
