<svg xmlns="http://www.w3.org/2000/svg" width="325.222" height="313.574" viewBox="0 0 325.222 313.574">
    <defs>
        <style>
            .cls-1{fill:#333}.cls-2{fill:#cc6}
        </style>
    </defs>
    <g id="Symbol_91_1" data-name="Symbol 91 – 1" transform="translate(-119 -5007) translate(.274 .363)">
        <g id="Group_239" data-name="Group 239">
            <g id="Group_238" data-name="Group 238">
                <path id="Path_205" d="M166.139 5224.2l-1.232 1.684q-11.905-9.571-20.423-14.043v25.924h-2.059V5208.2q-7.234 9.021-20.273 17.737l-1.331-1.633q20.022-12.79 26.251-27.783H121.55v-1.959h43.785v1.959h-16.152a40.727 40.727 0 0 1-4.7 8.892v4.221a134.834 134.834 0 0 1 21.656 14.566z" class="cls-1" data-name="Path 205"/>
                <path id="Path_206" d="M220.067 5218.574a90.86 90.86 0 0 1-.628 10.828q-.627 5.224-1.344 6.405a3.445 3.445 0 0 1-1.947 1.57 16.132 16.132 0 0 1-4.295.389l-3.115-.049-.754-2.01 5.752.051a2.965 2.965 0 0 0 2.438-.9q.728-.906 1.318-5.791a76.419 76.419 0 0 0 .615-8.53h-32.455a61.57 61.57 0 0 1-7.938 8.09l-1.28-1.91a46.55 46.55 0 0 0 15.9-23.965h-13.991v-1.959h14.494a62.249 62.249 0 0 0 1.507-7.937l2.01.476q-.6 4.371-1.357 7.461h18.94q-.652 3.768-1.808 8.893h5.1q-.479 3.694-1.533 8.892zm-31.124-20.274l-1.758 1.08a28.315 28.315 0 0 0-4.873-5.225l1.682-1.08a28.554 28.554 0 0 1 4.949 5.225zm1.231 26.351a63.289 63.289 0 0 1-5.853 12.459l-1.96-.98a52.978 52.978 0 0 0 6-11.983zm24.693-13.013H191.2a47.323 47.323 0 0 1-4.12 6.933h26.5q.836-3.89 1.287-6.93zm-3.24-8.893h-17.132a58.973 58.973 0 0 1-2.412 6.934H210.1zm-13.842 33.838l-2.21.352a65.407 65.407 0 0 0-1.808-12.284l1.959-.4a85.669 85.669 0 0 1 2.059 12.335zm8.14-2.713l-2.061.7a44.418 44.418 0 0 0-3.139-10.123l1.909-.578a68.586 68.586 0 0 1 3.291 10.004zm7.359-2.537l-1.858.828a44.745 44.745 0 0 0-3.668-8.139l1.759-.8a59.2 59.2 0 0 1 3.767 8.114z" class="cls-1" data-name="Path 206"/>
                <path id="Path_207" d="M277.111 5213.023a84.57 84.57 0 0 1-7.611 6.631v14.721q0 3.341-3.743 3.342h-6.23l-.677-2.01 5.375.074a9.227 9.227 0 0 0 2.738-.224.976.976 0 0 0 .477-.981v-13.314q-12.41 9.093-34.464 15.625l-1.031-1.834q21.277-6.1 33.586-14.92-14.142 2.235-32.3 3.592l-.553-1.86 5.6-.451v-23.664h6.482a45.216 45.216 0 0 0 4.421-5.2l2.16.4q-.627.955-3.843 4.8H269.5v19.393q2.512-1.961 6.33-5.6zm-9.671-8.164v-5.2h-27.1v5.2zm0 7.184v-5.3h-27.1v5.3zm0 5.978v-4.068h-27.1v7.309q14.942-1.304 27.1-3.241z" class="cls-1" data-name="Path 207"/>
                <path id="Path_208" d="M296.727 5209.934q-3.015 13.564-7.26 21.98l-1.86-1.332a75.4 75.4 0 0 0 7.11-21.3zm25.722 13.388q-.3 4.448-.854 7.912t-1.432 4.348a4.391 4.391 0 0 1-1.884 1.168 35.47 35.47 0 0 1-6.179.287q-3.894 0-6.129-.15a4.685 4.685 0 0 1-3.116-1.067 3.959 3.959 0 0 1-.878-2.826v-28.211h2.059v27.959q0 1.659 1.055 2a37.676 37.676 0 0 0 6.983.338 38.7 38.7 0 0 0 5.464-.176 3.212 3.212 0 0 0 1.093-.765q.6-.59 1.093-4.133a63.322 63.322 0 0 0 .565-7.41zm-5.1-16.353l-1.758 1.383a61.118 61.118 0 0 0-11.305-13.743l1.583-1.431a70.911 70.911 0 0 1 11.481 13.791zm15.022 22.207l-2.161.779a101.414 101.414 0 0 0-8.289-19.443l1.909-1.131a117.336 117.336 0 0 1 8.542 19.795z" class="cls-1" data-name="Path 208"/>
                <path id="Path_209" d="M352.59 5208.953q5.148 4.122 5.149 12.611 0 5.877-6.531 5.877l-2.21-.048-.728-2.112a27.435 27.435 0 0 0 2.938.2 4.759 4.759 0 0 0 3.316-1.029q1.131-1.031 1.13-3.818a13.246 13.246 0 0 0-5.375-11.254 97.2 97.2 0 0 0 4.824-13.012h-7.964v41.447h-2.06v-43.357h12.233v1.91a82.5 82.5 0 0 1-4.722 12.585zm35.345 21.453h-14.143v7.311h-2.061v-7.311h-14.142v-1.834h14.142v-4.072h-10.7v-13.391h23.815v13.391h-11.054v4.068h14.143zm-.1-23.135H357.79v-1.859h9.144a32.349 32.349 0 0 0-2.613-6.029H359.6v-1.834h12.434a21.884 21.884 0 0 0-2.16-3.969l2.01-.779a32.707 32.707 0 0 1 2.411 4.748H386.7v1.834h-5.35a35.337 35.337 0 0 1-2.538 6.029h9.019zm-5.05 9.571v-3.869H363.09v3.869zm0 5.8v-3.969H363.09v3.969zm-3.491-23.262h-12.813a39.528 39.528 0 0 1 2.613 6.029h7.636a31 31 0 0 0 2.563-6.026z" class="cls-1" data-name="Path 209"/>
                <path id="Path_210" d="M413.8 5197.8h-5.552a97.731 97.731 0 0 1-3.643 12.51h7.562v21.853h-1.959v-2.463h-5v3.793H403.2v-20.047a34.961 34.961 0 0 1-3.593 5.955l-1.381-1.584q5.678-7.635 7.963-20.019h-7.134v-1.91H413.8zm-3.592 29.992v-15.6h-5.05v15.6zm16.729-5.049h-5.2a14.381 14.381 0 0 1-.476 2.537q4.269 4.1 4.8 4.824l-1.607 1.608a33.3 33.3 0 0 0-3.794-4.371 24.81 24.81 0 0 1-8.591 10.8l-1.457-1.407q7.938-5.926 9.169-13.992h-5.35v-1.908h5.551a45.6 45.6 0 0 0 .226-4.773l-.024-1.809h-2.713a15.7 15.7 0 0 1-2.262 3.818l-1.657-1.131a21.64 21.64 0 0 0 3.767-8.238l1.834.627q-.4 1.559-.929 3.039h8.339v1.885h-4.371q0 3.744-.251 6.582h5zm1.282-15.574h-8.739a3.2 3.2 0 0 1-2.511-1 3.547 3.547 0 0 1-.9-2.463v-10.375h2.06v3.793h9.471v1.859h-9.471v4.723q0 1.608 1.759 1.608h8.34zm15.725 27.984l-.5 1.959-2.134.051a15.166 15.166 0 0 1-7.562-1.582 12.369 12.369 0 0 1-4.5-4.6 23.045 23.045 0 0 1-3.718 6.682l-1.683-1.131q5.126-6.5 5.125-16.654l-.1-3.416h2.01l.075 2.914a38.536 38.536 0 0 1-1.005 9.295 12.864 12.864 0 0 0 4.32 4.972v-22.357h-5.9v-1.809h8.592a39.349 39.349 0 0 0-7.411-7.71l1.332-1.407a21.15 21.15 0 0 1 3.718 3.139 54.162 54.162 0 0 0 5.953-6.932H429.7v-1.91h13.112v2.061a51.97 51.97 0 0 1-6.983 8.189q.376.451 1.369 1.52t1.444 1.67l-1.331 1.38h6.489a35.949 35.949 0 0 1-2.361 8.692l-2.01-.777a22.77 22.77 0 0 0 2.01-6.106h-5.2v9.774h5.049v1.882h-5.049v11.532a13.673 13.673 0 0 0 5.124.752z" class="cls-1" data-name="Path 210"/>
                <path id="Path_211" d="M140.466 5316.193q0 3.417-4.1 3.416l-4.5-.125-.652-1.961q1.884.153 4.069.151a7.028 7.028 0 0 0 2.625-.287 1.2 1.2 0 0 0 .515-1.145v-13.363h-10.97a45.6 45.6 0 0 1-4.622 16.957l-1.809-1.332q4.647-8.692 4.648-20.875v-21.4h14.8zm-2.035-15.222v-10.5h-10.7q0 8.741-.125 10.5zm0-12.41v-10.426h-10.7v10.426zm25.346 27.128a3.74 3.74 0 0 1-.9 2.639 3.378 3.378 0 0 1-2.173 1.117q-1.269.138-3.856.139-1.557 0-2.788-.1l-.829-1.961q3.39.2 5.224.2a5.168 5.168 0 0 0 2.689-.44 1.829 1.829 0 0 0 .577-1.545v-12.861h-13.016a51.657 51.657 0 0 1-4.823 17.031l-1.809-1.205a45.521 45.521 0 0 0 3.856-10.789 66.826 66.826 0 0 0 1.193-13.853v-17.836h16.655zm-2.06-14.718v-10.5h-12.534q0 8.087-.277 10.5zm0-12.41v-10.426h-12.534v10.426z" class="cls-1" data-name="Path 211"/>
                <path id="Path_212" d="M221.649 5317.852l-.929 1.882a48.088 48.088 0 0 1-17.006-8.49q-6.131 5.277-17.308 8.967l-1.281-1.857q10.977-3.368 17.031-8.442a34.327 34.327 0 0 1-10.174-15.273 63.175 63.175 0 0 1-13.891 23.814l-1.406-1.531q12.735-13.49 15.8-33.385h-15.851v-1.961h16.152a58.547 58.547 0 0 0 .829-6.531h2.061q-.277 3.19-.829 6.531H221.3v1.961h-26.755q-.854 4.5-2.06 9.143h21.93v2.16a38.583 38.583 0 0 1-9.219 15.023 46.378 46.378 0 0 0 16.453 7.989zm-9.294-23.213h-18.312q2.31 7.663 9.62 13.992a32.471 32.471 0 0 0 8.692-13.992z" class="cls-1" data-name="Path 212"/>
                <path id="Path_213" d="M249.705 5306.572h-10.249l1.231 1.03a42.482 42.482 0 0 1-6.933 12.183l-1.654-1.485a42.037 42.037 0 0 0 6.857-11.731h-4.27v-29.793h15.021zm-2.059-20.523v-7.361h-10.9v7.361zm0 9.318v-7.359h-10.9v7.359zm0 9.295v-7.362h-10.9v7.359zm2.914 11.883l-1.935.93a32.932 32.932 0 0 0-5.1-7.813l1.758-1.031a39.688 39.688 0 0 1 5.277 7.914zm26.251-30.5H263.7v10.355h9.672v23.286h-2.06v-4.094h-14.67v4.094h-2.06V5296.4h7.059V5275h2.059v9.143h13.114zm-5.5 27.631v-15.4h-14.67v15.4z" class="cls-1" data-name="Path 213"/>
                <path id="Path_214" d="M303.258 5298.859l-1.508 1.534a69.888 69.888 0 0 0-4.723-7.612v26.8h-2.059v-26.9a45.217 45.217 0 0 1-5.9 12.611l-1.557-1.76a43.266 43.266 0 0 0 7.26-16.051h-6.833v-1.881h7.034v-10.551h2.059v10.551h5.552v1.884h-5.552v2.538a77.581 77.581 0 0 1 6.227 8.837zm9.771 11.532a46.264 46.264 0 0 1-9.169 8.113l-1.431-1.633a39.514 39.514 0 0 0 8.942-7.838zm19.393-4.748h-13.59v13.941h-2.06v-13.941h-13.891v-1.834h29.541zm-.1-27.633H322.7v4.447h7.813v10.7h-25.622v-10.7h7.887v-4.447h-9.571v-1.834h29.114zm-1.758 21.152H304.99v-1.862h25.573zm-17.785-7.863v-7.01h-5.829v7.01zm7.863-8.842v-4.447h-5.8v4.447zm0 8.842v-7.01h-5.8v7.01zm11.931 25.572l-1.582 1.432a70.1 70.1 0 0 0-8.541-7.612l1.432-1.431a70.765 70.765 0 0 1 8.69 7.611zm-4.119-25.572v-7.01H322.7v7.01z" class="cls-1" data-name="Path 214"/>
                <path id="Path_215" d="M387.834 5311.771a23.077 23.077 0 0 1-1.231 4.874q-.855 2.26-1.721 2.675a3.863 3.863 0 0 1-1.67.414 4.425 4.425 0 0 1-1.859-.377 7.1 7.1 0 0 1-2.148-2.035 19.66 19.66 0 0 1-2.324-3.742 37.149 37.149 0 0 1-7.059 6.055l-1.331-1.635a28.643 28.643 0 0 0 7.509-6.48 65.526 65.526 0 0 1-2.638-15.75H362.01v3.24h8.34v1.808h-8.34v2.764h8.34v1.809h-8.34v3.039h8.29v1.808h-8.29v4.323q5.526-.856 8.892-1.709v1.859q-7.46 1.783-27.154 3.994l-.527-1.834q6.655-.7 10.4-1.182v-4.32H344.5v-1.707h9.119v-3.642h-8.943v-1.76h8.943v-3.34h-8.993v-1.809h8.993v-3.341h-10.072v-1.809h29.767l-.5-8.541h2.11l.351 8.541h12.31v1.809h-12.261a55.442 55.442 0 0 0 2.21 13.841 44.744 44.744 0 0 0 5.828-11.052l1.834.9a47.95 47.95 0 0 1-6.883 12.459 13.7 13.7 0 0 0 2.739 4.584q1.431 1.4 2.009 1.394 1.984 0 2.813-7.109zm-22.434-31.425h-14.67a40.1 40.1 0 0 1-5.9 4.521l-1.508-1.658a43.571 43.571 0 0 0 9.848-8.264l2.034.854a33.216 33.216 0 0 1-2.612 2.789H365.4zm-8.49 10.474l-1.382 1.457a16.4 16.4 0 0 0-3.869-3.716 20.4 20.4 0 0 1-4.521 4.22l-1.331-1.332a18.532 18.532 0 0 0 6.38-7.662l1.784.83a16.453 16.453 0 0 1-1.231 2.41 25.311 25.311 0 0 1 4.171 3.793zm2.889-6l-1.909.979a21.44 21.44 0 0 0-2.689-3.717l1.759-.83a28.872 28.872 0 0 1 2.84 3.566zm.15 30.043v-19.093h-4.27v19.644zm9.37-23.713l-1.457 1.532a24.733 24.733 0 0 0-4.421-4.069 18.55 18.55 0 0 1-4.07 4.02l-1.532-1.182a20.419 20.419 0 0 0 6.23-7.461l1.784.879a10.753 10.753 0 0 1-1.231 2.061 27.291 27.291 0 0 1 4.698 4.218zm18.615-10.8h-16.88a33.857 33.857 0 0 1-3.945 3.843l-1.506-1.431a28.64 28.64 0 0 0 6.958-7.813l1.984.7a24.214 24.214 0 0 1-2.16 2.94h15.55zm-8.089 4.22l-1.784.955a16.928 16.928 0 0 0-2.587-3.693l1.858-.879a20.37 20.37 0 0 1 2.514 3.613zm5.878 6.582l-1.659 1.331a27.472 27.472 0 0 0-4.42-4.622l1.557-1.457a27.26 27.26 0 0 1 4.523 4.744z" class="cls-1" data-name="Path 215"/>
            </g>
        </g>
        <g id="Group_245" data-name="Group 245">
            <g id="Group_241" data-name="Group 241">
                <g id="Group_240" data-name="Group 240">
                    <path id="Path_216" d="M327.887 5006.637l8.27 5.4-27.191 41.151a32.191 32.191 0 0 1 10.262-1.842 27.211 27.211 0 0 1 20.334 8.646 29.47 29.47 0 0 1 8.354 21.295 30.855 30.855 0 0 1-4.037 15.688 29.455 29.455 0 0 1-11.463 11.142 32.314 32.314 0 0 1-15.979 4.137 30.736 30.736 0 0 1-15.366-4 28.683 28.683 0 0 1-11.12-11.244 31.386 31.386 0 0 1-4.037-15.518 37.571 37.571 0 0 1 2.5-12.955 80.915 80.915 0 0 1 8.937-16.371zm-11.043 53.525a21.141 21.141 0 1 0 14.962 6.186 20.4 20.4 0 0 0-14.962-6.186z" class="cls-2" data-name="Path 216"/>
                </g>
            </g>
            <g id="Group_244" data-name="Group 244">
                <g id="Group_243" data-name="Group 243">
                    <g id="Group_242" data-name="Group 242">
                        <path id="Path_217" d="M141.027 5059.039l-.573 1.27a24.83 24.83 0 0 1-8.118-3.967 25.7 25.7 0 0 1-8.2 4.2l-.805-1.221a23.578 23.578 0 0 0 8.031-3.857 13.843 13.843 0 0 1-4.577-7.094 29.834 29.834 0 0 1-6.653 11.244l-.928-.976a28.433 28.433 0 0 0 7.532-15.8h-7.506v-1.307h7.7q.28-1.584.4-3.2h1.379q-.121 1.353-.4 3.2h12.621v1.307H128.1q-.33 1.808-.915 4.127h10.546v1.342a21.128 21.128 0 0 1-4.382 7.129 21.571 21.571 0 0 0 7.678 3.603zm-4.821-10.73h-8.13a13.515 13.515 0 0 0 4.285 6.275 17.751 17.751 0 0 0 3.845-6.275z" class="cls-2" data-name="Path 217"/>
                        <path id="Path_218" d="M175.881 5052.545h-21.654v-1.232h6.054a9.925 9.925 0 0 0-1.551-1.979l.806-.744h-5.127v-1.123h10.023v-2.076h-8.8v-1.147h8.8v-1.855h-9.424v-1.172h20.153v1.172h-9.436v1.855h8.8v1.147h-8.8v2.076h10.035v1.123h-5.274l.915.879q-.366.547-1.318 1.844h5.8zm-2.5 7.85h-1.245v-1.186h-14.15v1.186h-1.306v-6.129h16.7zm-1.245-2.381v-2.528h-14.15v2.528zm-9.8-17.92l-1.2.574a9.414 9.414 0 0 0-1.83-1.758l1.2-.623a6.9 6.9 0 0 1 1.826 1.807zm7.946 8.5h-10.428a18.943 18.943 0 0 1 2.026 2.723h6.53a16.693 16.693 0 0 0 1.868-2.727zm.452-9.729a8.144 8.144 0 0 1-2.1 1.83l-1.331-.683a8.357 8.357 0 0 0 2.282-1.77z" class="cls-2" data-name="Path 218"/>
                        <path id="Path_219" d="M196.855 5044.184a25.7 25.7 0 0 1-2.429 3.429v12.787h-1.293v-11.256a35.743 35.743 0 0 1-3.248 3l-.684-1.026a28.94 28.94 0 0 0 6.556-7.654zm-.574-4.969a23.158 23.158 0 0 1-6.273 5.2l-.758-1.025a21.634 21.634 0 0 0 5.957-4.981zm14.723 8h-3.943v11.107a1.86 1.86 0 0 1-.421 1.287 1.714 1.714 0 0 1-.958.575 14.336 14.336 0 0 1-2.161.1c-.928 0-1.677-.015-2.247-.049l-.524-1.341q1.061.046 2.233.048a15.309 15.309 0 0 0 2.429-.091.407.407 0 0 0 .244-.434v-11.205h-8.8v-1.318H211zm-1.221-6.324H197.9v-1.319h11.878z" class="cls-2" data-name="Path 219"/>
                        <path id="Path_220" d="M236.226 5039.545a30.785 30.785 0 0 1-5.042.914v1.953h4.968v1.2h-4.968v1.83h4.566v7.276h-4.566v1.771h4.566v1.184h-4.566v2.514q2.186-.182 4.566-.573v1.233q-6.726.879-11.365 1.367l-.3-1.27q2.733-.207 5.871-.574v-2.7h-4.627v-1.184h4.627v-1.771h-4.59v-7.276h4.59v-1.83h-5.469v-1.2h5.469v-1.769q-2.076.169-4.627.171l-.414-1.148a41.548 41.548 0 0 0 10.645-1.172zm-6.275 8.873v-1.732h-3.32v1.732zm0 3.1v-1.9h-3.32v1.9zm4.553-3.1v-1.732h-3.32v1.732zm0 3.1v-1.9h-3.32v1.9zm10.351-8.106q0 5.529-.176 10.039a33 33 0 0 1-.427 5.281 2.121 2.121 0 0 1-.9 1.178 5.136 5.136 0 0 1-2.472.408c-.334 0-.631-.011-.892-.037l-.426-1.293c.927.031 1.732.049 2.416.049a1.228 1.228 0 0 0 .855-.353 1.626 1.626 0 0 0 .427-1.123l.231-4.811q.172-4.039.172-8.094h-2.625a32.471 32.471 0 0 1-3.808 15.809l-1.123-.549q3.54-6.043 3.7-15.26l-2.674.026v-1.246l2.723-.024.085-4.894h1.245q-.05 3.05-.122 4.894z" class="cls-2" data-name="Path 220"/>
                        <path id="Path_221" d="M125.281 5088.311q-.39 1.11-1.074 2.6l-.672 1.428v17.517h-1.355v-14.818a27.267 27.267 0 0 1-2.7 3.955l-.756-1.355a34.643 34.643 0 0 0 5.286-9.8zm15.551 11.181h-7.324v8.52h6.7v1.269h-14.903v-1.269h6.848v-8.52h-7.446v-1.306h7.446v-8.35h-6.225v-1.27h13.806v1.27h-6.226v8.35h7.324z" class="cls-2" data-name="Path 221"/>
                        <path id="Path_222" d="M163.711 5096.086a10.85 10.85 0 0 1-1.953 5.75l-.952-.9a10.49 10.49 0 0 0 1.5-3.6h-2.331v10.973a1.722 1.722 0 0 1-.4 1.019c-.265.356-.938.531-2.02.531a8.351 8.351 0 0 1-1.148-.072l-.732-1.344q1.585.123 2.477.124a.616.616 0 0 0 .391-.184.507.507 0 0 0 .208-.367v-9.02a30.187 30.187 0 0 1-3.8 7.164l-.855-1a28.922 28.922 0 0 0 3.98-7.824H154.2v-1.246h5.53a20.6 20.6 0 0 0-3.844-3.369l.915-.83q.891.612 2.259 1.746a23 23 0 0 0 2.746-3.772h-6.726v-1.246h8.154v1.246a27.262 27.262 0 0 1-3.21 4.6l.855.951-.77.672zm10.742 5.725a35.806 35.806 0 0 1-.4 4.6 7.09 7.09 0 0 1-.666 2.477 3.209 3.209 0 0 1-.842.74 8.493 8.493 0 0 1-3.217.224l-.6-1.341c.511.041 1.069.06 1.671.06a5.307 5.307 0 0 0 1.63-.135.945.945 0 0 0 .409-.4 7.076 7.076 0 0 0 .342-1.654q.195-1.392.354-3.332h-4.174q-1.05 4.821-6.2 6.884l-.952-1.025a9.135 9.135 0 0 0 3.735-2.277 7.437 7.437 0 0 0 2.136-3.582h-3.967v-1.246h4.272a16.253 16.253 0 0 0 .22-2.5l1.258.048a19.218 19.218 0 0 1-.208 2.454zm1.477-3.028l-.72 1.123a17.585 17.585 0 0 1-5.384-2.672 18.919 18.919 0 0 1-4.8 2.623l-.879-1.074a15.581 15.581 0 0 0 4.651-2.367 13.716 13.716 0 0 1-2.246-2.783l1.1-.623a10.425 10.425 0 0 0 2.123 2.6 9.448 9.448 0 0 0 2.65-4.027h-5.345a18.615 18.615 0 0 1-2.93 3.076l-.964-.89a17.822 17.822 0 0 0 4.7-5.885l1.245.476a15.44 15.44 0 0 1-1.172 1.977h7.593v1.246h-1.771a11.717 11.717 0 0 1-2.953 4.809 16.244 16.244 0 0 0 5.102 2.391z" class="cls-2" data-name="Path 222"/>
                    </g>
                </g>
                <path id="Line_34" fill="none" stroke="#cc6" stroke-miterlimit="10" stroke-width="0.75px" d="M0 21L56 0" data-name="Line 34" transform="translate(189.181 5088.937)"/>
            </g>
        </g>
        <g id="Group_247" data-name="Group 247">
            <g id="Group_246" data-name="Group 246">
                <path id="Path_223" d="M401.78 5029.493a20.1 20.1 0 0 1-6.585 7.318l-2.718-3.032a16.27 16.27 0 0 0 7-11.917h-7.735v-12.544h12.439v11.5a18.14 18.14 0 0 1-2.401 8.675zm20.071 0a22.16 22.16 0 0 1-6.586 7.318l-2.822-3.032a16.274 16.274 0 0 0 7-11.917h-7.631v-12.544h12.439v11.5a18.14 18.14 0 0 1-2.4 8.675z" class="cls-2" data-name="Path 223"/>
            </g>
        </g>
    </g>
</svg>
