<svg xmlns="http://www.w3.org/2000/svg" width="354" height="361.633" viewBox="0 0 354 361.633">
    <g id="prefix__Group_59" data-name="Group 59" transform="translate(-727.48 -4335.722)">
        <g id="prefix__A5b">
            <text id="prefix__無障礙設施_我OK_您先請" fill="#333" data-name="無障礙設施 我OK，您先請" font-family="MicrosoftJhengHeiLight, Microsoft JhengHei" font-size="51.446px" letter-spacing="0.08em" transform="translate(727.48 4602.355)">
                <tspan x="0" y="0">無障礙設施</tspan><tspan x="0" y="81.818">我OK，您先請</tspan>
            </text>
        </g>
        <g id="prefix__A5n">
            <g id="prefix__Group_56" data-name="Group 56">
                <text id="prefix___5" fill="#f99" data-name="5" font-family="CenturyGothic, Century Gothic" font-size="140px" letter-spacing="0.08em" transform="translate(886.48 4476.722)">
                    <tspan x="0" y="0">5</tspan>
                </text>
                <g id="prefix__Group_55" data-name="Group 55">
                    <text id="prefix__友善行動_任務" fill="#f99" data-name="友善行動 任務" font-family="MicrosoftJhengHeiRegular, Microsoft JhengHei" font-size="25px" letter-spacing="0.4em" transform="translate(727.48 4426.039)">
                        <tspan x="0" y="0">友善行動</tspan><tspan x="0" y="49.548">任務</tspan>
                    </text>
                    <path id="prefix__Line_11" fill="none" stroke="#f99" stroke-miterlimit="10" stroke-width="0.75px" d="M0 21L56 0" data-name="Line 11" transform="translate(799.181 4455.937)"/>
                </g>
            </g>
            <g id="prefix__Group_58" data-name="Group 58">
                <g id="prefix__Group_57" data-name="Group 57">
                    <path id="prefix__Path_46" fill="#f99" d="M1011.78 4396.493a20.1 20.1 0 0 1-6.585 7.318l-2.718-3.032a16.27 16.27 0 0 0 7-11.917h-7.735v-12.544h12.439v11.5a18.14 18.14 0 0 1-2.401 8.675zm20.071 0a22.159 22.159 0 0 1-6.586 7.318l-2.822-3.032a16.274 16.274 0 0 0 7-11.917h-7.631v-12.544h12.439v11.5a18.14 18.14 0 0 1-2.4 8.675z" data-name="Path 46"/>
                </g>
            </g>
        </g>
    </g>
</svg>
