<svg xmlns="http://www.w3.org/2000/svg" width="496" height="279.633" viewBox="0 0 496 279.633">
    <g id="prefix__Group_44" data-name="Group 44" transform="translate(-125.48 -2444.631)">
        <g id="prefix__A2b">
            <text id="prefix__微笑_是最好的禮物" fill="#333" data-name="微笑，是最好的禮物" font-family="MicrosoftJhengHeiLight, Microsoft JhengHei" font-size="51.446px" letter-spacing="0.08em" transform="translate(125.48 2711.264)">
                <tspan x="0" y="0">微笑，是最好的禮物</tspan>
            </text>
        </g>
        <g id="prefix__A2N">
            <g id="prefix__Group_41" data-name="Group 41">
                <text id="prefix___2" fill="#fc3" data-name="2" font-family="CenturyGothic, Century Gothic" font-size="140px" letter-spacing="0.08em" transform="translate(284.48 2585.631)">
                    <tspan x="0" y="0">2</tspan>
                </text>
                <g id="prefix__Group_40" data-name="Group 40">
                    <text id="prefix__友善行動_任務" fill="#fc0" data-name="友善行動 任務" font-family="MicrosoftJhengHeiRegular, Microsoft JhengHei" font-size="25px" letter-spacing="0.4em" transform="translate(125.48 2534.947)">
                        <tspan x="0" y="0">友善行動</tspan><tspan x="0" y="49.548">任務</tspan>
                    </text>
                    <path id="prefix__Line_8" fill="none" stroke="#fc0" stroke-miterlimit="10" stroke-width="0.75px" d="M0 21L56 0" data-name="Line 8" transform="translate(197.181 2564.846)"/>
                </g>
            </g>
            <g id="prefix__Group_43" data-name="Group 43">
                <g id="prefix__Group_42" data-name="Group 42">
                    <path id="prefix__Path_43" fill="#fc3" d="M410.78 2504.493a20.1 20.1 0 0 1-6.585 7.318l-2.718-3.032a16.271 16.271 0 0 0 7-11.917h-7.735v-12.544h12.439v11.5a18.139 18.139 0 0 1-2.401 8.675zm20.071 0a22.16 22.16 0 0 1-6.586 7.318l-2.822-3.032a16.275 16.275 0 0 0 7-11.917h-7.631v-12.544h12.439v11.5a18.139 18.139 0 0 1-2.4 8.675z" data-name="Path 43"/>
                </g>
            </g>
        </g>
    </g>
</svg>
