<svg xmlns="http://www.w3.org/2000/svg" width="380.684" height="229.178" viewBox="0 0 380.684 229.178">
    <defs>
        <style>
            .cls-1{fill:#333}.cls-2{fill:#6cc}
        </style>
    </defs>
    <g id="Symbol_90_1" data-name="Symbol 90 – 1" transform="translate(-709 -5627) translate(.274 -.166)">
        <g id="Group_249" data-name="Group 249">
            <g id="Group_248" data-name="Group 248">
                <path id="Path_224" d="M756.139 5842.2l-1.232 1.684q-11.906-9.571-20.423-14.043v25.924h-2.059V5826.2q-7.234 9.021-20.273 17.737l-1.331-1.633q20.022-12.79 26.251-27.783H711.55v-1.959h43.785v1.959h-16.152a40.726 40.726 0 0 1-4.7 8.892v4.221a134.833 134.833 0 0 1 21.656 14.566z" class="cls-1" data-name="Path 224"/>
                <path id="Path_225" d="M803.937 5848.406h-20.523l1.181 1.457a78.527 78.527 0 0 1-16.981 6.055l-1.08-1.785a58.886 58.886 0 0 0 16.378-5.727h-9.068v-17.836h30.093zm7.412-21.351h-44.615v-1.834h21.152v-3.569h-17.634v-1.783h17.634v-3.617h-19.493v-1.732h19.493v-3.393h2.059v3.393h19.7v1.732h-19.7v3.617h17.761v1.783h-17.761v3.569h21.4zm-9.471 8.816v-3.517H775.9v3.517zm0 5.3v-3.518H775.9v3.518zm0 5.451v-3.668H775.9v3.668zm9.37 7.561l-.93 1.783a86.562 86.562 0 0 0-15.85-4.371l.879-1.783a118.88 118.88 0 0 1 15.901 4.372z" class="cls-1" data-name="Path 225"/>
                <path id="Path_226" d="M829.406 5846.422a38.537 38.537 0 0 1-5.6 8.465l-1.659-1.03a48.263 48.263 0 0 0 5.552-8.314zm34.365-25.02h-38.485v-8.943h38.485zm2.21 5.6h-19.293v3.767h17.333v1.76h-17.333v3.793h17.333v1.758h-17.333v3.592h19.092q-.1 10.55-1.331 12.322t-4.27 1.77h-3.09l-.628-1.784 4.22.051a2.2 2.2 0 0 0 2.173-1.306q.615-1.308.867-9.295h-37.1v-18.161h39.363zm-28.586-7.336v-5.475H827.3v5.475zm7.285 11.1V5827h-16.052v3.767zm0 5.553v-3.793h-16.052v3.793zm0 5.35v-3.592h-16.052v3.592zm-7.712 12.459l-1.96.4a38.2 38.2 0 0 0-1.181-8.189l1.86-.4a33.807 33.807 0 0 1 1.281 8.194zm12.61-34.465v-5.475h-10.2v5.475zm-2.01 33.186l-1.859.55a33.085 33.085 0 0 0-2.462-7.158l1.809-.553a40.008 40.008 0 0 1 2.512 7.166zm14.193-33.186v-5.475h-10.174v5.475zm-4.723 31.576l-1.758.68a31.5 31.5 0 0 0-2.864-6.029l1.784-.629a29.13 29.13 0 0 1 2.838 5.983z" class="cls-1" data-name="Path 226"/>
                <path id="Path_227" d="M904.988 5836.951l-1.607 1.533a46.25 46.25 0 0 0-8.49-7.511l1.457-1.633a60.706 60.706 0 0 1 8.64 7.611z" class="cls-1" data-name="Path 227"/>
                <path id="Path_228" d="M978.387 5842.2l-1.232 1.684q-11.906-9.571-20.423-14.043v25.924h-2.059V5826.2q-7.234 9.021-20.273 17.737l-1.331-1.633q20.022-12.79 26.251-27.783H933.8v-1.959h43.785v1.959h-16.154a40.729 40.729 0 0 1-4.7 8.892v4.221a134.836 134.836 0 0 1 21.656 14.566z" class="cls-1" data-name="Path 228"/>
                <path id="Path_229" d="M1000.161 5852.275H998.2v-4.949h-5.753v6.279h-1.957v-38.484h9.671zm-1.959-6.834v-28.41h-5.753v28.41zm19.292-27.783h-6.18v5.6h5.4v16.929h-5.351v5.854h5.979v1.91h-5.979v7.912h-1.934v-7.912h-6.958v-1.91h6.958v-5.854h-5.477v-16.929h5.4v-5.6h-6.481v-1.908h6.481v-4.623h1.959v4.623h6.18zm-2.713 13.014v-5.451h-8.867v5.451zm0 7.56v-5.652h-8.867v5.652zm17.006 14.5a2.912 2.912 0 0 1-1.029 2.349q-1.032.866-4.145.865l-2.009-.074-.679-1.885q1 .1 2.211.1 3.717 0 3.718-1.607v-13.414h-7.412a50.259 50.259 0 0 1-4.018 16.7l-1.609-1.381a44.078 44.078 0 0 0 3.04-9.822q.981-5.2.98-18.211v-14.043h10.952zm-1.933-15.625v-10.8h-7.059l-.252 10.8zm0-12.76v-10.074h-7.059v10.074z" class="cls-1" data-name="Path 229"/>
                <path id="Path_230" d="M1089.41 5854.385l-1.131 1.959q-15.95-5.4-21.4-16.53h-.6q-3.341 12.11-21.453 16.153l-.778-1.985q16.6-3.213 20.121-14.168h-18.739v-1.882h19.242a45.451 45.451 0 0 0 .628-6.483q-4.848.328-9.9.328-3.09 0-6.3-.127l-.577-2.009 5.425.076a151.529 151.529 0 0 0 30.5-2.813l.551 1.909a163.238 163.238 0 0 1-17.584 2.46 47.488 47.488 0 0 1-.728 6.659h21.252v1.882h-19.091q5.139 9.648 20.562 14.571zm-23.965-36.123h-14.193a45.2 45.2 0 0 1-5.5 6.959l-1.457-1.508a37.857 37.857 0 0 0 8.843-13.162l1.758.929a51.047 51.047 0 0 1-2.462 4.874h13.012zm-4.9 7.787l-1.734.9a60.869 60.869 0 0 0-3.34-6.154l1.632-.93a48.8 48.8 0 0 1 3.444 6.184zm28.059-7.787H1071.3a43.853 43.853 0 0 1-6.255 7.511l-1.457-1.431a40.4 40.4 0 0 0 9.722-13.59l1.758.928a50.125 50.125 0 0 1-2.462 4.674h16zm-7.31 6.908l-1.758 1.08a40.894 40.894 0 0 0-3.392-5.5l1.633-1.08a54.436 54.436 0 0 1 3.523 5.5z" class="cls-1" data-name="Path 230"/>
            </g>
        </g>
        <g id="Group_255" data-name="Group 255">
            <g id="Group_251" data-name="Group 251">
                <g id="Group_250" data-name="Group 250">
                    <path id="Path_231" d="M876.529 5627.166h63.78l-53.8 103.086-8.326-4.266 46.422-89.25h-48.076z" class="cls-2" data-name="Path 231"/>
                </g>
            </g>
            <g id="Group_254" data-name="Group 254">
                <g id="Group_253" data-name="Group 253">
                    <g id="Group_252" data-name="Group 252">
                        <path id="Path_232" d="M731.027 5677.039l-.573 1.27a24.829 24.829 0 0 1-8.118-3.967 25.7 25.7 0 0 1-8.2 4.2l-.8-1.221a23.578 23.578 0 0 0 8.031-3.857 13.843 13.843 0 0 1-4.577-7.094 29.834 29.834 0 0 1-6.653 11.244l-.928-.976a28.433 28.433 0 0 0 7.532-15.8h-7.506v-1.307h7.7q.281-1.584.4-3.2h1.379q-.121 1.353-.4 3.2h12.616v1.307H718.1q-.33 1.808-.915 4.127h10.546v1.342a21.127 21.127 0 0 1-4.382 7.129 21.572 21.572 0 0 0 7.678 3.603zm-4.821-10.73h-8.13a13.515 13.515 0 0 0 4.285 6.275 17.751 17.751 0 0 0 3.845-6.275z" class="cls-2" data-name="Path 232"/>
                        <path id="Path_233" d="M765.881 5670.545h-21.654v-1.232h6.054a9.924 9.924 0 0 0-1.551-1.979l.806-.744h-5.127v-1.123h10.023v-2.076h-8.8v-1.147h8.8v-1.855h-9.424v-1.172h20.153v1.172h-9.436v1.855h8.8v1.147h-8.8v2.076h10.035v1.123h-5.274l.915.879q-.366.547-1.318 1.844h5.8zm-2.5 7.85h-1.245v-1.186h-14.15v1.186h-1.306v-6.129h16.7zm-1.245-2.381v-2.528h-14.15v2.528zm-9.8-17.92l-1.2.574a9.415 9.415 0 0 0-1.83-1.758l1.2-.623a6.9 6.9 0 0 1 1.826 1.807zm7.946 8.5h-10.428a18.943 18.943 0 0 1 2.026 2.723h6.53a16.692 16.692 0 0 0 1.868-2.727zm.452-9.729a8.144 8.144 0 0 1-2.1 1.83l-1.331-.683a8.356 8.356 0 0 0 2.282-1.77z" class="cls-2" data-name="Path 233"/>
                        <path id="Path_234" d="M786.855 5662.184a25.7 25.7 0 0 1-2.429 3.429v12.787h-1.293v-11.256a35.745 35.745 0 0 1-3.248 3l-.684-1.026a28.941 28.941 0 0 0 6.556-7.654zm-.574-4.969a23.158 23.158 0 0 1-6.273 5.2l-.758-1.025a21.633 21.633 0 0 0 5.957-4.981zm14.723 8h-3.943v11.107a1.86 1.86 0 0 1-.421 1.287 1.714 1.714 0 0 1-.958.575 14.336 14.336 0 0 1-2.161.1c-.928 0-1.677-.015-2.247-.049l-.524-1.341q1.06.046 2.233.048a15.309 15.309 0 0 0 2.429-.091.407.407 0 0 0 .244-.434v-11.205h-8.8v-1.318H801zm-1.221-6.324h-11.878v-1.319h11.878z" class="cls-2" data-name="Path 234"/>
                        <path id="Path_235" d="M826.226 5657.545a30.785 30.785 0 0 1-5.042.914v1.953h4.968v1.2h-4.968v1.83h4.566v7.276h-4.566v1.771h4.566v1.184h-4.566v2.514q2.185-.182 4.566-.573v1.233q-6.726.879-11.365 1.367l-.3-1.27q2.733-.207 5.871-.574v-2.7h-4.627v-1.184h4.627v-1.771h-4.59v-7.276h4.59v-1.83h-5.469v-1.2h5.469v-1.769q-2.076.169-4.627.171l-.414-1.148a41.548 41.548 0 0 0 10.645-1.172zm-6.275 8.873v-1.732h-3.32v1.732zm0 3.1v-1.9h-3.32v1.9zm4.553-3.1v-1.732h-3.32v1.732zm0 3.1v-1.9h-3.32v1.9zm10.351-8.106q0 5.529-.176 10.039a33 33 0 0 1-.427 5.281 2.121 2.121 0 0 1-.9 1.178 5.136 5.136 0 0 1-2.472.408c-.334 0-.631-.011-.892-.037l-.426-1.293c.927.031 1.732.049 2.416.049a1.228 1.228 0 0 0 .855-.353 1.626 1.626 0 0 0 .427-1.123l.231-4.811q.173-4.039.172-8.094h-2.625a32.47 32.47 0 0 1-3.808 15.809l-1.123-.549q3.54-6.043 3.7-15.26l-2.674.026v-1.246l2.723-.024.085-4.894h1.245q-.05 3.05-.122 4.894z" class="cls-2" data-name="Path 235"/>
                        <path id="Path_236" d="M715.281 5706.311q-.39 1.11-1.074 2.6l-.672 1.428v17.517h-1.355v-14.818a27.265 27.265 0 0 1-2.7 3.955l-.756-1.355a34.645 34.645 0 0 0 5.286-9.8zm15.551 11.181h-7.324v8.52h6.7v1.269H715.3v-1.269h6.848v-8.52h-7.446v-1.306h7.446v-8.35h-6.225v-1.27h13.806v1.27h-6.226v8.35h7.324z" class="cls-2" data-name="Path 236"/>
                        <path id="Path_237" d="M753.711 5714.086a10.851 10.851 0 0 1-1.953 5.75l-.952-.9a10.491 10.491 0 0 0 1.5-3.6h-2.331v10.973a1.722 1.722 0 0 1-.4 1.019c-.265.356-.938.531-2.02.531a8.35 8.35 0 0 1-1.148-.072l-.732-1.344q1.586.123 2.477.124a.616.616 0 0 0 .391-.184.507.507 0 0 0 .208-.367v-9.02a30.188 30.188 0 0 1-3.8 7.164l-.855-1a28.921 28.921 0 0 0 3.98-7.824H744.2v-1.246h5.53a20.6 20.6 0 0 0-3.844-3.369l.915-.83q.891.612 2.259 1.746a23 23 0 0 0 2.746-3.772h-6.726v-1.246h8.154v1.246a27.26 27.26 0 0 1-3.21 4.6l.855.951-.77.672zm10.742 5.725a35.812 35.812 0 0 1-.4 4.6 7.091 7.091 0 0 1-.666 2.477 3.209 3.209 0 0 1-.842.74 8.493 8.493 0 0 1-3.217.224l-.6-1.341c.511.041 1.069.06 1.671.06a5.307 5.307 0 0 0 1.63-.135.945.945 0 0 0 .409-.4 7.078 7.078 0 0 0 .342-1.654q.2-1.392.354-3.332h-4.174q-1.05 4.821-6.2 6.884l-.952-1.025a9.135 9.135 0 0 0 3.735-2.277 7.437 7.437 0 0 0 2.136-3.582h-3.967v-1.246h4.272a16.248 16.248 0 0 0 .22-2.5l1.258.048a19.21 19.21 0 0 1-.208 2.454zm1.477-3.028l-.72 1.123a17.586 17.586 0 0 1-5.384-2.672 18.919 18.919 0 0 1-4.8 2.623l-.879-1.074a15.581 15.581 0 0 0 4.651-2.367 13.715 13.715 0 0 1-2.246-2.783l1.1-.623a10.426 10.426 0 0 0 2.123 2.6 9.449 9.449 0 0 0 2.65-4.027h-5.345a18.619 18.619 0 0 1-2.93 3.076l-.964-.89a17.822 17.822 0 0 0 4.7-5.885l1.245.476a15.431 15.431 0 0 1-1.172 1.977h7.593v1.246h-1.771a11.717 11.717 0 0 1-2.953 4.809 16.244 16.244 0 0 0 5.102 2.391z" class="cls-2" data-name="Path 237"/>
                    </g>
                </g>
                <path id="Line_35" fill="none" stroke="#6cc" stroke-miterlimit="10" stroke-width="0.75px" d="M0 21L56 0" data-name="Line 35" transform="translate(779.181 5706.937)"/>
            </g>
        </g>
        <g id="Group_257" data-name="Group 257">
            <g id="Group_256" data-name="Group 256">
                <path id="Path_238" d="M992.78 5647.493a20.1 20.1 0 0 1-6.585 7.318l-2.718-3.032a16.27 16.27 0 0 0 7-11.917h-7.735v-12.544h12.439v11.5a18.14 18.14 0 0 1-2.401 8.675zm20.071 0a22.16 22.16 0 0 1-6.586 7.318l-2.822-3.032a16.274 16.274 0 0 0 7-11.917h-7.631v-12.544h12.439v11.5a18.14 18.14 0 0 1-2.4 8.675z" class="cls-2" data-name="Path 238"/>
            </g>
        </g>
    </g>
</svg>
