<svg xmlns="http://www.w3.org/2000/svg" width="213.393" height="126.146" viewBox="0 0 213.393 126.146">
    <defs>
        <style>
            .cls-1{fill:#b3b3b3}.cls-2{fill:#a31e4a}
        </style>
    </defs>
    <g id="Symbol_87_1" data-name="Symbol 87 – 1" transform="translate(-81 -319)">
        <g id="prefix_4" data-name="prefix 4" transform="translate(43.524 303.211)">
            <g id="Group_181" data-name="Group 181">
                <path id="Path_123" d="M152.82 15.789h.874v30.08h5.218v4.1h-5.218V60h-4.28V49.974h-20.64zm-3.406 30.08V27.755l-12.777 18.114z" class="cls-1" data-name="Path 123"/>
            </g>
        </g>
        <path id="prefix_Path_78" d="M174.9 26.749a10.06 10.06 0 0 1-3.293 3.658l-1.359-1.515a8.135 8.135 0 0 0 3.5-5.959h-3.868v-6.272h6.22v5.75a9.068 9.068 0 0 1-1.2 4.338zm10.035 0a11.069 11.069 0 0 1-3.292 3.658l-1.412-1.515a8.135 8.135 0 0 0 3.5-5.959h-3.815v-6.272h6.22v5.75a9.081 9.081 0 0 1-1.2 4.338z" class="cls-1" data-name="prefix Path 78" transform="translate(43.524 303.211)"/>
        <g id="prefix_優先選購身障朋友_製作的產品" data-name="prefix 優先選購身障朋友 製作的產品" transform="translate(43.524 303.211)">
            <g id="Group_182" data-name="Group 182">
                <path id="Path_124" d="M43.392 84.4q-.2 1.145-.779 3.166l-.591 1.9v17.257h-2.21V94.488q-.78 1.356-1.306 2.085l-1.03-2.651a30.178 30.178 0 0 0 3.806-9.909zm17.031 20.423l-.8 1.96a41.931 41.931 0 0 1-7.925-1.646 31.515 31.515 0 0 1-7.976 1.8l-.866-1.909A29.935 29.935 0 0 0 49.308 104q-1.5-.879-1.96-1.231a29.7 29.7 0 0 1-2.776 1.444l-1.18-1.57a22.191 22.191 0 0 0 2.336-1.1 5.63 5.63 0 0 1-.691-.617l1.52-1.129q.313.274.892.715a14.521 14.521 0 0 0 1.494-1.255 1.581 1.581 0 0 1-.98-1.571v-1.917h2.06v1.57a.477.477 0 0 0 .54.54l2.525-.075a.67.67 0 0 0 .414-.144 2.246 2.246 0 0 0 .377-1.062l1.658.817a2 2 0 0 1-.848 1.62 7.4 7.4 0 0 1-3.347.364 3.08 3.08 0 0 1-.64.716h6.317v1.519a17.271 17.271 0 0 1-2.851 2.237 27.608 27.608 0 0 0 6.255.954zm-.515-18.5h-7.26a4.031 4.031 0 0 1-.389.979h5.464v6.255h2.047V96.8h-1.9a16.411 16.411 0 0 1 1.494 2.236l-1.62 1.054a20 20 0 0 0-2.424-3.516l1.469-1.03q.239.24.767.841v-1.23H45.527V96.8q.49-.779.59-.955l1.545.78a13.122 13.122 0 0 1-2.474 3.441l-1.382-1.156a10.341 10.341 0 0 0 1.671-2.034h-2.161v-3.318h2.06v-6.229h4.5a6.5 6.5 0 0 0 .389-1.005h-6.434v-1.746h16.077zM55.5 89.489v-.841h-7.838v.841zm0 1.984v-.853h-7.838v.853zm0 2.085v-.9h-7.838v.9zm-1.307 8.076h-5.15a13.751 13.751 0 0 0 2.739 1.47 23.555 23.555 0 0 0 2.411-1.47zm-.793-5.426l-.754 1.307a10.13 10.13 0 0 0-2.06-.891l.654-1.269a8.769 8.769 0 0 1 2.16.853z" class="cls-2" data-name="Path 124"/>
                <path id="Path_125" d="M87.476 101.27a17.207 17.207 0 0 1-.729 3.662 2.652 2.652 0 0 1-1.105 1.2 5.269 5.269 0 0 1-2.607.421q-1.839-.032-2.631-.031a2.954 2.954 0 0 1-1.991-.578 2.748 2.748 0 0 1-.659-2.123v-7.562h-3.68A11.481 11.481 0 0 1 72 102.922a13.2 13.2 0 0 1-6.129 3.863l-1.08-2.136q6.971-2.135 6.92-8.39h-6.48v-2.11h9.8v-3.982h-4.888a16.745 16.745 0 0 1-2.55 3.078l-2.06-1.357a20.585 20.585 0 0 0 4.974-7.36l2.235.778-1.268 2.7h3.554v-3.73h2.286v3.73h8.88v2.16h-8.88v3.982h9.81v2.11h-7v7.436a.5.5 0 0 0 .326.509 7.563 7.563 0 0 0 1.909.131 5.08 5.08 0 0 0 1.771-.182 1.512 1.512 0 0 0 .61-.93 14.216 14.216 0 0 0 .421-2.719z" class="cls-2" data-name="Path 125"/>
                <path id="Path_126" d="M114.716 104.31l-.64 2.16q-2.488.063-5.427.063-3.19 0-5.212-.05a14.451 14.451 0 0 1-4.038-.691 8.693 8.693 0 0 1-3.435-2 28.477 28.477 0 0 1-2.286 3.165l-1.746-1.5a14.87 14.87 0 0 0 3.655-7.2h-3.165v-2.174a27.729 27.729 0 0 0 2.826-4.345h-3.09v-2.173h5.564v2.173a44.247 44.247 0 0 1-2.7 4.446H97.8a8.569 8.569 0 0 1 .062 1.042 11.651 11.651 0 0 1-.992 4.609 8.226 8.226 0 0 0 2.8 1.8 13.253 13.253 0 0 0 4.3.7q2.706.083 4.854.082 3.141.006 5.892-.107zM97.66 87.253l-1.533 1.571a22.534 22.534 0 0 0-3.454-3.216l1.57-1.545a24.085 24.085 0 0 1 3.417 3.19zm16.654 12.862H98.388v-1.871h3.831v-1.52h-3.266v-1.909h3.266v-1.257h2.181v1.257h3.806v-1.257h2.194v1.257h3.24v1.909h-3.24v1.52h3.918zm-8.541-7.875l-6.594 1.294-.465-1.909a.718.718 0 0 0 .491-.767v-6.38h6.305v4.76h-4.246V91.3q.979-.136 4.459-.879zm-.59 9.52a18.079 18.079 0 0 1-4.76 1.909l-1.595-1.72a23.8 23.8 0 0 0 4.722-1.62zm-1.758-14.293v-1.244h-2.161v1.244zm4.785 10.777v-1.52h-3.81v1.52zM114 92.78h-5.062a2.064 2.064 0 0 1-1.494-.478 2.434 2.434 0 0 1-.49-1.758v-6.066h6.33v4.734h-4.245v1.332a.389.389 0 0 0 .44.44H114zm.126 9.42l-1.407 1.671a31.313 31.313 0 0 0-4.948-1.822l1.394-1.671a42.981 42.981 0 0 1 4.961 1.822zM111.2 87.467v-1.244h-2.16v1.244z" class="cls-2" data-name="Path 126"/>
                <path id="Path_127" d="M126.5 100.53h-4.648l1.432.9a20.171 20.171 0 0 1-2.261 5.325l-1.871-1.319a19.357 19.357 0 0 0 2.16-4.91h-1.272V84.892h6.46zm-2.14-11.066v-2.412h-2.185v2.412zm0 4.434v-2.449h-2.185V93.9zm0 4.521v-2.524h-2.185v2.524zm3.165 6.795l-2.022.842a16.928 16.928 0 0 0-1.859-4.321l1.859-.841a19.671 19.671 0 0 1 2.022 4.32zm14.356-2.549h-1.62v1.67a2.6 2.6 0 0 1-.553 1.853 3.006 3.006 0 0 1-2.147.571q-.641 0-1.6-.088l-.766-2.16c.426.042.883.063 1.368.063a3.51 3.51 0 0 0 1.3-.126.512.512 0 0 0 .182-.452v-1.331h-7.285v4.056h-2.23v-4.056h-1.52v-1.822h1.52v-5.927h4.836v-1.382h-6.293V91.7h3.391v-1.256h-2.135v-1.671h2.135v-1.231h-2.725v-1.758h2.725v-1.457h2.211v1.457h3.705v-1.457h2.211v1.457h3.064v1.758h-3.064v1.231h2.085v1.671h-2.085V91.7h3.29v1.834h-6.242v1.382h4.622v5.927h1.62zm-8.515-4.71v-1.181h-2.6v1.181zm0 2.888V99.65h-2.6v1.193zm3.014-12.12v-1.181h-3.705v1.181zm0 2.977v-1.256h-3.705V91.7zm1.671 6.255v-1.181h-2.412v1.181zm0 2.888V99.65h-2.412v1.193z" class="cls-2" data-name="Path 127"/>
                <path id="Path_128" d="M169.223 94.539a30.4 30.4 0 0 1-3.392 3.214v6.218a2.462 2.462 0 0 1-.6 1.809 2.738 2.738 0 0 1-1.665.728q-1.062.125-4.528.138l-.64-2.135q1.105.038 2.248.037a11.254 11.254 0 0 0 2.562-.144.556.556 0 0 0 .315-.559v-4.421q-5.3 3.793-15.9 6.971l-1.131-2.01a75.831 75.831 0 0 0 14.9-5.677q-6.456.715-14.1 1.206l-.591-2.186q.366 0 2.676-.075V86.2h3.165a10.875 10.875 0 0 0 1.67-2.286l2.449.514a10.218 10.218 0 0 1-1.205 1.772h10.387v8.779a15.918 15.918 0 0 0 2.085-2.06zm-5.7-4.686v-1.67h-11.809v1.67zm0 3.529v-1.708h-11.809v1.708zm0 3.1v-1.253h-11.809v2.336q5.765-.313 11.807-1.08z" class="cls-2" data-name="Path 128"/>
                <path id="Path_129" d="M179.67 92.24a9.725 9.725 0 0 1 2.1 5.715q0 3.379-3.229 3.378a6.474 6.474 0 0 1-.69-.038l-.679-2.134c.276.033.809.049 1.6.049q.8 0 .8-1.356a8.684 8.684 0 0 0-2.26-5.351 52.05 52.05 0 0 0 1.795-5.451h-2.31V106.7h-2.249V84.817h6.72v2.235q-.756 2.877-1.598 5.188zm16.592-.866h-15.047V89.6h3.68q-.3-.854-.753-1.834h-1.973v-1.819h5.451a6.479 6.479 0 0 0-.879-1.494l2.475-.465a12.7 12.7 0 0 1 .979 1.959h5.527v1.821h-1.91l-.841 1.834h3.291zm.05 12.295h-6.067v3h-2.3v-3h-6.682v-1.859h6.682v-1.256h-5.062v-7.9h12.4v7.9h-5.037v1.256h6.067zm-3.266-7.975v-1.281h-7.925v1.281zm0 3.064v-1.369h-7.925v1.369zm-1.746-10.99h-4.66l.715 1.834h3.065q.567-1.092.88-1.834z" class="cls-2" data-name="Path 129"/>
                <path id="Path_130" d="M211.257 104.674a1.861 1.861 0 0 1-.773 1.571q-.772.576-3.4.452l-.766-2.261q.64.036 1.282.037a3.814 3.814 0 0 0 1.268-.113.459.459 0 0 0 .2-.44V98.5h-3.828a19.948 19.948 0 0 1-2.336 8.339l-1.884-1.469a19.346 19.346 0 0 0 2.11-9.282V84.792h8.127zm-2.186-14.281V87h-3.706v3.391zm0 5.916v-3.68h-3.706v3.68zm13.477 8.227a1.9 1.9 0 0 1-.835 1.846 8.638 8.638 0 0 1-3.687.339l-.728-2.21 2.574-.051c.311 0 .465-.17.465-.514V98.5h-4.421a19.6 19.6 0 0 1-2.449 8.2l-1.847-1.407a17.019 17.019 0 0 0 2.085-8.805V84.792h8.843zm-2.211-14.143V87h-4.346v3.391zm0 5.916v-3.68h-4.346v3.68z" class="cls-2" data-name="Path 130"/>
                <path id="Path_131" d="M250.869 104.875l-1.1 2.01A42.292 42.292 0 0 1 242 103a43.229 43.229 0 0 1-7.385 3.882l-1.444-1.96a26.717 26.717 0 0 0 7.071-3.39 17.274 17.274 0 0 1-3.906-5.916 30.575 30.575 0 0 1-6.456 10.412l-1.935-1.62a38.4 38.4 0 0 0 7.75-15.223h-7.259v-2.258h7.485a16.844 16.844 0 0 0 .415-2.813l2.31.024q-.112 1.269-.351 2.789h12.522v2.261h-12.885q-.452 2.361-.742 3.416h10.677v2.286a23.755 23.755 0 0 1-4.246 6.619 29.567 29.567 0 0 0 7.248 3.366zm-5.427-9.985h-7.1a18.768 18.768 0 0 0 3.441 5.3 18.353 18.353 0 0 0 3.659-5.3z" class="cls-2" data-name="Path 131"/>
            </g>
            <g id="Group_183" data-name="Group 183">
                <path id="Path_132" d="M101.108 134.474H89.817a16.971 16.971 0 0 1-3.366 2.336v2.626q2.273-.366 4.861-1.005l.05 2.008a54.359 54.359 0 0 1-7.385 1.37l-.44-1.91a.833.833 0 0 0 .6-.791v-1.193a31.666 31.666 0 0 1-4.509 1.6l-1.281-2a25.8 25.8 0 0 0 8.076-3.04H78.6v-1.935h10.162a4.584 4.584 0 0 0-.565-1l2.474-.351q.39.639.741 1.356h9.7zm-7.762-9.232h-6.255v1.08h5.075v2.927a1.55 1.55 0 0 1-.515 1.23q-.516.453-3.215.365l-.491-1.67 1.872-.026c.192 0 .289-.121.289-.364v-.766h-3.015v3.517h-2.11v-3.517h-3.089v2.8h-2.073v-4.5h5.162v-1.08h-6.43v-1.759h6.43v-1.154h-3.705q-.213.29-.816.979l-1.76-1.151a17.752 17.752 0 0 0 2.135-2.939l2.035.628a5.469 5.469 0 0 1-.439.766h2.549v-1.394h2.11v1.394h5.376v1.721h-5.375v1.154h6.255zm7.976 14.734l-1.193 1.959q-7.285-1.231-9.558-6.532l2.235-.389a9.678 9.678 0 0 0 2.035 2.549 15.08 15.08 0 0 0 3.542-2.549l1.884 1.306a15.082 15.082 0 0 1-3.329 2.5 20.993 20.993 0 0 0 4.384 1.156zm-4.836-12.222h-2.135v-7.347h2.135zm3.957 1.545a2.054 2.054 0 0 1-1.25 1.872 8.228 8.228 0 0 1-2.267.188q-.666 0-1.269-.05l-.64-2.085c.259.016.6.025 1.03.025a8.361 8.361 0 0 0 1.909-.113.4.4 0 0 0 .276-.4v-9.52h2.211z" class="cls-2" data-name="Path 132"/>
                <path id="Path_133" d="M113.051 119.528q-.552 1.57-1.068 2.8l-1.092 2.549v16.743h-2.324v-12.81a19.6 19.6 0 0 1-1.721 2.134l-1.08-2.386a28.5 28.5 0 0 0 4.962-9.545zm15.2 5.074h-8v3.78h7.41v2.136h-7.41v3.73h7.436v2.1h-7.436v5.3h-2.311V124.6h-.879a27.684 27.684 0 0 1-3.705 5.676l-1.671-1.594a27.268 27.268 0 0 0 5.049-9.646l2.286.49a30.458 30.458 0 0 1-1 2.939h10.237z" class="cls-2" data-name="Path 133"/>
                <path id="Path_134" d="M142.8 141.47h-2.211v-1.7h-4.647v1.947h-2.274v-18.71h2.3a16.878 16.878 0 0 0 1.508-3.919l2.373.39a15.637 15.637 0 0 1-1.206 3.529h4.157zM140.593 130v-4.761h-4.647V130zm0 7.56v-5.4h-4.647v5.4zm14.645-14.431q-.026 3.693-.263 9.577t-.7 6.939a3.089 3.089 0 0 1-1.414 1.552 12.949 12.949 0 0 1-4.615.521l-.853-2.261 3.441-.024a1.771 1.771 0 0 0 1.042-.415q.552-.415.829-5.589t.264-8.064H147.8a24.975 24.975 0 0 1-2.726 5.225l-1.758-1.571a30.475 30.475 0 0 0 3.894-9.984l2.26.49q-.251 1.307-.905 3.6zm-3.73 11.493l-2.01 1.293a27.355 27.355 0 0 0-3.555-5.539l2.01-1.256a25.619 25.619 0 0 1 3.555 5.505z" class="cls-2" data-name="Path 134"/>
                <path id="Path_135" d="M182.68 130.229h-18.364v4.22q0 4.759-2.373 7.385l-1.821-1.62a6.072 6.072 0 0 0 1.4-2.323 15.285 15.285 0 0 0 .584-4.962v-4.736h20.574zm-.641-7.31h-3.83a12.668 12.668 0 0 1-2.248 1.858 51.733 51.733 0 0 1 5.514 1.5l-.855 1.57a56.79 56.79 0 0 0-6.87-1.783 25.5 25.5 0 0 1-9.848 1.67l-.666-1.746a30.8 30.8 0 0 0 6.407-.59 46.035 46.035 0 0 0-5.049-.641l1.029-1.52q3.618.34 7.7 1.081a12.5 12.5 0 0 0 2-1.394h-14.385v-2.072h9.546q-.339-.628-.741-1.294l2.336-.49c.352.562.687 1.155 1.005 1.784h8.955zm.691 18.262h-18.462v-1.9h8.226v-1.695h-5.2v-1.86h5.2v-1.481h-4.521a11.648 11.648 0 0 1-2.086 2.411l-1.419-1.8a9.731 9.731 0 0 0 2.85-4.094l2.136.64a3.506 3.506 0 0 1-.377.93h3.417v-1.545h2.336v1.545h6.744v1.909h-6.744v1.481h6.154v1.86h-6.154v1.695h7.9z" class="cls-2" data-name="Path 135"/>
                <path id="Path_136" d="M197.649 141.646h-2.286v-1.306H190.6v1.306h-2.237v-11.568h9.282zm-2.286-3.391v-6.042H190.6v6.042zm11.317-10.438h-15.8v-8.139h15.8zm-2.311-2.035v-3.993h-11.14v3.993zm4.785 15.864h-2.248v-1.306H202.1v1.306h-2.261v-11.568h9.319zm-2.248-3.367v-6.066H202.1v6.066z" class="cls-2" data-name="Path 136"/>
            </g>
        </g>
    </g>
</svg>
