<svg xmlns="http://www.w3.org/2000/svg" width="431.14" height="238.787" viewBox="0 0 431.14 238.787">
    <defs>
        <style>
            .cls-1{fill:#903}.cls-2{fill:#b3b3b3}
        </style>
    </defs>
    <g id="Symbol_100_1" data-name="Symbol 100 – 1" transform="translate(-568 -154)">
        <g id="Group_272" data-name="Group 272" transform="translate(-.529 1.244)">
            <g id="Group_271" data-name="Group 271">
                <path id="Path_276" d="M584.352 278.66q-.4 2.286-1.558 6.33l-1.181 3.793V323.3h-4.421v-24.469q-1.557 2.714-2.612 4.17l-2.06-5.3a60.364 60.364 0 0 0 7.612-19.82zm34.063 40.845l-1.608 3.919a83.937 83.937 0 0 1-15.851-3.29 63.152 63.152 0 0 1-15.951 3.592l-1.734-3.819a59.918 59.918 0 0 0 12.913-2.059q-2.991-1.758-3.919-2.462a60.147 60.147 0 0 1-5.552 2.888l-2.361-3.139a44.461 44.461 0 0 0 4.672-2.211 11.188 11.188 0 0 1-1.381-1.231l3.039-2.261q.629.553 1.784 1.432a29.046 29.046 0 0 0 2.989-2.512 3.159 3.159 0 0 1-1.96-3.14v-3.818h4.12v3.139a.955.955 0 0 0 1.08 1.081l5.049-.151a1.328 1.328 0 0 0 .829-.289 4.475 4.475 0 0 0 .754-2.122l3.316 1.633a4.013 4.013 0 0 1-1.7 3.24q-1.445.881-6.694.728a6.126 6.126 0 0 1-1.281 1.432h12.635v3.04a34.468 34.468 0 0 1-5.7 4.472 55.169 55.169 0 0 0 12.512 1.908zm-1.03-37h-14.52a8.164 8.164 0 0 1-.778 1.96h10.927v12.51h4.094v6.48h-3.793a33.01 33.01 0 0 1 2.99 4.472l-3.241 2.11a39.844 39.844 0 0 0-4.848-7.037l2.939-2.06q.477.479 1.532 1.684v-2.462h-24.065v3.29q.98-1.557 1.181-1.909l3.09 1.558a26.176 26.176 0 0 1-4.95 6.882l-2.762-2.31a20.624 20.624 0 0 0 3.34-4.07H584.2v-6.631h4.119v-12.46h8.993a13.055 13.055 0 0 0 .78-2.01H585.23v-3.491h32.155zm-8.818 6.331v-1.686h-15.674v1.684zm0 3.969V291.1h-15.674v1.7zm0 4.17v-1.809h-15.674v1.809zm-2.612 16.152h-10.3a27.56 27.56 0 0 0 5.477 2.938 47.27 47.27 0 0 0 4.823-2.94zm-1.583-10.853l-1.507 2.614a20.367 20.367 0 0 0-4.12-1.784l1.307-2.538a17.52 17.52 0 0 1 4.32 1.706z" class="cls-1" data-name="Path 276"/>
                <path id="Path_277" d="M672.571 312.4a34.374 34.374 0 0 1-1.457 7.323 5.3 5.3 0 0 1-2.211 2.4q-1.531.9-5.212.841t-5.262-.063a5.9 5.9 0 0 1-3.982-1.155q-1.32-1.155-1.319-4.245v-15.128h-7.36q-.429 8.616-4.145 13.326t-12.259 7.725l-2.16-4.271q13.941-4.269 13.841-16.78h-12.962v-4.22h19.594v-7.963h-9.772a33.442 33.442 0 0 1-5.1 6.155l-4.12-2.713a41.139 41.139 0 0 0 9.948-14.721l4.471 1.558-2.537 5.4h7.109v-7.461h4.572v7.461h17.76v4.321h-17.76v7.963h19.619v4.22h-13.991v14.871a1 1 0 0 0 .653 1.018 15.087 15.087 0 0 0 3.818.263 10.2 10.2 0 0 0 3.542-.364 3.015 3.015 0 0 0 1.218-1.858 28.292 28.292 0 0 0 .842-5.439z" class="cls-1" data-name="Path 277"/>
                <path id="Path_278" d="M727.1 318.476l-1.281 4.32q-4.974.126-10.852.126-6.381 0-10.425-.1a28.9 28.9 0 0 1-8.076-1.382 17.386 17.386 0 0 1-6.87-3.994 56.852 56.852 0 0 1-4.572 6.33l-3.492-2.989q6.129-7.158 7.31-14.393h-6.33v-4.372a55.448 55.448 0 0 0 5.652-8.691h-6.18v-4.346h11.128v4.346a88.178 88.178 0 0 1-5.4 8.893h5.552a16.952 16.952 0 0 1 .125 2.085 23.328 23.328 0 0 1-1.985 9.218 16.47 16.47 0 0 0 5.6 3.606 26.505 26.505 0 0 0 8.6 1.406q5.414.164 9.709.163 6.287-.002 11.787-.226zm-34.113-34.114l-3.064 3.14a45.4 45.4 0 0 0-6.908-6.431l3.139-3.09a48.146 48.146 0 0 1 6.837 6.381zm33.31 25.723h-31.849v-3.742h7.661V303.3h-6.531v-3.819h6.531v-2.511h4.371v2.511h7.612v-2.511h4.371v2.511h6.481v3.819h-6.481v3.04h7.837zm-17.082-15.75l-13.189 2.587-.926-3.822a1.432 1.432 0 0 0 .979-1.533v-12.76h12.61v9.52H700.2v4.12q1.961-.276 8.918-1.759zm-1.181 19.041a36.243 36.243 0 0 1-9.52 3.818l-3.191-3.441a47.566 47.566 0 0 0 9.445-3.24zm-3.517-28.587V282.3H700.2v2.486zm9.571 21.554V303.3h-7.608v3.04zm11.581-10.928h-10.12a4.135 4.135 0 0 1-2.989-.954q-.981-.955-.98-3.518v-12.132h12.66v9.47h-8.49v2.662a.777.777 0 0 0 .879.88h9.044zm.251 18.84l-2.81 3.345a62.5 62.5 0 0 0-9.9-3.643l2.79-3.345a85.806 85.806 0 0 1 9.924 3.643zm-5.854-29.466V282.3h-4.32v2.486z" class="cls-1" data-name="Path 278"/>
                <path id="Path_279" d="M750.715 310.914h-9.3l2.864 1.809a40.367 40.367 0 0 1-4.522 10.651l-3.742-2.638a38.748 38.748 0 0 0 4.32-9.822H737.8V279.64h12.912zm-4.271-22.131v-4.823h-4.371v4.823zm0 8.867v-4.9h-4.371v4.9zm0 9.044v-5.049h-4.371v5.049zm6.33 13.59l-4.045 1.683a33.776 33.776 0 0 0-3.717-8.641l3.717-1.683a39.306 39.306 0 0 1 4.045 8.641zm28.712-5.1h-3.24v3.34a5.2 5.2 0 0 1-1.1 3.705q-1.105 1.145-4.295 1.144-1.282 0-3.191-.176l-1.532-4.321q1.281.126 2.738.126a7.032 7.032 0 0 0 2.6-.251 1.023 1.023 0 0 0 .364-.9v-2.663h-14.57v8.112h-4.471v-8.114h-3.04v-3.643h3.04v-11.857h9.671v-2.764h-12.59v-3.667h6.782v-2.512h-4.27V287.4h4.27v-2.462H753.2v-3.516h5.451v-2.914h4.421v2.914h7.411v-2.914h4.421v2.914h6.129v3.516h-6.129v2.462h4.17v3.342h-4.17v2.512h6.581v3.667H769v2.764h9.244v11.856h3.24zm-17.031-9.42V303.4h-5.2v2.362zm0 5.777v-2.386h-5.2v2.386zm6.029-24.241v-2.362h-7.411v2.362zm0 5.954v-2.512h-7.411v2.512zm3.341 12.51V303.4H769v2.362zm0 5.777v-2.386H769v2.386z" class="cls-1" data-name="Path 279"/>
                <path id="Path_280" d="M836.22 298.932a60.606 60.606 0 0 1-6.783 6.43V317.8a4.912 4.912 0 0 1-1.206 3.617 5.437 5.437 0 0 1-3.328 1.457q-2.123.252-9.055.276l-1.282-4.27q2.211.076 4.5.076a22.483 22.483 0 0 0 5.125-.289 1.111 1.111 0 0 0 .628-1.118V308.7q-10.6 7.587-31.8 13.942l-2.261-4.02a151.657 151.657 0 0 0 29.793-11.355q-12.912 1.434-28.21 2.413l-1.181-4.371q.729 0 5.351-.151v-22.91h6.33a21.747 21.747 0 0 0 3.341-4.572l4.9 1.03a20.493 20.493 0 0 1-2.411 3.542h20.774v17.56a31.854 31.854 0 0 0 4.17-4.121zm-11.4-9.369v-3.342H801.2v3.342zm0 7.058V293.2H801.2v3.417zm0 6.2v-2.512H801.2v4.673q11.532-.625 23.615-2.157z" class="cls-1" data-name="Path 280"/>
                <path id="Path_281" d="M857.167 294.335q4.2 5.778 4.2 11.43 0 6.757-6.456 6.756a13.237 13.237 0 0 1-1.381-.075l-1.356-4.27q.828.1 3.189.1 1.61 0 1.609-2.713 0-5.1-4.523-10.7a103.84 103.84 0 0 0 3.593-10.9h-4.622v39.288h-4.5v-43.762h13.439v4.471q-1.508 5.753-3.192 10.375zm33.185-1.733h-30.095v-3.542h7.36q-.6-1.709-1.507-3.668h-3.944v-3.642h10.9a12.929 12.929 0 0 0-1.757-2.989l4.948-.93a25.313 25.313 0 0 1 1.959 3.919h11.053v3.642h-3.818l-1.683 3.668h6.582zm.1 24.592h-12.134v6h-4.6v-6h-13.361v-3.717h13.365v-2.512H863.6v-15.8h24.793v15.8h-10.075v2.512h12.134zm-6.531-15.951v-2.562h-15.852v2.562zm0 6.129v-2.738h-15.852v2.738zm-3.492-21.98h-9.32l1.432 3.668h6.129q1.13-2.186 1.759-3.668z" class="cls-1" data-name="Path 281"/>
                <path id="Path_282" d="M920.393 319.2a3.717 3.717 0 0 1-1.545 3.14q-1.547 1.155-6.8.9l-1.533-4.521q1.281.074 2.562.075a7.644 7.644 0 0 0 2.537-.226.919.919 0 0 0 .4-.88v-10.843h-7.662q-.954 10.4-4.672 16.679l-3.768-2.938a38.711 38.711 0 0 0 4.221-18.565v-22.583h16.253zm-4.372-28.561v-6.784h-7.411v6.784zm0 11.831v-7.361h-7.411v7.361zm26.955 16.454q0 2.787-1.671 3.692t-7.373.679l-1.457-4.422 5.15-.1q.929 0 .929-1.029v-10.9h-8.842q-1.257 10.727-4.9 16.4l-3.692-2.813q4.169-7.033 4.17-17.61v-23.383h17.685zm-4.422-28.285v-6.784h-8.692v6.784zm0 11.831v-7.361h-8.692v7.361z" class="cls-1" data-name="Path 282"/>
                <path id="Path_283" d="M999.669 319.605l-2.211 4.02q-10.877-4.471-15.524-7.762a86.328 86.328 0 0 1-14.771 7.762l-2.889-3.919a53.445 53.445 0 0 0 14.143-6.782 34.549 34.549 0 0 1-7.813-11.832 61.133 61.133 0 0 1-12.911 20.825l-3.869-3.24a76.748 76.748 0 0 0 15.5-30.447H954.8v-4.521h14.971a33.562 33.562 0 0 0 .829-5.627l4.623.051q-.227 2.537-.7 5.576h25.045v4.521h-25.773q-.9 4.723-1.483 6.833h21.353v4.572q-4.17 8.892-8.49 13.239a59.1 59.1 0 0 0 14.494 6.731zm-10.853-19.97h-14.192q3.667 7.561 6.883 10.6a36.741 36.741 0 0 0 7.309-10.6z" class="cls-1" data-name="Path 283"/>
                <path id="Path_284" d="M617.987 376.621H595.4a33.867 33.867 0 0 1-6.732 4.673v5.25q4.547-.728 9.722-2.01l.1 4.02a109.4 109.4 0 0 1-14.77 2.738l-.879-3.818a1.671 1.671 0 0 0 1.205-1.583v-2.386a63.135 63.135 0 0 1-9.018 3.189l-2.558-3.994a51.52 51.52 0 0 0 16.152-6.079h-15.649v-3.868h20.322a9.133 9.133 0 0 0-1.131-2.01l4.948-.7q.78 1.282 1.483 2.713h19.392zm-15.524-18.463h-12.51v2.16H600.1v5.854a3.106 3.106 0 0 1-1.03 2.461q-1.031.9-6.43.728l-.98-3.34 3.742-.05q.579 0 .578-.729v-1.532h-6.029v7.033h-4.22v-7.033h-6.179v5.6h-4.145v-8.994h10.324v-2.16h-12.859v-3.516h12.861v-2.31h-7.41q-.427.579-1.633 1.96l-3.517-2.311a35.6 35.6 0 0 0 4.27-5.878l4.07 1.255a10.988 10.988 0 0 1-.879 1.533h5.1V346.1h4.22v2.788h10.752v3.441h-10.753v2.312h12.51zm15.952 29.466l-2.387 3.919q-14.57-2.463-19.116-13.063l4.471-.778a19.373 19.373 0 0 0 4.069 5.1 30.154 30.154 0 0 0 7.084-5.1l3.769 2.612a30.211 30.211 0 0 1-6.658 5 42 42 0 0 0 8.768 2.31zm-9.672-24.441h-4.27v-14.7h4.27zm7.913 3.088a4.106 4.106 0 0 1-2.5 3.744 16.4 16.4 0 0 1-4.534.377c-.889 0-1.733-.034-2.538-.1l-1.28-4.17q.777.051 2.059.051a16.634 16.634 0 0 0 3.819-.227.807.807 0 0 0 .552-.8V346.1h4.421z" class="cls-1" data-name="Path 284"/>
                <path id="Path_285" d="M641.925 346.729q-1.107 3.139-2.136 5.6l-2.185 5.1v33.485h-4.648v-25.622a39.205 39.205 0 0 1-3.441 4.271l-2.161-4.773a56.973 56.973 0 0 0 9.923-19.092zm30.4 10.148h-16v7.561h14.815v4.271h-14.822v7.46h14.871v4.2h-14.871v10.6H651.7v-34.092h-1.759a55.223 55.223 0 0 1-7.41 11.354l-3.34-3.19a54.541 54.541 0 0 0 10.1-19.292l4.572.98a61.333 61.333 0 0 1-2.009 5.877h20.466z" class="cls-1" data-name="Path 285"/>
                <path id="Path_286" d="M701.481 390.613h-4.42v-3.39h-9.295v3.893h-4.547v-37.429h4.6a33.781 33.781 0 0 0 3.015-7.837l4.747.778a31.4 31.4 0 0 1-2.411 7.059h8.314zm-4.42-22.934v-9.521h-9.295v9.521zm0 15.122V372h-9.295v10.8zm29.29-28.863q-.051 7.385-.528 19.154t-1.407 13.879a6.182 6.182 0 0 1-2.825 3.1q-1.9.992-9.233 1.043l-1.708-4.522 6.883-.05a3.534 3.534 0 0 0 2.085-.829q1.105-.83 1.658-11.179t.528-16.127h-10.325a49.78 49.78 0 0 1-5.451 10.45l-3.516-3.139a60.939 60.939 0 0 0 7.787-19.971l4.521.98q-.5 2.613-1.808 7.209zm-7.461 22.985l-4.019 2.588a54.756 54.756 0 0 0-7.109-11.078l4.019-2.513a51.279 51.279 0 0 1 7.109 11.003z" class="cls-1" data-name="Path 286"/>
                <path id="Path_287" d="M781.286 368.131H744.56v8.44q0 9.52-4.748 14.771l-3.642-3.24a12.158 12.158 0 0 0 2.8-4.648q1.167-3.114 1.168-9.923v-9.469h41.147zm-1.281-14.62h-7.662a25.446 25.446 0 0 1-4.5 3.718 103.392 103.392 0 0 1 11.027 2.989l-1.708 3.14a113.4 113.4 0 0 0-13.74-3.567 50.923 50.923 0 0 1-19.7 3.341l-1.332-3.491a61.851 61.851 0 0 0 12.812-1.181 92.072 92.072 0 0 0-10.1-1.281l2.061-3.04q7.233.678 15.4 2.16a24.65 24.65 0 0 0 3.994-2.788H737.8v-4.145h19.1q-.681-1.256-1.483-2.588l4.672-.979q1.056 1.683 2.01 3.567h17.911zm1.382 36.525H744.46v-3.794h16.453v-3.39h-10.4v-3.718h10.4v-2.965h-9.043a23.241 23.241 0 0 1-4.17 4.823l-2.839-3.592a19.5 19.5 0 0 0 5.7-8.189l4.271 1.281a7.141 7.141 0 0 1-.753 1.859h6.832v-3.089h4.673v3.089h13.489v3.818h-13.487v2.965H777.9v3.718h-12.314v3.39h15.8z" class="cls-1" data-name="Path 287"/>
                <path id="Path_288" d="M811.275 390.965H806.7v-2.612h-9.52v2.612h-4.472v-23.136h18.563zm-4.571-6.782V372.1h-9.52v12.083zm22.633-20.875h-31.6V347.03h31.6zm-4.622-4.07v-7.988h-22.281v7.988zm9.571 31.727h-4.5v-2.612h-9.621v2.612h-4.522v-23.136h18.64zm-4.5-6.732V372.1h-9.621v12.133z" class="cls-1" data-name="Path 288"/>
            </g>
        </g>
        <g id="Group_273" data-name="Group 273" transform="translate(-.529 1.244)">
            <path id="Path_289" d="M616.622 152.756h1.747v60.16h10.437v8.209h-10.437v20.053h-8.561v-20.053h-41.279zm-6.814 60.16v-36.228l-25.554 36.228z" class="cls-2" data-name="Path 289"/>
        </g>
        <path id="Path_290" d="M668.78 174.675a20.1 20.1 0 0 1-6.585 7.317l-2.718-3.031a16.27 16.27 0 0 0 7-11.917h-7.735V154.5h12.439V166a18.142 18.142 0 0 1-2.401 8.675zm20.071 0a22.156 22.156 0 0 1-6.586 7.317l-2.822-3.031a16.275 16.275 0 0 0 7-11.917h-7.631V154.5h12.439V166a18.142 18.142 0 0 1-2.4 8.675z" class="cls-2" data-name="Path 290" transform="translate(-.529 1.244)"/>
    </g>
</svg>
