<svg xmlns="http://www.w3.org/2000/svg" width="326" height="213.462" viewBox="0 0 326 213.462">
    <g id="prefix__A3n" transform="translate(-25 -303.339)">
        <text id="prefix___3" fill="#b3b3b3" data-name="3" font-family="CenturyGothic, Century Gothic" font-size="60.042px" letter-spacing="0.08em" transform="translate(171 363.339)">
            <tspan x="0" y="0">3</tspan>
        </text>
        <path id="prefix__Path_78" fill="#b3b3b3" d="M669.64 278.963a10.05 10.05 0 0 1-3.293 3.658l-1.359-1.515a8.135 8.135 0 0 0 3.5-5.959h-3.868v-6.272h6.22v5.75a9.074 9.074 0 0 1-1.2 4.338zm10.035 0a11.078 11.078 0 0 1-3.292 3.658l-1.412-1.515a8.135 8.135 0 0 0 3.5-5.959h-3.815v-6.272h6.22v5.75a9.076 9.076 0 0 1-1.201 4.338z" data-name="Path 78" transform="translate(-450.99 51.125)"/>
        <text id="prefix__別擔心_需要幫助有我在_" fill="#693" data-name="別擔心，需要幫助有我在！" font-family="MicrosoftJhengHeiBold, Microsoft JhengHei" font-size="25.723px" letter-spacing="0.06em" transform="translate(188 408.729)">
            <tspan x="-162.827" y="0">別擔心，需要幫助有我在！</tspan>
        </text>
        <text id="prefix__身心障礙朋友_我來carry_生活中_身心障礙朋友難免會遇到許多不方便_邀請您伸出援手為他們加點力_適時給予他們需要的幫助吧_" fill="#4d4d4d" data-name="身心障礙朋友，我來carry! 生活中，身心障礙朋友難免會遇到許多不方便， 邀請您伸出援手為他們加點力， 適時給予他們需要的幫助吧！" font-family="MicrosoftJhengHeiRegular, Microsoft JhengHei" font-size="10px" transform="translate(43.75 440.801)">
            <tspan x="85.474" y="11">身心障礙朋友，我來carry!</tspan><tspan x="38.75" y="28.774">生活中，身心障礙朋友難免會遇到許多不方便，</tspan><tspan x="73.75" y="46.548">邀請您伸出援手為他們加點力，</tspan><tspan x="78.75" y="64.322">適時給予他們需要的幫助吧！</tspan>
        </text>
    </g>
</svg>
