<svg xmlns="http://www.w3.org/2000/svg" width="312.76" height="91.146" viewBox="0 0 312.76 91.146">
    <defs>
        <style>
            .cls-1{fill:#b3b3b3}.cls-2{fill:#693}
        </style>
    </defs>
    <g id="Symbol_86_1" data-name="Symbol 86 – 1" transform="translate(-27 -319)">
        <g id="prefix_3" data-name="prefix 3" transform="translate(25.257 303.211)">
            <g id="Group_179" data-name="Group 179">
                <path id="Path_110" d="M153.945 26.871h-4.4a14.538 14.538 0 0 1 4.6-8.209 12.055 12.055 0 0 1 8.033-2.873 13.288 13.288 0 0 1 6.289 1.539 11.382 11.382 0 0 1 4.514 4.149 10.285 10.285 0 0 1 1.6 5.453q0 5.571-5.541 8.825a12.572 12.572 0 0 1 5.1 3.693 11.807 11.807 0 0 1 2.814 7.682 13.7 13.7 0 0 1-1.935 6.992 13.411 13.411 0 0 1-5.277 5.145 15.384 15.384 0 0 1-7.476 1.818 13.722 13.722 0 0 1-9.293-3.211q-3.725-3.21-4.867-9.425h4.222a12.231 12.231 0 0 0 3.2 6.069 9.85 9.85 0 0 0 6.8 2.375 10.243 10.243 0 0 0 7.534-2.815 8.989 8.989 0 0 0 2.844-6.6 8.533 8.533 0 0 0-1.422-4.719 8.957 8.957 0 0 0-3.811-3.314 21.174 21.174 0 0 0-7.4-1.378v-3.955a13.584 13.584 0 0 0 5.395-1.04A7.86 7.86 0 0 0 169 30.419a6.124 6.124 0 0 0 1.1-3.519 6.381 6.381 0 0 0-2.245-4.866 8.077 8.077 0 0 0-5.672-2.053 7.619 7.619 0 0 0-4.808 1.569 11.836 11.836 0 0 0-3.43 5.321z" class="cls-1" data-name="Path 110"/>
            </g>
        </g>
        <path id="prefix_Path_78" d="M193.65 26.749a10.06 10.06 0 0 1-3.293 3.658L189 28.892a8.135 8.135 0 0 0 3.5-5.959h-3.87v-6.272h6.22v5.75a9.068 9.068 0 0 1-1.2 4.338zm10.035 0a11.069 11.069 0 0 1-3.292 3.658l-1.412-1.515a8.135 8.135 0 0 0 3.5-5.959h-3.815v-6.272h6.22v5.75a9.081 9.081 0 0 1-1.2 4.338z" class="cls-1" data-name="prefix Path 78" transform="translate(25.257 303.211)"/>
        <g id="prefix_別擔心_需要幫助有我在_" data-name="prefix 別擔心 需要幫助有我在" transform="translate(25.257 303.211)">
            <g id="Group_180" data-name="Group 180">
                <path id="Path_111" d="M14.629 95.945q-.213 7.826-1 9.288a3.187 3.187 0 0 1-3.1 1.464q-.967 0-2.185-.051l-.666-2.16q2.223.075 2.9.075 1.029 0 1.25-1.2t.433-5.169H7.395q-.9 5.79-3.906 8.641l-1.746-1.519q3.78-3.932 3.856-12.2H3.363V84.6h11.191v8.516H7.885q-.051 1.62-.2 2.826zm-2.449-5.036v-4.12H5.725v4.12zm6.745 11.115h-2.261v-16h2.261zm4.81 1.57a3.179 3.179 0 0 1-.747 2.443 3.033 3.033 0 0 1-2.078.66q-1.935 0-2.751-.026l-.7-2.211q1.218.077 3.14.076a.783.783 0 0 0 .6-.277.917.917 0 0 0 .252-.639V84.327h2.285z" class="cls-2" data-name="Path 111"/>
                <path id="Path_112" d="M35.929 95.87q-.954.565-1.984 1.054v7.725a2.011 2.011 0 0 1-.666 1.614q-.666.571-3.5.458l-.515-2.261q.954.039 1.469.039a2.065 2.065 0 0 0 .867-.107.5.5 0 0 0 .163-.446V97.98q-1.52.654-2.085.853l-.691-2.16a21.819 21.819 0 0 0 2.776-1.217v-4.937h-2.578v-2.16h2.574v-4.108h2.186v4.108h1.419v2.16h-1.419v3.943l1.67-.9zm15.613-2.952h-3.806q-1.571 0-1.57-1.784v-1.256h-2.035a3.743 3.743 0 0 1-1.149 2.393 4.526 4.526 0 0 1-2.531 1.312l-1.005-1.669q2.4-.39 2.676-2.036h-3.216v8.516a14.241 14.241 0 0 1-2.336 8.44l-1.721-1.645a13.708 13.708 0 0 0 1.872-7.41v-7.185l-.49.315-.666-2.237a13.922 13.922 0 0 0 4.484-4.634l2.261.59a2.772 2.772 0 0 1-.39.7h6.7v1.695l-.98.917h3.881v1.934H48.2v.742a.569.569 0 0 0 .188.421.6.6 0 0 0 .427.181h2.726zm0 2.826H39.685v-1.721h4.471a6.177 6.177 0 0 0-.59-1.419l2.21-.39a15.976 15.976 0 0 1 .8 1.809h4.962zM45.6 87.027h-4.911a8 8 0 0 1-.854.917h4.66zm5.174 11.1h-10.7v-1.479h10.7zm0 2.324h-10.7v-1.466h10.7zm-.188 6.243h-2.134v-.992h-6.117v.992H40.2v-5.376h10.387zM48.452 104v-1h-6.117v1z" class="cls-2" data-name="Path 112"/>
                <path id="Path_113" d="M61.374 92.478a46.108 46.108 0 0 1-3.14 11.631l-2.085-1.243a39.334 39.334 0 0 0 2.926-10.852zm12.472 6.607q-.075 2.461-.27 3.969a5.375 5.375 0 0 1-.5 1.972 3.475 3.475 0 0 1-.917.891 3.4 3.4 0 0 1-1.715.509q-1.1.083-2.361.082-1.4 0-2.625-.107a3.687 3.687 0 0 1-1.639-.4 1.979 1.979 0 0 1-.647-.791 2.823 2.823 0 0 1-.241-1.21V89.752h2.3v13.628q0 .93 1.124.892t3.762-.037a1.472 1.472 0 0 0 .822-.271q.408-.268.553-2.254t.144-3.291zm-2.06-7.925l-1.959 1.419a31.76 31.76 0 0 0-5.3-7.072l1.621-1.419a33.974 33.974 0 0 1 5.638 7.072zm7.172 11.065l-2.236 1.055a40.519 40.519 0 0 0-3.931-10.061l2.01-1.08a49.571 49.571 0 0 1 4.157 10.086z" class="cls-2" data-name="Path 113"/>
                <path id="Path_114" d="M94.091 98.344a1.576 1.576 0 0 1-1.043-1.608 1.445 1.445 0 0 1 .534-1.155 1.776 1.776 0 0 1 1.174-.453 1.519 1.519 0 0 1 1.194.528 1.907 1.907 0 0 1 .465 1.306q0 1.445-2.211 3.127l-.779-.6a6.693 6.693 0 0 0 .666-1.145z" class="cls-2" data-name="Path 114"/>
                <path id="Path_115" d="M133.364 97.314h-10.211a9.088 9.088 0 0 1-.741 1.47h9.721v5.639a2.112 2.112 0 0 1-.666 1.639q-.666.609-3.755.559l-.59-2.009 2.185.012a.747.747 0 0 0 .333-.132.579.579 0 0 0 .257-.471v-3.416h-3.629v5.64h-2.261v-5.64H120.2v5.664h-2.185v-5.664h-3.63v6.066h-2.261v-7.887h7.837a6.831 6.831 0 0 0 .8-1.47h-9.859v-1.935h22.457zm-.666-3.655h-2.235v-4.094h-7.185v4.974h-2.311v-4.974h-7.2v4.119H111.5v-5.891h9.47v-1.18h-8.67v-1.935h19.518v1.935h-8.541v1.18h9.42zm-12.447.415a32.945 32.945 0 0 1-5.1.665l-.465-1.645a41.384 41.384 0 0 0 4.974-.54zm.025-3.341l-.665 1.507a45.84 45.84 0 0 0-4.874-.4l.6-1.569a25.875 25.875 0 0 1 4.939.462zm9.408 2.561l-.49 1.571a33.8 33.8 0 0 0-5.137-.615l.565-1.545a27.621 27.621 0 0 1 5.062.589zm-.125-1.62a27.678 27.678 0 0 1-4.962.365l-.414-1.6a32.9 32.9 0 0 0 4.785-.277z" class="cls-2" data-name="Path 115"/>
                <path id="Path_116" d="M160.529 86.739h-7.147v1.984h6.092v6.167h-20.3v-6.167h5.966v-1.984h-7.071V84.7h22.457zm.025 12.534h-5.941a17.717 17.717 0 0 1-2.525 3.128q3.33.841 7.951 2.524l-.979 1.96q-3.431-1.37-8.994-2.965-3.666 2.349-11.115 2.865l-.754-2.136a25.258 25.258 0 0 0 8.8-1.47q-2.826-.69-5.125-1.1a22.523 22.523 0 0 0 2.349-2.8H138.1v-1.99h7.51q.743-1.129 1.244-2.085l2.236.515a16.414 16.414 0 0 1-.93 1.57h5.125a9.322 9.322 0 0 0 .665-1.319l2.236.39a7.465 7.465 0 0 1-.439.929h4.81zm-15.411-6.305V90.62h-3.756v2.348zm6.77 6.305h-5.062q-.515.729-1.218 1.621 1.833.313 3.83.816a13.634 13.634 0 0 0 2.45-2.437zm-.741-10.55v-1.984h-3.781v1.984zm0 4.245V90.62h-3.781v2.348zm6.041 0V90.62h-3.831v2.348z" class="cls-2" data-name="Path 116"/>
                <path id="Path_117" d="M178.073 92.818q-6.405.865-12.5 1.205l-.138-1.646q2.6-.112 5.225-.313v-1.131h-4.17V89.54h4.17v-.817h-5.137V87.3h5.137v-.866h-4.17v-1.341h4.17v-.929h2.211v.929h3.943v1.344h-3.943v.863h4.271v1.42h-4.271v.817h3.943v1.393h-3.943v.9q2.261-.148 5.175-.54zm8.516 11.2a1.66 1.66 0 0 1-.345 1.087 1.5 1.5 0 0 1-.848.533 10.757 10.757 0 0 1-1.947.113 15.922 15.922 0 0 1-1.871-.075l-.779-1.859q.778.025 3.19.025a.388.388 0 0 0 .44-.439v-.917h-6.669v4.182h-2.286v-4.182h-6.632v3.314h-2.261v-4.935h8.893v-.905h-7.2v-5.3h6.118a10.425 10.425 0 0 0 .69-1.106l2.3.227-.54.879h7.95v5.3h-7.032v.905h8.829zm-3.989-7.269V96h-12.063v.753zm0 1.872v-.767h-12.063v.767zm-.427-8.127l-1.708 1.268a15.562 15.562 0 0 0-2.537-2.109l1.671-1.169a12.345 12.345 0 0 1 2.569 2.01zm5.577-2.386H186v3.806a2.054 2.054 0 0 1-.685 1.582q-.684.628-3.711.5l-.753-2.111h2.374q.588 0 .589-.64v-3.14h-5.865v-1.96h5.865v-1.956H186v1.959h1.746z" class="cls-2" data-name="Path 117"/>
                <path id="Path_118" d="M204.108 102.941a102.06 102.06 0 0 1-11.04 3.429l-.715-2.161q1.443-.326 1.72-.414V84.842h8.906v16.177a4.161 4.161 0 0 0 .992-.313zm-3.379-12.523v-3.391h-4.446v3.391zm0 5.891v-3.73h-4.446v3.73zm0 5.477v-3.341h-4.446v4.71q2.827-.767 4.446-1.369zm13.691-12.862q0 5.7-.2 10.412a29.364 29.364 0 0 1-.516 5.558 2.533 2.533 0 0 1-1 1.294 4.3 4.3 0 0 1-2.248.445q-.69 0-1.871-.037l-.791-2.337q.276.027 3.266.026a.641.641 0 0 0 .527-.333 19.831 19.831 0 0 0 .4-4.283q.177-3.949.176-8.509h-2.6a33.42 33.42 0 0 1-1.457 9.546 21.5 21.5 0 0 1-3.618 6.229l-1.746-1.519a17.777 17.777 0 0 0 3.26-5.408 27.731 27.731 0 0 0 1.3-8.848h-3.328v-2.236h3.353q.1-1.971.05-4.735h2.235q.039 2.1-.049 4.735z" class="cls-2" data-name="Path 118"/>
                <path id="Path_119" d="M242.251 88.848h-12.5a16.755 16.755 0 0 1-1.344 2.211h12.07v13.791a1.794 1.794 0 0 1-.459 1.318 1.941 1.941 0 0 1-1.387.491q-.929.024-1.833.025-1.446 0-2.374-.038l-.992-2.286q1.631.077 4.182.076.54 0 .54-.591v-2.361h-11.465a12.89 12.89 0 0 1-2.674 5.187l-2.186-1.231q2.775-3.038 2.775-5.69v-4.131a18.889 18.889 0 0 1-3.366 2.85l-1.645-1.745a24.465 24.465 0 0 0 7.435-7.876h-7.159v-2.235h8.365a14.694 14.694 0 0 0 1.181-2.55l2.374.39a17.815 17.815 0 0 1-.9 2.16h11.366zm-4.094 6.431v-2.034h-11.2v2.034zm0 4.1v-2.014h-11.2v2.009z" class="cls-2" data-name="Path 119"/>
                <path id="Path_120" d="M269.693 101.66a12.046 12.046 0 0 1-1.325 3.793 2.431 2.431 0 0 1-2.116 1.343q-2.16 0-4.3-3.855a30.6 30.6 0 0 1-4.76 2.889l-1.281-1.91a29.291 29.291 0 0 0 5.212-3.077 41.857 41.857 0 0 1-.866-7.825h-5.376v3.555q1.921-.388 4.27-1.08l.05 2.235q-2.323.678-4.32 1.081v5.7a2.219 2.219 0 0 1-.4 1.457 1.834 1.834 0 0 1-1.016.621 11.205 11.205 0 0 1-2.211.145q-1.194 0-2.336-.063l-.8-2.436q1.734.075 2.838.075a4.686 4.686 0 0 0 1.382-.106.473.473 0 0 0 .2-.459V99.3q-2.765.528-5.061.767l-.415-2.136q2.487-.274 5.476-.879v-4.034h-5.4v-2.185h5.4v-2.914q-1.732.264-4.371.49l-1.03-2.135a37.908 37.908 0 0 0 10.889-2.023l1.307 1.9a33.7 33.7 0 0 1-4.446 1.281v3.4h5.35q-.049-1.559-.049-6.556h2.285q-.037 3.34 0 6.556h7.021v2.185h-6.945a56.88 56.88 0 0 0 .464 6.017 22.492 22.492 0 0 0 3.216-5.012l2.009 1a21.7 21.7 0 0 1-4.509 6.406 9.969 9.969 0 0 0 1.376 2.21c.422.47.747.7.973.7q.879 0 1.57-3.969zm-.893-13.012l-1.86 1.381a18.648 18.648 0 0 0-3.315-3.73l1.77-1.482a20.42 20.42 0 0 1 3.405 3.831z" class="cls-2" data-name="Path 120"/>
                <path id="Path_121" d="M296.758 105.83H280.48v.891h-2.324v-10a20.77 20.77 0 0 1-2.436 2.135l-1.571-1.884a23.987 23.987 0 0 0 6.407-6.87h-5.615v-2.208h6.871a33.535 33.535 0 0 0 1.594-3.831l2.261.591q-.6 1.758-1.256 3.24h11.983v2.211H283.23a36.654 36.654 0 0 1-2.75 4.094v9.4h6.532v-6h-5.226V95.4h5.226v-4.1h2.388v4.1h5.615v2.19H289.4v6h7.361z" class="cls-2" data-name="Path 121"/>
                <path id="Path_122" d="M312.682 102.225a1.8 1.8 0 0 1 1.281.509 1.687 1.687 0 0 1 .013 2.462 1.924 1.924 0 0 1-2.594.012 1.722 1.722 0 0 1 .013-2.481 1.813 1.813 0 0 1 1.287-.502zm1.469-16.278l-.339 13.778h-2.335l-.34-13.778z" class="cls-2" data-name="Path 122"/>
            </g>
        </g>
    </g>
</svg>
