<svg xmlns="http://www.w3.org/2000/svg" width="240.094" height="91.121" viewBox="0 0 240.094 91.121">
    <defs>
        <style>
            .cls-1{fill:#fc3}.cls-2{fill:#b3b3b3}
        </style>
    </defs>
    <g id="Symbol_85_1" data-name="Symbol 85 – 1" transform="translate(-67 -319)">
        <g id="prefix_微笑_是最好的禮物" data-name="prefix 微笑 是最好的禮物" transform="translate(43.64 303.211)">
            <g id="Group_177" data-name="Group 177">
                <path id="Path_100" d="M29.251 84.917a21.168 21.168 0 0 1-4.609 6.067l-1.282-1.872a16.459 16.459 0 0 0 3.881-5.15zm.226 5.351a17.431 17.431 0 0 1-.916 2.109l-.617 1.206V106.7h-2.085v-9.8a15.985 15.985 0 0 1-1.369 1.444l-1.1-2.085a20.6 20.6 0 0 0 4.17-6.97zm3.278 6.656q.013 7.224-2.474 9.747l-1.645-1.306q2.135-2.123 2.109-8.441zm5.476-1.1H29.59v-2.115h8.641zm-.338-3.606h-8.027v-6.46h1.909v4.409h1.206V84.3h1.872v5.865H36v-4.407h1.9zm1.155 9.885a36.778 36.778 0 0 1-4.108 2.927l-.954-1.8a1.349 1.349 0 0 0 .465-1.03v-5.276h1.972v4.611a15.133 15.133 0 0 0 1.884-1.446zm7.26 2.751l-1.208 1.931a18.49 18.49 0 0 1-3.14-3.58 18.054 18.054 0 0 1-3.115 3.629l-1.445-1.645a16.889 16.889 0 0 0 3.429-4.17A29.339 29.339 0 0 1 39.1 95.2l2.035-.465a24.816 24.816 0 0 0 .829 3.19 30.146 30.146 0 0 0 .954-7.9h-1.547a18.3 18.3 0 0 1-1.545 3.893l-1.858-1.08a19.321 19.321 0 0 0 2.4-8.779l2.136.39q-.214 1.557-.591 3.366h4.032v2.21h-.979a29.555 29.555 0 0 1-1.847 10.99 13.5 13.5 0 0 0 3.189 3.835z" class="cls-1" data-name="Path 100"/>
                <path id="Path_101" d="M61.942 88.233h-6.819a19.258 19.258 0 0 1-2.8 3.417l-1.77-1.382a18.324 18.324 0 0 0 4.22-6.154l2.286.54q-.24.552-.817 1.645h5.7zM73.234 104.7l-1.005 2.109q-7.774-1.583-10.311-6.819-2.463 5.524-10.061 6.8L50.6 104.7q7.146-1.145 9.156-5.427h-8.892v-2.06h9.559a20.719 20.719 0 0 0 .214-2.235q-4.347.162-7.335.2l-.792-2.085q4.107.075 9.47-.245a69.247 69.247 0 0 0 8.328-.886l1.005 1.959q-3.732.555-8.34.893-.039 1.117-.2 2.4h9.923l.025 2.06h-8.593q2.097 4.232 9.106 5.426zM59.908 91.449l-2.16.514a10.975 10.975 0 0 0-1.307-2.826l2.236-.439a11.581 11.581 0 0 1 1.231 2.751zm13.226-3.216H65.6a19.361 19.361 0 0 1-2.9 3.63l-1.938-1.243a17.192 17.192 0 0 0 4.321-6.431l2.135.515a7.442 7.442 0 0 1-.615 1.6h6.531zm-2.7 2.676l-2.211.64a8.685 8.685 0 0 0-1.395-2.185l2.161-.615a6.746 6.746 0 0 1 1.445 2.16z" class="cls-1" data-name="Path 101"/>
                <path id="Path_102" d="M88.417 98.344a1.575 1.575 0 0 1-1.042-1.608 1.447 1.447 0 0 1 .533-1.155 1.779 1.779 0 0 1 1.175-.453 1.518 1.518 0 0 1 1.193.528 1.9 1.9 0 0 1 .465 1.306q0 1.445-2.211 3.127l-.778-.6a6.675 6.675 0 0 0 .665-1.145z" class="cls-1" data-name="Path 102"/>
                <path id="Path_103" d="M127.879 104.285l-.778 2.085q-2.437.037-4.108.038-3.567 0-5.991-.163a11.034 11.034 0 0 1-4.088-.974 7.888 7.888 0 0 1-2.82-2.305 16.142 16.142 0 0 1-3.592 3.919l-1.57-1.859a13.979 13.979 0 0 0 4.911-6.757l2.211.564a20.057 20.057 0 0 1-.93 2.186 7.6 7.6 0 0 0 4.408 2.852v-6.532h-10.324v-2.06h22.433v2.06h-9.773v2.336h8.416v2.035h-8.416v2.4q2.424.125 10.011.175zm-3.165-10.576H108.2v-9.081h16.517zm-2.349-5.451v-1.57h-11.806v1.57zm0 3.442v-1.558h-11.806V91.7z" class="cls-1" data-name="Path 103"/>
                <path id="Path_104" d="M154.831 95.179h-11.518v11.542h-2.135v-2.185a79.827 79.827 0 0 1-8.34.628l-.566-2.035h2.136v-7.95h-1.96V93.27h22.383zm-3.115-2.851h-2.211v-5.841h-11.756v5.841h-2.16v-7.75h16.127zm-10.538 4.107v-1.256h-4.584v1.256zm0 3.09v-1.4h-4.584v1.4zm0 3.014v-1.293h-4.584v1.72q3.339-.213 4.584-.427zm7.422-13.226h-10.047v-1.7H148.6zm0 2.826h-10.047v-1.67H148.6zm6.355 12.786l-1.181 1.985a18.77 18.77 0 0 1-4.32-2.45 15.487 15.487 0 0 1-4.609 2.349l-1.156-1.884a13.841 13.841 0 0 0 4.12-1.871 15.743 15.743 0 0 1-2.776-4.484h-.854v-2h9.7a12.784 12.784 0 0 1-2.927 6.456 14.069 14.069 0 0 0 4.004 1.899zm-3.805-6.355h-3.83a10.358 10.358 0 0 0 2.06 3.064 10.855 10.855 0 0 0 1.77-3.064z" class="cls-1" data-name="Path 104"/>
                <path id="Path_105" d="M169.976 103.129l-1.6 1.871a29.5 29.5 0 0 0-2.9-2.875 20.592 20.592 0 0 1-4.246 4.634l-1.594-1.708a19.072 19.072 0 0 0 4.044-4.422q-.7-.639-3.63-2.724.95-3.795 1.397-6.505a9.407 9.407 0 0 1-1.733.1l-.026-2.21q1.57-.077 2.136-.152.5-2.361.855-5.049l2.184.314q-.239 2.249-.665 4.472a13.38 13.38 0 0 0 2.311-.176 15.627 15.627 0 0 0 .126-1.884h2.11a13.317 13.317 0 0 1 .025 1.57c.376-.034.779-.084 1.206-.151l-.026 2.211a10.278 10.278 0 0 1-1.3.2 30.548 30.548 0 0 1-2.036 9.42 37.309 37.309 0 0 1 3.362 3.064zm-3.643-12.2q-1.156.177-2.524.265-.6 3.315-1.256 5.827 1.67 1.194 2.134 1.545a24.383 24.383 0 0 0 1.646-7.633zM182 96.536h-4.94v7.624a2.263 2.263 0 0 1-.559 1.708 2.725 2.725 0 0 1-1.464.677 28.234 28.234 0 0 1-3.718.152l-.879-2.286q1.746.049 3.48.049a.7.7 0 0 0 .791-.791v-7.133h-5.753V94.25h5.753v-2.876q1.959-2.211 3.555-4.347H169.5v-2.261h11.644v2.261q-2.01 2.765-4.082 5.251v1.972H182z" class="cls-1" data-name="Path 105"/>
                <path id="Path_106" d="M196.651 106.47h-2.211v-1.695h-4.647v1.946h-2.273V88.007h2.3a16.833 16.833 0 0 0 1.508-3.919l2.373.39a15.674 15.674 0 0 1-1.205 3.529h4.157zM194.44 95v-4.76h-4.647V95zm0 7.561v-5.4h-4.647v5.4zm14.646-14.432q-.027 3.693-.264 9.577t-.7 6.94a3.087 3.087 0 0 1-1.413 1.552 12.941 12.941 0 0 1-4.615.52l-.855-2.261 3.442-.024a1.774 1.774 0 0 0 1.043-.415q.552-.414.829-5.589t.263-8.063h-5.166a24.94 24.94 0 0 1-2.725 5.224l-1.759-1.57a30.468 30.468 0 0 0 3.894-9.985l2.26.49q-.251 1.307-.9 3.6zm-3.731 11.493l-2.009 1.293a27.427 27.427 0 0 0-3.555-5.539l2.01-1.255a25.621 25.621 0 0 1 3.554 5.504z" class="cls-1" data-name="Path 106"/>
                <path id="Path_107" d="M222.121 98.369l-1.545 1.72a17.688 17.688 0 0 0-1.57-2.674v9.306H216.8v-8.1l-1.746 1.594-1.181-2.085a13.427 13.427 0 0 0 4.86-7.272h-4.345v-2.186h6.632v2.186a20.456 20.456 0 0 1-1.5 3.957 18.014 18.014 0 0 1 2.601 3.554zM219.6 87.153l-1.922 1a24.073 24.073 0 0 0-2.374-3.165l1.984-1.055a15.1 15.1 0 0 1 2.312 3.22zm16.956 19.116H221.43v-1.909h4.2a7.389 7.389 0 0 0-.628-1.846h-1.645v-4.66h11.68v4.66h-1.569q-.351.967-.716 1.846h3.806zm-.227-9.495H221.97v-1.858h14.356zm-.264-2.876h-13.794v-7.775h3.969v-1.846h2.01v1.846h1.821v-1.846h2.06v1.846h3.931zm-9.822-4.735v-1.219h-1.833v1.219zm0 2.926v-1.306h-1.833v1.306zm6.557 8.591V99.6h-7.222v1.08zm-1.746 1.834h-3.806q.277.741.616 1.846h2.487c.264-.61.5-1.227.7-1.846zm-.98-13.351v-1.219h-1.824v1.219zm0 2.951v-1.331h-1.824v1.331zm3.857-2.951v-1.219h-1.8v1.219zm0 2.951v-1.331h-1.8v1.331z" class="cls-1" data-name="Path 107"/>
                <path id="Path_108" d="M250.492 97.213q-1.029.416-2.625.955v8.478h-2.236v-7.737q-1.293.4-3.881 1.131l-.489-2.211q2.046-.5 4.37-1.205v-5.075h-1.771a35.912 35.912 0 0 1-.754 3.579l-1.971-.565a40.721 40.721 0 0 0 1.256-8.39l2.035.365q-.126 1.693-.289 2.876h1.494v-5.087h2.236v5.087h2.085l.026 2.135h-2.111v4.321q2.26-.816 2.449-.892zm12.962-9.7q-.063 4.385-.276 9.546t-.383 6.588a4.074 4.074 0 0 1-.679 2.054 2.515 2.515 0 0 1-1.137.84 12.909 12.909 0 0 1-3.089.214q-.879 0-1.482-.038l-.666-2.16q1.458.077 2.437.075a4.4 4.4 0 0 0 1.934-.238 1.36 1.36 0 0 0 .471-.778 43.193 43.193 0 0 0 .333-4.6q.189-4.056.276-9.319h-.693a30 30 0 0 1-2.393 9.062 27.468 27.468 0 0 1-5.218 7.366l-1.91-1.482a25.773 25.773 0 0 0 5.094-6.77 24.288 24.288 0 0 0 2.242-8.176h-1.156a21.8 21.8 0 0 1-5.84 11.417l-1.857-1.414a18.315 18.315 0 0 0 5.514-10H253.9a20.571 20.571 0 0 1-2.5 4.5l-1.934-1.156q2.438-2.926 3.893-8.879l2.211.389a25.587 25.587 0 0 1-.879 2.964z" class="cls-1" data-name="Path 108"/>
            </g>
        </g>
        <g id="prefix_2" data-name="prefix 2" transform="translate(43.64 303.211)">
            <g id="Group_178" data-name="Group 178">
                <path id="Path_109" d="M134.2 30.36h-4.134a14.812 14.812 0 0 1 4.266-10.474 13.711 13.711 0 0 1 10.1-4.1 12.854 12.854 0 0 1 13.31 12.905 14.128 14.128 0 0 1-1.754 6.878 49.574 49.574 0 0 1-6.812 8.7l-10.745 11.568h19.9V60h-29.292l16.476-17.807a53.269 53.269 0 0 0 6.523-7.965 10.724 10.724 0 0 0 1.51-5.473 8.421 8.421 0 0 0-2.712-6.265 9.19 9.19 0 0 0-6.641-2.626 9.3 9.3 0 0 0-6.875 2.756 11.852 11.852 0 0 0-3.12 7.74z" class="cls-2" data-name="Path 109"/>
            </g>
        </g>
        <path id="prefix_Path_78" d="M174.9 26.749a10.06 10.06 0 0 1-3.293 3.658l-1.359-1.515a8.135 8.135 0 0 0 3.5-5.959h-3.868v-6.272h6.22v5.75a9.068 9.068 0 0 1-1.2 4.338zm10.035 0a11.069 11.069 0 0 1-3.292 3.658l-1.412-1.515a8.135 8.135 0 0 0 3.5-5.959h-3.815v-6.272h6.22v5.75a9.081 9.081 0 0 1-1.2 4.338z" class="cls-2" data-name="prefix Path 78" transform="translate(43.64 303.211)"/>
    </g>
</svg>
