<svg xmlns="http://www.w3.org/2000/svg" width="288" height="213.462" viewBox="0 0 288 213.462">
    <g id="prefix__A2n" transform="translate(-43.75 -303.339)">
        <text id="prefix__微笑_是最好的禮物" fill="#fc3" data-name="微笑，是最好的禮物" font-family="MicrosoftJhengHeiBold, Microsoft JhengHei" font-size="25.723px" letter-spacing="0.06em" transform="translate(65.49 408.729)">
            <tspan x="0" y="0">微笑，是最好的禮物</tspan>
        </text>
        <text id="prefix___2" fill="#b3b3b3" data-name="2" font-family="CenturyGothic, Century Gothic" font-size="60.042px" letter-spacing="0.08em" transform="translate(171 363.339)">
            <tspan x="0" y="0">2</tspan>
        </text>
        <path id="prefix__Path_78" fill="#b3b3b3" d="M669.64 278.963a10.05 10.05 0 0 1-3.293 3.658l-1.359-1.515a8.135 8.135 0 0 0 3.5-5.959h-3.868v-6.272h6.22v5.75a9.074 9.074 0 0 1-1.2 4.338zm10.035 0a11.078 11.078 0 0 1-3.292 3.658l-1.412-1.515a8.135 8.135 0 0 0 3.5-5.959h-3.815v-6.272h6.22v5.75a9.076 9.076 0 0 1-1.201 4.338z" data-name="Path 78" transform="translate(-450.99 51.125)"/>
        <text id="prefix__今天_送一個禮物給身心障礙朋友吧_走在人來人往的路上_留意看看會遇到幾位身心障礙朋友呢_若是遇到他們_給他_她一個溫暖的微笑吧_" fill="#4d4d4d" data-name="今天，送一個禮物給身心障礙朋友吧！ 走在人來人往的路上，留意看看會遇到幾位身心障礙朋友呢？ 若是遇到他們，給他/她一個溫暖的微笑吧！" font-family="MicrosoftJhengHeiRegular, Microsoft JhengHei" font-size="10px" transform="translate(43.75 440.801)">
            <tspan x="58.75" y="11">今天，送一個禮物給身心障礙朋友吧！</tspan><tspan x="8.75" y="28.774">走在人來人往的路上，留意看看會遇到幾位身心障礙朋友呢？</tspan><tspan x="46.665" y="46.548">若是遇到他們，給他/她一個溫暖的微笑吧！</tspan>
        </text>
    </g>
</svg>
