<svg xmlns="http://www.w3.org/2000/svg" width="484.266" height="170.919" viewBox="0 0 484.266 170.919">
    <defs>
        <style>
            .cls-1{fill:#fc3}.cls-2{fill:#b3b3b3}
        </style>
    </defs>
    <g id="Symbol_98_1" data-name="Symbol 98 – 1" transform="translate(-569 -154)">
        <g id="Group_266" data-name="Group 266" transform="translate(-.057 1.244)">
            <g id="Group_265" data-name="Group 265">
                <path id="Path_251" d="M584.5 279.689q-4.347 7.99-9.219 12.134l-2.562-3.743a32.933 32.933 0 0 0 7.762-10.3zm.452 10.7a34.643 34.643 0 0 1-1.833 4.22l-1.231 2.411v26.226h-4.17v-19.592a31.59 31.59 0 0 1-2.739 2.889l-2.21-4.17q4.723-4.773 8.34-13.941zm6.557 13.314q.024 14.444-4.949 19.493l-3.291-2.612q4.27-4.245 4.22-16.881zm10.952-2.211h-17.28v-4.22h17.282zm-.678-7.21h-16.05v-12.909h3.819v8.817h2.411v-11.731h3.743v11.731h2.286v-8.817h3.793zm2.311 19.771a73.458 73.458 0 0 1-8.214 5.852l-1.909-3.592a2.7 2.7 0 0 0 .929-2.06V303.7h3.944v9.219a30.056 30.056 0 0 0 3.768-2.889zm14.519 5.5l-2.411 3.868a36.98 36.98 0 0 1-6.28-7.159 36.147 36.147 0 0 1-6.23 7.259l-2.888-3.291a33.841 33.841 0 0 0 6.857-8.339 58.787 58.787 0 0 1-3.467-11.63l4.07-.93a49.834 49.834 0 0 0 1.658 6.38 60.384 60.384 0 0 0 1.909-15.8h-3.09a36.732 36.732 0 0 1-3.09 7.787l-3.717-2.16q4.068-6.708 4.8-17.56l4.271.78q-.428 3.114-1.181 6.731h8.064v4.422h-1.959q-.151 13.564-3.693 21.98a27.028 27.028 0 0 0 6.379 7.665z" class="cls-1" data-name="Path 251"/>
                <path id="Path_252" d="M649.937 286.321H636.3a38.4 38.4 0 0 1-5.6 6.833l-3.542-2.763a36.607 36.607 0 0 0 8.441-12.309l4.572 1.08q-.477 1.105-1.633 3.291h11.4zm22.584 32.933l-2.01 4.221q-15.549-3.166-20.623-13.641-4.925 11.053-20.121 13.59l-2.513-4.17q14.293-2.286 18.312-10.852h-17.785v-4.12H646.9a40.723 40.723 0 0 0 .427-4.47q-8.692.325-14.67.4l-1.583-4.17q8.215.152 18.941-.49a138.305 138.305 0 0 0 16.655-1.771l2.01 3.919q-7.461 1.105-16.68 1.783-.076 2.238-.4 4.8h19.84l.051 4.12h-17.182q4.191 8.465 18.212 10.851zm-26.653-26.5l-4.32 1.03a21.94 21.94 0 0 0-2.612-5.652l4.47-.879a23.15 23.15 0 0 1 2.462 5.499zm26.452-6.431h-15.072a38.7 38.7 0 0 1-5.8 7.26l-3.869-2.486a34.352 34.352 0 0 0 8.642-12.863l4.27 1.031a14.841 14.841 0 0 1-1.23 3.19h13.059zm-5.4 5.351l-4.421 1.281a17.383 17.383 0 0 0-2.788-4.371l4.32-1.23a13.485 13.485 0 0 1 2.888 4.318z" class="cls-1" data-name="Path 252"/>
                <path id="Path_253" d="M702.938 306.543a3.151 3.151 0 0 1-2.084-3.215 2.894 2.894 0 0 1 1.067-2.311 3.555 3.555 0 0 1 2.349-.9 3.033 3.033 0 0 1 2.386 1.056 3.812 3.812 0 0 1 .93 2.612q0 2.889-4.421 6.255l-1.558-1.206a13.3 13.3 0 0 0 1.331-2.291z" class="cls-1" data-name="Path 253"/>
                <path id="Path_254" d="M781.914 318.425l-1.558 4.17q-4.874.076-8.214.076-7.134 0-11.982-.327a22.021 22.021 0 0 1-8.177-1.947 15.771 15.771 0 0 1-5.639-4.61 32.247 32.247 0 0 1-7.185 7.838l-3.139-3.718q6.052-4.019 9.821-13.514l4.422 1.13a39.684 39.684 0 0 1-1.86 4.371q2.638 3.919 8.818 5.7v-13.061h-20.649v-4.119h44.865v4.119h-19.544v4.673h16.831v4.069h-16.831v4.8q4.848.25 20.021.35zm-6.331-21.151h-33.032v-18.162h33.032zm-4.7-10.9v-3.141h-23.61v3.141zm0 6.883v-3.117h-23.61v3.115z" class="cls-1" data-name="Path 254"/>
                <path id="Path_255" d="M835.868 300.213h-23.035V323.3h-4.271v-4.371a159.921 159.921 0 0 1-16.679 1.256l-1.131-4.07h4.27v-15.9H791.1v-3.818h44.764zm-6.229-5.7h-4.422V282.83h-23.512v11.681h-4.321v-15.5h32.255zm-21.077 8.214v-2.512h-9.168v2.512zm0 6.179v-2.788h-9.168v2.782zm0 6.03v-2.588h-9.168v3.441q6.683-.428 9.168-.855zm14.846-26.453h-20.1v-3.39h20.1zm0 5.653h-20.1v-3.341h20.1zm12.711 25.572l-2.361 3.969a37.462 37.462 0 0 1-8.641-4.9 30.975 30.975 0 0 1-9.22 4.7l-2.31-3.769a27.693 27.693 0 0 0 8.239-3.742 31.605 31.605 0 0 1-5.552-8.969h-1.708V303h19.393a25.562 25.562 0 0 1-5.853 12.912 28.146 28.146 0 0 0 8.013 3.794zm-7.611-12.711h-7.661a20.717 20.717 0 0 0 4.119 6.13 21.712 21.712 0 0 0 3.542-6.132z" class="cls-1" data-name="Path 255"/>
                <path id="Path_256" d="M866.211 316.114l-3.19 3.743a59.445 59.445 0 0 0-5.8-5.753 41.115 41.115 0 0 1-8.491 9.27l-3.19-3.417a38.111 38.111 0 0 0 8.088-8.842q-1.407-1.281-7.26-5.451 1.886-7.587 2.789-13.013a18.915 18.915 0 0 1-3.467.2l-.049-4.421q3.138-.152 4.269-.3 1.005-4.724 1.709-10.1l4.37.628q-.477 4.5-1.331 8.943a26.637 26.637 0 0 0 4.622-.352 31.421 31.421 0 0 0 .251-3.768h4.221a26.209 26.209 0 0 1 .05 3.14q1.131-.1 2.412-.3l-.051 4.422a20.175 20.175 0 0 1-2.612.4q-.979 11.706-4.069 18.839a74.752 74.752 0 0 1 6.729 6.132zm-7.285-24.391q-2.312.351-5.049.527-1.206 6.631-2.513 11.655 3.342 2.388 4.271 3.09a48.854 48.854 0 0 0 3.291-15.272zm31.325 11.2h-9.872v15.248a4.52 4.52 0 0 1-1.118 3.416 5.446 5.446 0 0 1-2.927 1.357 57.059 57.059 0 0 1-7.436.3l-1.758-4.571q3.492.1 6.959.1a1.4 1.4 0 0 0 1.582-1.582v-14.265h-11.505v-4.572h11.505V292.6q3.919-4.422 7.109-8.692h-17.534v-4.521h23.287v4.521q-4.02 5.527-8.164 10.5v3.944h9.872z" class="cls-1" data-name="Path 256"/>
                <path id="Path_257" d="M919.613 322.8h-4.421v-3.4h-9.3v3.9h-4.546v-37.43h4.6a33.763 33.763 0 0 0 3.015-7.837l4.747.779a31.382 31.382 0 0 1-2.411 7.058h8.314zm-4.421-22.935v-9.52h-9.3v9.52zm0 15.122v-10.8h-9.3v10.8zm29.29-28.863q-.05 7.386-.527 19.154t-1.407 13.879a6.18 6.18 0 0 1-2.825 3.1q-1.9.991-9.233 1.043l-1.708-4.523 6.883-.049a3.539 3.539 0 0 0 2.085-.83q1.105-.828 1.658-11.178t.528-16.127h-10.325a49.778 49.778 0 0 1-5.451 10.45l-3.516-3.14a60.942 60.942 0 0 0 7.787-19.97l4.521.979q-.5 2.613-1.808 7.209zm-7.461 22.985L933 311.693a54.783 54.783 0 0 0-7.109-11.078l4.019-2.512a51.251 51.251 0 0 1 7.111 11.002z" class="cls-1" data-name="Path 257"/>
                <path id="Path_258" d="M970.6 306.594l-3.089 3.441a35.3 35.3 0 0 0-3.14-5.35V323.3h-4.421v-16.2l-3.492 3.19-2.361-4.17q6.556-4.572 9.721-14.545h-8.691V287.2H968.4v4.37a40.889 40.889 0 0 1-2.99 7.913 36.128 36.128 0 0 1 5.19 7.111zm-5.048-22.433l-3.844 2.01a48.122 48.122 0 0 0-4.747-6.33l3.969-2.111a30.329 30.329 0 0 1 4.626 6.431zm33.912 38.234h-30.241v-3.819h8.39a14.757 14.757 0 0 0-1.256-3.693h-3.291v-9.32h23.363v9.32h-3.141q-.7 1.935-1.432 3.693h7.612zm-.452-18.992H970.3v-3.717h28.712zm-.528-5.753h-27.578V282.1h7.938v-3.694h4.019v3.694h3.643v-3.694h4.12v3.694h7.862zm-19.644-9.469v-2.437h-3.667v2.437zm0 5.852v-2.612h-3.667v2.612zm13.113 17.183v-2.16h-14.44v2.16zm-3.492 3.667h-7.611q.552 1.482 1.231 3.693h4.974q.806-1.833 1.41-3.693zm-1.959-26.7v-2.437h-3.643v2.437zm0 5.9v-2.663h-3.643v2.663zm7.712-5.9v-2.437h-3.592v2.437zm0 5.9v-2.663h-3.592v2.663z" class="cls-1" data-name="Path 258"/>
                <path id="Path_259" d="M1027.4 304.282q-2.059.829-5.25 1.909v16.956h-4.471v-15.473q-2.587.8-7.762 2.261l-.979-4.421q4.094-1.005 8.741-2.412v-10.149h-3.541a72.7 72.7 0 0 1-1.508 7.159l-3.943-1.13a81.666 81.666 0 0 0 2.511-16.78l4.07.729q-.252 3.39-.578 5.752h2.989v-10.174h4.471v10.174h4.17l.051 4.27h-4.221v8.647q4.522-1.633 4.9-1.783zm25.925-19.392q-.126 8.766-.552 19.091t-.773 13.175a8.129 8.129 0 0 1-1.357 4.108 5.036 5.036 0 0 1-2.273 1.683 25.98 25.98 0 0 1-6.18.427q-1.758 0-2.964-.075l-1.331-4.321q2.914.15 4.873.151 3.216 0 3.869-.478a2.716 2.716 0 0 0 .942-1.557 86.727 86.727 0 0 0 .665-9.2q.378-8.113.553-18.638h-1.381a59.994 59.994 0 0 1-4.786 18.124 54.967 54.967 0 0 1-10.438 14.733l-3.817-2.965a51.554 51.554 0 0 0 10.185-13.539 48.548 48.548 0 0 0 4.485-16.353h-2.312q-2.762 13.866-11.68 22.834l-3.718-2.839a36.613 36.613 0 0 0 11.027-20h-2.16a41.088 41.088 0 0 1-5 8.993l-3.868-2.312q4.874-5.852 7.787-17.759l4.421.778a50.8 50.8 0 0 1-1.758 5.929z" class="cls-1" data-name="Path 259"/>
            </g>
        </g>
        <g id="Group_267" data-name="Group 267" transform="translate(-.057 1.244)">
            <path id="Path_260" d="M579.377 181.9h-8.268q.352-12.756 8.532-20.949a27.422 27.422 0 0 1 20.2-8.193q11.9 0 19.262 7.685a25.343 25.343 0 0 1 7.358 18.126 28.253 28.253 0 0 1-3.508 13.756q-3.509 6.423-13.625 17.393l-21.486 23.136h39.792v8.326h-58.577l32.953-35.614q10.026-10.737 13.046-15.932a21.447 21.447 0 0 0 3.02-10.944 16.844 16.844 0 0 0-5.424-12.529 18.37 18.37 0 0 0-13.281-5.252 18.6 18.6 0 0 0-13.749 5.511q-5.484 5.511-6.245 15.48z" class="cls-2" data-name="Path 260"/>
        </g>
        <path id="Path_261" d="M668.78 174.675a20.1 20.1 0 0 1-6.585 7.317l-2.718-3.031a16.27 16.27 0 0 0 7-11.917h-7.735V154.5h12.439V166a18.142 18.142 0 0 1-2.401 8.675zm20.071 0a22.156 22.156 0 0 1-6.586 7.317l-2.822-3.031a16.275 16.275 0 0 0 7-11.917h-7.631V154.5h12.439V166a18.142 18.142 0 0 1-2.4 8.675z" class="cls-2" data-name="Path 261" transform="translate(-.057 1.244)"/>
    </g>
</svg>
