<svg xmlns="http://www.w3.org/2000/svg" width="578.59" height="170.97" viewBox="0 0 578.59 170.97">
    <defs>
        <style>
            .cls-1{fill:#693}.cls-2{fill:#b3b3b3}
        </style>
    </defs>
    <g id="Symbol_99_1" data-name="Symbol 99 – 1" transform="translate(-569 -154)">
        <g id="Group_269" data-name="Group 269" transform="translate(-.702 1.244)">
            <g id="Group_268" data-name="Group 268">
                <path id="Path_262" d="M598.394 301.745q-.429 15.651-2 18.576t-6.191 2.927q-1.935 0-4.371-.1l-1.332-4.32q4.447.152 5.8.151 2.059 0 2.5-2.4t.866-10.337h-9.746q-1.809 11.58-7.813 17.282l-3.492-3.039q7.562-7.863 7.712-24.391h-4.471v-17.032h22.382v17.032H584.9q-.1 3.24-.4 5.651zm-4.9-10.073v-8.239h-12.91v8.239zm13.49 22.231h-4.522v-32h4.522zm9.621 3.141q0 3.567-1.495 4.886a6.07 6.07 0 0 1-4.157 1.318q-3.868 0-5.5-.05l-1.406-4.422q2.436.152 6.28.152a1.574 1.574 0 0 0 1.205-.553 1.845 1.845 0 0 0 .5-1.281v-38.585h4.572z" class="cls-1" data-name="Path 262"/>
                <path id="Path_263" d="M637.958 301.6q-1.908 1.131-3.969 2.11v15.448a4.027 4.027 0 0 1-1.331 3.229q-1.331 1.143-7.009.917l-1.03-4.523q1.91.076 2.94.077a4.092 4.092 0 0 0 1.733-.214 1 1 0 0 0 .326-.892v-11.938q-3.039 1.308-4.17 1.709l-1.382-4.321a43.506 43.506 0 0 0 5.552-2.436v-9.872h-5.149v-4.322h5.149v-8.214h4.371v8.214h2.839v4.322h-2.839v7.887l3.341-1.808zm31.225-5.9h-7.612q-3.139 0-3.139-3.567v-2.512h-4.071a7.48 7.48 0 0 1-2.3 4.785 9.063 9.063 0 0 1-5.061 2.616l-2.01-3.34q4.8-.779 5.351-4.07h-6.431v17.032q0 10.3-4.673 16.88l-3.441-3.291q3.743-5.978 3.743-14.82v-14.369l-.979.628-1.333-4.471a27.864 27.864 0 0 0 8.968-9.269l4.523 1.18a5.606 5.606 0 0 1-.78 1.407h13.39v3.391l-1.96 1.834h7.763v3.868H662.5v1.488a1.134 1.134 0 0 0 .377.841 1.194 1.194 0 0 0 .853.364h5.452zm0 5.653h-23.714V297.9h8.943a12.388 12.388 0 0 0-1.181-2.839l4.421-.779a32.05 32.05 0 0 1 1.608 3.618h9.923zM657.3 283.91h-9.822a16.108 16.108 0 0 1-1.708 1.834h9.319zm10.349 22.206h-21.4v-2.964h21.4zm0 4.648h-21.4v-2.94h21.4zm-.377 12.484H663v-1.984h-12.23v1.984h-4.27V312.5h20.774zm-4.27-5.4v-1.985H650.77v1.985z" class="cls-1" data-name="Path 263"/>
                <path id="Path_264" d="M685.812 294.813q-2.387 14.82-6.28 23.26l-4.17-2.486a78.694 78.694 0 0 0 5.854-21.7zm24.945 13.212q-.152 4.925-.54 7.939a10.739 10.739 0 0 1-1.005 3.943 6.906 6.906 0 0 1-1.834 1.783 6.815 6.815 0 0 1-3.429 1.018q-2.209.162-4.722.163-2.79 0-5.25-.213a7.379 7.379 0 0 1-3.279-.792 3.99 3.99 0 0 1-1.294-1.582 5.647 5.647 0 0 1-.476-2.436v-28.487h4.6v27.255q0 1.86 2.248 1.784t7.524-.076a2.949 2.949 0 0 0 1.645-.54q.816-.539 1.106-4.509t.289-6.581zm-4.12-15.85l-3.918 2.838a63.629 63.629 0 0 0-10.6-14.143l3.241-2.838a67.917 67.917 0 0 1 11.277 14.143zm14.343 22.131l-4.471 2.11a80.979 80.979 0 0 0-7.863-20.122l4.02-2.16a99.15 99.15 0 0 1 8.314 20.172z" class="cls-1" data-name="Path 264"/>
                <path id="Path_265" d="M742.037 306.543a3.151 3.151 0 0 1-2.085-3.215 2.894 2.894 0 0 1 1.068-2.311 3.552 3.552 0 0 1 2.348-.9 3.034 3.034 0 0 1 2.387 1.056 3.812 3.812 0 0 1 .93 2.612q0 2.889-4.421 6.255l-1.558-1.206a13.3 13.3 0 0 0 1.331-2.291z" class="cls-1" data-name="Path 265"/>
                <path id="Path_266" d="M812.4 304.483h-20.419a17.861 17.861 0 0 1-1.482 2.94h19.443V318.7a4.226 4.226 0 0 1-1.331 3.278q-1.331 1.222-7.511 1.122l-1.181-4.02 4.371.026a1.5 1.5 0 0 0 .666-.264 1.169 1.169 0 0 0 .515-.943v-6.833h-7.26v11.28h-4.522v-11.28h-7.611v11.331h-4.371v-11.333h-7.26V323.2h-4.521v-15.777H785.6a13.775 13.775 0 0 0 1.608-2.94h-19.72v-3.868H812.4zm-1.331-7.309H806.6v-8.19h-14.37v9.948h-4.62v-9.948h-14.393v8.24h-4.547v-11.782h18.94v-2.361h-17.333v-3.868h39.037v3.868h-17.082v2.361h18.841zm-24.89.826a65.788 65.788 0 0 1-10.2 1.332l-.928-3.291a82.4 82.4 0 0 0 9.947-1.08zm.05-6.682l-1.332 3.015a91.2 91.2 0 0 0-9.746-.8l1.205-3.14a51.855 51.855 0 0 1 9.873.927zm18.815 5.125l-.98 3.14a67.614 67.614 0 0 0-10.274-1.231l1.131-3.089a55.115 55.115 0 0 1 10.123 1.182zm-.251-3.241a55.527 55.527 0 0 1-9.923.729l-.829-3.19a65.8 65.8 0 0 0 9.571-.553z" class="cls-1" data-name="Path 266"/>
                <path id="Path_267" d="M863.7 283.332h-14.294v3.968h12.184v12.334h-40.6V287.3h11.933v-3.969h-14.138v-4.069H863.7zm.05 25.07h-11.882a35.509 35.509 0 0 1-5.049 6.255q6.657 1.683 15.9 5.049l-1.959 3.919q-6.859-2.738-17.987-5.929-7.333 4.7-22.231 5.728l-1.507-4.271q11.028-.251 17.61-2.938-5.653-1.381-10.25-2.211a44.89 44.89 0 0 0 4.7-5.6h-12.26v-3.968h15.021q1.483-2.262 2.488-4.17l4.471 1.029a32.531 32.531 0 0 1-1.859 3.141h10.249a18.527 18.527 0 0 0 1.332-2.638l4.471.778a14.762 14.762 0 0 1-.879 1.86h9.621zm-30.822-12.61v-4.7h-7.511v4.7zm13.539 12.61h-10.123q-1.031 1.458-2.437 3.241 3.669.629 7.661 1.632a27.256 27.256 0 0 0 4.899-4.875zm-1.482-21.1v-3.969h-7.561v3.967zm0 8.491v-4.7h-7.561v4.7zm12.083 0v-4.7h-7.662v4.7z" class="cls-1" data-name="Path 267"/>
                <path id="Path_268" d="M895.753 295.49q-12.812 1.734-24.994 2.412l-.277-3.291q5.2-.225 10.451-.628v-2.26h-8.34v-2.789h8.34V287.3h-10.275v-2.838h10.275v-1.734h-8.34v-2.688h8.34v-1.858h4.421v1.858h7.887v2.688h-7.887v1.734h8.546v2.838h-8.541v1.633h7.887v2.789h-7.887v1.808q4.521-.3 10.349-1.08zm17.032 22.41a3.308 3.308 0 0 1-.691 2.173 3 3 0 0 1-1.7 1.068 21.414 21.414 0 0 1-3.893.226 31.846 31.846 0 0 1-3.743-.15L901.2 317.5q1.557.049 6.381.05a.777.777 0 0 0 .879-.879v-1.834h-13.335v8.363h-4.571v-8.365H877.29v6.632h-4.521v-9.872h17.785v-1.809h-14.4v-10.6h12.234a21.137 21.137 0 0 0 1.381-2.21l4.6.452-1.081 1.758h15.9v10.6h-14.063v1.809h17.66zm-7.985-14.546v-1.508h-24.119v1.508zm0 3.742v-1.533h-24.119v1.537zm-.855-16.253l-3.416 2.537a31.209 31.209 0 0 0-5.074-4.22l3.341-2.336a24.7 24.7 0 0 1 5.146 4.019zm11.155-4.773h-3.5v7.612a4.113 4.113 0 0 1-1.369 3.165q-1.369 1.257-7.423 1.005l-1.507-4.22h4.748q1.181 0 1.18-1.281v-6.281H895.5v-3.919h11.731v-3.919h4.369v3.919h3.5z" class="cls-1" data-name="Path 268"/>
                <path id="Path_269" d="M944.788 315.737a203.842 203.842 0 0 1-22.081 6.858l-1.432-4.321q2.889-.652 3.442-.829v-37.906h17.81v32.355a8.182 8.182 0 0 0 1.985-.628zm-6.758-25.045v-6.782h-8.892v6.782zm0 11.782v-7.461h-8.892v7.461zm0 10.952v-6.682h-8.892v9.42q5.652-1.531 8.892-2.738zm27.382-25.726q0 11.406-.4 20.824t-1.031 11.117a5.056 5.056 0 0 1-2.009 2.586 8.582 8.582 0 0 1-4.5.893q-1.382 0-3.744-.076l-1.582-4.672q.554.049 6.532.05a1.281 1.281 0 0 0 1.054-.665q.453-.666.8-8.567t.352-17.018h-5.2q-.527 12.56-2.914 19.091a43 43 0 0 1-7.234 12.46l-3.492-3.04a35.57 35.57 0 0 0 6.518-10.814q2.324-6.041 2.6-17.7h-6.657V287.7h6.707q.2-3.943.1-9.471h4.472q.075 4.2-.1 9.471z" class="cls-1" data-name="Path 269"/>
                <path id="Path_270" d="M1018.039 287.553h-24.995a33.7 33.7 0 0 1-2.688 4.421h24.144v27.582a3.6 3.6 0 0 1-.917 2.637 3.9 3.9 0 0 1-2.776.98q-1.86.049-3.667.05-2.891 0-4.748-.076l-1.985-4.571q3.266.152 8.366.151 1.078 0 1.08-1.181v-4.723h-22.938a25.771 25.771 0 0 1-5.351 10.375l-4.371-2.462q5.551-6.078 5.552-11.38v-8.264a37.9 37.9 0 0 1-6.732 5.7l-3.291-3.492a48.981 48.981 0 0 0 14.871-15.75h-14.319v-4.472h16.731a29.377 29.377 0 0 0 2.361-5.1l4.747.78a35.534 35.534 0 0 1-1.808 4.32h22.734zm-8.189 12.861v-4.069h-22.408v4.069zm0 8.19v-4.02h-22.408v4.02z" class="cls-1" data-name="Path 270"/>
                <path id="Path_271" d="M1069.887 313.175a24.057 24.057 0 0 1-2.651 7.587 4.861 4.861 0 0 1-4.232 2.687q-4.321 0-8.591-7.712a61.277 61.277 0 0 1-9.52 5.778l-2.563-3.819a58.627 58.627 0 0 0 10.425-6.154q-1.257-4.846-1.734-15.649h-10.75V303q3.842-.779 8.54-2.16l.1 4.472q-4.647 1.356-8.64 2.16v11.4a4.449 4.449 0 0 1-.805 2.914 3.694 3.694 0 0 1-2.034 1.244 22.606 22.606 0 0 1-4.421.288q-2.388 0-4.673-.125l-1.608-4.874q3.467.151 5.677.152a9.343 9.343 0 0 0 2.764-.214.944.944 0 0 0 .4-.917v-8.893q-5.526 1.056-10.123 1.532l-.829-4.27q4.976-.552 10.952-1.758v-8.063h-10.8v-4.372h10.8v-5.828q-3.465.528-8.741.98l-2.06-4.271q13.038-.777 21.779-4.044l2.613 3.793a67.653 67.653 0 0 1-8.892 2.563v6.807h10.7q-.1-3.114-.1-13.113h4.571q-.074 6.683 0 13.113h14.043v4.372h-13.891a114.522 114.522 0 0 0 .928 12.032 44.913 44.913 0 0 0 6.432-10.023l4.019 2.009q-4.2 8.416-9.018 12.812a19.947 19.947 0 0 0 2.75 4.421q1.269 1.407 1.947 1.407 1.758 0 3.14-7.939zm-1.787-26.025l-3.718 2.764a37.314 37.314 0 0 0-6.632-7.461l3.542-2.964a40.889 40.889 0 0 1 6.808 7.661z" class="cls-1" data-name="Path 271"/>
                <path id="Path_272" d="M1120.981 321.515h-32.555v1.785h-4.648v-20a41.614 41.614 0 0 1-4.873 4.27l-3.14-3.767a47.957 47.957 0 0 0 12.811-13.742h-11.228v-4.42h13.74a66.766 66.766 0 0 0 3.19-7.663l4.522 1.181q-1.206 3.518-2.512 6.482h23.965v4.42h-26.326a73.67 73.67 0 0 1-5.5 8.19v18.79h13.062v-12.005h-10.45v-4.371h10.45v-8.214h4.773v8.214h11.228v4.371h-11.228v12.008h14.72z" class="cls-1" data-name="Path 272"/>
                <path id="Path_273" d="M1144.649 314.306a3.612 3.612 0 0 1 2.563 1.017 3.372 3.372 0 0 1 .025 4.923 3.584 3.584 0 0 1-2.588 1.018 3.62 3.62 0 0 1-2.6-.993 3.444 3.444 0 0 1 .025-4.96 3.624 3.624 0 0 1 2.575-1.005zm2.94-32.556l-.678 27.557h-4.673l-.677-27.557z" class="cls-1" data-name="Path 273"/>
            </g>
        </g>
        <g id="Group_270" data-name="Group 270" transform="translate(-.702 1.244)">
            <path id="Path_274" d="M581.371 174.92h-8.8q2.4-10.669 9.206-16.417a24.1 24.1 0 0 1 16.066-5.747 26.555 26.555 0 0 1 12.577 3.079 22.787 22.787 0 0 1 9.03 8.3 20.586 20.586 0 0 1 3.2 10.906q0 11.141-11.082 17.649a25.153 25.153 0 0 1 10.2 7.388 23.61 23.61 0 0 1 5.629 15.362 27.4 27.4 0 0 1-3.87 13.984 26.838 26.838 0 0 1-10.554 10.291 30.787 30.787 0 0 1-14.952 3.635q-11.142 0-18.587-6.42t-9.734-18.854h8.444q2.227 8.385 6.391 12.137 5.334 4.749 13.6 4.749 9.381 0 15.069-5.629a17.976 17.976 0 0 0 5.687-13.192 17.073 17.073 0 0 0-2.843-9.44 17.918 17.918 0 0 0-7.623-6.626q-4.779-2.228-14.8-2.756V189.4a27.159 27.159 0 0 0 10.789-2.081 15.714 15.714 0 0 0 7.065-5.307 12.228 12.228 0 0 0 2.2-7.036 12.772 12.772 0 0 0-4.485-9.733 16.165 16.165 0 0 0-11.346-4.1 15.236 15.236 0 0 0-9.616 3.137q-4.047 3.136-6.861 10.64z" class="cls-2" data-name="Path 274"/>
        </g>
        <path id="Path_275" d="M668.78 174.675a20.1 20.1 0 0 1-6.585 7.317l-2.718-3.031a16.27 16.27 0 0 0 7-11.917h-7.735V154.5h12.439V166a18.142 18.142 0 0 1-2.401 8.675zm20.071 0a22.156 22.156 0 0 1-6.586 7.317l-2.822-3.031a16.275 16.275 0 0 0 7-11.917h-7.631V154.5h12.439V166a18.142 18.142 0 0 1-2.4 8.675z" class="cls-2" data-name="Path 275" transform="translate(-.702 1.244)"/>
    </g>
</svg>
